<svg width="1627" height="1629" viewBox="0 0 1627 1629" fill="none" xmlns="http://www.w3.org/2000/svg">
<path d="M597.756 399.943L622.538 453.456M608.733 375.56L637.2 443.404L666.388 430.841L643.566 360.108L676.938 348.704L694.597 419.647L726.945 412.126L714.841 336.082L751.809 329.555L760.497 405.147L791.926 400.471L789.424 328.026L829.868 330.667L828.682 403.262L853.277 404.922L866.836 331.38L903.547 336.685L891.147 406.042L920.437 414.16L939.58 343.494L977.689 357.754L952.345 428.524L976.727 439.501L1011.12 369.546L1049.05 386.621L1013.15 455.899L1038.99 470.067L1077.75 405.696L1109.44 429.378L1068.15 485.726L1088.52 507.208L1143.17 455.785L1169.29 480.58L1113.44 531.461L1130.92 550.55L1194.61 514.42L1215.13 539.591L1152.42 581.59L1169.21 609.424L1233.16 575.944L1252.23 605.163L1187.21 637.8L1197.8 665.738L1267.53 643.548L1279.62 679.404L1209.13 700.886L1213.48 731.442L1287.97 721.174L1294.15 753.281L1222.34 764.031L1221.64 797.747L1297.52 792.447L1297.04 828.074L1220.69 828.814L1218.17 864.969L1294.75 873.38L1291.91 898.17L1216.87 891.174L1210.03 919.23L1281.15 942.195L1268.24 977.294L1199.88 953.035L1188.09 979.223L1257.61 1013.78L1244.46 1042.98L1173.72 1011.13L1155.82 1039.64L1218.27 1081.87L1198.6 1107.05L1138.4 1065.46L1116.41 1087.78L1168.85 1145.78L1147.91 1164.96L1095.71 1112.85L1069.36 1133.58L1115.16 1195.1L1086.72 1211.62L1044.13 1152.63L1017.61 1168.92L1056.58 1233.53L1020.97 1251.53L989.233 1186.92L960.121 1197.71L982.973 1269.18L952.822 1279.86L924.943 1208.3L896.464 1212.86L908.538 1288.16L875.273 1291.29L864.401 1223.76L833.018 1225.93L834.24 1299.61L798.461 1302.69L800.912 1224.87L770.959 1222.24L762.051 1297.52L724.844 1290.9L736.987 1218.9L704.883 1210.6L684.762 1282.63L644.801 1270.07L674.57 1199.12L644.393 1187.35L609.582 1254.22L578.276 1240.12L614.291 1173.8L586.975 1159.69L549.304 1221.65L515.637 1196.72L562.699 1140.43L534.239 1120.02L484.831 1169.45L458.629 1146.44L510.627 1095.27L491.559 1073.29L433.106 1114.67L413.723 1088.57L471.981 1046.01L454.646 1019.38L392.582 1051.9L374.163 1020.44L439.358 992.225L424.31 963.729L356.362 985.995L345.893 946.527L413.675 923.825L407.132 897.348L335.935 905.118L333.532 875.074L403.961 866.596L400.264 833.797L329.654 837.85L328.892 808.182L398.853 806.372L401.493 773.168L327.559 764.501L335.634 723.245L409.25 742.268L417.399 706.476L344.596 685.647L355.424 650.337L423.65 674.898L437.609 643.893L368.977 612.995L384.29 578.98L450.889 614.393L465.99 589.696L402.448 545.884L430.767 511.932L479.271 560.196L502.892 534.266L454.268 483.051L482.298 460.192L526.812 515.71L553.94 492.445L508.508 432.53L541.957 412.11L578.373 471.948L608.223 453.89L574.277 389.372L608.733 375.56Z" stroke="#2D2D2D" stroke-width="2"/>
<path d="M667.83 368.136L681.894 426.961M736.831 349.965L743.384 409.391M809.968 349.947L809.462 406.557M880.411 352.698L869.278 409.592M954.524 365.79L935.791 421.073M1021.47 391.585L990.981 452.074M994.262 361.958L969.056 417.947M919.699 337.803L911.562 392.064M845.781 325.884L841.978 384.993M765.117 329.755L773.643 383.19M695.138 342.056L709.172 400.143M626.092 362.741L644.657 419.61M555.718 401.653L587.334 448.831M534.714 441.071L570.394 486.458M491.228 443.577L527.571 490.711M520.325 526.91L476.922 484.2M439.982 498.704L483.145 535.513M427.046 540.306L476.847 576.845M393.01 564.443L445.386 588.023M391.332 606.769L445.214 631.027M362.518 632.172L419.426 654.534M361.518 672.993L418.788 689.725M337.972 704.387L401.172 721.617M342.766 746.007L404.146 758.434M385.161 789.348L325.827 783.634M347.33 821.914L404.994 819.275M324.475 855.792L386.22 848.111M357.073 887.121L407.814 881.364M338.913 927.457L396.806 912.249M373.528 957.521L422.434 942.974M418.499 980.664L362.697 1007.31M403.937 1025.88L450.631 1004.18M398.014 1072.81L446.982 1045.26M434.738 1089.34L486.115 1055.63M444.078 1133.73L488.697 1097.34M484.008 1145.55L523.09 1103.78M493.98 1190.95L535.999 1137.83M540.64 1197.48L575.539 1147.3M561.376 1235.05L593.34 1181.74M604.155 1226.07L630.699 1177.56M627.9 1265L650.938 1213.83M686.989 1202.9L669.956 1260.04M715.853 1236.9L703.788 1292.65M752.312 1217.83L743.859 1275.21M781.508 1245.46L778.142 1304.4M815.274 1221.92L815.37 1278.8M850.882 1247.36L856.127 1300.05M880.118 1217.81L888.629 1267.25M917.671 1229.28L930.471 1286.09M939.651 1202.98L959.813 1248.26M982.969 1214.51L1001.96 1267.23M1004.06 1177.31L1031.43 1229.09M1039.68 1173.79L1073.34 1227.68M1054.31 1141.28L1095.76 1193.97M1093.93 1134.5L1134.31 1186.35M1105.56 1100.64L1148.39 1143.81M1144.27 1086.21L1185.55 1131.22M1147.59 1051.5L1197.83 1087.87M1177.12 1029.32L1234.93 1066.56M1180.55 993.568L1237.18 1023.77M1212.25 973.81L1265.83 997.932M1205.62 937.88L1265.51 953.619M1235.18 909.196L1289.96 922.631M1218.48 876.335L1277.14 883.554M1245.35 843.18L1301.8 850.489M1220.82 814.035L1275.51 810.778M1238.44 774.903L1302.91 772.43M1215.21 748.513L1271.37 737.956M1224.17 710.915L1288.61 693.224M1198.75 685.353L1257.09 666.728M1207.43 644.368L1264.42 621.513M1174.9 625.743L1227.89 598.914M1137.06 570.692L1191.05 535.991M1178.33 582.755L1228.98 553.066M1136.73 533.619L1184.56 492.52M1097.09 525.183L1144.24 478.349M1049.32 484.129L1085.98 430.038M1086 488.696L1129.24 440.1M1033.02 450.365L1066 389.184" stroke="#2D2D2D" stroke-width="2"/>
<path d="M760.321 551.571L767.788 597.244L788.46 570.417L760.321 551.571Z" fill="#0EE28E" stroke="#2D2D2D" stroke-width="2"/>
<path d="M774.22 600.632L822.572 597.823L797.212 578.848L774.22 600.632Z" fill="#0EE28E" stroke="#2D2D2D" stroke-width="2"/>
<rect x="730.434" y="554.145" width="17.8069" height="55.3683" transform="rotate(-14.4061 730.434 554.145)" fill="#0EE28E" stroke="#2D2D2D" stroke-width="2"/>
<path d="M924.459 572.721L903.734 614.1L936.208 604.485L924.459 572.721Z" fill="#0EE28E" stroke="#2D2D2D" stroke-width="2"/>
<path d="M834.623 596.699L838.049 550.547L811.675 571.792L834.623 596.699Z" fill="#0EE28E" stroke="#2D2D2D" stroke-width="2"/>
<path d="M961.871 650.064L992.271 615.169L958.425 616.372L961.871 650.064Z" fill="#0EE28E" stroke="#2D2D2D" stroke-width="2"/>
<path d="M822.864 541.206L774.512 544.016L799.872 562.991L822.864 541.206Z" fill="#0EE28E" stroke="#2D2D2D" stroke-width="2"/>
<path d="M980.723 597.041L938.562 573.203L949.595 602.892L980.723 597.041Z" fill="#0EE28E" stroke="#2D2D2D" stroke-width="2"/>
<path d="M909.662 621.617L951.823 645.455L940.79 615.766L909.662 621.617Z" fill="#0EE28E" stroke="#2D2D2D" stroke-width="2"/>
<rect x="684.166" y="573.295" width="17.8069" height="55.3683" transform="rotate(-27.1053 684.166 573.295)" fill="#0EE28E" stroke="#2D2D2D" stroke-width="2"/>
<rect x="850.809" y="545.275" width="17.8069" height="55.3683" transform="rotate(9.14734 850.809 545.275)" fill="#0EE28E" stroke="#2D2D2D" stroke-width="2"/>
<rect x="899.064" y="558.256" width="17.8069" height="55.3683" transform="rotate(21.648 899.064 558.256)" fill="#0EE28E" stroke="#2D2D2D" stroke-width="2"/>
<rect x="1001.16" y="620.983" width="17.8069" height="55.3683" transform="rotate(44.9309 1001.16 620.983)" fill="#0EE28E" stroke="#2D2D2D" stroke-width="2"/>
<rect x="1034.09" y="657.631" width="17.8069" height="55.3683" transform="rotate(57.3007 1034.09 657.631)" fill="#0EE28E" stroke="#2D2D2D" stroke-width="2"/>
<rect x="1081.73" y="768.861" width="17.8069" height="55.3683" transform="rotate(81.729 1081.73 768.861)" fill="#0EE28E" stroke="#2D2D2D" stroke-width="2"/>
<rect x="1085.05" y="815.885" width="17.8069" height="55.3683" transform="rotate(92.0689 1085.05 815.885)" fill="#0EE28E" stroke="#2D2D2D" stroke-width="2"/>
<rect x="1057.17" y="934.108" width="17.8069" height="55.3683" transform="rotate(116.976 1057.17 934.108)" fill="#0EE28E" stroke="#2D2D2D" stroke-width="2"/>
<rect x="1032.43" y="974.896" width="17.8069" height="55.3683" transform="rotate(129.062 1032.43 974.896)" fill="#0EE28E" stroke="#2D2D2D" stroke-width="2"/>
<rect x="939.219" y="1056.59" width="17.8069" height="55.3683" transform="rotate(154.168 939.219 1056.59)" fill="#0EE28E" stroke="#2D2D2D" stroke-width="2"/>
<rect x="896.1" y="1073.47" width="17.8069" height="55.3683" transform="rotate(164.073 896.1 1073.47)" fill="#0EE28E" stroke="#2D2D2D" stroke-width="2"/>
<rect x="769.104" y="1082.95" width="17.8069" height="55.3683" transform="rotate(-166.088 769.104 1082.95)" fill="#0EE28E" stroke="#2D2D2D" stroke-width="2"/>
<rect x="723.505" y="1070.47" width="17.8069" height="55.3683" transform="rotate(-157.179 723.505 1070.47)" fill="#0EE28E" stroke="#2D2D2D" stroke-width="2"/>
<rect x="623.414" y="1010.58" width="17.8069" height="55.3683" transform="rotate(-134.61 623.414 1010.58)" fill="#0EE28E" stroke="#2D2D2D" stroke-width="2"/>
<rect x="590.428" y="975.97" width="17.8069" height="55.3683" transform="rotate(-124.088 590.428 975.97)" fill="#0EE28E" stroke="#2D2D2D" stroke-width="2"/>
<rect x="542.073" y="859.543" width="17.8069" height="55.3683" transform="rotate(-100.38 542.073 859.543)" fill="#0EE28E" stroke="#2D2D2D" stroke-width="2"/>
<rect x="540.48" y="815.922" width="17.8069" height="55.3683" transform="rotate(-88.8024 540.48 815.922)" fill="#0EE28E" stroke="#2D2D2D" stroke-width="2"/>
<rect x="569.46" y="692.036" width="17.8069" height="55.3683" transform="rotate(-64.7428 569.46 692.036)" fill="#0EE28E" stroke="#2D2D2D" stroke-width="2"/>
<rect x="594.763" y="649.262" width="17.8069" height="55.3683" transform="rotate(-48.8926 594.763 649.262)" fill="#0EE28E" stroke="#2D2D2D" stroke-width="2"/>
<circle cx="717.343" cy="568.544" r="5.60229" transform="rotate(24.2372 717.343 568.544)" fill="#0EE28E" stroke="#2D2D2D" stroke-width="2"/>
<circle cx="880.057" cy="561.383" r="5.60229" transform="rotate(61.3733 880.057 561.383)" fill="#0EE28E" stroke="#2D2D2D" stroke-width="2"/>
<circle cx="724.777" cy="584.199" r="5.60229" transform="rotate(24.2372 724.777 584.199)" fill="#0EE28E" stroke="#2D2D2D" stroke-width="2"/>
<circle cx="876.534" cy="578.348" r="5.60229" transform="rotate(61.3733 876.534 578.348)" fill="#0EE28E" stroke="#2D2D2D" stroke-width="2"/>
<circle cx="731.396" cy="601.661" r="5.60229" transform="rotate(24.2372 731.396 601.661)" fill="#0EE28E" stroke="#2D2D2D" stroke-width="2"/>
<circle cx="871.272" cy="596.267" r="5.60229" transform="rotate(61.3733 871.272 596.267)" fill="#0EE28E" stroke="#2D2D2D" stroke-width="2"/>
<circle cx="943.183" cy="605.847" r="3.28936" transform="rotate(61.3733 943.183 605.847)" fill="#0EE28E" stroke="#2D2D2D" stroke-width="2"/>
<circle cx="952.603" cy="612.262" r="3.28936" transform="rotate(61.3733 952.603 612.262)" fill="#0EE28E" stroke="#2D2D2D" stroke-width="2"/>
<circle cx="1017.32" cy="648.638" r="3.28936" transform="rotate(61.3733 1017.32 648.638)" fill="#0EE28E" stroke="#2D2D2D" stroke-width="2"/>
<circle cx="1071.84" cy="803.246" r="3.28936" transform="rotate(101.892 1071.84 803.246)" fill="#0EE28E" stroke="#2D2D2D" stroke-width="2"/>
<circle cx="1033.08" cy="958.218" r="3.28936" transform="rotate(133.141 1033.08 958.218)" fill="#0EE28E" stroke="#2D2D2D" stroke-width="2"/>
<circle cx="903.47" cy="1060" r="3.28936" transform="rotate(177.27 903.47 1060)" fill="#0EE28E" stroke="#2D2D2D" stroke-width="2"/>
<circle cx="742.175" cy="1065.19" r="3.28936" transform="rotate(-148.905 742.175 1065.19)" fill="#0EE28E" stroke="#2D2D2D" stroke-width="2"/>
<circle cx="608.404" cy="981.257" r="3.28936" transform="rotate(-116.186 608.404 981.257)" fill="#0EE28E" stroke="#2D2D2D" stroke-width="2"/>
<circle cx="552.218" cy="827.834" r="3.28936" transform="rotate(-79.1091 552.218 827.834)" fill="#0EE28E" stroke="#2D2D2D" stroke-width="2"/>
<circle cx="593.741" cy="668.512" r="3.28936" transform="rotate(-43.8927 593.741 668.512)" fill="#0EE28E" stroke="#2D2D2D" stroke-width="2"/>
<circle cx="1004.52" cy="660.978" r="3.28936" transform="rotate(61.3733 1004.52 660.978)" fill="#0EE28E" stroke="#2D2D2D" stroke-width="2"/>
<circle cx="1054.1" cy="804.315" r="3.28936" transform="rotate(101.892 1054.1 804.315)" fill="#0EE28E" stroke="#2D2D2D" stroke-width="2"/>
<circle cx="1017.36" cy="949.926" r="3.28936" transform="rotate(133.141 1017.36 949.926)" fill="#0EE28E" stroke="#2D2D2D" stroke-width="2"/>
<circle cx="897.96" cy="1043.1" r="3.28936" transform="rotate(177.27 897.96 1043.1)" fill="#0EE28E" stroke="#2D2D2D" stroke-width="2"/>
<circle cx="747.007" cy="1048.09" r="3.28936" transform="rotate(-148.905 747.007 1048.09)" fill="#0EE28E" stroke="#2D2D2D" stroke-width="2"/>
<circle cx="621.712" cy="969.471" r="3.28936" transform="rotate(-116.186 621.712 969.471)" fill="#0EE28E" stroke="#2D2D2D" stroke-width="2"/>
<circle cx="569.939" cy="826.455" r="3.28936" transform="rotate(-79.1091 569.939 826.455)" fill="#0EE28E" stroke="#2D2D2D" stroke-width="2"/>
<circle cx="609.008" cy="677.606" r="3.28936" transform="rotate(-43.8927 609.008 677.606)" fill="#0EE28E" stroke="#2D2D2D" stroke-width="2"/>
<circle cx="991.394" cy="672.444" r="3.28936" transform="rotate(61.3733 991.394 672.444)" fill="#0EE28E" stroke="#2D2D2D" stroke-width="2"/>
<circle cx="1036.66" cy="804.501" r="3.28936" transform="rotate(101.892 1036.66 804.501)" fill="#0EE28E" stroke="#2D2D2D" stroke-width="2"/>
<circle cx="1002.36" cy="941.046" r="3.28936" transform="rotate(133.141 1002.36 941.046)" fill="#0EE28E" stroke="#2D2D2D" stroke-width="2"/>
<circle cx="893.378" cy="1026.28" r="3.28936" transform="rotate(177.27 893.378 1026.28)" fill="#0EE28E" stroke="#2D2D2D" stroke-width="2"/>
<circle cx="752.562" cy="1031.56" r="3.28936" transform="rotate(-148.905 752.562 1031.56)" fill="#0EE28E" stroke="#2D2D2D" stroke-width="2"/>
<circle cx="635.318" cy="958.575" r="3.28936" transform="rotate(-116.186 635.318 958.575)" fill="#0EE28E" stroke="#2D2D2D" stroke-width="2"/>
<circle cx="587.366" cy="825.966" r="3.28936" transform="rotate(-79.1091 587.366 825.966)" fill="#0EE28E" stroke="#2D2D2D" stroke-width="2"/>
<circle cx="623.534" cy="687.252" r="3.28936" transform="rotate(-43.8927 623.534 687.252)" fill="#0EE28E" stroke="#2D2D2D" stroke-width="2"/>
<path d="M1046.82 684.341L1005.05 704.254L1036.58 716.621L1046.82 684.341Z" fill="#0EE28E" stroke="#2D2D2D" stroke-width="2"/>
<path d="M1028.82 768.35L1074.24 759.498L1046.8 739.651L1028.82 768.35Z" fill="#0EE28E" stroke="#2D2D2D" stroke-width="2"/>
<path d="M1076.27 738.105L1057.66 693.392L1048.12 723.595L1076.27 738.105Z" fill="#0EE28E" stroke="#2D2D2D" stroke-width="2"/>
<path d="M1005.11 713.828L1023.73 758.54L1033.26 728.337L1005.11 713.828Z" fill="#0EE28E" stroke="#2D2D2D" stroke-width="2"/>
<circle cx="1038.68" cy="723.42" r="3.28936" transform="rotate(61.3733 1038.68 723.42)" fill="#0EE28E" stroke="#2D2D2D" stroke-width="2"/>
<circle cx="1041.99" cy="732.151" r="3.28936" transform="rotate(61.3733 1041.99 732.151)" fill="#0EE28E" stroke="#2D2D2D" stroke-width="2"/>
<path d="M1079.71 846.338L1034.55 836.209L1051.72 865.403L1079.71 846.338Z" fill="#0EE28E" stroke="#2D2D2D" stroke-width="2"/>
<path d="M1013.68 901.305L1054.88 922.389L1045.54 889.833L1013.68 901.305Z" fill="#0EE28E" stroke="#2D2D2D" stroke-width="2"/>
<path d="M1069.68 906.811L1082.64 860.144L1056.49 878.014L1069.68 906.811Z" fill="#0EE28E" stroke="#2D2D2D" stroke-width="2"/>
<path d="M1028.69 843.774L1015.73 890.441L1041.88 872.571L1028.69 843.774Z" fill="#0EE28E" stroke="#2D2D2D" stroke-width="2"/>
<circle cx="1049.18" cy="872.049" r="3.28936" transform="rotate(99.5015 1049.18 872.049)" fill="#0EE28E" stroke="#2D2D2D" stroke-width="2"/>
<circle cx="1046.39" cy="880.959" r="3.28936" transform="rotate(99.5015 1046.39 880.959)" fill="#0EE28E" stroke="#2D2D2D" stroke-width="2"/>
<path d="M1008.96 997.587L977.089 964.032L975.095 997.84L1008.96 997.587Z" fill="#0EE28E" stroke="#2D2D2D" stroke-width="2"/>
<path d="M923.51 1006.48L945.995 1046.94L956.367 1014.7L923.51 1006.48Z" fill="#0EE28E" stroke="#2D2D2D" stroke-width="2"/>
<path d="M966.96 1042.24L1003.71 1010.69L972.037 1010.97L966.96 1042.24Z" fill="#0EE28E" stroke="#2D2D2D" stroke-width="2"/>
<path d="M968.009 967.056L931.26 998.605L962.932 998.319L968.009 967.056Z" fill="#0EE28E" stroke="#2D2D2D" stroke-width="2"/>
<circle cx="969.28" cy="1001.94" r="3.28936" transform="rotate(133.332 969.28 1001.94)" fill="#0EE28E" stroke="#2D2D2D" stroke-width="2"/>
<circle cx="962.005" cy="1007.79" r="3.28936" transform="rotate(133.332 962.005 1007.79)" fill="#0EE28E" stroke="#2D2D2D" stroke-width="2"/>
<path d="M864.743 1075.18L857.289 1029.51L836.61 1056.33L864.743 1075.18Z" fill="#0EE28E" stroke="#2D2D2D" stroke-width="2"/>
<path d="M789.107 1034.43L784.921 1080.52L811.642 1059.71L789.107 1034.43Z" fill="#0EE28E" stroke="#2D2D2D" stroke-width="2"/>
<path d="M804.896 1088.45L853.032 1083.06L826.692 1065.46L804.896 1088.45Z" fill="#0EE28E" stroke="#2D2D2D" stroke-width="2"/>
<path d="M848.089 1026.89L799.952 1032.28L826.292 1049.87L848.089 1026.89Z" fill="#0EE28E" stroke="#2D2D2D" stroke-width="2"/>
<circle cx="829.5" cy="1056.45" r="3.28936" transform="rotate(167.59 829.5 1056.45)" fill="#0EE28E" stroke="#2D2D2D" stroke-width="2"/>
<circle cx="820.19" cy="1057.19" r="3.28936" transform="rotate(167.59 820.19 1057.19)" fill="#0EE28E" stroke="#2D2D2D" stroke-width="2"/>
<path d="M700.483 1055.62L721.853 1014.57L689.233 1023.68L700.483 1055.62Z" fill="#0EE28E" stroke="#2D2D2D" stroke-width="2"/>
<path d="M664.294 977.707L633.351 1012.12L667.212 1011.45L664.294 977.707Z" fill="#0EE28E" stroke="#2D2D2D" stroke-width="2"/>
<path d="M644.606 1030.42L686.392 1054.92L675.824 1025.06L644.606 1030.42Z" fill="#0EE28E" stroke="#2D2D2D" stroke-width="2"/>
<path d="M716.051 1006.97L674.264 982.473L684.833 1012.33L716.051 1006.97Z" fill="#0EE28E" stroke="#2D2D2D" stroke-width="2"/>
<circle cx="683.471" cy="1019.52" r="3.28936" transform="rotate(-155.64 683.471 1019.52)" fill="#0EE28E" stroke="#2D2D2D" stroke-width="2"/>
<circle cx="675.573" cy="1014.54" r="3.28936" transform="rotate(-155.64 675.573 1014.54)" fill="#0EE28E" stroke="#2D2D2D" stroke-width="2"/>
<path d="M581.019 943.061L622.155 921.857L590.257 910.478L581.019 943.061Z" fill="#0EE28E" stroke="#2D2D2D" stroke-width="2"/>
<path d="M596.405 858.534L551.277 868.796L579.324 887.779L596.405 858.534Z" fill="#0EE28E" stroke="#2D2D2D" stroke-width="2"/>
<path d="M549.915 890.24L569.915 934.352L578.507 903.866L549.915 890.24Z" fill="#0EE28E" stroke="#2D2D2D" stroke-width="2"/>
<path d="M621.8 912.293L601.8 868.182L593.207 898.667L621.8 912.293Z" fill="#0EE28E" stroke="#2D2D2D" stroke-width="2"/>
<circle cx="587.946" cy="903.747" r="3.28936" transform="rotate(-120.41 587.946 903.747)" fill="#0EE28E" stroke="#2D2D2D" stroke-width="2"/>
<circle cx="584.364" cy="895.127" r="3.28936" transform="rotate(-120.41 584.364 895.127)" fill="#0EE28E" stroke="#2D2D2D" stroke-width="2"/>
<path d="M545.602 783.497L590.836 793.278L573.445 764.217L545.602 783.497Z" fill="#0EE28E" stroke="#2D2D2D" stroke-width="2"/>
<path d="M611.21 728.024L569.851 707.259L579.434 739.742L611.21 728.024Z" fill="#0EE28E" stroke="#2D2D2D" stroke-width="2"/>
<path d="M555.167 722.945L542.565 769.714L568.578 751.641L555.167 722.945Z" fill="#0EE28E" stroke="#2D2D2D" stroke-width="2"/>
<path d="M596.639 785.67L609.242 738.9L583.229 756.973L596.639 785.67Z" fill="#0EE28E" stroke="#2D2D2D" stroke-width="2"/>
<circle cx="575.939" cy="757.553" r="3.28936" transform="rotate(-80.9403 575.939 757.553)" fill="#0EE28E" stroke="#2D2D2D" stroke-width="2"/>
<circle cx="578.655" cy="748.62" r="3.28936" transform="rotate(-80.9403 578.655 748.62)" fill="#0EE28E" stroke="#2D2D2D" stroke-width="2"/>
<path d="M616.996 633.422L650.699 665.138L650.795 631.271L616.996 633.422Z" fill="#0EE28E" stroke="#2D2D2D" stroke-width="2"/>
<path d="M701.816 619.752L677.1 580.625L668.551 613.396L701.816 619.752Z" fill="#0EE28E" stroke="#2D2D2D" stroke-width="2"/>
<path d="M656.433 586.49L621.51 620.049L653.116 617.989L656.433 586.49Z" fill="#0EE28E" stroke="#2D2D2D" stroke-width="2"/>
<path d="M659.594 661.615L694.517 628.055L662.911 630.116L659.594 661.615Z" fill="#0EE28E" stroke="#2D2D2D" stroke-width="2"/>
<circle cx="656.368" cy="626.85" r="3.28936" transform="rotate(-49.8808 656.368 626.85)" fill="#0EE28E" stroke="#2D2D2D" stroke-width="2"/>
<circle cx="663.306" cy="620.6" r="3.28936" transform="rotate(-49.8808 663.306 620.6)" fill="#0EE28E" stroke="#2D2D2D" stroke-width="2"/>
<path d="M770.036 503.76C761.864 504.441 754.435 505.264 748.642 506.247C753.005 488.783 768.273 449.775 794.442 433.464C797.27 437.993 801.22 444.073 805.819 450.814M770.036 503.76C773.509 492.294 785.527 465.652 805.819 450.814M770.036 503.76C775.174 503.331 780.606 502.958 786.109 502.637M805.819 450.814C809.149 455.693 812.82 460.919 816.653 466.154M786.109 502.637C789.049 493.693 799.274 473.876 816.653 466.154M786.109 502.637C792.277 502.276 798.535 501.979 804.57 501.74M816.653 466.154C819.908 470.6 823.281 475.052 826.662 479.304M804.57 501.74C806.128 497.507 812.728 487.094 826.662 479.304M804.57 501.74C812.26 501.435 819.587 501.222 825.905 501.089M826.662 479.304C829.907 483.386 833.16 487.284 836.323 490.813M825.905 501.089C837.927 500.835 846.292 500.866 846.542 501.086C843.342 498.305 839.89 494.793 836.323 490.813M825.905 501.089C827.215 498.178 831.133 492.048 836.323 490.813" stroke="#2D2D2D" stroke-width="2"/>
<path d="M814.119 432.365C806.187 432.485 799.334 432.858 794.138 433.325C794.318 437.75 844.52 502.347 846.627 503.295C849.919 498.448 854.082 493.57 858.7 488.819M814.119 432.365C819.959 445.312 837.05 474.728 858.7 488.819M814.119 432.365C819.664 432.282 825.737 432.323 832.14 432.544M858.7 488.819C862.129 485.29 865.809 481.831 869.567 478.506M832.14 432.544C836.186 443.949 849.337 469.109 869.567 478.506M832.14 432.544C838.563 432.766 845.318 433.168 852.207 433.806M869.567 478.506C872.429 475.976 875.335 473.522 878.212 471.175M852.207 433.806C854.284 443.295 862.392 464.053 878.212 471.175M852.207 433.806C857.875 434.331 863.632 435.016 869.369 435.892M878.212 471.175C880.25 469.513 882.273 467.904 884.254 466.359M869.369 435.892C869.351 441.294 872.303 454.949 884.254 466.359M869.369 435.892C874.311 436.647 879.238 437.543 884.079 438.601M884.254 466.359C887.229 464.037 890.11 461.858 892.806 459.856M884.079 438.601C884.246 443.074 886.226 453.588 892.806 459.856M884.079 438.601C887.942 439.444 891.75 440.391 895.467 441.451M892.806 459.856C895.792 457.639 898.551 455.638 900.958 453.902M895.467 441.451C900.697 442.941 905.747 444.655 910.517 446.62C910.372 447.17 906.643 449.801 900.958 453.902M895.467 441.451C895.788 444.304 897.335 450.789 900.958 453.902" stroke="#2D2D2D" stroke-width="2"/>
<path d="M848.252 503.18C857.417 487.686 883.179 454.657 912.915 446.49C914.334 451.638 916.384 458.592 918.869 466.365C920.668 471.992 922.695 478.048 924.875 484.158C926.727 489.349 928.689 494.578 930.716 499.618C932.662 504.457 934.668 509.12 936.692 513.406C938.975 518.237 941.282 522.588 943.555 526.167C943.379 525.885 935.369 523.468 923.775 520.281C917.682 518.607 910.598 516.72 903.142 514.818C897.289 513.326 891.207 511.824 885.192 510.41C879.826 509.148 874.514 507.956 869.467 506.9C861.44 505.222 854.084 503.891 848.252 503.18Z" fill="#0EE28E"/>
<path d="M869.467 506.9C861.44 505.222 854.084 503.891 848.252 503.18C857.417 487.686 883.179 454.657 912.915 446.49C914.334 451.638 916.384 458.592 918.869 466.365M869.467 506.9C876.067 496.902 895.187 474.797 918.869 466.365M869.467 506.9C874.514 507.956 879.826 509.148 885.192 510.41M918.869 466.365C920.668 471.992 922.695 478.048 924.875 484.158M885.192 510.41C890.562 502.677 906.016 486.601 924.875 484.158M885.192 510.41C891.207 511.824 897.289 513.326 903.142 514.818M924.875 484.158C926.727 489.349 928.689 494.578 930.716 499.618M903.142 514.818C905.843 511.206 915.139 503.109 930.716 499.618M903.142 514.818C910.598 516.72 917.682 518.607 923.775 520.281M930.716 499.618C932.662 504.457 934.668 509.12 936.692 513.406M923.775 520.281C935.369 523.468 943.379 525.885 943.555 526.167C941.282 522.588 938.975 518.237 936.692 513.406M923.775 520.281C925.861 517.866 931.365 513.108 936.692 513.406" stroke="#2D2D2D" stroke-width="2"/>
<path d="M943.007 528.314C941.258 526.804 911.573 450.569 912.664 446.276C917.777 447.311 924.452 448.909 932.088 451.058C937.427 452.56 943.235 454.332 949.309 456.371C955.402 458.416 961.762 460.729 968.182 463.306C973.464 465.426 978.787 467.726 984.035 470.202C988.557 472.336 993.023 474.6 997.361 476.995C1000.82 478.906 1004.2 480.9 1007.46 482.976C1012.05 485.896 1016.4 488.98 1020.41 492.225C1020.12 492.711 1015.79 494.168 1009.17 496.476C1006.37 497.454 1003.15 498.584 999.66 499.857C996.505 501.006 993.122 502.273 989.608 503.649C987.269 504.565 984.871 505.53 982.444 506.542C979.017 507.97 975.531 509.492 972.067 511.101C967.515 513.216 963.002 515.481 958.708 517.884C952.927 521.121 947.545 524.608 943.007 528.314Z" fill="#0EE28E"/>
<path d="M932.088 451.058C924.452 448.909 917.777 447.311 912.664 446.276C911.573 450.569 941.258 526.804 943.007 528.314C947.545 524.608 952.927 521.121 958.708 517.884M932.088 451.058C933.991 465.132 941.979 498.202 958.708 517.884M932.088 451.058C937.427 452.56 943.235 454.332 949.309 456.371M958.708 517.884C963.002 515.481 967.515 513.216 972.067 511.101M949.309 456.371C949.933 468.456 955.358 496.322 972.067 511.101M949.309 456.371C955.402 458.416 961.762 460.729 968.182 463.306M972.067 511.101C975.531 509.492 979.017 507.97 982.444 506.542M968.182 463.306C967.465 472.993 969.313 495.201 982.444 506.542M968.182 463.306C973.464 465.426 978.787 467.726 984.035 470.202M982.444 506.542C984.871 505.53 987.269 504.565 989.608 503.649M984.035 470.202C982.477 475.374 981.409 489.304 989.608 503.649M984.035 470.202C988.557 472.336 993.023 474.6 997.361 476.995M989.608 503.649C993.122 502.273 996.505 501.006 999.66 499.857M997.361 476.995C996.245 481.33 995.142 491.972 999.66 499.857M997.361 476.995C1000.82 478.906 1004.2 480.9 1007.46 482.976M999.66 499.857C1003.15 498.584 1006.37 497.454 1009.17 496.476M1007.46 482.976C1012.05 485.896 1016.4 488.98 1020.41 492.225C1020.12 492.711 1015.79 494.168 1009.17 496.476M1007.46 482.976C1006.96 485.802 1006.59 492.459 1009.17 496.476" stroke="#2D2D2D" stroke-width="2"/>
<path d="M960.394 537.227C953.339 533.046 946.808 529.41 941.518 526.854C955.196 515.151 990.246 492.213 1021.03 494.089C1020.71 499.419 1020.4 506.663 1020.24 514.822M960.394 537.227C969.87 529.896 995.105 515.152 1020.24 514.822M960.394 537.227C964.829 539.856 969.472 542.701 974.142 545.628M1020.24 514.822C1020.13 520.728 1020.09 527.114 1020.18 533.601M974.142 545.628C981.722 540.044 1001.54 529.822 1020.18 533.601M974.142 545.628C979.378 548.909 984.65 552.295 989.706 555.597M1020.18 533.601C1020.25 539.112 1020.42 544.695 1020.71 550.119M989.706 555.597C993.429 553.051 1004.84 548.391 1020.71 550.119M989.706 555.597C996.149 559.806 1002.24 563.88 1007.47 567.433M1020.71 550.119C1020.99 555.327 1021.38 560.388 1021.91 565.098M1007.47 567.433C1017.41 574.194 1024.21 579.068 1024.29 579.391C1023.29 575.27 1022.51 570.408 1021.91 565.098M1007.47 567.433C1010.22 565.82 1016.97 563.096 1021.91 565.098" stroke="#2D2D2D" stroke-width="2"/>
<path d="M1037.7 504.604C1031.17 500.104 1025.37 496.437 1020.86 493.805C1018.44 497.515 1021.91 579.252 1023.08 581.247C1028.57 579.204 1034.79 577.643 1041.31 576.447M1037.7 504.604C1034.96 518.539 1031.83 552.416 1041.31 576.447M1037.7 504.604C1042.27 507.751 1047.19 511.304 1052.28 515.195M1041.31 576.447C1046.15 575.559 1051.15 574.873 1056.14 574.343M1052.28 515.195C1048.97 526.834 1045.1 554.959 1056.14 574.343M1052.28 515.195C1057.39 519.098 1062.66 523.341 1067.9 527.854M1056.14 574.343C1059.94 573.938 1063.73 573.624 1067.44 573.379M1067.9 527.854C1064.1 536.79 1058.67 558.405 1067.44 573.379M1067.9 527.854C1072.22 531.567 1076.51 535.463 1080.68 539.502M1067.44 573.379C1070.06 573.206 1072.64 573.067 1075.15 572.955M1080.68 539.502C1077.53 543.893 1072.02 556.731 1075.15 572.955M1080.68 539.502C1084.27 542.981 1087.77 546.567 1091.1 550.235M1075.15 572.955C1078.92 572.788 1082.53 572.682 1085.89 572.613M1091.1 550.235C1088.64 553.977 1084.16 563.692 1085.89 572.613M1091.1 550.235C1093.76 553.161 1096.31 556.14 1098.72 559.157M1085.89 572.613C1089.61 572.537 1093.01 572.506 1095.98 572.487M1098.72 559.157C1102.12 563.403 1105.24 567.727 1107.99 572.093C1107.56 572.457 1102.99 572.44 1095.98 572.487M1098.72 559.157C1097.33 561.669 1094.83 567.85 1095.98 572.487" stroke="#2D2D2D" stroke-width="2"/>
<path d="M1021.55 579.451C1038.25 572.75 1078.81 562.26 1107.36 573.904C1105.35 578.85 1102.74 585.613 1099.97 593.291C1097.97 598.848 1095.89 604.885 1093.89 611.059C1092.2 616.302 1090.57 621.645 1089.1 626.876C1087.7 631.898 1086.45 636.818 1085.44 641.449C1084.31 646.672 1083.48 651.527 1083.1 655.749C1083.14 655.419 1078.26 648.622 1071.01 639.03C1067.2 633.989 1062.73 628.177 1057.98 622.125C1054.25 617.376 1050.34 612.479 1046.43 607.693C1042.94 603.422 1039.46 599.24 1036.1 595.328C1030.76 589.105 1025.74 583.568 1021.55 579.451Z" fill="#0EE28E"/>
<path d="M1036.1 595.328C1030.76 589.105 1025.74 583.568 1021.55 579.451C1038.25 572.75 1078.81 562.26 1107.36 573.904C1105.35 578.85 1102.74 585.613 1099.97 593.291M1036.1 595.328C1047.43 591.421 1076.06 585.545 1099.97 593.291M1036.1 595.328C1039.46 599.24 1042.94 603.422 1046.43 607.693M1099.97 593.291C1097.97 598.848 1095.89 604.885 1093.89 611.059M1046.43 607.693C1055.4 604.833 1077.45 601.504 1093.89 611.059M1046.43 607.693C1050.34 612.479 1054.25 617.376 1057.98 622.125M1093.89 611.059C1092.2 616.302 1090.57 621.645 1089.1 626.876M1057.98 622.125C1062.32 620.907 1074.62 620.152 1089.1 626.876M1057.98 622.125C1062.73 628.177 1067.2 633.989 1071.01 639.03M1089.1 626.876C1087.7 631.898 1086.45 636.818 1085.44 641.449M1071.01 639.03C1078.26 648.622 1083.14 655.419 1083.1 655.749C1083.48 651.527 1084.31 646.672 1085.44 641.449M1071.01 639.03C1074.13 638.386 1081.4 637.968 1085.44 641.449" stroke="#2D2D2D" stroke-width="2"/>
<path d="M1081.37 657.122C1080.9 654.859 1103.82 576.323 1107.3 573.584C1110.72 577.521 1115.04 582.855 1119.79 589.212C1123.11 593.656 1126.63 598.601 1130.2 603.918C1133.79 609.252 1137.42 614.961 1140.94 620.917C1143.84 625.817 1146.66 630.884 1149.31 636.046C1151.6 640.492 1153.76 645.009 1155.74 649.552C1157.32 653.176 1158.78 656.816 1160.1 660.449C1161.96 665.56 1163.53 670.656 1164.73 675.673C1164.2 675.878 1159.89 674.399 1153.23 672.196C1150.41 671.263 1147.18 670.2 1143.63 669.08C1140.43 668.069 1136.97 667.011 1133.35 665.961C1130.94 665.262 1128.45 664.566 1125.91 663.889C1122.32 662.934 1118.63 662.016 1114.9 661.181C1110 660.084 1105.04 659.13 1100.17 658.42C1093.62 657.463 1087.23 656.948 1081.37 657.122Z" fill="#0EE28E"/>
<path d="M1119.79 589.212C1115.04 582.855 1110.72 577.521 1107.3 573.584C1103.82 576.323 1080.9 654.859 1081.37 657.122C1087.23 656.948 1093.62 657.463 1100.17 658.42M1119.79 589.212C1112.72 601.531 1098.9 632.62 1100.17 658.42M1119.79 589.212C1123.11 593.656 1126.63 598.601 1130.2 603.918M1100.17 658.42C1105.04 659.13 1110 660.084 1114.9 661.181M1130.2 603.918C1123.34 613.881 1110.66 639.282 1114.9 661.181M1130.2 603.918C1133.79 609.252 1137.42 614.961 1140.94 620.917M1114.9 661.181C1118.63 662.016 1122.32 662.934 1125.91 663.889M1140.94 620.917C1134.47 628.161 1122.4 646.896 1125.91 663.889M1140.94 620.917C1143.84 625.817 1146.66 630.884 1149.31 636.046M1125.91 663.889C1128.45 664.566 1130.94 665.262 1133.35 665.961M1149.31 636.046C1144.92 639.196 1135.59 649.591 1133.35 665.961M1149.31 636.046C1151.6 640.492 1153.76 645.009 1155.74 649.552M1133.35 665.961C1136.97 667.011 1140.43 668.069 1143.63 669.08M1155.74 649.552C1152.21 652.309 1144.85 660.075 1143.63 669.08M1155.74 649.552C1157.32 653.176 1158.78 656.816 1160.1 660.449M1143.63 669.08C1147.18 670.2 1150.41 671.263 1153.23 672.196M1160.1 660.449C1161.96 665.56 1163.53 670.656 1164.73 675.673C1164.2 675.878 1159.89 674.399 1153.23 672.196M1160.1 660.449C1157.98 662.381 1153.63 667.436 1153.23 672.196" stroke="#2D2D2D" stroke-width="2"/>
<path d="M1091.43 678.346C1088.12 670.843 1084.92 664.088 1082.1 658.933C1100.03 657.36 1141.89 659.07 1165.84 678.488C1162.48 682.639 1158.02 688.355 1153.15 694.902M1091.43 678.346C1103.4 677.888 1132.51 680.559 1153.15 694.902M1091.43 678.346C1093.51 683.063 1095.64 688.076 1097.74 693.173M1153.15 694.902C1149.63 699.641 1145.88 704.816 1142.19 710.146M1097.74 693.173C1107.15 693.035 1129.22 696.237 1142.19 710.146M1097.74 693.173C1100.09 698.886 1102.41 704.705 1104.6 710.332M1142.19 710.146C1139.04 714.674 1135.94 719.315 1133.02 723.897M1104.6 710.332C1109.11 710.424 1121.11 713.267 1133.02 723.897M1104.6 710.332C1107.4 717.501 1109.99 724.359 1112.18 730.287M1133.02 723.897C1130.22 728.297 1127.6 732.643 1125.29 736.784M1112.18 730.287C1116.34 741.569 1119.04 749.487 1118.91 749.794C1120.5 745.863 1122.69 741.454 1125.29 736.784M1112.18 730.287C1115.36 730.577 1122.43 732.281 1125.29 736.784" stroke="#2D2D2D" stroke-width="2"/>
<path d="M1173.3 696.736C1170.6 689.277 1168.01 682.92 1165.87 678.16C1161.75 679.774 1117.06 748.301 1116.85 750.602C1122.51 752.132 1128.48 754.477 1134.47 757.292M1173.3 696.736C1162.96 706.479 1140.73 732.231 1134.47 757.292M1173.3 696.736C1175.19 701.951 1177.13 707.705 1179.01 713.829M1134.47 757.292C1138.93 759.383 1143.4 761.733 1147.77 764.202M1179.01 713.829C1169.55 721.375 1150.05 742.012 1147.77 764.202M1179.01 713.829C1180.89 719.973 1182.72 726.49 1184.36 733.211M1147.77 764.202C1151.09 766.081 1154.36 768.029 1157.52 769.983M1184.36 733.211C1176.07 738.269 1159.09 752.704 1157.52 769.983M1184.36 733.211C1185.71 738.739 1186.94 744.406 1187.99 750.115M1157.52 769.983C1159.75 771.367 1161.93 772.754 1164.04 774.122M1187.99 750.115C1182.87 751.859 1170.93 759.103 1164.04 774.122M1187.99 750.115C1188.88 755.033 1189.64 759.982 1190.22 764.903M1164.04 774.122C1167.21 776.178 1170.21 778.191 1172.98 780.086M1190.22 764.903C1186.05 766.521 1176.76 771.821 1172.98 780.086M1190.22 764.903C1190.69 768.83 1191.03 772.739 1191.24 776.598M1172.98 780.086C1176.05 782.185 1178.84 784.141 1181.26 785.85M1191.24 776.598C1191.54 782.028 1191.57 787.361 1191.27 792.511C1190.7 792.553 1187 789.887 1181.26 785.85M1191.24 776.598C1188.65 777.832 1183.03 781.41 1181.26 785.85" stroke="#2D2D2D" stroke-width="2"/>
<path d="M1121.19 774.779C1120.37 766.619 1119.42 759.205 1118.34 753.431C1135.87 757.492 1175.14 772.087 1191.9 797.972C1187.42 800.878 1181.41 804.931 1174.75 809.646M1121.19 774.779C1132.72 778.054 1159.56 789.612 1174.75 809.646M1121.19 774.779C1121.71 779.909 1122.18 785.333 1122.59 790.83M1174.75 809.646C1169.92 813.059 1164.76 816.819 1159.6 820.742M1122.59 790.83C1131.58 793.616 1151.58 803.499 1159.6 820.742M1122.59 790.83C1123.06 796.991 1123.46 803.243 1123.81 809.273M1159.6 820.742C1155.21 824.073 1150.81 827.522 1146.62 830.975M1123.81 809.273C1128.07 810.758 1138.59 817.178 1146.62 830.975M1123.81 809.273C1124.24 816.956 1124.58 824.279 1124.82 830.593M1146.62 830.975C1142.59 834.291 1138.75 837.61 1135.28 840.833M1124.82 830.593C1125.28 842.609 1125.4 850.974 1125.18 851.227C1127.91 847.98 1131.36 844.468 1135.28 840.833M1124.82 830.593C1127.76 831.853 1133.95 835.665 1135.28 840.833" stroke="#2D2D2D" stroke-width="2"/>
<path d="M1193.34 817.635C1193.08 809.707 1192.59 802.861 1192.03 797.673C1187.61 797.929 1123.89 849.236 1122.98 851.359C1127.88 854.566 1132.83 858.645 1137.66 863.181M1193.34 817.635C1180.49 823.697 1151.37 841.292 1137.66 863.181M1193.34 817.635C1193.51 823.178 1193.58 829.251 1193.47 835.657M1137.66 863.181C1141.24 866.549 1144.77 870.168 1148.16 873.869M1193.47 835.657C1182.13 839.899 1157.2 853.48 1148.16 873.869M1193.47 835.657C1193.36 842.083 1193.07 848.844 1192.55 855.743M1148.16 873.869C1150.73 876.686 1153.24 879.551 1155.63 882.387M1192.55 855.743C1183.1 857.982 1162.48 866.446 1155.63 882.387M1192.55 855.743C1192.12 861.418 1191.54 867.187 1190.76 872.938M1155.63 882.387C1157.33 884.395 1158.97 886.39 1160.55 888.344M1190.76 872.938C1185.36 873.013 1171.76 876.199 1160.55 888.344M1190.76 872.938C1190.09 877.893 1189.28 882.834 1188.3 887.693M1160.55 888.344C1162.93 891.279 1165.15 894.122 1167.2 896.783M1188.3 887.693C1183.83 887.937 1173.36 890.097 1167.2 896.783M1188.3 887.693C1187.53 891.569 1186.65 895.393 1185.65 899.128M1167.2 896.783C1169.47 899.731 1171.52 902.455 1173.3 904.832M1185.65 899.128C1184.25 904.382 1182.62 909.461 1180.74 914.264C1180.19 914.129 1177.49 910.446 1173.3 904.832M1185.65 899.128C1182.8 899.498 1176.35 901.156 1173.3 904.832" stroke="#2D2D2D" stroke-width="2"/>
<path d="M1125 852.398C1139.84 862.452 1171.72 889.611 1180.48 917.819C1175.72 918.584 1169.29 919.741 1162.11 921.212C1156.91 922.277 1151.33 923.507 1145.69 924.871C1140.9 926.03 1136.09 927.287 1131.45 928.623C1126.99 929.906 1122.71 931.261 1118.77 932.674C1114.34 934.268 1110.36 935.933 1107.09 937.649C1107.35 937.516 1109.31 930.403 1111.85 920.072C1113.19 914.643 1114.69 908.326 1116.19 901.666C1117.36 896.439 1118.54 891.002 1119.63 885.618C1120.61 880.814 1121.53 876.053 1122.32 871.522C1123.59 864.314 1124.56 857.688 1125 852.398Z" fill="#0EE28E"/>
<path d="M1122.32 871.522C1123.59 864.314 1124.56 857.688 1125 852.398C1139.84 862.452 1171.72 889.611 1180.48 917.819C1175.72 918.584 1169.29 919.741 1162.11 921.212M1122.32 871.522C1131.93 878.64 1153.33 898.545 1162.11 921.212M1122.32 871.522C1121.53 876.053 1120.61 880.814 1119.63 885.618M1162.11 921.212C1156.91 922.277 1151.33 923.507 1145.69 924.871M1119.63 885.618C1127.07 891.368 1142.69 907.268 1145.69 924.871M1119.63 885.618C1118.54 891.002 1117.36 896.439 1116.19 901.666M1145.69 924.871C1140.9 926.03 1136.09 927.287 1131.45 928.623M1116.19 901.666C1119.67 904.529 1127.59 913.929 1131.45 928.623M1116.19 901.666C1114.69 908.326 1113.19 914.643 1111.85 920.072M1131.45 928.623C1126.99 929.906 1122.71 931.261 1118.77 932.674M1111.85 920.072C1109.31 930.403 1107.35 937.516 1107.09 937.649C1110.36 935.933 1114.34 934.268 1118.77 932.674M1111.85 920.072C1114.19 922.244 1118.85 927.806 1118.77 932.674" stroke="#2D2D2D" stroke-width="2"/>
<path d="M1105.07 936.921C1106.41 935.471 1176.62 916.158 1180.67 917.611C1179.9 922.206 1178.65 928.178 1176.93 934.977C1175.73 939.729 1174.29 944.886 1172.61 950.259C1170.93 955.649 1169 961.257 1166.84 966.892C1165.05 971.528 1163.1 976.183 1160.98 980.752C1159.16 984.687 1157.21 988.558 1155.13 992.297C1153.47 995.28 1151.73 998.18 1149.92 1000.96C1147.36 1004.87 1144.64 1008.55 1141.75 1011.9C1141.29 1011.58 1139.76 1007.45 1137.35 1001.12C1136.33 998.438 1135.15 995.363 1133.83 992.015C1132.63 988.992 1131.32 985.748 1129.9 982.371C1128.96 980.123 1127.96 977.817 1126.92 975.478C1125.46 972.176 1123.9 968.81 1122.27 965.455C1120.12 961.047 1117.83 956.658 1115.42 952.457C1112.17 946.8 1108.71 941.483 1105.07 936.921Z" fill="#0EE28E"/>
<path d="M1176.93 934.977C1178.65 928.178 1179.9 922.206 1180.67 917.611C1176.62 916.158 1106.41 935.471 1105.07 936.921C1108.71 941.483 1112.17 946.8 1115.42 952.457M1176.93 934.977C1163.84 935.251 1133.2 939.132 1115.42 952.457M1176.93 934.977C1175.73 939.729 1174.29 944.886 1172.61 950.259M1115.42 952.457C1117.83 956.658 1120.12 961.047 1122.27 965.455M1172.61 950.259C1161.33 949.567 1135.46 951.636 1122.27 965.455M1172.61 950.259C1170.93 955.649 1169 961.257 1166.84 966.892M1122.27 965.455C1123.9 968.81 1125.46 972.176 1126.92 975.478M1166.84 966.892C1157.75 965.217 1137.04 964.589 1126.92 975.478M1166.84 966.892C1165.05 971.528 1163.1 976.183 1160.98 980.752M1126.92 975.478C1127.96 977.817 1128.96 980.123 1129.9 982.371M1160.98 980.752C1156.08 978.776 1143.01 976.334 1129.9 982.371M1160.98 980.752C1159.16 984.687 1157.21 988.558 1155.13 992.297M1129.9 982.371C1131.32 985.748 1132.63 988.992 1133.83 992.015M1155.13 992.297C1151.03 990.816 1141.03 988.686 1133.83 992.015M1155.13 992.297C1153.47 995.28 1151.73 998.18 1149.92 1000.96M1133.83 992.015C1135.15 995.363 1136.33 998.438 1137.35 1001.12M1149.92 1000.96C1147.36 1004.87 1144.64 1008.55 1141.75 1011.9C1141.29 1011.58 1139.76 1007.45 1137.35 1001.12M1149.92 1000.96C1147.25 1000.2 1141.01 999.163 1137.35 1001.12" stroke="#2D2D2D" stroke-width="2"/>
<path d="M1092.85 957.666C1096.94 950.388 1100.48 943.659 1102.96 938.227C1115.17 951.471 1139.3 985.719 1138.1 1016.76C1132.67 1016.67 1125.3 1016.68 1117 1016.88M1092.85 957.666C1100.52 966.876 1116.09 991.611 1117 1016.88M1092.85 957.666C1090.28 962.242 1087.49 967.036 1084.63 971.862M1117 1016.88C1110.99 1017.02 1104.5 1017.26 1097.91 1017.64M1084.63 971.862C1090.48 979.241 1101.32 998.727 1097.91 1017.64M1084.63 971.862C1081.41 977.272 1078.09 982.722 1074.85 987.953M1097.91 1017.64C1092.31 1017.96 1086.64 1018.37 1081.13 1018.9M1074.85 987.953C1077.52 991.586 1082.52 1002.86 1081.13 1018.9M1074.85 987.953C1070.72 994.617 1066.72 1000.93 1063.22 1006.34M1081.13 1018.9C1075.84 1019.41 1070.7 1020.02 1065.93 1020.76M1063.22 1006.34C1056.58 1016.63 1051.78 1023.69 1051.45 1023.78C1055.62 1022.59 1060.54 1021.6 1065.93 1020.76M1063.22 1006.34C1064.93 1009.04 1067.85 1015.7 1065.93 1020.76" stroke="#2D2D2D" stroke-width="2"/>
<path d="M1127.79 1033.99C1132.22 1027.22 1135.81 1021.23 1138.38 1016.58C1134.56 1014.31 1051.54 1021.38 1049.54 1022.64C1051.74 1028.08 1053.47 1034.26 1054.84 1040.77M1127.79 1033.99C1113.56 1031.84 1079.05 1030.18 1054.84 1040.77M1127.79 1033.99C1124.7 1038.72 1121.2 1043.83 1117.36 1049.12M1054.84 1040.77C1055.85 1045.6 1056.66 1050.6 1057.32 1055.59M1117.36 1049.12C1105.45 1046.3 1076.77 1043.64 1057.32 1055.59M1117.36 1049.12C1113.51 1054.43 1109.32 1059.92 1104.85 1065.39M1057.32 1055.59C1057.82 1059.4 1058.22 1063.2 1058.56 1066.91M1104.85 1065.39C1095.68 1061.95 1073.58 1057.44 1058.56 1066.91M1104.85 1065.39C1101.17 1069.89 1097.31 1074.38 1093.3 1078.75M1058.56 1066.91C1058.79 1069.54 1058.99 1072.13 1059.17 1074.65M1093.3 1078.75C1088.77 1075.78 1075.59 1070.8 1059.17 1074.65M1093.3 1078.75C1089.85 1082.51 1086.28 1086.18 1082.63 1089.7M1059.17 1074.65C1059.42 1078.44 1059.61 1082.06 1059.76 1085.44M1082.63 1089.7C1078.77 1087.39 1068.79 1083.31 1059.76 1085.44M1082.63 1089.7C1079.72 1092.5 1076.75 1095.2 1073.73 1097.76M1059.76 1085.44C1059.92 1089.17 1060.03 1092.6 1060.12 1095.58M1073.73 1097.76C1069.5 1101.36 1065.17 1104.69 1060.8 1107.65C1060.42 1107.22 1060.33 1102.63 1060.12 1095.58M1073.73 1097.76C1071.15 1096.47 1064.81 1094.23 1060.12 1095.58" stroke="#2D2D2D" stroke-width="2"/>
<path d="M1036.44 1036.57C1043.11 1031.16 1049.05 1026.07 1053.48 1021.83C1060.33 1038.52 1070.85 1079.1 1058.09 1107.85C1052.88 1105.88 1045.75 1103.32 1037.66 1100.62M1036.44 1036.57C1040.41 1047.9 1046.21 1076.56 1037.66 1100.62M1036.44 1036.57C1032.25 1039.98 1027.76 1043.52 1023.19 1047.05M1037.66 1100.62C1031.8 1098.66 1025.43 1096.63 1018.92 1094.69M1023.19 1047.05C1026.08 1056.02 1029.29 1078.11 1018.92 1094.69M1023.19 1047.05C1018.06 1051.02 1012.81 1054.98 1007.72 1058.77M1018.92 1094.69C1013.39 1093.04 1007.75 1091.45 1002.23 1090.03M1007.72 1058.77C1008.95 1063.11 1009.57 1075.45 1002.23 1090.03M1007.72 1058.77C1001.24 1063.59 995.019 1068.13 989.622 1072M1002.23 1090.03C996.932 1088.67 991.738 1087.46 986.846 1086.5M989.622 1072C979.352 1079.36 972.079 1084.32 971.729 1084.29C976.197 1084.63 981.33 1085.41 986.846 1086.5M989.622 1072C990.258 1075.13 990.594 1082.41 986.846 1086.5" stroke="#2D2D2D" stroke-width="2"/>
<path d="M1041.69 1120.45C1048.49 1115.63 1054.21 1111.25 1058.43 1107.78C1055.58 1104.32 972.707 1082.07 970.302 1082.56C970.4 1088.43 969.76 1094.84 968.65 1101.43M1041.69 1120.45C1028.74 1113.48 996.004 1099.91 968.65 1101.43M1041.69 1120.45C1036.93 1123.82 1031.64 1127.41 1025.95 1131.04M968.65 1101.43C967.825 1106.32 966.741 1111.3 965.507 1116.22M1025.95 1131.04C1015.5 1124.24 988.772 1111.76 965.507 1116.22M1025.95 1131.04C1020.25 1134.69 1014.14 1138.38 1007.78 1141.97M965.507 1116.22C964.567 1119.97 963.54 1123.68 962.475 1127.29M1007.78 1141.97C1000.2 1135.55 980.531 1123.62 962.475 1127.29M1007.78 1141.97C1002.55 1144.92 997.138 1147.8 991.63 1150.51M962.475 1127.29C961.72 1129.85 960.946 1132.35 960.17 1134.78M991.63 1150.51C988.356 1146.13 977.481 1136.87 960.17 1134.78M991.63 1150.51C986.885 1152.84 982.067 1155.05 977.226 1157.08M960.17 1134.78C959.004 1138.42 957.833 1141.9 956.714 1145.12M977.226 1157.08C974.356 1153.57 966.237 1146.26 956.714 1145.12M977.226 1157.08C973.362 1158.7 969.484 1160.2 965.616 1161.56M956.714 1145.12C955.475 1148.68 954.301 1151.94 953.271 1154.78M965.616 1161.56C960.173 1163.47 954.75 1165.09 949.417 1166.35C949.208 1165.82 950.839 1161.47 953.271 1154.78M965.616 1161.56C963.6 1159.45 958.308 1155.13 953.271 1154.78" stroke="#2D2D2D" stroke-width="2"/>
<path d="M950.492 1093.42C958.147 1090.2 965.041 1087.08 970.306 1084.32C971.739 1102.28 969.615 1144.14 949.661 1167.87C945.473 1164.46 939.705 1159.93 933.097 1154.98M950.492 1093.42C950.846 1105.4 947.863 1134.49 933.097 1154.98M950.492 1093.42C945.678 1095.44 940.564 1097.5 935.365 1099.54M933.097 1154.98C928.313 1151.39 923.089 1147.58 917.706 1143.81M935.365 1099.54C935.418 1108.96 931.961 1131.01 917.706 1143.81M935.365 1099.54C929.537 1101.83 923.602 1104.08 917.864 1106.21M917.706 1143.81C913.133 1140.62 908.446 1137.45 903.816 1134.47M917.864 1106.21C917.728 1110.72 914.729 1122.69 903.816 1134.47M917.864 1106.21C910.552 1108.92 903.559 1111.42 897.514 1113.54M903.816 1134.47C899.371 1131.62 894.978 1128.94 890.791 1126.58M897.514 1113.54C886.011 1117.57 877.939 1120.17 877.628 1120.04C881.609 1121.67 886.069 1123.92 890.791 1126.58M897.514 1113.54C897.191 1116.72 895.394 1123.77 890.791 1126.58" stroke="#2D2D2D" stroke-width="2"/>
<path d="M931.042 1175.11C938.648 1172.5 945.131 1169.98 949.988 1167.9C948.387 1163.76 879.158 1118.2 876.821 1117.96C875.214 1123.6 872.776 1129.55 869.86 1135.51M931.042 1175.11C921.236 1164.65 895.271 1142.08 869.86 1135.51M931.042 1175.11C925.725 1176.93 919.86 1178.8 913.618 1180.61M869.86 1135.51C867.694 1139.95 865.264 1144.39 862.715 1148.73M913.618 1180.61C906.038 1171.05 885.244 1151.29 862.715 1148.73M913.618 1180.61C907.357 1182.42 900.717 1184.17 893.872 1185.73M862.715 1148.73C860.775 1152.04 858.765 1155.28 856.75 1158.42M893.872 1185.73C888.809 1177.37 874.295 1160.2 856.75 1158.42M893.872 1185.73C888.241 1187.01 882.472 1188.17 876.66 1189.15M856.75 1158.42C855.323 1160.64 853.893 1162.8 852.483 1164.89M876.66 1189.15C874.934 1184.01 867.683 1171.97 852.483 1164.89M876.66 1189.15C871.654 1189.99 866.617 1190.69 861.61 1191.21M852.483 1164.89C850.365 1168.04 848.292 1171.01 846.34 1173.76M861.61 1191.21C860.005 1187.01 854.704 1177.65 846.34 1173.76M861.61 1191.21C857.616 1191.62 853.641 1191.92 849.716 1192.08M846.34 1173.76C844.178 1176.81 842.166 1179.58 840.406 1181.99M849.716 1192.08C844.196 1192.31 838.776 1192.28 833.544 1191.91C833.507 1191.34 836.251 1187.67 840.406 1181.99M849.716 1192.08C848.486 1189.47 844.902 1183.8 840.406 1181.99" stroke="#2D2D2D" stroke-width="2"/>
<path d="M875.899 1116.55C872.071 1134.16 857.924 1173.62 831.955 1190.56C828.935 1186.08 824.725 1180.07 819.833 1173.42C816.292 1168.6 812.394 1163.44 808.331 1158.28C804.88 1153.89 801.31 1149.51 797.739 1145.32C794.311 1141.3 790.881 1137.46 787.555 1133.99C783.805 1130.08 780.186 1126.64 776.849 1123.92C777.109 1124.14 785.589 1123.98 797.765 1123.46C804.164 1123.18 811.583 1122.8 819.366 1122.33C825.475 1121.95 831.807 1121.51 838.047 1121.01C843.614 1120.57 849.106 1120.07 854.299 1119.53C862.559 1118.66 870.061 1117.67 875.899 1116.55Z" fill="#0EE28E"/>
<path d="M854.299 1119.53C862.559 1118.66 870.061 1117.67 875.899 1116.55C872.071 1134.16 857.924 1173.62 831.955 1190.56C828.935 1186.08 824.725 1180.07 819.833 1173.42M854.299 1119.53C851.17 1131.1 839.896 1158.08 819.833 1173.42M854.299 1119.53C849.106 1120.07 843.614 1120.57 838.047 1121.01M819.833 1173.42C816.292 1168.6 812.394 1163.44 808.331 1158.28M838.047 1121.01C835.371 1130.05 825.682 1150.15 808.331 1158.28M838.047 1121.01C831.807 1121.51 825.475 1121.95 819.366 1122.33M808.331 1158.28C804.88 1153.89 801.31 1149.51 797.739 1145.32M819.366 1122.33C817.931 1126.61 811.596 1137.19 797.739 1145.32M819.366 1122.33C811.583 1122.8 804.164 1123.18 797.765 1123.46M797.739 1145.32C794.311 1141.3 790.881 1137.46 787.555 1133.99M797.765 1123.46C785.589 1123.98 777.109 1124.14 776.849 1123.92C780.186 1126.64 783.805 1130.08 787.555 1133.99M797.765 1123.46C796.536 1126.41 792.773 1132.64 787.555 1133.99" stroke="#2D2D2D" stroke-width="2"/>
<path d="M776.683 1121.71C778.851 1122.61 831.932 1186.25 832.265 1190.69C827.014 1191.27 820.081 1191.8 812.045 1192.1C806.428 1192.31 800.271 1192.4 793.774 1192.32C787.257 1192.24 780.396 1191.99 773.392 1191.51C767.63 1191.11 761.771 1190.55 755.926 1189.8C750.892 1189.15 745.868 1188.37 740.925 1187.42C736.981 1186.66 733.09 1185.79 729.286 1184.81C723.935 1183.44 718.758 1181.83 713.856 1179.97C713.985 1179.41 717.674 1176.69 723.296 1172.45C725.678 1170.66 728.406 1168.59 731.357 1166.3C734.021 1164.23 736.867 1161.98 739.804 1159.59C741.759 1157.99 743.754 1156.33 745.763 1154.62C748.599 1152.2 751.462 1149.68 754.275 1147.08C757.972 1143.66 761.584 1140.11 764.939 1136.49C769.458 1131.63 773.512 1126.64 776.683 1121.71Z" fill="#0EE28E"/>
<path d="M812.045 1192.1C820.081 1191.8 827.014 1191.27 832.265 1190.69C831.932 1186.25 778.851 1122.61 776.683 1121.71C773.512 1126.64 769.458 1131.63 764.939 1136.49M812.045 1192.1C805.686 1179.25 787.362 1150.14 764.939 1136.49M812.045 1192.1C806.428 1192.31 800.271 1192.4 793.774 1192.32M764.939 1136.49C761.584 1140.11 757.972 1143.66 754.275 1147.08M793.774 1192.32C789.285 1180.98 775.1 1156.05 754.275 1147.08M793.774 1192.32C787.257 1192.24 780.396 1191.99 773.392 1191.51M754.275 1147.08C751.462 1149.68 748.599 1152.2 745.763 1154.62M773.392 1191.51C770.965 1182.04 762.04 1161.41 745.763 1154.62M773.392 1191.51C767.63 1191.11 761.771 1190.55 755.926 1189.8M745.763 1154.62C743.754 1156.33 741.759 1157.99 739.804 1159.59M755.926 1189.8C755.761 1184.38 752.305 1170.76 739.804 1159.59M755.926 1189.8C750.892 1189.15 745.868 1188.37 740.925 1187.42M739.804 1159.59C736.867 1161.98 734.021 1164.23 731.357 1166.3M740.925 1187.42C740.603 1182.93 738.239 1172.44 731.357 1166.3M740.925 1187.42C736.981 1186.66 733.09 1185.79 729.286 1184.81M731.357 1166.3C728.406 1168.59 725.678 1170.66 723.296 1172.45M729.286 1184.81C723.935 1183.44 718.758 1181.83 713.856 1179.97C713.985 1179.41 717.674 1176.69 723.296 1172.45M729.286 1184.81C728.864 1181.96 727.074 1175.49 723.296 1172.45" stroke="#2D2D2D" stroke-width="2"/>
<path d="M756.431 1118.36C764.204 1120.1 771.337 1121.48 777.01 1122.24C767.284 1137.38 740.458 1169.58 710.959 1177.29C709.823 1172.21 708.156 1165.36 706.104 1157.69M756.431 1118.36C749.484 1128.12 729.692 1149.65 706.104 1157.69M756.431 1118.36C751.544 1117.27 746.404 1116.04 741.214 1114.75M706.104 1157.69C704.619 1152.14 702.931 1146.16 701.097 1140.13M741.214 1114.75C735.581 1122.29 719.672 1137.93 701.097 1140.13M741.214 1114.75C735.397 1113.29 729.518 1111.75 723.864 1110.22M701.097 1140.13C699.538 1135.01 697.874 1129.85 696.137 1124.87M723.864 1110.22C721.044 1113.75 711.551 1121.61 696.137 1124.87M723.864 1110.22C716.66 1108.28 709.821 1106.35 703.94 1104.64M696.137 1124.87C694.469 1120.1 692.734 1115.49 690.963 1111.26M703.94 1104.64C692.749 1101.38 685.03 1098.92 684.871 1098.64C686.92 1102.18 688.965 1106.48 690.963 1111.26M703.94 1104.64C701.78 1106.99 696.161 1111.61 690.963 1111.26" stroke="#2D2D2D" stroke-width="2"/>
<path d="M692.413 1172.6C699.781 1174.79 706.234 1176.43 711.188 1177.5C712.465 1173.3 687.143 1098.04 685.505 1096.54C680.884 1100.13 675.446 1103.5 669.63 1106.62M692.413 1172.6C691.239 1158.74 685.039 1126.15 669.63 1106.62M692.413 1172.6C687.262 1171.06 681.665 1169.26 675.821 1167.19M669.63 1106.62C665.311 1108.94 660.783 1111.12 656.226 1113.15M675.821 1167.19C675.801 1155.31 671.854 1127.85 656.226 1113.15M675.821 1167.19C669.958 1165.12 663.848 1162.78 657.691 1160.18M656.226 1113.15C652.757 1114.69 649.272 1116.15 645.848 1117.52M657.691 1160.18C658.866 1150.66 658.143 1128.81 645.848 1117.52M657.691 1160.18C652.626 1158.04 647.529 1155.72 642.514 1153.23M645.848 1117.52C643.423 1118.49 641.03 1119.41 638.696 1120.29M642.514 1153.23C644.292 1148.16 646.018 1134.48 638.696 1120.29M642.514 1153.23C638.194 1151.08 633.933 1148.81 629.806 1146.41M638.696 1120.29C635.189 1121.61 631.817 1122.81 628.673 1123.91M629.806 1146.41C631.11 1142.16 632.709 1131.71 628.673 1123.91M629.806 1146.41C626.512 1144.49 623.302 1142.5 620.213 1140.42M628.673 1123.91C625.191 1125.13 621.99 1126.2 619.199 1127.13M620.213 1140.42C615.867 1137.5 611.76 1134.43 607.993 1131.19C608.307 1130.72 612.609 1129.33 619.199 1127.13M620.213 1140.42C620.847 1137.65 621.532 1131.11 619.199 1127.13" stroke="#2D2D2D" stroke-width="2"/>
<path d="M664.866 1085.05C671.787 1089 678.197 1092.42 683.396 1094.81C669.651 1106.42 634.547 1129.31 604.084 1128.01C604.49 1122.83 604.912 1115.78 605.204 1107.85M664.866 1085.05C655.358 1092.34 630.113 1107.1 605.204 1107.85M664.866 1085.05C660.516 1082.57 655.964 1079.89 651.384 1077.12M605.204 1107.85C605.416 1102.11 605.559 1095.9 605.577 1089.6M651.384 1077.12C643.783 1082.68 623.979 1092.95 605.577 1089.6M651.384 1077.12C646.252 1074.03 641.085 1070.83 636.13 1067.7M605.577 1089.6C605.593 1084.25 605.519 1078.82 605.321 1073.56M636.13 1067.7C632.399 1070.24 621.015 1074.96 605.321 1073.56M636.13 1067.7C629.816 1063.72 623.846 1059.87 618.728 1056.5M605.321 1073.56C605.131 1068.5 604.827 1063.59 604.378 1059.02M618.728 1056.5C608.988 1050.1 602.333 1045.48 602.263 1045.17C603.181 1049.16 603.871 1053.87 604.378 1059.02M618.728 1056.5C615.972 1058.12 609.244 1060.88 604.378 1059.02" stroke="#2D2D2D" stroke-width="2"/>
<path d="M587.742 1118.08C594.14 1122.34 599.826 1125.81 604.246 1128.29C606.704 1124.64 604.617 1045.27 603.494 1043.35C598.019 1045.43 591.831 1047.05 585.355 1048.33M587.742 1118.08C590.692 1104.49 594.345 1071.52 585.355 1048.33M587.742 1118.08C583.27 1115.1 578.449 1111.73 573.471 1108.04M585.355 1048.33C580.546 1049.27 575.578 1050.02 570.625 1050.62M573.471 1108.04C576.946 1096.67 581.241 1069.27 570.625 1050.62M573.471 1108.04C568.477 1104.33 563.325 1100.3 558.204 1096M570.625 1050.62C566.855 1051.08 563.095 1051.45 559.42 1051.75M558.204 1096C562.124 1087.26 567.855 1066.16 559.42 1051.75M558.204 1096C553.992 1092.47 549.801 1088.76 545.739 1084.9M559.42 1051.75C556.818 1051.97 554.259 1052.15 551.77 1052.3M545.739 1084.9C548.928 1080.58 554.599 1068.01 551.77 1052.3M545.739 1084.9C542.24 1081.58 538.836 1078.16 535.596 1074.65M551.77 1052.3C548.032 1052.53 544.453 1052.69 541.126 1052.81M535.596 1074.65C538.091 1070.97 542.691 1061.45 541.126 1052.81M535.596 1074.65C533.01 1071.85 530.529 1069 528.186 1066.11M541.126 1052.81C537.441 1052.95 534.064 1053.04 531.123 1053.11M528.186 1066.11C524.89 1062.04 521.869 1057.89 519.218 1053.7C519.658 1053.34 524.178 1053.27 531.123 1053.11M528.186 1066.11C529.607 1063.65 532.184 1057.6 531.123 1053.11" stroke="#2D2D2D" stroke-width="2"/>
<path d="M601.348 1047.58C584.341 1053.44 543.341 1062.12 515.399 1049.91C517.649 1045.23 520.586 1038.81 523.722 1031.52C525.992 1026.24 528.366 1020.5 530.658 1014.63C532.605 1009.64 534.494 1004.56 536.21 999.576C537.858 994.792 539.348 990.101 540.578 985.679C541.964 980.693 543.022 976.049 543.605 971.999C543.557 972.316 548.096 979.028 554.869 988.512C558.428 993.497 562.604 999.247 567.055 1005.24C570.549 1009.94 574.212 1014.79 577.88 1019.53C581.152 1023.76 584.428 1027.91 587.591 1031.79C592.621 1037.97 597.364 1043.47 601.348 1047.58Z" fill="#0EE28E"/>
<path d="M587.591 1031.79C592.621 1037.97 597.364 1043.47 601.348 1047.58C584.341 1053.44 543.341 1062.12 515.399 1049.91C517.649 1045.23 520.586 1038.81 523.722 1031.52M587.591 1031.79C576.093 1035.15 547.222 1039.81 523.722 1031.52M587.591 1031.79C584.428 1027.91 581.152 1023.76 577.88 1019.53M523.722 1031.52C525.992 1026.24 528.366 1020.5 530.658 1014.63M577.88 1019.53C568.785 1021.97 546.608 1024.4 530.658 1014.63M577.88 1019.53C574.212 1014.79 570.549 1009.94 567.055 1005.24M530.658 1014.63C532.605 1009.64 534.494 1004.56 536.21 999.576M567.055 1005.24C562.66 1006.26 550.337 1006.55 536.21 999.576M567.055 1005.24C562.604 999.247 558.428 993.497 554.869 988.512M536.21 999.576C537.858 994.792 539.348 990.101 540.577 985.679M554.869 988.512C548.096 979.028 543.557 972.316 543.605 971.999C543.022 976.049 541.964 980.693 540.577 985.679M554.869 988.512C551.716 989.023 544.444 989.171 540.577 985.679" stroke="#2D2D2D" stroke-width="2"/>
<path d="M545.415 970.742C545.77 972.936 519.064 1047.71 515.456 1050.23C512.229 1046.32 508.177 1041.03 503.749 1034.75C500.653 1030.36 497.374 1025.48 494.065 1020.23C490.746 1014.97 487.396 1009.35 484.172 1003.5C481.519 998.682 478.951 993.707 476.554 988.647C474.49 984.288 472.552 979.865 470.796 975.424C469.395 971.881 468.11 968.327 466.969 964.785C465.364 959.801 464.043 954.842 463.086 949.972C463.626 949.793 467.864 951.368 474.4 953.721C477.169 954.717 480.349 955.853 483.836 957.055C486.983 958.14 490.38 959.279 493.949 960.416C496.324 961.173 498.775 961.93 501.279 962.67C504.815 963.716 508.456 964.728 512.136 965.662C516.972 966.889 521.877 967.981 526.703 968.835C533.202 969.985 539.56 970.704 545.415 970.742Z" fill="#0EE28E"/>
<path d="M503.749 1034.75C508.177 1041.03 512.229 1046.32 515.456 1050.23C519.064 1047.71 545.77 972.936 545.415 970.742C539.56 970.704 533.202 969.985 526.703 968.835M503.749 1034.75C511.405 1023.14 526.715 993.708 526.703 968.835M503.749 1034.75C500.653 1030.36 497.374 1025.48 494.065 1020.23M526.703 968.835C521.877 967.981 516.972 966.889 512.136 965.662M494.065 1020.23C501.409 1010.89 515.305 986.885 512.136 965.662M494.065 1020.23C490.746 1014.97 487.396 1009.35 484.172 1003.5M512.136 965.662C508.456 964.728 504.815 963.716 501.279 962.67M484.172 1003.5C490.986 996.754 503.947 979.146 501.279 962.67M484.172 1003.5C481.519 998.682 478.951 993.707 476.554 988.647M501.279 962.67C498.775 961.93 496.324 961.173 493.949 960.416M476.554 988.647C481.088 985.768 490.914 976.092 493.949 960.416M476.554 988.647C474.49 984.288 472.552 979.865 470.796 975.424M493.949 960.416C490.38 959.279 486.983 958.14 483.836 957.055M470.796 975.424C474.451 972.894 482.176 965.678 483.836 957.055M470.796 975.424C469.395 971.881 468.11 968.327 466.969 964.785M483.836 957.055C480.349 955.853 477.169 954.717 474.4 953.721M466.969 964.785C465.364 959.801 464.043 954.842 463.086 949.972C463.626 949.793 467.864 951.368 474.4 953.721M466.969 964.785C469.184 962.999 473.77 958.287 474.4 953.721" stroke="#2D2D2D" stroke-width="2"/>
<path d="M535.023 947.05C538.244 954.334 541.365 960.896 544.123 965.911C526.171 967.076 484.335 964.618 460.608 945.468C464.017 941.539 468.544 936.125 473.494 929.92M535.023 947.05C523.045 947.258 493.97 944.122 473.494 929.92M535.023 947.05C532.998 942.471 530.933 937.606 528.894 932.66M473.494 929.92C477.077 925.429 480.881 920.522 484.642 915.465M528.894 932.66C519.479 932.61 497.447 929.101 484.642 915.465M528.894 932.66C526.609 927.117 524.356 921.473 522.228 916.016M484.642 915.465C487.837 911.169 491.001 906.764 493.973 902.411M522.228 916.016C517.719 915.84 505.756 912.872 493.973 902.411M522.228 916.016C519.516 909.063 517.007 902.414 514.89 896.667M493.973 902.411C496.825 898.232 499.5 894.101 501.854 890.161M514.89 896.667C510.862 885.731 508.257 878.059 508.387 877.766C506.754 881.518 504.509 885.718 501.854 890.161M514.89 896.667C511.714 896.327 504.661 894.55 501.854 890.161" stroke="#2D2D2D" stroke-width="2"/>
<path d="M453.37 927.762C455.982 934.992 458.495 941.159 460.575 945.781C464.719 944.308 510.223 879.237 510.459 877.027C504.822 875.445 498.88 873.072 492.915 870.247M453.37 927.762C463.82 918.588 486.359 894.241 492.915 870.247M453.37 927.762C451.544 922.708 449.671 917.133 447.863 911.203M492.915 870.247C488.485 868.149 484.043 865.8 479.703 863.34M447.863 911.203C457.415 904.127 477.155 884.647 479.703 863.34M447.863 911.203C446.05 905.255 444.304 898.948 442.74 892.45M479.703 863.34C476.4 861.467 473.155 859.53 470.021 857.588M442.74 892.45C451.093 887.744 468.244 874.184 470.021 857.588M442.74 892.45C441.454 887.104 440.29 881.628 439.315 876.114M470.021 857.588C467.802 856.213 465.637 854.836 463.546 853.478M439.315 876.114C444.448 874.534 456.48 867.796 463.546 853.478M439.315 876.114C438.474 871.364 437.773 866.587 437.252 861.84M463.546 853.478C460.405 851.439 457.429 849.444 454.68 847.566M437.252 861.84C441.446 860.365 450.802 855.445 454.68 847.566M437.252 861.84C436.836 858.053 436.536 854.285 436.37 850.567M454.68 847.566C451.634 845.486 448.867 843.551 446.46 841.858M436.37 850.567C436.138 845.337 436.174 840.205 436.537 835.255C437.105 835.225 440.777 837.863 446.46 841.858M436.37 850.567C438.978 849.43 444.646 846.097 446.46 841.858" stroke="#2D2D2D" stroke-width="2"/>
<path d="M505.436 852.518C506.344 860.286 507.371 867.352 508.511 872.867C491.091 868.423 452.026 853.255 435.125 828.134C439.53 825.528 445.438 821.885 451.981 817.637M505.436 852.518C493.982 849.023 467.255 837.154 451.981 817.637M505.436 852.518C504.864 847.634 504.34 842.472 503.864 837.244M451.981 817.637C456.718 814.561 461.788 811.168 466.862 807.621M503.864 837.244C494.923 834.298 475.006 824.249 466.862 807.621M503.864 837.244C503.33 831.383 502.858 825.438 502.448 819.707M466.862 807.621C471.172 804.608 475.485 801.484 479.599 798.35M502.448 819.707C498.212 818.154 487.711 811.709 479.599 798.35M502.448 819.707C501.926 812.403 501.506 805.445 501.194 799.447M479.599 798.35C483.549 795.34 487.315 792.321 490.72 789.38M501.194 799.447C500.598 788.032 500.39 780.093 500.601 779.86C497.938 782.848 494.559 786.064 490.72 789.38M501.194 799.447C498.274 798.152 492.091 794.327 490.72 789.38" stroke="#2D2D2D" stroke-width="2"/>
<path d="M433.479 809.435C433.824 816.966 434.39 823.476 435.001 828.416C439.378 828.323 501.911 781.797 502.79 779.813C497.896 776.605 492.947 772.569 488.109 768.104M433.479 809.435C446.133 804.118 474.774 788.407 488.109 768.104M433.479 809.435C433.238 804.171 433.106 798.408 433.141 792.335M488.109 768.104C484.517 764.788 480.986 761.235 477.586 757.61M433.141 792.335C444.32 788.692 468.859 776.648 477.586 757.61M433.141 792.335C433.177 786.242 433.382 779.838 433.817 773.31M477.586 757.61C474.998 754.851 472.486 752.049 470.08 749.278M433.817 773.31C443.154 771.505 463.479 764.17 470.08 749.278M433.817 773.31C434.175 767.941 434.689 762.488 435.392 757.058M470.08 749.278C468.375 747.315 466.724 745.367 465.137 743.46M435.392 757.058C440.742 757.169 454.18 754.605 465.137 743.46M435.392 757.058C435.998 752.381 436.745 747.72 437.654 743.144M465.137 743.46C462.753 740.596 460.512 737.824 458.453 735.23M437.654 743.144C442.079 743.063 452.434 741.366 458.453 735.23M437.654 743.144C438.379 739.492 439.207 735.895 440.15 732.385M458.453 735.23C456.172 732.358 454.112 729.705 452.323 727.389M440.15 732.385C441.477 727.447 443.03 722.684 444.839 718.191C445.389 718.338 448.1 721.923 452.323 727.389M440.15 732.385C442.967 732.13 449.345 730.774 452.323 727.389" stroke="#2D2D2D" stroke-width="2"/>
<path d="M508.737 758.403C506.942 766.32 505.502 773.581 504.704 779.349C489.444 769.796 457.012 743.251 449.361 713.496C454.501 712.24 461.448 710.41 469.215 708.173M508.737 758.403C498.9 751.557 477.224 731.927 469.215 708.173M508.737 758.403C509.866 753.425 511.135 748.188 512.474 742.899M469.215 708.173C474.837 706.554 480.89 704.721 487 702.737M512.474 742.899C504.871 737.341 489.131 721.528 487 702.737M512.474 742.899C513.975 736.971 515.564 730.978 517.14 725.214M487 702.737C492.189 701.053 497.42 699.26 502.462 697.397M517.14 725.214C513.591 722.426 505.687 712.96 502.462 697.397M517.14 725.214C519.148 717.869 521.136 710.894 522.897 704.896M502.462 697.397C507.304 695.608 511.972 693.755 516.264 691.873M522.897 704.896C526.248 693.482 528.777 685.605 529.06 685.438C525.466 687.588 521.104 689.749 516.264 691.873M522.897 704.896C520.528 702.754 515.885 697.151 516.264 691.873" stroke="#2D2D2D" stroke-width="2"/>
<path d="M452.121 693.663C449.864 701.179 448.171 707.756 447.061 712.801C451.312 714.01 527.574 686.798 529.103 685.107C525.489 680.494 522.107 675.049 518.981 669.215M452.121 693.663C466.144 692.19 499.149 685.238 518.981 669.215M452.121 693.663C453.699 688.409 455.552 682.696 457.675 676.728M518.981 669.215C516.659 664.883 514.478 660.336 512.448 655.757M457.675 676.728C469.7 676.466 497.491 671.904 512.448 655.757M457.675 676.728C459.804 670.741 462.203 664.497 464.867 658.201M512.448 655.757C510.902 652.271 509.444 648.766 508.078 645.322M464.867 658.201C474.487 659.199 496.596 658.02 508.078 645.322M464.867 658.201C467.058 653.021 469.428 647.806 471.973 642.67M508.078 645.322C507.11 642.883 506.189 640.475 505.314 638.126M471.973 642.67C477.091 644.369 490.923 645.84 505.314 638.126M471.973 642.67C474.165 638.245 476.487 633.879 478.937 629.644M505.314 638.126C504.002 634.598 502.796 631.202 501.703 628.037M478.937 629.644C483.229 630.88 493.792 632.288 501.703 628.037M478.937 629.644C480.891 626.265 482.927 622.97 485.042 619.795M501.703 628.037C500.492 624.531 499.419 621.307 498.492 618.496M485.042 619.795C488.018 615.329 491.153 611.101 494.442 607.216C494.92 607.524 496.301 611.859 498.492 618.496M485.042 619.795C487.844 620.381 494.457 620.942 498.492 618.496" stroke="#2D2D2D" stroke-width="2"/>
<path d="M531.869 683.631C519.974 670.117 496.476 635.413 497.644 604.713C502.929 604.978 510.109 605.209 518.191 605.284C524.042 605.338 530.367 605.31 536.788 605.155C542.243 605.023 547.767 604.799 553.132 604.454C558.282 604.123 563.286 603.681 567.937 603.103C573.182 602.451 577.979 601.626 582.037 600.592C581.719 600.67 577.045 607.498 570.573 617.478C567.172 622.723 563.274 628.839 559.251 635.305C556.094 640.379 552.86 645.668 549.728 650.92C546.934 655.606 544.222 660.262 541.718 664.71C537.736 671.785 534.282 678.332 531.869 683.631Z" fill="#0EE28E"/>
<path d="M541.718 664.71C537.736 671.785 534.282 678.332 531.869 683.631C519.974 670.117 496.476 635.413 497.644 604.713C502.929 604.978 510.109 605.209 518.191 605.284M541.718 664.71C534.247 655.34 519.081 630.336 518.191 605.284M541.718 664.71C544.222 660.262 546.934 655.606 549.728 650.92M518.191 605.284C524.042 605.338 530.367 605.31 536.788 605.155M549.728 650.92C544.029 643.422 533.463 623.771 536.788 605.155M549.728 650.92C552.86 645.668 556.094 640.379 559.251 635.305M536.788 605.155C542.243 605.023 547.767 604.799 553.132 604.454M559.251 635.305C556.647 631.619 551.776 620.29 553.132 604.454M559.251 635.305C563.274 628.839 567.172 622.723 570.573 617.478M553.132 604.454C558.282 604.123 563.286 603.681 567.937 603.103M570.573 617.478C577.045 607.498 581.719 600.67 582.037 600.592C577.979 601.626 573.182 602.451 567.937 603.103M570.573 617.478C568.914 614.749 566.066 608.052 567.937 603.103" stroke="#2D2D2D" stroke-width="2"/>
<path d="M582.174 600.287C580.225 601.471 499.367 605.763 495.639 603.39C498.144 598.873 501.645 593.053 505.955 586.495C508.968 581.911 512.377 576.966 516.116 571.852C519.866 566.723 523.95 561.425 528.301 556.152C531.881 551.814 535.642 547.493 539.548 543.298C542.913 539.684 546.385 536.163 549.942 532.805C552.78 530.125 555.673 527.548 558.607 525.11C562.735 521.68 566.946 518.524 571.208 515.74C571.579 516.172 571.664 520.721 571.867 527.707C571.953 530.666 572.06 534.062 572.219 537.768C572.362 541.114 572.547 544.712 572.798 548.468C572.964 550.969 573.16 553.54 573.39 556.154C573.716 559.844 574.112 563.62 574.597 567.402C575.234 572.37 576.026 577.351 577.013 582.166C578.343 588.649 580.029 594.834 582.174 600.287Z" fill="#0EE28E"/>
<path d="M505.955 586.495C501.645 593.053 498.144 598.873 495.639 603.39C499.367 605.763 580.225 601.471 582.174 600.287C580.029 594.834 578.343 588.649 577.013 582.166M505.955 586.495C519.815 589.089 553.43 591.855 577.013 582.166M505.955 586.495C508.968 581.911 512.377 576.966 516.116 571.852M577.013 582.166C576.026 577.351 575.234 572.37 574.597 567.402M516.116 571.852C527.715 575.036 555.651 578.603 574.597 567.402M516.116 571.852C519.866 566.723 523.95 561.425 528.301 556.152M574.597 567.402C574.112 563.62 573.716 559.844 573.39 556.154M528.301 556.152C537.235 559.856 558.759 565.043 573.39 556.154M528.301 556.152C531.881 551.814 535.642 547.493 539.548 543.298M573.39 556.154C573.16 553.54 572.964 550.969 572.798 548.468M539.548 543.298C543.966 546.389 556.802 551.749 572.798 548.468M539.548 543.298C542.913 539.684 546.385 536.163 549.942 532.805M572.798 548.468C572.547 544.712 572.362 541.114 572.219 537.768M549.942 532.805C553.703 535.215 563.423 539.582 572.219 537.768M549.942 532.805C552.78 530.125 555.673 527.548 558.607 525.11M572.219 537.768C572.06 534.062 571.953 530.666 571.867 527.707M558.607 525.11C562.735 521.68 566.946 518.524 571.208 515.74C571.579 516.172 571.664 520.721 571.867 527.707M558.607 525.11C561.125 526.472 567.301 528.899 571.867 527.707" stroke="#2D2D2D" stroke-width="2"/>
<path d="M595.15 588.721C589.022 594.046 583.569 599.052 579.516 603.232C572.854 586.506 562.384 545.924 573.8 517.402C578.689 519.427 585.374 522.057 592.961 524.844M595.15 588.721C591.262 577.384 585.381 548.738 592.961 524.844M595.15 588.721C599.003 585.373 603.123 581.899 607.329 578.424M592.961 524.844C598.454 526.861 604.419 528.96 610.52 530.972M607.329 578.424C604.481 569.447 601.132 547.388 610.52 530.972M607.329 578.424C612.044 574.53 616.867 570.635 621.545 566.917M610.52 530.972C615.701 532.68 620.98 534.326 626.149 535.804M621.545 566.917C620.331 562.57 619.551 550.263 626.149 535.804M621.545 566.917C627.507 562.179 633.233 557.728 638.199 553.931M626.149 535.804C631.111 537.223 635.972 538.487 640.547 539.506M638.199 553.931C647.648 546.706 654.345 541.846 654.671 541.879C650.502 541.489 645.706 540.654 640.547 539.506M638.199 553.931C637.554 550.803 637.121 543.539 640.547 539.506" stroke="#2D2D2D" stroke-width="2"/>
<path d="M587.752 503.039C581.489 507.767 576.236 512.072 572.358 515.485C575.073 518.973 652.671 542.101 654.904 541.64C654.716 535.783 655.207 529.392 656.133 522.839M587.752 503.039C599.934 510.14 630.665 524.041 656.133 522.839M587.752 503.039C592.131 499.734 597.002 496.221 602.242 492.662M656.133 522.839C656.821 517.972 657.749 513.015 658.818 508.121M602.242 492.662C612.097 499.558 637.21 512.305 658.818 508.121M602.242 492.662C607.498 489.091 613.124 485.473 618.995 481.969M658.818 508.121C659.632 504.396 660.528 500.707 661.461 497.122M618.995 481.969C626.164 488.46 644.694 500.578 661.461 497.122M618.995 481.969C623.824 479.086 628.818 476.281 633.907 473.642M661.461 497.122C662.122 494.583 662.802 492.096 663.486 489.684M633.907 473.642C637.03 478.037 647.318 487.4 663.486 489.684M633.907 473.642C638.29 471.369 642.744 469.219 647.223 467.251M663.486 489.684C664.513 486.062 665.547 482.611 666.536 479.412M647.223 467.251C649.955 470.785 657.642 478.165 666.536 479.412M647.223 467.251C650.797 465.681 654.386 464.226 657.969 462.916M666.536 479.412C667.632 475.868 668.672 472.633 669.586 469.818M657.969 462.916C663.01 461.072 668.037 459.515 672.986 458.325C673.19 458.857 671.742 463.169 669.586 469.818M657.969 462.916C659.883 465.045 664.885 469.406 669.586 469.818" stroke="#2D2D2D" stroke-width="2"/>
<path d="M674.184 534.677C666.708 537.842 659.972 540.912 654.823 543.631C653.671 525.664 656.29 483.835 675.982 460.253C680.002 463.694 685.543 468.265 691.894 473.266M674.184 534.677C673.999 522.694 677.283 493.636 691.894 473.266M674.184 534.677C678.884 532.688 683.878 530.661 688.953 528.661M691.894 473.266C696.491 476.885 701.513 480.73 706.69 484.532M688.953 528.661C689.027 519.243 692.678 497.232 706.69 484.532M688.953 528.661C694.643 526.419 700.435 524.21 706.036 522.125M706.69 484.532C711.087 487.762 715.596 490.962 720.052 493.969M706.036 522.125C706.227 517.616 709.299 505.672 720.052 493.969M706.036 522.125C713.172 519.467 719.995 517.01 725.893 514.938M720.052 493.969C724.331 496.855 728.56 499.564 732.595 501.95M725.893 514.938C737.116 510.996 744.989 508.45 745.289 508.582C741.445 506.92 737.144 504.64 732.595 501.95M725.893 514.938C726.249 511.764 728.088 504.723 732.595 501.95" stroke="#2D2D2D" stroke-width="2"/>
<path d="M693.701 450.919C686.281 453.474 679.952 455.939 675.208 457.983C676.708 462.14 743.322 508.173 745.588 508.427C747.224 502.8 749.671 496.875 752.582 490.931M693.701 450.919C703.083 461.445 727.995 484.183 752.582 490.931M693.701 450.919C698.888 449.133 704.608 447.303 710.693 445.542M752.582 490.931C754.744 486.517 757.162 482.092 759.695 477.77M710.693 445.542C717.926 455.152 737.853 475.052 759.695 477.77M710.693 445.542C716.796 443.775 723.267 442.079 729.934 440.566M759.695 477.77C761.623 474.48 763.618 471.251 765.616 468.131M729.934 440.566C734.74 448.959 748.604 466.221 765.616 468.131M729.934 440.566C735.419 439.321 741.037 438.201 746.693 437.269M765.616 468.131C767.031 465.922 768.448 463.767 769.845 461.686M746.693 437.269C748.3 442.416 755.181 454.505 769.845 461.686M746.693 437.269C751.565 436.466 756.465 435.802 761.333 435.319M769.845 461.686C771.944 458.561 773.997 455.6 775.928 452.864M761.333 435.319C762.836 439.525 767.859 448.923 775.928 452.864M761.333 435.319C765.218 434.933 769.082 434.662 772.894 434.526M775.928 452.864C778.068 449.835 780.059 447.081 781.8 444.687M772.894 434.526C778.258 434.335 783.52 434.412 788.595 434.814C788.624 435.382 785.91 439.034 781.8 444.687M772.894 434.526C774.054 437.143 777.459 442.84 781.8 444.687" stroke="#2D2D2D" stroke-width="2"/>
<path d="M692.127 257.072L662.042 323.898L617.827 282.995L596.186 350.364L532.416 319.12L520.197 392.903L457.539 374.469L456.715 441.435L399.157 435.796L403.331 502.116L346.659 507.374L366.353 566.562L305.766 584.539L330.169 646.933L274.971 666.612L307.7 719.359L256.593 752.465L299.197 800.97L257.979 841.061L304.407 881.875L266.589 925.67L326.747 955.287L296.439 1005.72L353.316 1034.58L328.652 1089.37L391.325 1104.55L375.345 1165.78L436.396 1162.86L434.128 1230.62L497.859 1220.94L503.222 1283.81L568.055 1261.23L582.674 1330.08L640.886 1290.03L665.921 1360.68L720.988 1319.58L754.967 1370.35L801.364 1326.8L845.73 1371.39L880.583 1323.73L933.635 1360.28L962.168 1302.53L1023.45 1334.47L1036.41 1275.14L1094.72 1299.21L1101.88 1231.84L1168.33 1249.09L1167.89 1187.35L1228.82 1188.71L1218.11 1128.86L1291.04 1123.68L1262.03 1064.28L1323.07 1042.89L1296.72 987.221L1353 965.134L1319.55 909.165L1372.24 874.961L1332.25 825.463L1378.09 779.126L1322.15 744.166L1357.38 702.102L1304.67 670.409L1336.77 616.799L1272.85 596.348L1307.1 533.933L1237.9 525.222L1257.14 460.758L1187.42 461.228L1189.69 400.704L1123.33 407.392L1118.26 344.654L1056.32 365.642L1037.49 302.134L979.863 331.22L961.735 274.186L906.261 316.186L869.108 256.379L826.805 298.879L785.15 248.267L745.058 297.917L692.127 257.072Z" stroke="#2D2D2D" stroke-width="2"/>
<circle cx="647.859" cy="240.401" r="18.1467" transform="rotate(24.2372 647.859 240.401)" fill="black" stroke="#2D2D2D" stroke-width="2"/>
<circle cx="740.195" cy="221.874" r="18.1467" transform="rotate(24.2372 740.195 221.874)" fill="black" stroke="#2D2D2D" stroke-width="2"/>
<circle cx="833.576" cy="221.917" r="18.1467" transform="rotate(24.2372 833.576 221.917)" fill="black" stroke="#2D2D2D" stroke-width="2"/>
<circle cx="923.435" cy="229.792" r="18.1467" transform="rotate(24.2372 923.435 229.792)" fill="black" stroke="#2D2D2D" stroke-width="2"/>
<circle cx="1012.95" cy="251.268" r="18.1467" transform="rotate(24.2372 1012.95 251.268)" fill="black" stroke="#2D2D2D" stroke-width="2"/>
<circle cx="1101.06" cy="288.762" r="18.1467" transform="rotate(24.2372 1101.06 288.762)" fill="black" stroke="#2D2D2D" stroke-width="2"/>
<circle cx="1179.9" cy="345.251" r="18.1467" transform="rotate(24.2372 1179.9 345.251)" fill="black" stroke="#2D2D2D" stroke-width="2"/>
<circle cx="1244.77" cy="407.033" r="18.1467" transform="rotate(24.2372 1244.77 407.033)" fill="black" stroke="#2D2D2D" stroke-width="2"/>
<circle cx="1304.9" cy="476.1" r="18.1467" transform="rotate(24.2372 1304.9 476.1)" fill="black" stroke="#2D2D2D" stroke-width="2"/>
<circle cx="1352.84" cy="557.782" r="18.1467" transform="rotate(24.2372 1352.84 557.782)" fill="black" stroke="#2D2D2D" stroke-width="2"/>
<circle cx="1388.14" cy="648.252" r="18.1467" transform="rotate(24.2372 1388.14 648.252)" fill="black" stroke="#2D2D2D" stroke-width="2"/>
<circle cx="1407.33" cy="742.326" r="18.1467" transform="rotate(24.2372 1407.33 742.326)" fill="black" stroke="#2D2D2D" stroke-width="2"/>
<circle cx="1407.83" cy="834.506" r="18.1467" transform="rotate(24.2372 1407.83 834.506)" fill="black" stroke="#2D2D2D" stroke-width="2"/>
<circle cx="1399.59" cy="929.994" r="18.1467" transform="rotate(24.2372 1399.59 929.994)" fill="black" stroke="#2D2D2D" stroke-width="2"/>
<circle cx="1372" cy="1021.84" r="18.1467" transform="rotate(24.2372 1372 1021.84)" fill="black" stroke="#2D2D2D" stroke-width="2"/>
<circle cx="1336.23" cy="1101.3" r="18.1467" transform="rotate(24.2372 1336.23 1101.3)" fill="black" stroke="#2D2D2D" stroke-width="2"/>
<circle cx="1280.34" cy="1180.41" r="18.1467" transform="rotate(24.2372 1280.34 1180.41)" fill="black" stroke="#2D2D2D" stroke-width="2"/>
<circle cx="1220.54" cy="1250.51" r="18.1467" transform="rotate(24.2372 1220.54 1250.51)" fill="black" stroke="#2D2D2D" stroke-width="2"/>
<circle cx="1146.32" cy="1307.61" r="18.1467" transform="rotate(24.2372 1146.32 1307.61)" fill="black" stroke="#2D2D2D" stroke-width="2"/>
<circle cx="1066.33" cy="1353.41" r="18.1467" transform="rotate(24.2372 1066.33 1353.41)" fill="black" stroke="#2D2D2D" stroke-width="2"/>
<circle cx="975.923" cy="1390.18" r="18.1467" transform="rotate(24.2372 975.923 1390.18)" fill="black" stroke="#2D2D2D" stroke-width="2"/>
<circle cx="882.66" cy="1407.57" r="18.1467" transform="rotate(24.2372 882.66 1407.57)" fill="black" stroke="#2D2D2D" stroke-width="2"/>
<circle cx="791.595" cy="1413.63" r="18.1467" transform="rotate(24.2372 791.595 1413.63)" fill="black" stroke="#2D2D2D" stroke-width="2"/>
<circle cx="700.199" cy="1404.35" r="18.1467" transform="rotate(24.2372 700.199 1404.35)" fill="black" stroke="#2D2D2D" stroke-width="2"/>
<circle cx="609.29" cy="1377.9" r="18.1467" transform="rotate(24.2372 609.29 1377.9)" fill="black" stroke="#2D2D2D" stroke-width="2"/>
<circle cx="525.427" cy="1335.8" r="18.1467" transform="rotate(24.2372 525.427 1335.8)" fill="black" stroke="#2D2D2D" stroke-width="2"/>
<circle cx="445.538" cy="1289.7" r="18.1467" transform="rotate(24.2372 445.538 1289.7)" fill="black" stroke="#2D2D2D" stroke-width="2"/>
<circle cx="374.142" cy="1219.91" r="18.1467" transform="rotate(24.2372 374.142 1219.91)" fill="black" stroke="#2D2D2D" stroke-width="2"/>
<circle cx="323.404" cy="1149.27" r="18.1467" transform="rotate(24.2372 323.404 1149.27)" fill="black" stroke="#2D2D2D" stroke-width="2"/>
<circle cx="274.913" cy="1068.8" r="18.1467" transform="rotate(24.2372 274.913 1068.8)" fill="black" stroke="#2D2D2D" stroke-width="2"/>
<circle cx="238.533" cy="980.736" r="18.1467" transform="rotate(24.2372 238.533 980.736)" fill="black" stroke="#2D2D2D" stroke-width="2"/>
<circle cx="224.16" cy="888.83" r="18.1467" transform="rotate(24.2372 224.16 888.83)" fill="black" stroke="#2D2D2D" stroke-width="2"/>
<circle cx="215.208" cy="799.36" r="18.1467" transform="rotate(24.2372 215.208 799.36)" fill="black" stroke="#2D2D2D" stroke-width="2"/>
<circle cx="225.726" cy="702.003" r="18.1467" transform="rotate(24.2372 225.726 702.003)" fill="black" stroke="#2D2D2D" stroke-width="2"/>
<circle cx="252.716" cy="609.892" r="18.1467" transform="rotate(24.2372 252.716 609.892)" fill="black" stroke="#2D2D2D" stroke-width="2"/>
<circle cx="296.562" cy="525.366" r="18.1467" transform="rotate(24.2372 296.562 525.366)" fill="black" stroke="#2D2D2D" stroke-width="2"/>
<circle cx="340.919" cy="446.14" r="18.1467" transform="rotate(24.2372 340.919 446.14)" fill="black" stroke="#2D2D2D" stroke-width="2"/>
<circle cx="403.665" cy="375.919" r="18.1467" transform="rotate(24.2372 403.665 375.919)" fill="black" stroke="#2D2D2D" stroke-width="2"/>
<circle cx="479.476" cy="321.712" r="18.1467" transform="rotate(24.2372 479.476 321.712)" fill="black" stroke="#2D2D2D" stroke-width="2"/>
<circle cx="558.867" cy="275.636" r="18.1467" transform="rotate(24.2372 558.867 275.636)" fill="black" stroke="#2D2D2D" stroke-width="2"/>
</svg>
