<svg width="2202" height="2198" viewBox="0 0 2202 2198" fill="none" xmlns="http://www.w3.org/2000/svg">
<g opacity="0.46">
<path d="M1658.28 784.921L1586.16 821.327M1692.17 798.823L1600.6 840.937L1619.15 880.32L1714.94 845.801L1732.1 890.966L1635.78 918.426L1647.57 962.368L1751.13 942.278L1761.78 992.593L1658.68 1007.98L1666.54 1050.8L1765.61 1044.02L1763.87 1099.52L1664.41 1101.26L1663.28 1135.01L1764.6 1150.17L1759.03 1200.68L1663.5 1186.91L1653.74 1227.39L1751.38 1250.33L1733.61 1303.17L1635.54 1271.74L1621.64 1305.63L1719.02 1349.48L1697.39 1402.2L1600.88 1356.26L1582.67 1392.3L1672.6 1442.38L1641.64 1486.87L1562.58 1432.94L1534.11 1461.83L1607.04 1534.27L1574.3 1571.19L1502.06 1497.08L1476.73 1521.88L1529.14 1607.41L1495.63 1636.68L1435.22 1552.76L1397.89 1577.04L1446.69 1663.05L1407.56 1690.5L1359.87 1602.99L1322.11 1618.79L1355.71 1713.23L1307.18 1731.45L1274.51 1635.92L1232.87 1643.29L1250.37 1744.81L1206.7 1754.76L1188.66 1656.92L1142.46 1657.53L1153.23 1761.17L1104.43 1762.17L1099.88 1657.66L1050.26 1655.88L1042.29 1761.13L1008.22 1758.39L1014.32 1655.32L975.595 1647.25L947.439 1745.68L898.785 1729.64L928.84 1634.92L892.438 1619.98L848.34 1716.77L807.754 1700.12L848.086 1601.79L808.229 1578.6L753.295 1666.05L717.911 1640.29L772.062 1555.94L740.487 1526.86L663.495 1601.35L636.275 1573.57L705.2 1499.68L675.609 1464.57L593.488 1530.11L569.551 1491.94L648.357 1430.9L624.817 1395.34L538.158 1451.69L511.87 1403.76L598.863 1357.32L582.747 1317.96L485.948 1352.55L469.928 1311.76L566.619 1270.28L559.064 1231.5L456.514 1251.52L450.696 1206.11L542.647 1188.11L538.235 1145.24L437.411 1150.32L431.54 1101.47L538.2 1101.23L540.408 1060.1L436.933 1051.38L444.268 1000.13L543.42 1013.43L553.298 969.087L453.738 944.868L469.086 889.574L567.607 927.053L582.334 885.19L489.167 840.619L507.016 797.104L599.497 843.348L617.55 805.294L530.97 756.582L563.549 709.333L642.792 771.166L669.428 731.255L599.454 665.892L629.759 628.952L702.222 697.78L731.433 670.658L672.069 592.538L706.913 564.792L767.876 642.59L803.535 617.623L756.143 534.149L798.368 507.476L840.01 595.435L878.33 573.514L844.702 481.511L898.257 465.351L932.475 557.108L968.425 546.924L954.493 449.802L995.518 445.122L1010.38 541.161L1055.12 534.581L1046.31 438.092L1086.89 435.675L1092.6 531.382L1138.19 533.46L1146.64 431.831L1203.5 440.978L1180.86 542.652L1230.24 552.154L1255.39 451.51L1304.24 464.703L1273.76 559.254L1316.86 576.931L1355.99 481.533L1403.27 500.927L1357.86 593.751L1392.38 613.285L1449.43 524.258L1497.22 561.461L1433.38 630.104L1469.98 661.246L1537.85 592.302L1570.45 629.624L1496.49 693.14L1529.6 729.206L1609.53 664.231L1639.04 709.084L1558.79 761.711L1584.9 801.748L1671.67 752.285L1692.17 798.823Z" stroke="white" stroke-opacity="0.2" stroke-width="2"/>
<path d="M1705.07 879.392L1625.18 901.369M1733.14 973.027L1652.08 984.748M1736.55 1073.17L1659.02 1075.09M1736.04 1169.74L1657.63 1157.13M1721.54 1271.82L1644.98 1248.73M1689.32 1364.68L1605.09 1325.73M1728.63 1326.05L1650.8 1294.13M1758.25 1222.84L1683.58 1214.21M1771.15 1121.09L1690.05 1118.61M1762.12 1010.82L1689.35 1024.97M1742.04 915.577L1663.16 937.478M1710.53 821.996L1633.52 850.044M1654 727.44L1590.86 772.91M1599.05 700.505L1538.56 751.457M1593.61 641.081L1530.76 693.02M1480.86 684.774L1537.33 623.372M1515.76 573.465L1467.36 634.266M1458.2 557.677L1410.48 627.553M1423.58 512.191L1393.72 584.995M1365.55 511.851L1334.83 586.747M1329.44 473.575L1301.45 552.526M1273.5 474.093L1253.24 553.28M1229.43 443.306L1208.76 530.635M1172.66 451.795L1158.49 536.41M1115.28 511.845L1120.36 430.342M1068.94 461.554L1075.22 540.385M1021.5 431.829L1034.87 516.013M980.114 477.909L990.343 547.117M924.047 454.911L947.547 533.473M884.484 503.695L906.663 569.984M854.878 566.339L815.811 491.169M792.298 548.491L824.165 611.422M727.767 542.552L767.756 608.325M706.829 593.598L755.357 662.385M646.483 608.439L698.369 667.85M632.143 663.659L691.152 715.237M570.445 679.412L645.128 734.486M563.669 743.6L633.985 789.062M513.183 773.728L587.651 815.027M527.456 831.885L595.1 865.986M475.254 866.197L546.384 895.374M563.005 944.23L483.99 923.55M517.799 985.322L440.908 971.38M545.588 1034.36L466.638 1025.44M509.115 1075.61L428.255 1073.73M542.901 1120.75L465.024 1123.52M509.71 1170.69L437.821 1180.3M551.532 1209.35L484.223 1223.29M537.556 1261.3L460.367 1281.45M574.592 1290.17L513.528 1319.87M560.799 1350.02L489.5 1378.45M612.715 1377.18L543.08 1417.05M619.176 1425.78L546.946 1474.36M664.365 1444.31L594.141 1503.49M675.483 1498.24L606.364 1555.92M722.388 1512.59L665.253 1573.23M743.933 1564.94L684.213 1623.54M791.61 1567.87L744.131 1638.34M823.347 1607.29L775.021 1688.16M872.451 1610.32L833.716 1689.26M900.969 1652.81L870.419 1727.29M949.857 1642.07L931.077 1724.8M990.498 1681.23L974.636 1756.84M1034.72 1656.84L1027.55 1737.48M1081.36 1692.1L1073.96 1769.72M1120.13 1657.17L1127.12 1731.89M1174.52 1679.48L1180.89 1767.63M1209.58 1646.44L1226.63 1722.85M1261.47 1656.97L1288.67 1744.39M1295.3 1620.99L1323.5 1700.01M1351.81 1630.97L1385.74 1707.95M1375.81 1585.58L1414.99 1656.89M1449.44 1531.22L1499.44 1603.54M1434.83 1588.28L1477.82 1656.26M1500.18 1529.06L1558.66 1592.64M1509.9 1474.39L1576.2 1536.78M1563.9 1407.08L1639.65 1454.78M1559.34 1457.52L1627.88 1514.47M1609.37 1383.21L1694.67 1425.53" stroke="white" stroke-opacity="0.2" stroke-width="2"/>
<path d="M1434.08 1055.88L1461.02 1012.56L1392.64 1026.12L1434.08 1055.88Z" fill="#161616"/>
<path d="M1458.96 1013.99L1395.1 1026.65L1433.8 1054.44L1458.96 1013.99Z" stroke="white" stroke-opacity="0.2" stroke-width="2"/>
<path d="M1424.34 1066.12L1389.95 1032.2L1396.72 1105.75L1424.34 1066.12Z" fill="#161616"/>
<path d="M1391.2 1034.84L1397.47 1102.93L1423.03 1066.24L1391.2 1034.84Z" stroke="white" stroke-opacity="0.2" stroke-width="2"/>
<rect x="1454.22" y="972.016" width="27.1348" height="78.5926" transform="rotate(73.6594 1454.22 972.016)" fill="#161616"/>
<rect x="1453.54" y="973.257" width="25.1348" height="76.5926" transform="rotate(73.6594 1453.54 973.257)" stroke="white" stroke-opacity="0.2" stroke-width="2"/>
<path d="M1393.04 1259.6L1440.27 1240.3L1376.91 1211.2L1393.04 1259.6Z" fill="#161616"/>
<path d="M1437.75 1240.24L1378.59 1213.07L1393.65 1258.27L1437.75 1240.24Z" stroke="white" stroke-opacity="0.2" stroke-width="2"/>
<path d="M1432.96 1083.76L1396.63 1119.58L1466.29 1122.39L1432.96 1083.76Z" fill="#161616"/>
<path d="M1398.97 1118.67L1464.02 1121.3L1432.9 1085.22L1398.97 1118.67Z" stroke="white" stroke-opacity="0.2" stroke-width="2"/>
<path d="M1379.9 1287.2L1329.35 1294.1L1383.43 1338.09L1379.9 1287.2Z" fill="#161616"/>
<path d="M1331.77 1294.78L1382.27 1335.86L1378.97 1288.33L1331.77 1294.78Z" stroke="white" stroke-opacity="0.2" stroke-width="2"/>
<path d="M1442.6 1069.36L1476.98 1103.28L1470.21 1029.73L1442.6 1069.36Z" fill="#161616"/>
<path d="M1475.74 1100.64L1469.47 1032.55L1443.9 1069.24L1475.74 1100.64Z" stroke="white" stroke-opacity="0.2" stroke-width="2"/>
<path d="M1395.09 1275.21L1405.61 1322.35L1439.77 1256.87L1395.09 1275.21Z" fill="#161616"/>
<path d="M1405.99 1319.46L1437.62 1258.83L1396.25 1275.82L1405.99 1319.46Z" stroke="white" stroke-opacity="0.2" stroke-width="2"/>
<path d="M1380.23 1265.41L1369.71 1218.27L1335.55 1283.75L1380.23 1265.41Z" fill="#161616"/>
<path d="M1369.33 1221.16L1337.71 1281.78L1379.07 1264.8L1369.33 1221.16Z" stroke="white" stroke-opacity="0.2" stroke-width="2"/>
<rect x="1425.46" y="909.385" width="27.1347" height="78.5926" transform="rotate(60.9602 1425.46 909.385)" fill="#161616"/>
<rect x="1425.07" y="910.744" width="25.1347" height="76.5926" transform="rotate(60.9602 1425.07 910.744)" stroke="white" stroke-opacity="0.2" stroke-width="2"/>
<rect x="1472.53" y="1136.93" width="27.1347" height="78.5926" transform="rotate(97.2128 1472.53 1136.93)" fill="#161616"/>
<rect x="1471.41" y="1137.8" width="25.1347" height="76.5926" transform="rotate(97.2128 1471.41 1137.8)" stroke="white" stroke-opacity="0.2" stroke-width="2"/>
<rect x="1457.21" y="1203.96" width="27.1348" height="78.5926" transform="rotate(109.714 1457.21 1203.96)" fill="#161616"/>
<rect x="1455.93" y="1204.57" width="25.1348" height="76.5926" transform="rotate(109.714 1455.93 1204.57)" stroke="white" stroke-opacity="0.2" stroke-width="2"/>
<rect x="1376.23" y="1347.41" width="27.1348" height="78.5926" transform="rotate(132.996 1376.23 1347.41)" fill="#161616"/>
<rect x="1374.82" y="1347.46" width="25.1348" height="76.5926" transform="rotate(132.996 1374.82 1347.46)" stroke="white" stroke-opacity="0.2" stroke-width="2"/>
<rect x="1327.54" y="1394.6" width="27.1348" height="78.5926" transform="rotate(145.366 1327.54 1394.6)" fill="#161616"/>
<rect x="1326.15" y="1394.35" width="25.1348" height="76.5926" transform="rotate(145.366 1326.15 1394.35)" stroke="white" stroke-opacity="0.2" stroke-width="2"/>
<rect x="1177.13" y="1465.75" width="27.1348" height="78.5926" transform="rotate(169.795 1177.13 1465.75)" fill="#161616"/>
<rect x="1175.97" y="1464.94" width="25.1348" height="76.5926" transform="rotate(169.795 1175.97 1464.94)" stroke="white" stroke-opacity="0.2" stroke-width="2"/>
<rect x="1112.69" y="1472.73" width="27.1347" height="78.5926" transform="rotate(-179.866 1112.69 1472.73)" fill="#161616"/>
<rect x="1111.69" y="1471.73" width="25.1347" height="76.5926" transform="rotate(-179.866 1111.69 1471.73)" stroke="white" stroke-opacity="0.2" stroke-width="2"/>
<rect x="948.82" y="1440.47" width="27.1348" height="78.5926" transform="rotate(-154.959 948.82 1440.47)" fill="#161616"/>
<rect x="948.338" y="1439.14" width="25.1348" height="76.5926" transform="rotate(-154.959 948.338 1439.14)" stroke="white" stroke-opacity="0.2" stroke-width="2"/>
<rect x="891.434" y="1408.57" width="27.1347" height="78.5926" transform="rotate(-142.872 891.434 1408.57)" fill="#161616"/>
<rect x="891.24" y="1407.17" width="25.1347" height="76.5926" transform="rotate(-142.872 891.24 1407.17)" stroke="white" stroke-opacity="0.2" stroke-width="2"/>
<rect x="774.434" y="1284.66" width="27.1348" height="78.5926" transform="rotate(-117.766 774.434 1284.66)" fill="#161616"/>
<rect x="774.853" y="1283.31" width="25.1348" height="76.5926" transform="rotate(-117.766 774.853 1283.31)" stroke="white" stroke-opacity="0.2" stroke-width="2"/>
<rect x="749.008" y="1226.28" width="27.1348" height="78.5926" transform="rotate(-107.862 749.008 1226.28)" fill="#161616"/>
<rect x="749.653" y="1225.02" width="25.1348" height="76.5926" transform="rotate(-107.862 749.653 1225.02)" stroke="white" stroke-opacity="0.2" stroke-width="2"/>
<rect x="729.42" y="1052.17" width="27.1347" height="78.5926" transform="rotate(-78.0222 729.42 1052.17)" fill="#161616"/>
<rect x="730.606" y="1051.4" width="25.1347" height="76.5926" transform="rotate(-78.0222 730.606 1051.4)" stroke="white" stroke-opacity="0.2" stroke-width="2"/>
<rect x="744.252" y="988.895" width="27.1348" height="78.5926" transform="rotate(-69.1134 744.252 988.895)" fill="#161616"/>
<rect x="745.543" y="988.317" width="25.1348" height="76.5926" transform="rotate(-69.1134 745.543 988.317)" stroke="white" stroke-opacity="0.2" stroke-width="2"/>
<rect x="821.461" y="848.344" width="27.1348" height="78.5926" transform="rotate(-46.5441 821.461 848.344)" fill="#161616"/>
<rect x="822.875" y="848.306" width="25.1348" height="76.5926" transform="rotate(-46.5441 822.875 848.306)" stroke="white" stroke-opacity="0.2" stroke-width="2"/>
<rect x="867.34" y="801.223" width="27.1347" height="78.5926" transform="rotate(-36.0226 867.34 801.223)" fill="#161616"/>
<rect x="868.737" y="801.443" width="25.1347" height="76.5926" transform="rotate(-36.0226 868.737 801.443)" stroke="white" stroke-opacity="0.2" stroke-width="2"/>
<rect x="1024.8" y="728.889" width="27.1347" height="78.5926" transform="rotate(-12.3146 1024.8 728.889)" fill="#161616"/>
<rect x="1025.99" y="729.652" width="25.1347" height="76.5926" transform="rotate(-12.3146 1025.99 729.652)" stroke="white" stroke-opacity="0.2" stroke-width="2"/>
<rect x="1084.69" y="724.387" width="27.1348" height="78.5926" transform="rotate(-0.736853 1084.69 724.387)" fill="#161616"/>
<rect x="1085.71" y="725.374" width="25.1348" height="76.5926" transform="rotate(-0.736853 1085.71 725.374)" stroke="white" stroke-opacity="0.2" stroke-width="2"/>
<rect x="1256.33" y="757.885" width="27.1348" height="78.5926" transform="rotate(23.3227 1256.33 757.885)" fill="#161616"/>
<rect x="1256.85" y="759.199" width="25.1348" height="76.5926" transform="rotate(23.3227 1256.85 759.199)" stroke="white" stroke-opacity="0.2" stroke-width="2"/>
<rect x="1316.58" y="790.426" width="27.1348" height="78.5926" transform="rotate(39.1729 1316.58 790.426)" fill="#161616"/>
<rect x="1316.72" y="791.833" width="25.1348" height="76.5926" transform="rotate(39.1729 1316.72 791.833)" stroke="white" stroke-opacity="0.2" stroke-width="2"/>
<circle cx="1432.96" cy="956.456" r="9.04528" transform="rotate(112.303 1432.96 956.456)" fill="#161616"/>
<circle cx="1432.96" cy="956.456" r="8.04528" transform="rotate(112.303 1432.96 956.456)" stroke="white" stroke-opacity="0.2" stroke-width="2"/>
<circle cx="1450.3" cy="1178.91" r="9.04528" transform="rotate(149.439 1450.3 1178.91)" fill="#161616"/>
<circle cx="1450.3" cy="1178.91" r="8.04528" transform="rotate(149.439 1450.3 1178.91)" stroke="white" stroke-opacity="0.2" stroke-width="2"/>
<circle cx="1411.87" cy="967.354" r="9.04528" transform="rotate(112.303 1411.87 967.354)" fill="#161616"/>
<circle cx="1411.87" cy="967.354" r="8.04528" transform="rotate(112.303 1411.87 967.354)" stroke="white" stroke-opacity="0.2" stroke-width="2"/>
<circle cx="1426.9" cy="1174.87" r="9.04528" transform="rotate(149.439 1426.9 1174.87)" fill="#161616"/>
<circle cx="1426.9" cy="1174.87" r="8.04528" transform="rotate(149.439 1426.9 1174.87)" stroke="white" stroke-opacity="0.2" stroke-width="2"/>
<circle cx="1388.27" cy="977.229" r="9.04528" transform="rotate(112.303 1388.27 977.229)" fill="#161616"/>
<circle cx="1388.27" cy="977.229" r="8.04528" transform="rotate(112.303 1388.27 977.229)" stroke="white" stroke-opacity="0.2" stroke-width="2"/>
<circle cx="1402.13" cy="1168.49" r="9.04528" transform="rotate(149.439 1402.13 1168.49)" fill="#161616"/>
<circle cx="1402.13" cy="1168.49" r="8.04528" transform="rotate(149.439 1402.13 1168.49)" stroke="white" stroke-opacity="0.2" stroke-width="2"/>
<circle cx="1392.33" cy="1267.4" r="5.87652" transform="rotate(149.439 1392.33 1267.4)" fill="#161616"/>
<circle cx="1392.33" cy="1267.4" r="4.87652" transform="rotate(149.439 1392.33 1267.4)" stroke="white" stroke-opacity="0.2" stroke-width="2"/>
<circle cx="1383.99" cy="1280.59" r="5.87652" transform="rotate(149.439 1383.99 1280.59)" fill="#161616"/>
<circle cx="1383.99" cy="1280.59" r="4.87652" transform="rotate(149.439 1383.99 1280.59)" stroke="white" stroke-opacity="0.2" stroke-width="2"/>
<circle cx="1337.18" cy="1370.88" r="5.87652" transform="rotate(149.439 1337.18 1370.88)" fill="#161616"/>
<circle cx="1337.18" cy="1370.88" r="4.87652" transform="rotate(149.439 1337.18 1370.88)" stroke="white" stroke-opacity="0.2" stroke-width="2"/>
<circle cx="1128.01" cy="1452.68" r="5.87652" transform="rotate(-170.042 1128.01 1452.68)" fill="#161616"/>
<circle cx="1128.01" cy="1452.68" r="4.87652" transform="rotate(-170.042 1128.01 1452.68)" stroke="white" stroke-opacity="0.2" stroke-width="2"/>
<circle cx="914.034" cy="1406.78" r="5.87652" transform="rotate(-138.793 914.034 1406.78)" fill="#161616"/>
<circle cx="914.034" cy="1406.78" r="4.87652" transform="rotate(-138.793 914.034 1406.78)" stroke="white" stroke-opacity="0.2" stroke-width="2"/>
<circle cx="768.678" cy="1234.02" r="5.87652" transform="rotate(-94.6642 768.678 1234.02)" fill="#161616"/>
<circle cx="768.678" cy="1234.02" r="4.87652" transform="rotate(-94.6642 768.678 1234.02)" stroke="white" stroke-opacity="0.2" stroke-width="2"/>
<circle cx="754.112" cy="1013.42" r="5.87652" transform="rotate(-60.8399 754.112 1013.42)" fill="#161616"/>
<circle cx="754.112" cy="1013.42" r="4.87652" transform="rotate(-60.8399 754.112 1013.42)" stroke="white" stroke-opacity="0.2" stroke-width="2"/>
<circle cx="862.847" cy="826.384" r="5.87652" transform="rotate(-28.1206 862.847 826.384)" fill="#161616"/>
<circle cx="862.847" cy="826.384" r="4.87652" transform="rotate(-28.1206 862.847 826.384)" stroke="white" stroke-opacity="0.2" stroke-width="2"/>
<circle cx="1070.32" cy="742.36" r="5.87652" transform="rotate(8.95641 1070.32 742.36)" fill="#161616"/>
<circle cx="1070.32" cy="742.36" r="4.87652" transform="rotate(8.95641 1070.32 742.36)" stroke="white" stroke-opacity="0.2" stroke-width="2"/>
<circle cx="1290.38" cy="791.843" r="5.87652" transform="rotate(44.1728 1290.38 791.843)" fill="#161616"/>
<circle cx="1290.38" cy="791.843" r="4.87652" transform="rotate(44.1728 1290.38 791.843)" stroke="white" stroke-opacity="0.2" stroke-width="2"/>
<circle cx="1319.69" cy="1353.93" r="5.87652" transform="rotate(149.439 1319.69 1353.93)" fill="#161616"/>
<circle cx="1319.69" cy="1353.93" r="4.87652" transform="rotate(149.439 1319.69 1353.93)" stroke="white" stroke-opacity="0.2" stroke-width="2"/>
<circle cx="1125.73" cy="1428.44" r="5.87652" transform="rotate(-170.042 1125.73 1428.44)" fill="#161616"/>
<circle cx="1125.73" cy="1428.44" r="4.87652" transform="rotate(-170.042 1125.73 1428.44)" stroke="white" stroke-opacity="0.2" stroke-width="2"/>
<circle cx="924.657" cy="1384.87" r="5.87652" transform="rotate(-138.793 924.657 1384.87)" fill="#161616"/>
<circle cx="924.657" cy="1384.87" r="4.87652" transform="rotate(-138.793 924.657 1384.87)" stroke="white" stroke-opacity="0.2" stroke-width="2"/>
<circle cx="791.563" cy="1225.7" r="5.87652" transform="rotate(-94.6642 791.563 1225.7)" fill="#161616"/>
<circle cx="791.563" cy="1225.7" r="4.87652" transform="rotate(-94.6642 791.563 1225.7)" stroke="white" stroke-opacity="0.2" stroke-width="2"/>
<circle cx="777.759" cy="1019.25" r="5.87652" transform="rotate(-60.8399 777.759 1019.25)" fill="#161616"/>
<circle cx="777.759" cy="1019.25" r="4.87652" transform="rotate(-60.8399 777.759 1019.25)" stroke="white" stroke-opacity="0.2" stroke-width="2"/>
<circle cx="879.603" cy="844.062" r="5.87652" transform="rotate(-28.1206 879.603 844.062)" fill="#161616"/>
<circle cx="879.603" cy="844.062" r="4.87652" transform="rotate(-28.1206 879.603 844.062)" stroke="white" stroke-opacity="0.2" stroke-width="2"/>
<circle cx="1073.02" cy="766.558" r="5.87652" transform="rotate(8.95641 1073.02 766.558)" fill="#161616"/>
<circle cx="1073.02" cy="766.558" r="4.87652" transform="rotate(8.95641 1073.02 766.558)" stroke="white" stroke-opacity="0.2" stroke-width="2"/>
<circle cx="1278.63" cy="813.169" r="5.87652" transform="rotate(44.1728 1278.63 813.169)" fill="#161616"/>
<circle cx="1278.63" cy="813.169" r="4.87652" transform="rotate(44.1728 1278.63 813.169)" stroke="white" stroke-opacity="0.2" stroke-width="2"/>
<circle cx="1303.38" cy="1336.48" r="5.87652" transform="rotate(149.439 1303.38 1336.48)" fill="#161616"/>
<circle cx="1303.38" cy="1336.48" r="4.87652" transform="rotate(149.439 1303.38 1336.48)" stroke="white" stroke-opacity="0.2" stroke-width="2"/>
<circle cx="1124.66" cy="1404.58" r="5.87652" transform="rotate(-170.042 1124.66 1404.58)" fill="#161616"/>
<circle cx="1124.66" cy="1404.58" r="4.87652" transform="rotate(-170.042 1124.66 1404.58)" stroke="white" stroke-opacity="0.2" stroke-width="2"/>
<circle cx="936.122" cy="1363.92" r="5.87652" transform="rotate(-138.793 936.122 1363.92)" fill="#161616"/>
<circle cx="936.122" cy="1363.92" r="4.87652" transform="rotate(-138.793 936.122 1363.92)" stroke="white" stroke-opacity="0.2" stroke-width="2"/>
<circle cx="814.381" cy="1218.65" r="5.87652" transform="rotate(-94.6642 814.381 1218.65)" fill="#161616"/>
<circle cx="814.381" cy="1218.65" r="4.87652" transform="rotate(-94.6642 814.381 1218.65)" stroke="white" stroke-opacity="0.2" stroke-width="2"/>
<circle cx="800.64" cy="1026.09" r="5.87652" transform="rotate(-60.8399 800.64 1026.09)" fill="#161616"/>
<circle cx="800.64" cy="1026.09" r="4.87652" transform="rotate(-60.8399 800.64 1026.09)" stroke="white" stroke-opacity="0.2" stroke-width="2"/>
<circle cx="895.15" cy="862.185" r="5.87652" transform="rotate(-28.1206 895.15 862.185)" fill="#161616"/>
<circle cx="895.15" cy="862.185" r="4.87652" transform="rotate(-28.1206 895.15 862.185)" stroke="white" stroke-opacity="0.2" stroke-width="2"/>
<circle cx="1074.5" cy="790.396" r="5.87652" transform="rotate(8.95641 1074.5 790.396)" fill="#161616"/>
<circle cx="1074.5" cy="790.396" r="4.87652" transform="rotate(8.95641 1074.5 790.396)" stroke="white" stroke-opacity="0.2" stroke-width="2"/>
<circle cx="1266.09" cy="833.501" r="5.87652" transform="rotate(44.1728 1266.09 833.501)" fill="#161616"/>
<circle cx="1266.09" cy="833.501" r="4.87652" transform="rotate(44.1728 1266.09 833.501)" stroke="white" stroke-opacity="0.2" stroke-width="2"/>
<path d="M1243.21 1401.32L1292.33 1415.11L1260.22 1353.22L1243.21 1401.32Z" fill="#161616"/>
<path d="M1290.38 1413.52L1260.4 1355.73L1244.51 1400.65L1290.38 1413.52Z" stroke="white" stroke-opacity="0.2" stroke-width="2"/>
<path d="M1215.88 1415L1171.76 1389.39L1187.39 1457.33L1215.88 1415Z" fill="#161616"/>
<path d="M1173.25 1391.41L1187.85 1454.86L1214.45 1415.33L1173.25 1391.41Z" stroke="white" stroke-opacity="0.2" stroke-width="2"/>
<path d="M1235.23 1414.89L1214.56 1458.55L1281.75 1427.87L1235.23 1414.89Z" fill="#161616"/>
<path d="M1216.64 1456.5L1278.84 1428.1L1235.77 1416.08L1216.64 1456.5Z" stroke="white" stroke-opacity="0.2" stroke-width="2"/>
<path d="M1229.53 1398.03L1250.2 1354.37L1183.01 1385.05L1229.53 1398.03Z" fill="#161616"/>
<path d="M1248.12 1356.42L1185.92 1384.82L1228.99 1396.84L1248.12 1356.42Z" stroke="white" stroke-opacity="0.2" stroke-width="2"/>
<circle cx="1235.77" cy="1403.59" r="5.87652" transform="rotate(149.439 1235.77 1403.59)" fill="#161616"/>
<circle cx="1235.77" cy="1403.59" r="4.87652" transform="rotate(149.439 1235.77 1403.59)" stroke="white" stroke-opacity="0.2" stroke-width="2"/>
<circle cx="1223.97" cy="1408.52" r="5.87652" transform="rotate(149.439 1223.97 1408.52)" fill="#161616"/>
<circle cx="1223.97" cy="1408.52" r="4.87652" transform="rotate(149.439 1223.97 1408.52)" stroke="white" stroke-opacity="0.2" stroke-width="2"/>
<path d="M1040.01 1427.63L1070.13 1468.81L1083.09 1400.31L1040.01 1427.63Z" fill="#161616"/>
<path d="M1069.58 1466.36L1081.68 1402.39L1041.45 1427.91L1069.58 1466.36Z" stroke="white" stroke-opacity="0.2" stroke-width="2"/>
<path d="M1010.06 1421.54L991.166 1374.15L961.519 1437.24L1010.06 1421.54Z" fill="#161616"/>
<path d="M991.09 1376.66L963.405 1435.58L1008.73 1420.92L991.09 1376.66Z" stroke="white" stroke-opacity="0.2" stroke-width="2"/>
<path d="M1025.35 1433.39L982.145 1454.97L1053.93 1472.32L1025.35 1433.39Z" fill="#161616"/>
<path d="M985.042 1454.64L1051.51 1470.7L1025.05 1434.66L985.042 1454.64Z" stroke="white" stroke-opacity="0.2" stroke-width="2"/>
<path d="M1031.29 1416.61L1074.49 1395.03L1002.71 1377.68L1031.29 1416.61Z" fill="#161616"/>
<path d="M1071.6 1395.36L1005.13 1379.3L1031.59 1415.34L1071.6 1395.36Z" stroke="white" stroke-opacity="0.2" stroke-width="2"/>
<circle cx="1032.76" cy="1424.83" r="5.87652" transform="rotate(-172.433 1032.76 1424.83)" fill="#161616"/>
<circle cx="1032.76" cy="1424.83" r="4.87652" transform="rotate(-172.433 1032.76 1424.83)" stroke="white" stroke-opacity="0.2" stroke-width="2"/>
<circle cx="1020.43" cy="1421.42" r="5.87652" transform="rotate(-172.433 1020.43 1421.42)" fill="#161616"/>
<circle cx="1020.43" cy="1421.42" r="4.87652" transform="rotate(-172.433 1020.43 1421.42)" stroke="white" stroke-opacity="0.2" stroke-width="2"/>
<path d="M855.671 1327.81L857.775 1378.78L906.672 1329.09L855.671 1327.81Z" fill="#161616"/>
<path d="M858.679 1376.44L904.342 1330.04L856.715 1328.84L858.679 1376.44Z" stroke="white" stroke-opacity="0.2" stroke-width="2"/>
<path d="M834.188 1306.07L844.878 1256.19L785.122 1292.09L834.188 1306.07Z" fill="#161616"/>
<path d="M843.417 1258.23L787.614 1291.76L833.434 1304.82L843.417 1258.23Z" stroke="white" stroke-opacity="0.2" stroke-width="2"/>
<path d="M840.295 1324.42L792.388 1318.29L842.36 1372.67L840.295 1324.42Z" fill="#161616"/>
<path d="M794.977 1319.63L841.244 1369.98L839.332 1325.31L794.977 1319.63Z" stroke="white" stroke-opacity="0.2" stroke-width="2"/>
<path d="M854.563 1313.79L902.469 1319.92L852.497 1265.54L854.563 1313.79Z" fill="#161616"/>
<path d="M899.88 1318.58L853.614 1268.23L855.525 1312.91L899.88 1318.58Z" stroke="white" stroke-opacity="0.2" stroke-width="2"/>
<circle cx="851.214" cy="1321.44" r="5.87652" transform="rotate(-138.602 851.214 1321.44)" fill="#161616"/>
<circle cx="851.214" cy="1321.44" r="4.87652" transform="rotate(-138.602 851.214 1321.44)" stroke="white" stroke-opacity="0.2" stroke-width="2"/>
<circle cx="842.865" cy="1311.75" r="5.87652" transform="rotate(-138.602 842.865 1311.75)" fill="#161616"/>
<circle cx="842.865" cy="1311.75" r="4.87652" transform="rotate(-138.602 842.865 1311.75)" stroke="white" stroke-opacity="0.2" stroke-width="2"/>
<path d="M770.22 1140.35L743.265 1183.66L811.651 1170.12L770.22 1140.35Z" fill="#161616"/>
<path d="M745.332 1182.23L809.195 1169.58L770.505 1141.78L745.332 1182.23Z" stroke="white" stroke-opacity="0.2" stroke-width="2"/>
<path d="M764.714 1110.29L801.631 1075.08L732.029 1071.12L764.714 1110.29Z" fill="#161616"/>
<path d="M799.272 1075.94L734.274 1072.25L764.797 1108.83L799.272 1075.94Z" stroke="white" stroke-opacity="0.2" stroke-width="2"/>
<path d="M759.421 1128.89L723.275 1096.86L733.966 1169.94L759.421 1128.89Z" fill="#161616"/>
<path d="M724.661 1099.43L734.559 1167.09L758.128 1129.08L724.661 1099.43Z" stroke="white" stroke-opacity="0.2" stroke-width="2"/>
<path d="M777.202 1128.15L813.348 1160.18L802.657 1087.1L777.202 1128.15Z" fill="#161616"/>
<path d="M811.962 1157.61L802.064 1089.96L778.496 1127.96L811.962 1157.61Z" stroke="white" stroke-opacity="0.2" stroke-width="2"/>
<circle cx="770.122" cy="1132.59" r="5.87652" transform="rotate(-104.345 770.122 1132.59)" fill="#161616"/>
<circle cx="770.122" cy="1132.59" r="4.87652" transform="rotate(-104.345 770.122 1132.59)" stroke="white" stroke-opacity="0.2" stroke-width="2"/>
<circle cx="768.683" cy="1119.87" r="5.87652" transform="rotate(-104.345 768.683 1119.87)" fill="#161616"/>
<circle cx="768.683" cy="1119.87" r="4.87652" transform="rotate(-104.345 768.683 1119.87)" stroke="white" stroke-opacity="0.2" stroke-width="2"/>
<path d="M809.365 937.204L761.844 955.766L824.733 985.852L809.365 937.204Z" fill="#161616"/>
<path d="M764.356 955.859L823.085 983.954L808.733 938.525L764.356 955.859Z" stroke="white" stroke-opacity="0.2" stroke-width="2"/>
<path d="M822.941 909.831L873.591 903.722L820.206 858.887L822.941 909.831Z" fill="#161616"/>
<path d="M871.182 903.005L821.329 861.136L823.883 908.71L871.182 903.005Z" stroke="white" stroke-opacity="0.2" stroke-width="2"/>
<path d="M807.567 921.571L797.787 874.274L762.607 939.212L807.567 921.571Z" fill="#161616"/>
<path d="M797.361 877.158L764.79 937.28L806.417 920.948L797.361 877.158Z" stroke="white" stroke-opacity="0.2" stroke-width="2"/>
<path d="M822.257 931.609L832.038 978.906L867.217 913.968L822.257 931.609Z" fill="#161616"/>
<path d="M832.463 976.022L865.034 915.9L823.407 932.232L832.463 976.022Z" stroke="white" stroke-opacity="0.2" stroke-width="2"/>
<circle cx="813.934" cy="930.931" r="5.87652" transform="rotate(-67.5749 813.934 930.931)" fill="#161616"/>
<circle cx="813.934" cy="930.931" r="4.87652" transform="rotate(-67.5749 813.934 930.931)" stroke="white" stroke-opacity="0.2" stroke-width="2"/>
<circle cx="820.385" cy="919.884" r="5.87652" transform="rotate(-67.5749 820.385 919.884)" fill="#161616"/>
<circle cx="820.385" cy="919.884" r="4.87652" transform="rotate(-67.5749 820.385 919.884)" stroke="white" stroke-opacity="0.2" stroke-width="2"/>
<path d="M960.67 797.284L911.145 785.034L945.16 845.887L960.67 797.284Z" fill="#161616"/>
<path d="M913.143 786.558L944.909 843.386L959.392 797.998L913.143 786.558Z" stroke="white" stroke-opacity="0.2" stroke-width="2"/>
<path d="M987.555 782.751L1032.45 806.979L1014.71 739.56L987.555 782.751Z" fill="#161616"/>
<path d="M1030.9 805.004L1014.33 742.044L988.97 782.378L1030.9 805.004Z" stroke="white" stroke-opacity="0.2" stroke-width="2"/>
<path d="M968.222 783.473L987.517 739.197L921.321 771.947L968.222 783.473Z" fill="#161616"/>
<path d="M985.506 741.307L924.218 771.629L967.642 782.301L985.506 741.307Z" stroke="white" stroke-opacity="0.2" stroke-width="2"/>
<path d="M974.43 800.147L955.135 844.422L1021.33 811.672L974.43 800.147Z" fill="#161616"/>
<path d="M957.147 842.312L1018.43 811.991L975.01 801.318L957.147 842.312Z" stroke="white" stroke-opacity="0.2" stroke-width="2"/>
<circle cx="968.029" cy="794.788" r="5.87652" transform="rotate(-32.3449 968.029 794.788)" fill="#161616"/>
<circle cx="968.029" cy="794.788" r="4.87652" transform="rotate(-32.3449 968.029 794.788)" stroke="white" stroke-opacity="0.2" stroke-width="2"/>
<circle cx="979.665" cy="789.481" r="5.87652" transform="rotate(-32.3449 979.665 789.481)" fill="#161616"/>
<circle cx="979.665" cy="789.481" r="4.87652" transform="rotate(-32.3449 979.665 789.481)" stroke="white" stroke-opacity="0.2" stroke-width="2"/>
<path d="M1160.37 768.834L1129.93 727.895L1117.5 796.494L1160.37 768.834Z" fill="#161616"/>
<path d="M1130.5 730.342L1118.9 794.404L1158.93 768.573L1130.5 730.342Z" stroke="white" stroke-opacity="0.2" stroke-width="2"/>
<path d="M1190.36 774.708L1209.62 821.952L1238.78 758.628L1190.36 774.708Z" fill="#161616"/>
<path d="M1209.68 819.439L1236.91 760.304L1191.69 775.321L1209.68 819.439Z" stroke="white" stroke-opacity="0.2" stroke-width="2"/>
<path d="M1174.99 762.977L1218.03 741.064L1146.11 724.266L1174.99 762.977Z" fill="#161616"/>
<path d="M1215.13 741.414L1148.55 725.862L1175.28 761.704L1215.13 741.414Z" stroke="white" stroke-opacity="0.2" stroke-width="2"/>
<path d="M1169.18 779.798L1126.14 801.712L1198.06 818.51L1169.18 779.798Z" fill="#161616"/>
<path d="M1129.03 801.361L1195.62 816.913L1168.88 781.071L1129.03 801.361Z" stroke="white" stroke-opacity="0.2" stroke-width="2"/>
<circle cx="1167.64" cy="771.585" r="5.87652" transform="rotate(7.12519 1167.64 771.585)" fill="#161616"/>
<circle cx="1167.64" cy="771.585" r="4.87652" transform="rotate(7.12519 1167.64 771.585)" stroke="white" stroke-opacity="0.2" stroke-width="2"/>
<circle cx="1179.99" cy="774.89" r="5.87652" transform="rotate(7.12519 1179.99 774.89)" fill="#161616"/>
<circle cx="1179.99" cy="774.89" r="4.87652" transform="rotate(7.12519 1179.99 774.89)" stroke="white" stroke-opacity="0.2" stroke-width="2"/>
<path d="M1345.51 869.555L1340.55 818.779L1294.51 871.133L1345.51 869.555Z" fill="#161616"/>
<path d="M1339.78 821.171L1296.79 870.061L1344.41 868.588L1339.78 821.171Z" stroke="white" stroke-opacity="0.2" stroke-width="2"/>
<path d="M1368.17 890.064L1360.29 940.47L1417.94 901.269L1368.17 890.064Z" fill="#161616"/>
<path d="M1361.64 938.346L1415.47 901.738L1368.99 891.275L1361.64 938.346Z" stroke="white" stroke-opacity="0.2" stroke-width="2"/>
<path d="M1361.04 872.084L1409.22 875.517L1356.28 824.023L1361.04 872.084Z" fill="#161616"/>
<path d="M1406.56 874.324L1357.54 826.649L1361.96 871.146L1406.56 874.324Z" stroke="white" stroke-opacity="0.2" stroke-width="2"/>
<path d="M1347.39 883.488L1299.22 880.055L1352.16 931.55L1347.39 883.488Z" fill="#161616"/>
<path d="M1301.88 881.248L1350.89 928.924L1346.48 884.426L1301.88 881.248Z" stroke="white" stroke-opacity="0.2" stroke-width="2"/>
<circle cx="1350.31" cy="875.66" r="5.87652" transform="rotate(38.1848 1350.31 875.66)" fill="#161616"/>
<circle cx="1350.31" cy="875.66" r="4.87652" transform="rotate(38.1848 1350.31 875.66)" stroke="white" stroke-opacity="0.2" stroke-width="2"/>
<circle cx="1359.19" cy="884.871" r="5.87652" transform="rotate(38.1848 1359.19 884.871)" fill="#161616"/>
<circle cx="1359.19" cy="884.871" r="4.87652" transform="rotate(38.1848 1359.19 884.871)" stroke="white" stroke-opacity="0.2" stroke-width="2"/>
<path d="M1524.1 1025.61C1522.79 1014.45 1521.32 1004.31 1519.71 996.428C1543.82 1001.59 1597.94 1020.69 1621.48 1055.77C1615.41 1059.85 1607.27 1065.54 1598.25 1072.15M1524.1 1025.61C1539.96 1029.83 1577 1045.05 1598.25 1072.15M1524.1 1025.61C1524.93 1032.62 1525.69 1040.04 1526.39 1047.56M1598.25 1072.15C1591.72 1076.94 1584.74 1082.2 1577.75 1087.69M1526.39 1047.56C1538.77 1051.17 1566.37 1064.26 1577.75 1087.69M1526.39 1047.56C1527.16 1055.99 1527.86 1064.54 1528.47 1072.8M1577.75 1087.69C1571.81 1092.36 1565.87 1097.18 1560.21 1102.01M1528.47 1072.8C1534.33 1074.73 1548.9 1083.29 1560.21 1102.01M1528.47 1072.8C1529.24 1083.31 1529.87 1093.33 1530.34 1101.98M1560.21 1102.01C1554.77 1106.64 1549.58 1111.27 1544.9 1115.77M1530.34 1101.98C1531.25 1118.42 1531.59 1129.88 1531.3 1130.23C1534.96 1125.72 1539.61 1120.83 1544.9 1115.77M1530.34 1101.98C1534.39 1103.64 1542.96 1108.72 1544.9 1115.77" stroke="white" stroke-opacity="0.2" stroke-width="2"/>
<path d="M1623.89 1082.66C1623.36 1071.81 1622.53 1062.44 1621.66 1055.35C1615.6 1055.8 1529.48 1127.52 1528.28 1130.45C1535.07 1134.73 1541.94 1140.21 1548.66 1146.31M1623.89 1082.66C1606.44 1091.26 1566.95 1116.02 1548.66 1146.31M1623.89 1082.66C1624.26 1090.25 1624.49 1098.57 1624.48 1107.34M1548.66 1146.31C1553.65 1150.84 1558.56 1155.72 1563.28 1160.71M1624.48 1107.34C1609.05 1113.41 1575.21 1132.58 1563.28 1160.71M1624.48 1107.34C1624.48 1116.15 1624.24 1125.42 1623.68 1134.88M1563.28 1160.71C1566.88 1164.51 1570.37 1168.38 1573.72 1172.21M1623.68 1134.88C1610.79 1138.16 1582.74 1150.22 1573.72 1172.21M1623.68 1134.88C1623.22 1142.66 1622.55 1150.58 1621.62 1158.47M1573.72 1172.21C1576.09 1174.92 1578.39 1177.62 1580.59 1180.26M1621.62 1158.47C1614.22 1158.7 1595.66 1163.37 1580.59 1180.26M1621.62 1158.47C1620.81 1165.27 1619.82 1172.06 1618.59 1178.74M1580.59 1180.26C1583.91 1184.23 1587.03 1188.07 1589.89 1191.67M1618.59 1178.74C1612.47 1179.17 1598.17 1182.37 1589.89 1191.67M1618.59 1178.74C1617.61 1184.07 1616.49 1189.32 1615.22 1194.46M1589.89 1191.67C1593.07 1195.66 1595.93 1199.34 1598.42 1202.56M1615.22 1194.46C1613.42 1201.69 1611.3 1208.68 1608.83 1215.31C1608.07 1215.13 1604.3 1210.15 1598.42 1202.56M1615.22 1194.46C1611.32 1195.03 1602.52 1197.45 1598.42 1202.56" stroke="white" stroke-opacity="0.2" stroke-width="2"/>
<path d="M1528.52 1132.67C1550.16 1144.5 1596.57 1178.25 1609.13 1218.58C1602.14 1220.76 1592.72 1223.89 1582.19 1227.66C1574.57 1230.38 1566.37 1233.43 1558.11 1236.7C1551.08 1239.48 1544.02 1242.41 1537.21 1245.41C1530.67 1248.3 1524.38 1251.26 1518.61 1254.23C1512.1 1257.58 1506.25 1260.94 1501.45 1264.22C1501.83 1263.97 1504.77 1252.89 1508.6 1236.87C1510.61 1228.45 1512.86 1218.66 1515.12 1208.36C1516.89 1200.28 1518.67 1191.88 1520.33 1183.58C1521.81 1176.18 1523.19 1168.85 1524.41 1161.89C1526.33 1150.82 1527.81 1140.69 1528.52 1132.67Z" fill="#161616"/>
<path d="M1524.41 1161.89C1526.33 1150.82 1527.81 1140.69 1528.52 1132.67C1550.16 1144.5 1596.57 1178.25 1609.13 1218.58C1602.14 1220.76 1592.72 1223.89 1582.19 1227.66M1524.41 1161.89C1538.4 1170.46 1569.55 1195.62 1582.19 1227.66M1524.41 1161.89C1523.19 1168.85 1521.81 1176.18 1520.33 1183.58M1582.19 1227.66C1574.57 1230.38 1566.37 1233.43 1558.11 1236.7M1520.33 1183.58C1531.16 1190.58 1553.89 1210.99 1558.11 1236.7M1520.33 1183.58C1518.67 1191.88 1516.89 1200.28 1515.12 1208.36M1558.11 1236.7C1551.08 1239.48 1544.02 1242.41 1537.21 1245.41M1515.12 1208.36C1520.19 1211.89 1531.71 1224.25 1537.21 1245.41M1515.12 1208.36C1512.86 1218.66 1510.61 1228.45 1508.6 1236.87M1537.21 1245.41C1530.67 1248.3 1524.38 1251.26 1518.61 1254.23M1508.6 1236.87C1504.77 1252.89 1501.83 1263.97 1501.45 1264.22C1506.25 1260.94 1512.1 1257.58 1518.61 1254.23M1508.6 1236.87C1512 1239.61 1518.77 1246.93 1518.61 1254.23" stroke="white" stroke-opacity="0.2" stroke-width="2"/>
<path d="M1498.48 1263.57C1500.47 1261.1 1603.48 1216.93 1609.41 1218.23C1608.23 1225.28 1606.35 1234.49 1603.76 1245.05C1601.95 1252.42 1599.79 1260.46 1597.28 1268.87C1594.76 1277.31 1591.89 1286.12 1588.66 1295.03C1586 1302.36 1583.1 1309.75 1579.95 1317.06C1577.24 1323.35 1574.34 1329.57 1571.26 1335.62C1568.81 1340.44 1566.23 1345.16 1563.54 1349.72C1559.75 1356.14 1555.73 1362.24 1551.48 1367.88C1550.8 1367.5 1548.6 1361.64 1545.14 1352.69C1543.67 1348.9 1541.97 1344.55 1540.07 1339.82C1538.35 1335.55 1536.46 1330.98 1534.41 1326.23C1533.05 1323.07 1531.62 1319.83 1530.12 1316.56C1528 1311.93 1525.76 1307.23 1523.4 1302.56C1520.29 1296.43 1516.98 1290.35 1513.49 1284.58C1508.79 1276.82 1503.77 1269.61 1498.48 1263.57Z" fill="#161616"/>
<path d="M1603.76 1245.05C1606.35 1234.49 1608.23 1225.28 1609.41 1218.23C1603.48 1216.93 1500.47 1261.1 1498.48 1263.57C1503.77 1269.61 1508.79 1276.82 1513.49 1284.58M1603.76 1245.05C1584.58 1248.3 1539.67 1260.77 1513.49 1284.58M1603.76 1245.05C1601.95 1252.42 1599.79 1260.46 1597.28 1268.87M1513.49 1284.58C1516.98 1290.35 1520.29 1296.43 1523.4 1302.56M1597.28 1268.87C1580.76 1270.28 1542.86 1279 1523.4 1302.56M1597.28 1268.87C1594.76 1277.31 1591.89 1286.12 1588.66 1295.03M1523.4 1302.56C1525.76 1307.23 1528 1311.93 1530.12 1316.56M1588.66 1295.03C1575.36 1294.5 1545.04 1298.05 1530.12 1316.56M1588.66 1295.03C1586 1302.36 1583.1 1309.75 1579.95 1317.06M1530.12 1316.56C1531.62 1319.83 1533.05 1323.07 1534.41 1326.23M1579.95 1317.06C1572.79 1315.16 1553.67 1314.34 1534.41 1326.23M1579.95 1317.06C1577.24 1323.35 1574.34 1329.57 1571.26 1335.62M1534.41 1326.23C1536.46 1330.98 1538.35 1335.55 1540.07 1339.82M1571.26 1335.62C1565.28 1334.29 1550.66 1333.27 1540.07 1339.82M1571.26 1335.62C1568.81 1340.44 1566.23 1345.16 1563.54 1349.72M1540.07 1339.82C1541.97 1344.55 1543.67 1348.9 1545.14 1352.69M1563.54 1349.72C1559.75 1356.14 1555.73 1362.24 1551.48 1367.88C1550.8 1367.5 1548.6 1361.64 1545.14 1352.69M1563.54 1349.72C1559.65 1349.16 1550.52 1348.96 1545.14 1352.69" stroke="white" stroke-opacity="0.2" stroke-width="2"/>
<path d="M1487.09 1287.79C1492.49 1277.94 1497.16 1268.83 1500.42 1261.46C1517.07 1279.65 1550.1 1326.58 1548.96 1368.81C1541.64 1368.62 1531.71 1368.53 1520.53 1368.69M1487.09 1287.79C1497.56 1300.42 1518.92 1334.29 1520.53 1368.69M1487.09 1287.79C1483.69 1293.98 1480.01 1300.47 1476.22 1307M1520.53 1368.69C1512.44 1368.81 1503.69 1369.05 1494.82 1369.48M1476.22 1307C1484.22 1317.12 1499.13 1343.78 1494.82 1369.48M1476.22 1307C1471.97 1314.32 1467.58 1321.7 1463.29 1328.77M1494.82 1369.48C1487.28 1369.84 1479.64 1370.32 1472.23 1370.97M1463.29 1328.77C1466.95 1333.75 1473.86 1349.16 1472.23 1370.97M1463.29 1328.77C1457.83 1337.79 1452.53 1346.32 1447.91 1353.64M1472.23 1370.97C1465.11 1371.59 1458.2 1372.36 1451.77 1373.31M1447.91 1353.64C1439.11 1367.57 1432.75 1377.1 1432.31 1377.22C1437.91 1375.67 1444.53 1374.38 1451.77 1373.31M1447.91 1353.64C1450.24 1357.34 1454.28 1366.45 1451.77 1373.31" stroke="white" stroke-opacity="0.2" stroke-width="2"/>
<path d="M1535.33 1392.13C1541.19 1382.98 1545.94 1374.86 1549.34 1368.57C1544.15 1365.43 1432.39 1373.96 1429.72 1375.65C1432.77 1383.08 1435.19 1391.52 1437.13 1400.39M1535.33 1392.13C1516.12 1389.01 1469.59 1386.31 1437.13 1400.39M1535.33 1392.13C1531.23 1398.53 1526.6 1405.43 1521.5 1412.58M1437.13 1400.39C1438.57 1406.98 1439.74 1413.8 1440.7 1420.6M1521.5 1412.58C1505.41 1408.58 1466.73 1404.59 1440.7 1420.6M1521.5 1412.58C1516.4 1419.75 1510.83 1427.17 1504.89 1434.56M1440.7 1420.6C1441.43 1425.78 1442.03 1430.96 1442.54 1436.02M1504.89 1434.56C1492.48 1429.76 1462.64 1423.33 1442.54 1436.02M1504.89 1434.56C1500.01 1440.63 1494.87 1446.7 1489.54 1452.59M1442.54 1436.02C1442.9 1439.61 1443.21 1443.13 1443.48 1446.56M1489.54 1452.59C1483.38 1448.48 1465.55 1441.53 1443.48 1446.56M1489.54 1452.59C1484.94 1457.66 1480.19 1462.62 1475.32 1467.35M1443.48 1446.56C1443.88 1451.72 1444.19 1456.66 1444.44 1461.25M1475.32 1467.35C1470.09 1464.16 1456.58 1458.47 1444.44 1461.25M1475.32 1467.35C1471.44 1471.12 1467.48 1474.76 1463.46 1478.2M1444.44 1461.25C1444.72 1466.34 1444.92 1471 1445.08 1475.07M1463.46 1478.2C1457.8 1483.05 1452.03 1487.53 1446.18 1491.49C1445.66 1490.91 1445.47 1484.66 1445.08 1475.07M1463.46 1478.2C1459.96 1476.41 1451.38 1473.28 1445.08 1475.07" stroke="white" stroke-opacity="0.2" stroke-width="2"/>
<path d="M1432.1 1373.47C1442.05 1396.04 1458.29 1451.08 1443.67 1490.71C1436.8 1488.19 1427.42 1484.92 1416.78 1481.49C1409.08 1479.01 1400.72 1476.43 1392.17 1473.99C1384.91 1471.91 1377.52 1469.92 1370.29 1468.16C1363.35 1466.47 1356.56 1464.98 1350.17 1463.82C1342.97 1462.51 1336.28 1461.61 1330.48 1461.28C1330.94 1461.31 1340.02 1454.32 1352.82 1443.95C1359.54 1438.5 1367.29 1432.11 1375.36 1425.32C1381.69 1420 1388.21 1414.42 1394.59 1408.85C1400.27 1403.88 1405.84 1398.91 1411.04 1394.13C1419.31 1386.53 1426.66 1379.4 1432.1 1373.47Z" fill="#161616"/>
<path d="M1411.04 1394.13C1419.31 1386.53 1426.66 1379.4 1432.1 1373.47C1442.05 1396.04 1458.29 1451.08 1443.67 1490.71C1436.8 1488.19 1427.42 1484.92 1416.78 1481.49M1411.04 1394.13C1416.91 1409.46 1426.28 1448.39 1416.78 1481.49M1411.04 1394.13C1405.84 1398.91 1400.27 1403.88 1394.59 1408.85M1416.78 1481.49C1409.08 1479.01 1400.72 1476.43 1392.17 1473.99M1394.59 1408.85C1398.91 1421 1404.49 1451.03 1392.17 1473.99M1394.59 1408.85C1388.21 1414.42 1381.69 1420 1375.36 1425.32M1392.17 1473.99C1384.91 1471.91 1377.52 1469.92 1370.29 1468.16M1375.36 1425.32C1377.23 1431.21 1378.83 1448.03 1370.29 1468.16M1375.36 1425.32C1367.29 1432.11 1359.54 1438.5 1352.82 1443.95M1370.29 1468.16C1363.35 1466.47 1356.56 1464.98 1350.17 1463.82M1352.82 1443.95C1340.02 1454.32 1330.94 1461.31 1330.48 1461.28C1336.28 1461.61 1342.97 1462.51 1350.17 1463.82M1352.82 1443.95C1353.84 1448.2 1354.75 1458.12 1350.17 1463.82" stroke="white" stroke-opacity="0.2" stroke-width="2"/>
<path d="M1328.52 1458.97C1331.6 1458.23 1440.19 1485.97 1444.1 1490.61C1438.87 1495.48 1431.76 1501.64 1423.28 1508.43C1417.35 1513.18 1410.74 1518.24 1403.63 1523.38C1396.49 1528.53 1388.84 1533.77 1380.85 1538.87C1374.27 1543.06 1367.47 1547.15 1360.52 1551.02C1354.54 1554.36 1348.45 1557.52 1342.33 1560.45C1337.44 1562.78 1332.52 1564.95 1327.61 1566.93C1320.7 1569.71 1313.79 1572.09 1306.98 1573.97C1306.67 1573.25 1308.5 1567.28 1311.21 1558.06C1312.35 1554.16 1313.66 1549.68 1315.03 1544.77C1316.26 1540.34 1317.55 1535.56 1318.82 1530.55C1319.67 1527.21 1320.51 1523.77 1321.31 1520.26C1322.46 1515.31 1323.54 1510.21 1324.51 1505.07C1325.79 1498.31 1326.87 1491.48 1327.61 1484.78C1328.62 1475.76 1329.03 1466.98 1328.52 1458.97Z" fill="#161616"/>
<path d="M1423.28 1508.43C1431.76 1501.64 1438.87 1495.48 1444.1 1490.61C1440.19 1485.97 1331.6 1458.23 1328.52 1458.97C1329.03 1466.98 1328.62 1475.76 1327.61 1484.78M1423.28 1508.43C1406.09 1499.33 1362.88 1481.85 1327.61 1484.78M1423.28 1508.43C1417.35 1513.18 1410.74 1518.24 1403.63 1523.38M1327.61 1484.78C1326.87 1491.48 1325.79 1498.31 1324.51 1505.07M1403.63 1523.38C1389.67 1514.43 1354.3 1498.25 1324.51 1505.07M1403.63 1523.38C1396.49 1528.53 1388.84 1533.77 1380.85 1538.87M1324.51 1505.07C1323.54 1510.21 1322.46 1515.31 1321.31 1520.26M1380.85 1538.87C1370.63 1530.34 1344.42 1514.68 1321.31 1520.26M1380.85 1538.87C1374.27 1543.06 1367.47 1547.15 1360.52 1551.02M1321.31 1520.26C1320.51 1523.77 1319.67 1527.21 1318.82 1530.55M1360.52 1551.02C1356 1545.16 1341.34 1532.86 1318.82 1530.55M1360.52 1551.02C1354.54 1554.36 1348.45 1557.52 1342.33 1560.45M1318.82 1530.55C1317.55 1535.56 1316.26 1540.34 1315.03 1544.77M1342.33 1560.45C1338.39 1555.75 1327.41 1546.03 1315.03 1544.77M1342.33 1560.45C1337.44 1562.78 1332.52 1564.95 1327.61 1566.93M1315.03 1544.77C1313.66 1549.68 1312.35 1554.16 1311.21 1558.06M1327.61 1566.93C1320.7 1569.71 1313.79 1572.09 1306.98 1573.97C1306.67 1573.25 1308.5 1567.28 1311.21 1558.06M1327.61 1566.93C1324.86 1564.11 1317.74 1558.39 1311.21 1558.06" stroke="white" stroke-opacity="0.2" stroke-width="2"/>
<path d="M1299.92 1473.73C1310.04 1468.85 1319.14 1464.15 1326.07 1460.05C1329.05 1484.53 1328.65 1541.92 1303.17 1575.62C1297.33 1571.21 1289.3 1565.37 1280.11 1559M1299.92 1473.73C1301.1 1490.1 1298.79 1530.07 1280.11 1559M1299.92 1473.73C1293.56 1476.79 1286.79 1479.93 1279.91 1483.04M1280.11 1559C1273.46 1554.39 1266.2 1549.51 1258.73 1544.69M1279.91 1483.04C1280.54 1495.93 1277.17 1526.29 1258.73 1544.69M1279.91 1483.04C1272.2 1486.53 1264.34 1489.98 1256.74 1493.24M1258.73 1544.69C1252.38 1540.6 1245.89 1536.56 1239.48 1532.77M1256.74 1493.24C1256.82 1499.42 1253.48 1515.98 1239.48 1532.77M1256.74 1493.24C1247.05 1497.4 1237.78 1501.27 1229.76 1504.54M1239.48 1532.77C1233.32 1529.14 1227.25 1525.75 1221.47 1522.79M1229.76 1504.54C1214.51 1510.75 1203.79 1514.82 1203.37 1514.66C1208.82 1516.65 1214.96 1519.45 1221.47 1522.79M1229.76 1504.54C1229.52 1508.9 1227.51 1518.66 1221.47 1522.79" stroke="white" stroke-opacity="0.2" stroke-width="2"/>
<path d="M1278.53 1586.67C1288.62 1582.63 1297.2 1578.79 1303.62 1575.64C1301.22 1570.07 1205.33 1512.05 1202.17 1511.87C1200.33 1519.69 1197.4 1527.97 1193.82 1536.31M1278.53 1586.67C1264.71 1572.97 1228.43 1543.72 1193.82 1536.31M1278.53 1586.67C1271.48 1589.49 1263.69 1592.42 1255.39 1595.28M1193.82 1536.31C1191.17 1542.51 1188.15 1548.73 1184.98 1554.83M1255.39 1595.28C1244.62 1582.67 1215.46 1556.93 1184.98 1554.83M1255.39 1595.28C1247.06 1598.14 1238.23 1600.94 1229.1 1603.5M1184.98 1554.83C1182.56 1559.47 1180.04 1564.03 1177.51 1568.45M1229.1 1603.5C1221.79 1592.38 1201.24 1569.8 1177.51 1568.45M1229.1 1603.5C1221.59 1605.61 1213.89 1607.55 1206.12 1609.25M1177.51 1568.45C1175.72 1571.57 1173.92 1574.62 1172.15 1577.57M1206.12 1609.25C1203.5 1602.33 1193.03 1586.31 1172.15 1577.57M1206.12 1609.25C1199.43 1610.7 1192.69 1611.97 1185.98 1612.99M1172.15 1577.57C1169.48 1582 1166.86 1586.2 1164.39 1590.08M1185.98 1612.99C1183.57 1607.35 1175.88 1594.88 1164.39 1590.08M1185.98 1612.99C1180.62 1613.81 1175.29 1614.47 1170.01 1614.93M1164.39 1590.08C1161.66 1594.38 1159.11 1598.3 1156.88 1601.7M1170.01 1614.93C1162.59 1615.59 1155.29 1615.87 1148.23 1615.7C1148.14 1614.92 1151.62 1609.73 1156.88 1601.7M1170.01 1614.93C1168.2 1611.44 1163.05 1603.9 1156.88 1601.7" stroke="white" stroke-opacity="0.2" stroke-width="2"/>
<path d="M1169.27 1518.94C1180.4 1517.43 1190.51 1515.79 1198.36 1514.04C1193.61 1538.24 1175.45 1592.67 1140.78 1616.82C1136.59 1610.82 1130.77 1602.78 1124 1593.87M1169.27 1518.94C1165.31 1534.87 1150.73 1572.16 1124 1593.87M1169.27 1518.94C1162.27 1519.88 1154.86 1520.77 1147.35 1521.59M1124 1593.87C1119.11 1587.43 1113.72 1580.54 1108.11 1573.64M1147.35 1521.59C1143.95 1534.04 1131.35 1561.86 1108.11 1573.64M1147.35 1521.59C1138.94 1522.52 1130.4 1523.36 1122.16 1524.11M1108.11 1573.64C1103.35 1567.79 1098.42 1561.93 1093.5 1556.35M1122.16 1524.11C1120.32 1530.01 1112.02 1544.72 1093.5 1556.35M1122.16 1524.11C1111.66 1525.06 1101.65 1525.87 1093.01 1526.49M1093.5 1556.35C1088.77 1550.99 1084.05 1545.88 1079.48 1541.28M1093.01 1526.49C1076.58 1527.68 1065.14 1528.22 1064.78 1527.93C1069.35 1531.52 1074.32 1536.08 1079.48 1541.28M1093.01 1526.49C1091.42 1530.56 1086.49 1539.22 1079.48 1541.28" stroke="white" stroke-opacity="0.2" stroke-width="2"/>
<path d="M1113.93 1619.7C1124.77 1618.98 1134.12 1617.99 1141.2 1616.99C1140.64 1610.95 1067.45 1526.07 1064.5 1524.92C1060.33 1531.78 1054.98 1538.75 1048.99 1545.57M1113.93 1619.7C1105.03 1602.39 1079.6 1563.34 1048.99 1545.57M1113.93 1619.7C1106.34 1620.2 1098.03 1620.57 1089.26 1620.71M1048.99 1545.57C1044.55 1550.64 1039.75 1555.63 1034.84 1560.44M1089.26 1620.71C1082.93 1605.39 1063.18 1571.88 1034.84 1560.44M1089.26 1620.71C1080.45 1620.86 1071.18 1620.78 1061.71 1620.38M1034.84 1560.44C1031.1 1564.1 1027.3 1567.66 1023.53 1571.07M1061.71 1620.38C1058.21 1607.55 1045.67 1579.71 1023.53 1571.07M1061.71 1620.38C1053.92 1620.06 1046 1619.53 1038.09 1618.73M1023.53 1571.07C1020.85 1573.49 1018.2 1575.83 1015.6 1578.08M1038.09 1618.73C1037.73 1611.34 1032.74 1592.86 1015.6 1578.08M1038.09 1618.73C1031.27 1618.04 1024.47 1617.16 1017.77 1616.05M1015.6 1578.08C1011.69 1581.47 1007.9 1584.65 1004.35 1587.58M1017.77 1616.05C1017.23 1609.94 1013.79 1595.69 1004.35 1587.58M1017.77 1616.05C1012.43 1615.16 1007.15 1614.13 1001.99 1612.94M1004.35 1587.58C1000.42 1590.82 996.784 1593.75 993.61 1596.29M1001.99 1612.94C994.733 1611.27 987.704 1609.28 981.041 1606.92C981.201 1606.16 986.119 1602.3 993.61 1596.29M1001.99 1612.94C1001.35 1609.06 998.785 1600.3 993.61 1596.29" stroke="white" stroke-opacity="0.2" stroke-width="2"/>
<path d="M1063.17 1527.74C1050.09 1548.53 1014.38 1593.42 976.16 1606.72C974.892 1600.24 973.01 1591.49 970.664 1581.73C968.966 1574.66 967.024 1567.07 964.895 1559.42C963.086 1552.92 961.143 1546.38 959.099 1540.09C957.137 1534.05 955.083 1528.24 952.966 1522.93C950.58 1516.93 948.115 1511.55 945.615 1507.16C945.808 1507.51 955.639 1509.86 969.901 1512.87C977.396 1514.45 986.115 1516.21 995.303 1517.95C1002.51 1519.32 1010.01 1520.67 1017.43 1521.93C1024.06 1523.04 1030.62 1524.08 1036.86 1524.96C1046.79 1526.36 1055.9 1527.38 1063.17 1527.74Z" fill="#161616"/>
<path d="M1036.86 1524.96C1046.79 1526.36 1055.9 1527.38 1063.17 1527.74C1050.09 1548.53 1014.38 1593.42 976.16 1606.72C974.892 1600.24 973.01 1591.49 970.664 1581.73M1036.86 1524.96C1027.56 1538.43 1001.29 1568.66 970.664 1581.73M1036.86 1524.96C1030.62 1524.08 1024.06 1523.04 1017.43 1521.93M970.664 1581.73C968.966 1574.66 967.024 1567.07 964.895 1559.42M1017.43 1521.93C1009.91 1532.37 988.858 1554.5 964.895 1559.42M1017.43 1521.93C1010.01 1520.67 1002.51 1519.32 995.303 1517.95M964.895 1559.42C963.086 1552.92 961.143 1546.38 959.099 1540.09M995.303 1517.95C991.543 1522.85 979.04 1534.13 959.099 1540.09M995.303 1517.95C986.115 1516.21 977.396 1514.45 969.901 1512.87M959.099 1540.09C957.137 1534.05 955.083 1528.24 952.966 1522.93M969.901 1512.87C955.639 1509.86 945.808 1507.51 945.615 1507.16C948.115 1511.55 950.58 1516.93 952.966 1522.93M969.901 1512.87C967.035 1516.17 959.635 1522.81 952.966 1522.93" stroke="white" stroke-opacity="0.2" stroke-width="2"/>
<path d="M946.518 1504.35C948.566 1506.13 978.256 1601.36 976.454 1606.98C970.126 1606.13 961.892 1604.7 952.504 1602.66C945.941 1601.23 938.814 1599.5 931.379 1597.45C923.922 1595.4 916.155 1593.02 908.339 1590.31C901.909 1588.08 895.445 1585.63 889.092 1582.94C883.62 1580.62 878.23 1578.13 873.014 1575.46C868.853 1573.33 864.802 1571.08 860.91 1568.72C855.434 1565.4 850.271 1561.84 845.552 1558.05C845.973 1557.4 851.558 1555.11 860.113 1551.52C863.736 1550 867.892 1548.25 872.415 1546.28C876.498 1544.51 880.88 1542.56 885.437 1540.46C888.472 1539.06 891.584 1537.59 894.738 1536.06C899.191 1533.9 903.728 1531.62 908.246 1529.22C914.181 1526.08 920.085 1522.74 925.726 1519.24C933.321 1514.54 940.44 1509.55 946.518 1504.35Z" fill="#161616"/>
<path d="M952.504 1602.66C961.892 1604.7 970.126 1606.13 976.454 1606.98C978.256 1601.36 948.566 1506.13 946.518 1504.35C940.44 1509.55 933.321 1514.54 925.726 1519.24M952.504 1602.66C951.522 1584.74 944.792 1542.97 925.726 1519.24M952.504 1602.66C945.941 1601.23 938.814 1599.5 931.379 1597.45M925.726 1519.24C920.085 1522.74 914.181 1526.08 908.246 1529.22M931.379 1597.45C931.806 1581.97 927.777 1546.65 908.246 1529.22M931.379 1597.45C923.922 1595.4 916.155 1593.02 908.339 1590.31M908.246 1529.22C903.728 1531.62 899.191 1533.9 894.738 1536.06M908.339 1590.31C910.212 1577.79 910.115 1549.41 894.738 1536.06M908.339 1590.31C901.909 1588.08 895.445 1585.63 889.092 1582.94M894.738 1536.06C891.584 1537.59 888.472 1539.06 885.437 1540.46M889.092 1582.94C891.571 1576.14 894.31 1558.13 885.437 1540.46M889.092 1582.94C883.62 1580.62 878.23 1578.13 873.014 1575.46M885.437 1540.46C880.88 1542.56 876.498 1544.51 872.415 1546.28M873.014 1575.46C874.853 1569.78 877.306 1555.99 872.415 1546.28M873.014 1575.46C868.853 1573.33 864.802 1571.08 860.91 1568.72M872.415 1546.28C867.892 1548.25 863.736 1550 860.113 1551.52M860.91 1568.72C855.434 1565.4 850.271 1561.84 845.552 1558.05C845.973 1557.4 851.558 1555.11 860.113 1551.52M860.91 1568.72C861.831 1565.04 862.96 1556.45 860.113 1551.52" stroke="white" stroke-opacity="0.2" stroke-width="2"/>
<path d="M917.554 1488.59C927.709 1493.85 937.085 1498.4 944.638 1501.54C927.069 1518.87 881.292 1553.48 838.737 1553.27C838.607 1545.84 838.253 1535.75 837.598 1524.4M917.554 1488.59C905.299 1499.52 872.152 1521.98 837.598 1524.4M917.554 1488.59C911.169 1485.28 904.477 1481.69 897.736 1477.99M837.598 1524.4C837.124 1516.18 836.493 1507.3 835.676 1498.29M897.736 1477.99C887.904 1486.34 861.726 1502.09 835.676 1498.29M897.736 1477.99C890.181 1473.83 882.565 1469.54 875.253 1465.34M835.676 1498.29C834.982 1490.64 834.154 1482.89 833.174 1475.37M875.253 1465.34C870.403 1469.17 855.196 1476.54 833.174 1475.37M875.253 1465.34C865.937 1460 857.116 1454.81 849.545 1450.28M833.174 1475.37C832.233 1468.16 831.153 1461.15 829.917 1454.65M849.545 1450.28C835.139 1441.66 825.261 1435.41 825.122 1434.97C826.933 1440.62 828.523 1447.32 829.917 1454.65M849.545 1450.28C845.927 1452.73 836.936 1457.05 829.917 1454.65" stroke="white" stroke-opacity="0.2" stroke-width="2"/>
<path d="M814.667 1539.96C824.138 1545.71 832.512 1550.35 838.994 1553.66C841.924 1548.32 828.405 1434.98 826.585 1432.3C819.247 1435.57 810.855 1438.22 802.016 1440.39M814.667 1539.96C816.954 1520.38 817.625 1473.05 802.016 1440.39M814.667 1539.96C808.046 1535.95 800.889 1531.39 793.469 1526.38M802.016 1440.39C795.451 1442 788.639 1443.34 781.83 1444.47M793.469 1526.38C796.783 1509.94 799.094 1470.55 781.83 1444.47M793.469 1526.38C786.026 1521.35 778.317 1515.87 770.619 1510M781.83 1444.47C776.646 1445.33 771.464 1446.06 766.392 1446.69M770.619 1510C774.902 1497.29 780.054 1466.82 766.392 1446.69M770.619 1510C764.285 1505.18 757.959 1500.1 751.792 1494.81M766.392 1446.69C762.8 1447.14 759.264 1447.53 755.821 1447.88M751.792 1494.81C755.651 1488.46 761.858 1470.19 755.821 1447.88M751.792 1494.81C746.48 1490.25 741.286 1485.54 736.309 1480.7M755.821 1447.88C750.651 1448.41 745.694 1448.84 741.082 1449.19M736.309 1480.7C739.289 1475.31 744.415 1461.46 741.082 1449.19M736.309 1480.7C732.338 1476.84 728.504 1472.9 724.858 1468.9M741.082 1449.19C735.973 1449.59 731.288 1449.9 727.205 1450.16M724.858 1468.9C719.728 1463.26 714.97 1457.49 710.721 1451.64C711.284 1451.1 717.565 1450.77 727.205 1450.16M724.858 1468.9C726.505 1465.3 729.281 1456.51 727.205 1450.16" stroke="white" stroke-opacity="0.2" stroke-width="2"/>
<path d="M806.903 1415C814.628 1423.88 821.869 1431.78 827.883 1437.64C805.34 1447.8 750.268 1464.07 710.314 1447.94C712.773 1440.71 715.943 1430.83 719.269 1419.63M806.903 1415C791.583 1420.96 752.608 1430.23 719.269 1419.63M806.903 1415C802.047 1409.41 796.999 1403.44 791.945 1397.34M719.269 1419.63C721.676 1411.51 724.165 1402.7 726.524 1393.7M791.945 1397.34C779.798 1401.72 749.707 1407.13 726.524 1393.7M791.945 1397.34C786.281 1390.5 780.608 1383.5 775.188 1376.71M726.524 1393.7C728.528 1386.05 730.439 1378.26 732.127 1370.64M775.188 1376.71C769.296 1378.59 752.435 1380.01 732.127 1370.64M775.188 1376.71C768.282 1368.06 761.786 1359.75 756.238 1352.54M732.127 1370.64C733.748 1363.32 735.163 1356.15 736.259 1349.41M756.238 1352.54C745.681 1338.82 738.559 1329.09 738.582 1328.61C738.324 1334.74 737.494 1341.8 736.259 1349.41M756.238 1352.54C751.982 1353.55 742.029 1354.35 736.259 1349.41" stroke="white" stroke-opacity="0.2" stroke-width="2"/>
<path d="M692.303 1426.06C699.216 1435.16 705.481 1442.78 710.429 1448.4C715.041 1444.33 741.673 1329.84 740.892 1326.57C732.856 1326.98 724.041 1326.4 714.974 1325.18M692.303 1426.06C701.253 1408.01 718.315 1362.56 714.974 1325.18M692.303 1426.06C687.47 1419.7 682.32 1412.63 677.081 1405.01M714.974 1325.18C708.24 1324.28 701.367 1323.02 694.57 1321.56M677.081 1405.01C685.904 1390.38 701.754 1353.21 694.57 1321.56M677.081 1405.01C671.826 1397.37 666.48 1389.18 661.275 1380.64M694.57 1321.56C689.397 1320.45 684.269 1319.22 679.28 1317.92M661.275 1380.64C669.719 1369.96 685.141 1342.48 679.28 1317.92M661.275 1380.64C656.993 1373.61 652.806 1366.33 648.842 1358.92M679.28 1317.92C675.747 1317.01 672.284 1316.06 668.924 1315.11M648.842 1358.92C654.675 1354.23 666.858 1338.91 668.924 1315.11M648.842 1358.92C645.427 1352.53 642.178 1346.03 639.177 1339.5M668.924 1315.11C663.879 1313.69 659.067 1312.24 654.605 1310.86M639.177 1339.5C643.852 1335.41 653.482 1323.95 654.605 1310.86M639.177 1339.5C636.781 1334.28 634.544 1329.04 632.505 1323.81M654.605 1310.86C649.663 1309.33 645.149 1307.87 641.219 1306.59M632.505 1323.81C629.637 1316.44 627.164 1309.1 625.2 1301.85C625.917 1301.54 631.94 1303.57 641.219 1306.59M632.505 1323.81C635.304 1320.95 640.965 1313.51 641.219 1306.59" stroke="white" stroke-opacity="0.2" stroke-width="2"/>
<path d="M725.098 1299.95C729.861 1310.28 734.452 1319.58 738.471 1326.66C713.942 1329.45 656.53 1328.48 623.112 1302.26C627.591 1296.37 633.529 1288.26 640.008 1278.98M725.098 1299.95C708.705 1300.99 668.736 1298.25 640.008 1278.98M725.098 1299.95C722.104 1293.45 719.041 1286.55 716.011 1279.52M640.008 1278.98C644.698 1272.26 649.671 1264.94 654.578 1257.39M716.011 1279.52C703.114 1280.03 672.772 1276.32 654.578 1257.39M716.011 1279.52C712.613 1271.65 709.256 1263.63 706.078 1255.87M654.578 1257.39C658.746 1250.98 662.867 1244.42 666.726 1237.94M706.078 1255.87C699.894 1255.89 683.368 1252.34 666.726 1237.94M706.078 1255.87C702.028 1245.98 698.271 1236.52 695.095 1228.35M666.726 1237.94C670.431 1231.72 673.895 1225.58 676.928 1219.74M695.095 1228.35C689.051 1212.78 685.112 1201.85 685.276 1201.42C683.222 1206.94 680.349 1213.16 676.928 1219.74M695.095 1228.35C690.729 1228.05 680.984 1225.91 676.928 1219.74" stroke="white" stroke-opacity="0.2" stroke-width="2"/>
<path d="M612.351 1277.1C616.277 1287.39 620.016 1296.15 623.088 1302.71C628.692 1300.32 687.867 1203.43 688.085 1200.22C680.288 1198.28 672.036 1195.21 663.731 1191.5M612.351 1277.1C626.22 1263.19 655.911 1226.59 663.731 1191.5M612.351 1277.1C609.607 1269.9 606.772 1261.96 604.011 1253.5M663.731 1191.5C657.564 1188.74 651.366 1185.62 645.304 1182.33M604.011 1253.5C616.75 1242.67 642.843 1213.29 645.304 1182.33M604.011 1253.5C601.241 1245.01 598.545 1236 596.09 1226.7M645.304 1182.33C640.69 1179.82 636.153 1177.22 631.767 1174.61M596.09 1226.7C607.302 1219.38 630.134 1198.71 631.767 1174.61M596.09 1226.7C594.069 1219.05 592.212 1211.2 590.61 1203.29M631.767 1174.61C628.661 1172.76 625.631 1170.9 622.701 1169.06M590.61 1203.29C597.563 1200.69 613.716 1190.2 622.701 1169.06M590.61 1203.29C589.229 1196.47 588.038 1189.61 587.096 1182.78M622.701 1169.06C618.301 1166.31 614.129 1163.61 610.274 1161.06M587.096 1182.78C592.768 1180.39 605.344 1172.69 610.274 1161.06M587.096 1182.78C586.344 1177.33 585.75 1171.9 585.344 1166.53M610.274 1161.06C606.003 1158.24 602.119 1155.62 598.741 1153.32M585.344 1166.53C584.773 1158.98 584.575 1151.56 584.833 1144.38C585.61 1144.3 590.766 1147.89 598.741 1153.32M585.344 1166.53C588.86 1164.73 596.462 1159.56 598.741 1153.32" stroke="white" stroke-opacity="0.2" stroke-width="2"/>
<path d="M689.978 1198.89C665.69 1194.46 611.016 1176.92 586.617 1142.15C592.609 1137.8 600.64 1131.76 609.526 1124.76C615.959 1119.68 622.841 1114.11 629.721 1108.31C635.566 1103.38 641.41 1098.29 646.978 1093.2C652.324 1088.32 657.416 1083.45 662.011 1078.74C667.191 1073.42 671.739 1068.31 675.304 1063.61C675.023 1063.98 675.629 1075.58 676.91 1092.23C677.583 1100.98 678.443 1111.12 679.458 1121.75C680.254 1130.1 681.146 1138.75 682.12 1147.27C682.988 1154.87 683.92 1162.37 684.907 1169.45C686.475 1180.72 688.18 1190.95 689.978 1198.89Z" fill="#161616"/>
<path d="M684.907 1169.45C686.475 1180.72 688.18 1190.95 689.978 1198.89C665.69 1194.46 611.016 1176.92 586.617 1142.15C592.609 1137.8 600.64 1131.76 609.526 1124.76M684.907 1169.45C668.914 1165.7 631.448 1151.51 609.526 1124.76M684.907 1169.45C683.92 1162.37 682.988 1154.87 682.12 1147.27M609.526 1124.76C615.959 1119.68 622.841 1114.11 629.721 1108.31M682.12 1147.27C669.628 1144.02 641.659 1131.69 629.721 1108.31M682.12 1147.27C681.146 1138.75 680.254 1130.1 679.458 1121.75M629.721 1108.31C635.566 1103.38 641.41 1098.29 646.978 1093.2M679.458 1121.75C673.532 1119.99 658.741 1111.8 646.978 1093.2M679.458 1121.75C678.443 1111.12 677.583 1100.98 676.91 1092.23M646.978 1093.2C652.324 1088.32 657.416 1083.45 662.011 1078.74M676.91 1092.23C675.629 1075.58 675.023 1063.98 675.304 1063.61C671.739 1068.31 667.191 1073.42 662.011 1078.74M676.91 1092.23C672.817 1090.68 664.107 1085.82 662.011 1078.74" stroke="white" stroke-opacity="0.2" stroke-width="2"/>
<path d="M678.33 1063.28C677.193 1066.29 592.508 1141.91 586.454 1142.57C585.41 1135.41 584.366 1125.94 583.588 1114.95C583.043 1107.27 582.629 1098.85 582.435 1089.95C582.24 1081.02 582.267 1071.62 582.608 1062C582.888 1054.1 583.381 1046.05 584.137 1038.01C584.788 1031.09 585.635 1024.17 586.71 1017.36C587.567 1011.93 588.57 1006.56 589.734 1001.31C591.373 993.915 593.331 986.752 595.656 979.955C596.421 980.105 600.319 985.031 606.382 992.533C608.951 995.71 611.907 999.35 615.18 1003.28C618.134 1006.84 621.346 1010.63 624.76 1014.54C627.033 1017.14 629.397 1019.8 631.834 1022.47C635.276 1026.24 638.865 1030.04 642.558 1033.77C647.409 1038.68 652.437 1043.46 657.542 1047.89C664.416 1053.85 671.428 1059.17 678.33 1063.28Z" fill="#161616"/>
<path d="M583.588 1114.95C584.366 1125.94 585.41 1135.41 586.454 1142.57C592.508 1141.91 677.193 1066.29 678.33 1063.28C671.428 1059.17 664.416 1053.85 657.542 1047.89M583.588 1114.95C600.888 1105.65 639.899 1079.22 657.542 1047.89M583.588 1114.95C583.043 1107.27 582.629 1098.85 582.435 1089.95M657.542 1047.89C652.437 1043.46 647.409 1038.68 642.558 1033.77M582.435 1089.95C597.76 1083.28 631.241 1062.7 642.558 1033.77M582.435 1089.95C582.24 1081.02 582.267 1071.62 582.608 1062M642.558 1033.77C638.865 1030.04 635.276 1026.24 631.834 1022.47M582.608 1062C595.459 1058.24 623.295 1045.07 631.834 1022.47M582.608 1062C582.888 1054.1 583.381 1046.05 584.137 1038.01M631.834 1022.47C629.397 1019.8 627.033 1017.14 624.76 1014.54M584.137 1038.01C591.545 1037.53 610.042 1032.17 624.76 1014.54M584.137 1038.01C584.788 1031.09 585.635 1024.17 586.71 1017.36M624.76 1014.54C621.346 1010.63 618.134 1006.84 615.18 1003.28M586.71 1017.36C592.831 1016.71 607.095 1012.99 615.18 1003.28M586.71 1017.36C587.567 1011.93 588.57 1006.56 589.734 1001.31M615.18 1003.28C611.907 999.35 608.95 995.71 606.382 992.533M589.734 1001.31C591.373 993.915 593.331 986.752 595.656 979.955C596.421 980.105 600.319 985.031 606.382 992.533M589.734 1001.31C593.622 1000.59 602.395 997.846 606.382 992.533" stroke="white" stroke-opacity="0.2" stroke-width="2"/>
<path d="M681.973 1035.4C679.957 1046.12 678.389 1055.95 677.61 1063.76C656.439 1051.14 611.114 1015.9 599.188 975.866C606.086 974.076 615.398 971.477 625.801 968.313M681.973 1035.4C668.289 1026.34 637.898 1000.24 625.801 968.313M681.973 1035.4C683.241 1028.66 684.685 1021.56 686.221 1014.4M625.801 968.313C633.332 966.022 641.435 963.435 649.606 960.645M686.221 1014.4C675.63 1007.04 653.48 985.976 649.606 960.645M686.221 1014.4C687.943 1006.37 689.779 998.247 691.611 990.435M649.606 960.645C656.547 958.274 663.537 955.757 670.27 953.148M691.611 990.435C686.658 986.736 675.455 974.102 670.27 953.148M691.611 990.435C693.946 980.48 696.272 971.027 698.342 962.896M670.27 953.148C676.733 950.644 682.959 948.056 688.675 945.434M698.342 962.896C702.282 947.423 705.294 936.74 705.668 936.51C700.914 939.48 695.119 942.478 688.675 945.434M698.342 962.896C695.021 960.048 688.438 952.567 688.675 945.434" stroke="white" stroke-opacity="0.2" stroke-width="2"/>
<path d="M604.751 950.256C602.089 960.445 600.141 969.357 598.903 976.19C604.724 977.743 706.593 939.592 708.576 937.281C703.439 931.119 698.571 923.83 694.03 916.011M604.751 950.256C623.669 948.008 668.009 938.011 694.03 916.011M604.751 950.256C606.613 943.133 608.823 935.386 611.385 927.288M694.03 916.011C690.657 910.205 687.464 904.106 684.474 897.96M611.385 927.288C627.66 926.711 665.062 920.038 684.474 897.96M611.385 927.288C613.954 919.165 616.877 910.691 620.154 902.14M684.474 897.96C682.198 893.282 680.039 888.577 678.007 883.953M620.154 902.14C633.236 903.31 663.122 901.31 678.007 883.953M620.154 902.14C622.85 895.106 625.786 888.021 628.964 881.039M678.007 883.953C676.568 880.678 675.194 877.444 673.886 874.288M628.964 881.039C635.984 883.239 654.798 884.969 673.886 874.288M628.964 881.039C631.701 875.025 634.617 869.087 637.712 863.324M673.886 874.288C671.923 869.548 670.111 864.986 668.464 860.733M637.712 863.324C643.591 864.913 657.972 866.619 668.464 860.733M637.712 863.324C640.182 858.725 642.766 854.238 645.465 849.913M668.464 860.733C666.64 856.022 665.018 851.688 663.614 847.91M645.465 849.913C649.261 843.827 653.285 838.061 657.536 832.755C658.2 833.162 660.298 838.989 663.614 847.91M645.465 849.913C649.291 850.652 658.277 851.288 663.614 847.91" stroke="white" stroke-opacity="0.2" stroke-width="2"/>
<path d="M723.34 908.491C718.262 918.149 713.873 927.084 710.837 934.313C694.308 916.031 661.342 869.026 661.708 827.256C668.827 827.572 678.492 827.825 689.366 827.858M723.34 908.491C712.924 895.809 691.546 861.927 689.366 827.858M723.34 908.491C726.533 902.42 729.999 896.063 733.573 889.665M689.366 827.858C697.237 827.881 705.742 827.79 714.373 827.524M733.573 889.665C725.614 879.515 710.631 852.875 714.373 827.524M733.573 889.665C737.579 882.495 741.721 875.272 745.768 868.344M714.373 827.524C721.704 827.298 729.126 826.946 736.327 826.432M745.768 868.344C742.12 863.353 735.125 847.984 736.327 826.432M745.768 868.344C750.925 859.515 755.927 851.163 760.295 843.999M736.327 826.432C743.242 825.938 749.953 825.294 756.186 824.467M760.295 843.999C768.608 830.368 774.627 821.042 775.052 820.932C769.635 822.373 763.215 823.536 756.186 824.467M760.295 843.999C757.958 840.301 753.864 831.216 756.186 824.467" stroke="white" stroke-opacity="0.2" stroke-width="2"/>
<path d="M674.548 804.418C669.009 813.375 664.528 821.321 661.336 827.488C666.444 830.683 775.026 824.156 777.601 822.529C774.502 815.13 771.992 806.732 769.949 797.924M674.548 804.418C693.291 807.829 738.611 811.305 769.949 797.924M674.548 804.418C678.421 798.157 682.811 791.401 687.639 784.414M769.949 797.924C768.432 791.383 767.172 784.615 766.12 777.862M687.639 784.414C703.364 788.646 741.077 793.26 766.12 777.862M687.639 784.414C692.482 777.405 697.766 770.164 703.412 762.954M766.12 777.862C765.319 772.722 764.638 767.59 764.055 762.573M703.412 762.954C715.572 767.917 744.726 774.788 764.055 762.573M703.412 762.954C708.056 757.023 712.945 751.114 718.034 745.374M764.055 762.573C763.642 759.02 763.279 755.524 762.957 752.124M718.034 745.374C724.098 749.54 741.572 756.723 762.957 752.124M718.034 745.374C722.418 740.43 726.95 735.611 731.602 731.012M762.957 752.124C762.473 747.016 762.082 742.123 761.758 737.574M731.602 731.012C736.755 734.259 749.999 740.116 761.758 737.574M731.602 731.012C735.314 727.343 739.103 723.813 742.954 720.472M761.758 737.574C761.399 732.534 761.122 727.916 760.89 723.891M742.954 720.472C748.371 715.771 753.912 711.442 759.534 707.619C760.05 708.204 760.343 714.39 760.89 723.891M742.954 720.472C746.394 722.303 754.796 725.552 760.89 723.891" stroke="white" stroke-opacity="0.2" stroke-width="2"/>
<path d="M771.709 819.791C762.894 796.776 749.118 741.04 764.537 702.219C771.062 705.083 779.984 708.807 790.113 712.763C797.445 715.627 805.41 718.611 813.554 721.479C820.473 723.914 827.521 726.265 834.423 728.385C841.049 730.42 847.541 732.242 853.652 733.721C860.543 735.39 866.95 736.623 872.522 737.234C872.086 737.183 863.107 743.708 850.434 753.42C843.774 758.523 836.094 764.507 828.098 770.879C821.823 775.88 815.353 781.12 809.029 786.361C803.386 791.037 797.86 795.714 792.69 800.224C784.468 807.397 777.151 814.146 771.709 819.791Z" fill="#161616"/>
<path d="M792.69 800.224C784.468 807.397 777.151 814.146 771.709 819.791C762.894 796.776 749.118 741.04 764.537 702.219C771.062 705.083 779.984 708.807 790.113 712.763M792.69 800.224C787.554 784.637 779.848 745.322 790.113 712.763M792.69 800.224C797.86 795.714 803.386 791.037 809.029 786.361M790.113 712.763C797.445 715.627 805.41 718.611 813.554 721.479M809.029 786.361C805.27 774.021 800.914 743.77 813.554 721.479M809.029 786.361C815.353 781.12 821.823 775.88 828.098 770.879M813.554 721.479C820.473 723.914 827.521 726.265 834.423 728.385M828.098 770.879C826.498 764.908 825.522 748.05 834.423 728.385M828.098 770.879C836.094 764.507 843.774 758.523 850.434 753.42M834.423 728.385C841.049 730.42 847.541 732.242 853.652 733.721M850.434 753.42C863.107 743.708 872.086 737.183 872.522 737.234C866.95 736.623 860.543 735.39 853.652 733.721M850.434 753.42C849.589 749.127 849.05 739.177 853.652 733.721" stroke="white" stroke-opacity="0.2" stroke-width="2"/>
<path d="M874.327 739.652C871.339 740.24 767.72 707.132 764.111 702.308C769.313 697.709 776.36 691.916 784.759 685.563C790.631 681.122 797.164 676.406 804.188 671.633C811.235 666.845 818.777 661.999 826.644 657.313C833.116 653.459 839.809 649.713 846.626 646.197C852.499 643.168 858.466 640.31 864.464 637.701C869.251 635.619 874.058 633.695 878.855 631.969C885.604 629.54 892.333 627.503 898.957 625.968C899.227 626.699 897.267 632.574 894.348 641.632C893.111 645.469 891.702 649.876 890.218 654.705C888.878 659.065 887.476 663.769 886.084 668.707C885.157 671.994 884.234 675.386 883.336 678.848C882.069 683.738 880.851 688.769 879.743 693.852C878.287 700.529 877.018 707.296 876.072 713.944C874.798 722.895 874.107 731.633 874.327 739.652Z" fill="#161616"/>
<path d="M784.759 685.563C776.36 691.916 769.313 697.709 764.111 702.308C767.72 707.132 871.339 740.24 874.327 739.652C874.107 731.633 874.798 722.895 876.072 713.944M784.759 685.563C801.007 695.51 842.017 715.11 876.072 713.944M784.759 685.563C790.631 681.122 797.164 676.406 804.188 671.633M876.072 713.944C877.018 707.296 878.287 700.529 879.743 693.852M804.188 671.633C817.326 681.256 850.83 699.172 879.743 693.852M804.188 671.633C811.235 666.845 818.777 661.999 826.644 657.313M879.743 693.852C880.851 688.769 882.069 683.738 883.336 678.848M826.644 657.313C836.194 666.331 860.901 683.263 883.336 678.848M826.644 657.313C833.116 653.459 839.809 649.713 846.626 646.197M883.336 678.848C884.234 675.386 885.157 671.994 886.084 668.707M846.626 646.197C850.778 652.271 864.481 665.277 886.084 668.707M846.626 646.197C852.499 643.168 858.466 640.31 864.464 637.701M886.084 668.707C887.476 663.769 888.878 659.065 890.218 654.705M864.464 637.701C868.097 642.588 878.335 652.832 890.218 654.705M864.464 637.701C869.251 635.619 874.058 633.695 878.855 631.969M890.218 654.705C891.702 649.876 893.111 645.469 894.348 641.632M878.855 631.969C885.604 629.54 892.333 627.503 898.957 625.968C899.227 626.699 897.267 632.574 894.348 641.632M878.855 631.969C881.402 634.919 888.066 640.981 894.348 641.632" stroke="white" stroke-opacity="0.2" stroke-width="2"/>
<path d="M906.289 724.332C896.465 729.08 887.625 733.657 880.886 737.665C878.461 713.139 879.892 655.743 905.014 622.371C910.551 626.857 918.173 632.805 926.898 639.295M906.289 724.332C905.451 707.942 908.4 667.988 926.898 639.295M906.289 724.332C912.466 721.348 919.031 718.296 925.708 715.276M926.898 639.295C933.214 643.993 940.107 648.975 947.206 653.891M925.708 715.276C925.342 702.382 929.128 672.053 947.206 653.891M925.708 715.276C933.192 711.89 940.816 708.545 948.189 705.379M947.206 653.891C953.235 658.067 959.413 662.196 965.51 666.062M948.189 705.379C948.222 699.197 951.733 682.68 965.51 666.062M948.189 705.379C957.584 701.344 966.571 697.601 974.342 694.437M965.51 666.062C971.364 669.775 977.144 673.247 982.648 676.288M974.342 694.437C989.13 688.416 999.513 684.494 999.921 684.658C994.708 682.597 988.853 679.716 982.648 676.288M974.342 694.437C974.661 690.073 976.768 680.334 982.648 676.288" stroke="white" stroke-opacity="0.2" stroke-width="2"/>
<path d="M928.924 611.642C919.146 615.551 910.819 619.278 904.587 622.34C906.795 627.945 997.993 687.239 1001.03 687.461C1002.94 679.669 1005.91 671.424 1009.5 663.126M928.924 611.642C941.969 625.525 976.347 655.259 1009.5 663.126M928.924 611.642C935.76 608.908 943.306 606.085 951.342 603.336M1009.5 663.126C1012.17 656.964 1015.18 650.773 1018.35 644.717M951.342 603.336C961.473 616.087 989.057 642.214 1018.35 644.717M951.342 603.336C959.403 600.579 967.957 597.896 976.782 595.454M1018.35 644.717C1020.76 640.107 1023.26 635.576 1025.78 631.195M976.782 595.454C983.611 606.674 1002.97 629.529 1025.78 631.195M976.782 595.454C984.042 593.445 991.486 591.599 998.99 590.009M1025.78 631.195C1027.56 628.092 1029.34 625.065 1031.1 622.139M998.99 590.009C1001.39 596.963 1011.17 613.126 1031.1 622.139M998.99 590.009C1005.45 588.638 1011.96 587.457 1018.44 586.524M1031.1 622.139C1033.75 617.744 1036.34 613.577 1038.79 609.726M1018.44 586.524C1020.65 592.198 1027.82 604.781 1038.79 609.726M1018.44 586.524C1023.6 585.78 1028.75 585.194 1033.83 584.796M1038.79 609.726C1041.49 605.46 1044.02 601.581 1046.22 598.207M1033.83 584.796C1040.98 584.236 1048.01 584.048 1054.81 584.316C1054.87 585.092 1051.43 590.242 1046.22 598.207M1033.83 584.796C1035.51 588.313 1040.34 595.92 1046.22 598.207" stroke="white" stroke-opacity="0.2" stroke-width="2"/>
<path d="M1034.35 679.447C1023.76 681.05 1014.13 682.783 1006.63 684.598C1011.91 660.542 1030.87 606.354 1064.48 582.051C1068.26 587.961 1073.52 595.882 1079.64 604.645M1034.35 679.447C1038.61 663.603 1053.62 626.461 1079.64 604.645M1034.35 679.447C1041.01 678.439 1048.05 677.482 1055.19 676.589M1079.64 604.645C1084.07 610.988 1088.95 617.773 1094.04 624.557M1055.19 676.589C1058.81 664.211 1071.65 636.476 1094.04 624.557M1055.19 676.589C1063.19 675.587 1071.31 674.665 1079.14 673.839M1094.04 624.557C1098.36 630.318 1102.84 636.079 1107.32 641.567M1079.14 673.839C1081.07 667.967 1089.4 653.292 1107.32 641.567M1079.14 673.839C1089.11 672.787 1098.62 671.89 1106.82 671.185M1107.32 641.567C1111.62 646.836 1115.93 651.853 1120.12 656.379M1106.82 671.185C1122.42 669.842 1133.28 669.19 1133.61 669.467C1129.39 665.959 1124.83 661.482 1120.12 656.379M1106.82 671.185C1108.45 667.127 1113.41 658.485 1120.12 656.379" stroke="white" stroke-opacity="0.2" stroke-width="2"/>
<path d="M1090.01 578.934C1079.72 579.754 1070.83 580.83 1064.09 581.895C1064.42 587.884 1131.02 671.351 1133.77 672.463C1137.94 665.614 1143.24 658.651 1149.13 651.821M1090.01 578.934C1097.88 596.013 1120.71 634.502 1149.13 651.821M1090.01 578.934C1097.21 578.36 1105.09 577.912 1113.41 577.68M1149.13 651.821C1153.5 646.749 1158.2 641.751 1163.01 636.928M1113.41 577.68C1118.91 592.817 1136.54 625.858 1163.01 636.928M1113.41 577.68C1121.75 577.447 1130.53 577.431 1139.49 577.726M1163.01 636.928C1166.67 633.257 1170.39 629.687 1174.07 626.264M1139.49 577.726C1142.39 590.426 1153.38 617.915 1174.07 626.264M1139.49 577.726C1146.86 577.967 1154.35 578.419 1161.81 579.131M1174.07 626.264C1176.68 623.84 1179.27 621.489 1181.81 619.228M1161.81 579.131C1161.91 586.46 1166.04 604.741 1181.81 619.228M1161.81 579.131C1168.25 579.744 1174.66 580.551 1180.97 581.583M1181.81 619.228C1185.62 615.831 1189.31 612.635 1192.77 609.696M1180.97 581.583C1181.29 587.639 1184.09 601.738 1192.77 609.696M1180.97 581.583C1186 582.408 1190.97 583.376 1195.82 584.504M1192.77 609.696C1196.59 606.439 1200.13 603.497 1203.22 600.941M1195.82 584.504C1202.64 586.092 1209.23 587.998 1215.47 590.268C1215.29 591.027 1210.51 594.906 1203.22 600.941M1195.82 584.504C1196.3 588.349 1198.45 597.018 1203.22 600.941" stroke="white" stroke-opacity="0.2" stroke-width="2"/>
<path d="M1163.36 679.611C1152.44 677.519 1142.43 675.884 1134.5 675.058C1146.87 653.723 1181.72 608.089 1222.1 596.237C1224.06 603.218 1226.88 612.644 1230.31 623.175M1163.36 679.611C1172.28 665.826 1198.15 635.24 1230.31 623.175M1163.36 679.611C1170.23 680.927 1177.46 682.422 1184.76 684.011M1230.31 623.175C1232.78 630.798 1235.57 639.001 1238.57 647.274M1184.76 684.011C1192.02 673.344 1212.94 651.062 1238.57 647.274M1184.76 684.011C1192.95 685.792 1201.23 687.69 1209.19 689.581M1238.57 647.274C1241.12 654.302 1243.82 661.38 1246.6 668.198M1209.19 689.581C1212.84 684.593 1225.44 673.333 1246.6 668.198M1209.19 689.581C1219.34 691.991 1228.98 694.39 1237.28 696.524M1246.6 668.198C1249.27 674.744 1252.03 681.05 1254.8 686.84M1237.28 696.524C1253.06 700.584 1263.96 703.683 1264.2 704.062C1261.09 699.241 1257.93 693.369 1254.8 686.84M1237.28 696.524C1240.1 693.181 1247.56 686.565 1254.8 686.84" stroke="white" stroke-opacity="0.2" stroke-width="2"/>
<path d="M1249.39 599.101C1238.99 596.358 1229.91 594.344 1222.95 593.058C1221.49 598.934 1262.28 702.093 1264.66 704.108C1270.81 698.947 1278.11 694.064 1285.95 689.514M1249.39 599.101C1252.05 618.233 1263.1 663.101 1285.95 689.514M1249.39 599.101C1256.65 601.018 1264.56 603.292 1272.83 605.922M1285.95 689.514C1291.78 686.134 1297.9 682.938 1304.08 679.946M1272.83 605.922C1273.75 622.375 1281.28 660.214 1304.08 679.946M1272.83 605.922C1281.13 608.56 1289.79 611.557 1298.53 614.913M1304.08 679.946C1308.78 677.669 1313.51 675.511 1318.16 673.481M1298.53 614.913C1297.61 628.13 1300.25 658.347 1318.16 673.481M1298.53 614.913C1305.72 617.674 1312.97 620.677 1320.12 623.924M1318.16 673.481C1321.46 672.043 1324.71 670.67 1327.89 669.364M1320.12 623.924C1318.03 631.009 1316.66 650.016 1327.89 669.364M1320.12 623.924C1326.28 626.721 1332.37 629.698 1338.28 632.856M1327.89 669.364C1332.66 667.404 1337.25 665.596 1341.53 663.953M1338.28 632.856C1336.79 638.791 1335.35 653.318 1341.53 663.953M1338.28 632.856C1343 635.376 1347.6 638.011 1352.05 640.76M1341.53 663.953C1346.28 662.133 1350.64 660.515 1354.45 659.115M1352.05 640.76C1358.3 644.628 1364.24 648.724 1369.71 653.048C1369.31 653.717 1363.44 655.809 1354.45 659.115M1352.05 640.76C1351.38 644.624 1350.91 653.704 1354.45 659.115" stroke="white" stroke-opacity="0.2" stroke-width="2"/>
<path d="M1266.81 707.826C1284.77 690.915 1331.2 657.137 1373.28 657.316C1373.17 664.565 1373.18 674.405 1373.45 685.475C1373.65 693.489 1373.98 702.147 1374.49 710.932C1374.92 718.394 1375.49 725.948 1376.21 733.277C1376.9 740.314 1377.73 747.143 1378.74 753.485C1379.88 760.636 1381.23 767.167 1382.83 772.675C1382.71 772.243 1373.14 766.159 1359.18 757.759C1351.84 753.345 1343.29 748.291 1334.25 743.082C1327.15 738.994 1319.76 734.811 1312.43 730.766C1305.88 727.157 1299.38 723.658 1293.18 720.436C1283.3 715.31 1274.18 710.884 1266.81 707.826Z" fill="#161616"/>
<path d="M1293.18 720.436C1283.3 715.31 1274.18 710.884 1266.81 707.826C1284.77 690.915 1331.2 657.137 1373.28 657.316C1373.17 664.565 1373.18 674.405 1373.45 685.475M1293.18 720.436C1305.66 709.773 1339.19 687.852 1373.45 685.475M1293.18 720.436C1299.38 723.658 1305.88 727.157 1312.43 730.766M1373.45 685.475C1373.65 693.489 1373.98 702.147 1374.49 710.932M1312.43 730.766C1322.43 722.616 1348.85 707.24 1374.49 710.932M1312.43 730.766C1319.76 734.811 1327.15 738.994 1334.25 743.082M1374.49 710.932C1374.92 718.394 1375.49 725.948 1376.21 733.277M1334.25 743.082C1339.17 739.346 1354.46 732.153 1376.21 733.277M1334.25 743.082C1343.29 748.291 1351.84 753.345 1359.18 757.759M1376.21 733.277C1376.9 740.314 1377.73 747.143 1378.74 753.485M1359.18 757.759C1373.14 766.159 1382.71 772.243 1382.83 772.675C1381.23 767.167 1379.88 760.636 1378.74 753.485M1359.18 757.759C1362.84 755.362 1371.88 751.152 1378.74 753.485" stroke="white" stroke-opacity="0.2" stroke-width="2"/>
<path d="M1383.25 772.849C1381.54 770.236 1371.93 659.724 1375 654.51C1381.3 657.731 1389.43 662.256 1398.61 667.854C1405.03 671.767 1411.96 676.205 1419.13 681.088C1426.33 685.986 1433.77 691.332 1441.19 697.046C1447.3 701.746 1453.39 706.696 1459.31 711.85C1464.41 716.29 1469.4 720.882 1474.16 725.597C1477.96 729.359 1481.62 733.2 1485.1 737.104C1489.98 742.598 1494.5 748.218 1498.51 753.924C1497.93 754.452 1491.71 754.779 1482.15 755.38C1478.11 755.634 1473.46 755.938 1468.39 756.327C1463.82 756.678 1458.9 757.098 1453.77 757.615C1450.35 757.958 1446.84 758.345 1443.27 758.781C1438.24 759.398 1433.09 760.115 1427.93 760.954C1421.16 762.056 1414.37 763.37 1407.83 764.945C1399.01 767.065 1390.62 769.66 1383.25 772.849Z" fill="#161616"/>
<path d="M1398.61 667.854C1389.43 662.256 1381.3 657.731 1375 654.51C1371.93 659.724 1381.54 770.236 1383.25 772.849C1390.62 769.66 1399.01 767.065 1407.83 764.945M1398.61 667.854C1395.7 686.95 1393.47 733.103 1407.83 764.945M1398.61 667.854C1405.03 671.767 1411.96 676.205 1419.13 681.088M1407.83 764.945C1414.37 763.37 1421.16 762.056 1427.93 760.954M1419.13 681.088C1415.31 697.117 1411.72 735.531 1427.93 760.954M1419.13 681.088C1426.33 685.986 1433.77 691.332 1441.19 697.046M1427.93 760.954C1433.09 760.115 1438.24 759.398 1443.27 758.781M1441.19 697.046C1436.53 709.449 1430.43 739.16 1443.27 758.781M1441.19 697.046C1447.3 701.746 1453.39 706.696 1459.31 711.85M1443.27 758.781C1446.84 758.345 1450.35 757.958 1453.77 757.615M1459.31 711.85C1455.28 718.043 1448.54 735.865 1453.77 757.615M1459.31 711.85C1464.41 716.29 1469.4 720.882 1474.16 725.597M1453.77 757.615C1458.9 757.098 1463.82 756.678 1468.39 756.327M1474.16 725.597C1471.03 730.857 1465.5 744.368 1468.39 756.327M1474.16 725.597C1477.96 729.359 1481.62 733.2 1485.1 737.104M1468.39 756.327C1473.46 755.938 1478.11 755.634 1482.15 755.38M1485.1 737.104C1489.98 742.598 1494.5 748.218 1498.51 753.924C1497.93 754.452 1491.71 754.779 1482.15 755.38M1485.1 737.104C1483.35 740.615 1480.31 749.184 1482.15 755.38" stroke="white" stroke-opacity="0.2" stroke-width="2"/>
<path d="M1399.69 790.083C1392.11 781.939 1385.01 774.704 1379.1 769.349C1401.69 759.454 1456.77 743.241 1496.35 757.553C1493.8 764.341 1490.51 773.614 1487.05 784.132M1399.69 790.083C1415.03 784.235 1453.98 774.858 1487.05 784.132M1399.69 790.083C1404.45 795.204 1409.4 800.683 1414.35 806.282M1487.05 784.132C1484.54 791.745 1481.94 800.011 1479.47 808.456M1414.35 806.282C1426.51 801.967 1456.56 796.362 1479.47 808.456M1414.35 806.282C1419.9 812.557 1425.46 818.981 1430.76 825.215M1479.47 808.456C1477.37 815.63 1475.36 822.934 1473.58 830.078M1430.76 825.215C1436.66 823.35 1453.47 821.713 1473.58 830.078M1430.76 825.215C1437.53 833.158 1443.88 840.792 1449.31 847.415M1473.58 830.078C1471.86 836.938 1470.35 843.652 1469.17 849.963M1449.31 847.415C1459.64 860.019 1466.61 868.964 1466.58 869.412C1466.92 863.685 1467.84 857.08 1469.17 849.963M1449.31 847.415C1453.57 846.388 1463.49 845.459 1469.17 849.963" stroke="white" stroke-opacity="0.2" stroke-width="2"/>
<path d="M1516.66 775.987C1509.89 767.631 1503.76 760.637 1498.9 755.486C1494.25 759.363 1466.18 866.68 1466.91 869.716C1474.92 869.188 1483.69 869.564 1492.71 870.529M1516.66 775.987C1507.5 792.995 1489.89 835.714 1492.71 870.529M1516.66 775.987C1521.39 781.829 1526.42 788.337 1531.54 795.347M1492.71 870.529C1499.41 871.246 1506.23 872.287 1512.98 873.525M1531.54 795.347C1522.55 809.159 1506.26 844.132 1512.98 873.525M1531.54 795.347C1536.67 802.378 1541.88 809.914 1546.95 817.79M1512.98 873.525C1518.12 874.467 1523.22 875.523 1528.17 876.635M1546.95 817.79C1538.4 827.906 1522.66 853.838 1528.17 876.635M1546.95 817.79C1551.12 824.268 1555.19 830.977 1559.04 837.822M1528.17 876.635C1531.67 877.423 1535.11 878.239 1538.44 879.063M1559.04 837.822C1553.17 842.301 1540.82 856.821 1538.44 879.063M1559.04 837.822C1562.36 843.719 1565.51 849.717 1568.41 855.759M1538.44 879.063C1543.45 880.301 1548.22 881.558 1552.65 882.764M1568.41 855.759C1563.7 859.663 1553.95 870.529 1552.65 882.764M1568.41 855.759C1570.72 860.579 1572.88 865.427 1574.84 870.272M1552.65 882.764C1557.55 884.101 1562.03 885.376 1565.93 886.496M1574.84 870.272C1577.6 877.088 1579.96 883.899 1581.82 890.621C1581.1 890.925 1575.13 889.141 1565.93 886.496M1574.84 870.272C1572.01 872.99 1566.27 880.041 1565.93 886.496" stroke="white" stroke-opacity="0.2" stroke-width="2"/>
<path d="M1477.34 895.8C1472.66 885.709 1468.14 876.629 1464.18 869.705C1488.73 867.297 1546.12 868.948 1579.32 894.819C1574.8 900.484 1568.79 908.281 1562.24 917.208M1477.34 895.8C1493.74 894.993 1533.68 898.145 1562.24 917.208M1477.34 895.8C1480.28 902.143 1483.29 908.886 1486.26 915.743M1562.24 917.208C1557.5 923.669 1552.47 930.723 1547.5 937.987M1486.26 915.743C1499.16 915.409 1529.46 919.389 1547.5 937.987M1486.26 915.743C1489.59 923.429 1492.88 931.259 1496 938.83M1547.5 937.987C1543.28 944.157 1539.11 950.479 1535.2 956.719M1496 938.83C1502.18 938.884 1518.68 942.537 1535.2 956.719M1496 938.83C1499.97 948.478 1503.65 957.706 1506.76 965.686M1535.2 956.719C1531.44 962.711 1527.93 968.627 1524.85 974.262M1506.76 965.686C1512.67 980.87 1516.52 991.532 1516.36 991.949C1518.45 986.609 1521.38 980.615 1524.85 974.262M1506.76 965.686C1511.12 966.027 1520.84 968.219 1524.85 974.262" stroke="white" stroke-opacity="0.2" stroke-width="2"/>
<path d="M1592.92 918.647C1589.08 908.606 1585.41 900.055 1582.39 893.654C1576.77 895.9 1516.83 989.236 1516.58 992.35C1524.36 994.33 1532.59 997.405 1540.86 1001.12M1592.92 918.647C1578.94 931.98 1548.96 967.14 1540.86 1001.12M1592.92 918.647C1595.61 925.666 1598.38 933.414 1601.07 941.663M1540.86 1001.12C1547 1003.87 1553.17 1006.98 1559.21 1010.25M1601.07 941.663C1588.25 952.012 1561.92 980.216 1559.21 1010.25M1601.07 941.663C1603.77 949.939 1606.39 958.72 1608.77 967.778M1559.21 1010.25C1563.8 1012.73 1568.32 1015.32 1572.68 1017.91M1608.77 967.778C1597.5 974.746 1574.51 994.527 1572.68 1017.91M1608.77 967.778C1610.73 975.23 1612.52 982.87 1614.06 990.571M1572.68 1017.91C1575.77 1019.74 1578.79 1021.58 1581.7 1023.4M1614.06 990.571C1607.09 993.01 1590.85 1002.99 1581.7 1023.4M1614.06 990.571C1615.39 997.205 1616.52 1003.88 1617.41 1010.53M1581.7 1023.4C1586.08 1026.13 1590.23 1028.8 1594.06 1031.32M1617.41 1010.53C1611.72 1012.78 1599.08 1020.09 1594.06 1031.32M1617.41 1010.53C1618.12 1015.83 1618.67 1021.11 1619.03 1026.32M1594.06 1031.32C1598.31 1034.11 1602.17 1036.71 1605.53 1038.98M1619.03 1026.32C1619.54 1033.65 1619.68 1040.86 1619.36 1047.83C1618.58 1047.9 1613.46 1044.35 1605.53 1038.98M1619.03 1026.32C1615.5 1028.03 1607.86 1032.95 1605.53 1038.98" stroke="white" stroke-opacity="0.2" stroke-width="2"/>
<path d="M1858.26 907.524L1765.37 869.423L1819.33 806.991L1726.09 780.477L1765.92 691.719L1664.33 678.401L1686.68 591.758L1594.95 593.727L1600.01 514.659L1509.4 523.44L1499.58 446.09L1419.45 475.791L1392.03 393.667L1307.73 429.966L1278.23 355.299L1207.53 402.551L1159.84 334.107L1095.39 394.683L1038.6 340.101L984.862 405.558L923.15 355.804L885.38 439.54L814.925 400.376L778.035 479.585L701.884 448.349L683.995 534.863L599.422 515.815L606.251 599.27L513.365 599.297L529.57 686.109L443.734 696.36L477.651 784.083L384.059 807.284L441.578 885.135L346.013 922.68L404.83 996.176L336.88 1045.05L398.657 1106.56L339.655 1169.37L406.527 1214.88L358.931 1289.21L439.32 1325.61L398.429 1411L480.265 1425.99L449.995 1506.94L542.57 1513.63L522.031 1605.41L606.548 1601.95L607.498 1685.43L688.946 1668.01L699.412 1767.62L779.4 1725.15L811.514 1807.74L886.514 1769.09L919.358 1845.13L994.442 1796.74L1043.71 1867.3L1109.63 1810.26L1175.2 1870.88L1220.48 1792.67L1279.7 1838.96L1320.66 1765.33L1395.54 1806.8L1420.59 1718.33L1507.63 1762.34L1516.36 1667.18L1605.51 1690.56L1601.64 1595.12L1684.61 1595.42L1672.39 1504.87L1758.05 1495.03L1726.45 1411.19L1812.54 1382.47L1770.05 1304.92L1847.3 1277.46L1787.23 1203.45L1867.4 1149.81L1807.25 1093.86L1874.62 1034.48L1804.79 981.885L1858.26 907.524Z" stroke="white" stroke-opacity="0.2" stroke-width="2"/>
<circle cx="1879.04" cy="846.146" r="26.2303" transform="rotate(112.303 1879.04 846.146)" fill="black"/>
<circle cx="1879.04" cy="846.146" r="25.2303" transform="rotate(112.303 1879.04 846.146)" stroke="white" stroke-opacity="0.2" stroke-width="2"/>
<circle cx="1908.68" cy="971.716" r="26.2303" transform="rotate(112.303 1908.68 971.716)" fill="black"/>
<circle cx="1908.68" cy="971.716" r="25.2303" transform="rotate(112.303 1908.68 971.716)" stroke="white" stroke-opacity="0.2" stroke-width="2"/>
<circle cx="1912.94" cy="1099.57" r="26.2303" transform="rotate(112.303 1912.94 1099.57)" fill="black"/>
<circle cx="1912.94" cy="1099.57" r="25.2303" transform="rotate(112.303 1912.94 1099.57)" stroke="white" stroke-opacity="0.2" stroke-width="2"/>
<circle cx="1906.31" cy="1222.97" r="26.2303" transform="rotate(112.303 1906.31 1222.97)" fill="black"/>
<circle cx="1906.31" cy="1222.97" r="25.2303" transform="rotate(112.303 1906.31 1222.97)" stroke="white" stroke-opacity="0.2" stroke-width="2"/>
<circle cx="1881.05" cy="1346.53" r="26.2303" transform="rotate(112.303 1881.05 1346.53)" fill="black"/>
<circle cx="1881.05" cy="1346.53" r="25.2303" transform="rotate(112.303 1881.05 1346.53)" stroke="white" stroke-opacity="0.2" stroke-width="2"/>
<circle cx="1833.79" cy="1468.9" r="26.2303" transform="rotate(112.303 1833.79 1468.9)" fill="black"/>
<circle cx="1833.79" cy="1468.9" r="25.2303" transform="rotate(112.303 1833.79 1468.9)" stroke="white" stroke-opacity="0.2" stroke-width="2"/>
<circle cx="1760.09" cy="1579.46" r="26.2303" transform="rotate(112.303 1760.09 1579.46)" fill="black"/>
<circle cx="1760.09" cy="1579.46" r="25.2303" transform="rotate(112.303 1760.09 1579.46)" stroke="white" stroke-opacity="0.2" stroke-width="2"/>
<circle cx="1678.5" cy="1671.13" r="26.2303" transform="rotate(112.303 1678.5 1671.13)" fill="black"/>
<circle cx="1678.5" cy="1671.13" r="25.2303" transform="rotate(112.303 1678.5 1671.13)" stroke="white" stroke-opacity="0.2" stroke-width="2"/>
<circle cx="1586.71" cy="1756.65" r="26.2303" transform="rotate(112.303 1586.71 1756.65)" fill="black"/>
<circle cx="1586.71" cy="1756.65" r="25.2303" transform="rotate(112.303 1586.71 1756.65)" stroke="white" stroke-opacity="0.2" stroke-width="2"/>
<circle cx="1477.09" cy="1826.07" r="26.2303" transform="rotate(112.303 1477.09 1826.07)" fill="black"/>
<circle cx="1477.09" cy="1826.07" r="25.2303" transform="rotate(112.303 1477.09 1826.07)" stroke="white" stroke-opacity="0.2" stroke-width="2"/>
<circle cx="1354.86" cy="1878.59" r="26.2303" transform="rotate(112.303 1354.86 1878.59)" fill="black"/>
<circle cx="1354.86" cy="1878.59" r="25.2303" transform="rotate(112.303 1354.86 1878.59)" stroke="white" stroke-opacity="0.2" stroke-width="2"/>
<circle cx="1226.94" cy="1909.21" r="26.2303" transform="rotate(112.303 1226.94 1909.21)" fill="black"/>
<circle cx="1226.94" cy="1909.21" r="25.2303" transform="rotate(112.303 1226.94 1909.21)" stroke="white" stroke-opacity="0.2" stroke-width="2"/>
<circle cx="1100.75" cy="1914.16" r="26.2303" transform="rotate(112.303 1100.75 1914.16)" fill="black"/>
<circle cx="1100.75" cy="1914.16" r="25.2303" transform="rotate(112.303 1100.75 1914.16)" stroke="white" stroke-opacity="0.2" stroke-width="2"/>
<circle cx="969.625" cy="1907.3" r="26.2303" transform="rotate(112.303 969.625 1907.3)" fill="black"/>
<circle cx="969.625" cy="1907.3" r="25.2303" transform="rotate(112.303 969.625 1907.3)" stroke="white" stroke-opacity="0.2" stroke-width="2"/>
<circle cx="842.6" cy="1873.77" r="26.2303" transform="rotate(112.303 842.6 1873.77)" fill="black"/>
<circle cx="842.6" cy="1873.77" r="25.2303" transform="rotate(112.303 842.6 1873.77)" stroke="white" stroke-opacity="0.2" stroke-width="2"/>
<circle cx="732.143" cy="1828.46" r="26.2303" transform="rotate(112.303 732.143 1828.46)" fill="black"/>
<circle cx="732.143" cy="1828.46" r="25.2303" transform="rotate(112.303 732.143 1828.46)" stroke="white" stroke-opacity="0.2" stroke-width="2"/>
<circle cx="621.252" cy="1755.6" r="26.2303" transform="rotate(112.303 621.252 1755.6)" fill="black"/>
<circle cx="621.252" cy="1755.6" r="25.2303" transform="rotate(112.303 621.252 1755.6)" stroke="white" stroke-opacity="0.2" stroke-width="2"/>
<circle cx="522.5" cy="1676.97" r="26.2303" transform="rotate(112.303 522.5 1676.97)" fill="black"/>
<circle cx="522.5" cy="1676.97" r="25.2303" transform="rotate(112.303 522.5 1676.97)" stroke="white" stroke-opacity="0.2" stroke-width="2"/>
<circle cx="440.895" cy="1577.99" r="26.2303" transform="rotate(112.303 440.895 1577.99)" fill="black"/>
<circle cx="440.895" cy="1577.99" r="25.2303" transform="rotate(112.303 440.895 1577.99)" stroke="white" stroke-opacity="0.2" stroke-width="2"/>
<circle cx="374.481" cy="1470.59" r="26.2303" transform="rotate(112.303 374.481 1470.59)" fill="black"/>
<circle cx="374.481" cy="1470.59" r="25.2303" transform="rotate(112.303 374.481 1470.59)" stroke="white" stroke-opacity="0.2" stroke-width="2"/>
<circle cx="319.951" cy="1348.5" r="26.2303" transform="rotate(112.303 319.951 1348.5)" fill="black"/>
<circle cx="319.951" cy="1348.5" r="25.2303" transform="rotate(112.303 319.951 1348.5)" stroke="white" stroke-opacity="0.2" stroke-width="2"/>
<circle cx="291.834" cy="1221.61" r="26.2303" transform="rotate(112.303 291.834 1221.61)" fill="black"/>
<circle cx="291.834" cy="1221.61" r="25.2303" transform="rotate(112.303 291.834 1221.61)" stroke="white" stroke-opacity="0.2" stroke-width="2"/>
<circle cx="279.317" cy="1097.2" r="26.2303" transform="rotate(112.303 279.317 1097.2)" fill="black"/>
<circle cx="279.317" cy="1097.2" r="25.2303" transform="rotate(112.303 279.317 1097.2)" stroke="white" stroke-opacity="0.2" stroke-width="2"/>
<circle cx="287.809" cy="971.638" r="26.2303" transform="rotate(112.303 287.809 971.638)" fill="black"/>
<circle cx="287.809" cy="971.638" r="25.2303" transform="rotate(112.303 287.809 971.638)" stroke="white" stroke-opacity="0.2" stroke-width="2"/>
<circle cx="319.813" cy="845.941" r="26.2303" transform="rotate(112.303 319.813 845.941)" fill="black"/>
<circle cx="319.813" cy="845.941" r="25.2303" transform="rotate(112.303 319.813 845.941)" stroke="white" stroke-opacity="0.2" stroke-width="2"/>
<circle cx="373.574" cy="729.169" r="26.2303" transform="rotate(112.303 373.574 729.169)" fill="black"/>
<circle cx="373.574" cy="729.169" r="25.2303" transform="rotate(112.303 373.574 729.169)" stroke="white" stroke-opacity="0.2" stroke-width="2"/>
<circle cx="433.002" cy="617.655" r="26.2303" transform="rotate(112.303 433.002 617.655)" fill="black"/>
<circle cx="433.002" cy="617.655" r="25.2303" transform="rotate(112.303 433.002 617.655)" stroke="white" stroke-opacity="0.2" stroke-width="2"/>
<circle cx="525.26" cy="516.677" r="26.2303" transform="rotate(112.303 525.26 516.677)" fill="black"/>
<circle cx="525.26" cy="516.677" r="25.2303" transform="rotate(112.303 525.26 516.677)" stroke="white" stroke-opacity="0.2" stroke-width="2"/>
<circle cx="619.619" cy="443.937" r="26.2303" transform="rotate(112.303 619.619 443.937)" fill="black"/>
<circle cx="619.619" cy="443.937" r="25.2303" transform="rotate(112.303 619.619 443.937)" stroke="white" stroke-opacity="0.2" stroke-width="2"/>
<circle cx="727.571" cy="373.827" r="26.2303" transform="rotate(112.303 727.571 373.827)" fill="black"/>
<circle cx="727.571" cy="373.827" r="25.2303" transform="rotate(112.303 727.571 373.827)" stroke="white" stroke-opacity="0.2" stroke-width="2"/>
<circle cx="846.457" cy="319.941" r="26.2303" transform="rotate(112.303 846.457 319.941)" fill="black"/>
<circle cx="846.457" cy="319.941" r="25.2303" transform="rotate(112.303 846.457 319.941)" stroke="white" stroke-opacity="0.2" stroke-width="2"/>
<circle cx="971.629" cy="296.008" r="26.2303" transform="rotate(112.303 971.629 296.008)" fill="black"/>
<circle cx="971.629" cy="296.008" r="25.2303" transform="rotate(112.303 971.629 296.008)" stroke="white" stroke-opacity="0.2" stroke-width="2"/>
<circle cx="1093.72" cy="279.618" r="26.2303" transform="rotate(112.303 1093.72 279.618)" fill="black"/>
<circle cx="1093.72" cy="279.618" r="25.2303" transform="rotate(112.303 1093.72 279.618)" stroke="white" stroke-opacity="0.2" stroke-width="2"/>
<circle cx="1227.5" cy="289.513" r="26.2303" transform="rotate(112.303 1227.5 289.513)" fill="black"/>
<circle cx="1227.5" cy="289.513" r="25.2303" transform="rotate(112.303 1227.5 289.513)" stroke="white" stroke-opacity="0.2" stroke-width="2"/>
<circle cx="1354.87" cy="322.212" r="26.2303" transform="rotate(112.303 1354.87 322.212)" fill="black"/>
<circle cx="1354.87" cy="322.212" r="25.2303" transform="rotate(112.303 1354.87 322.212)" stroke="white" stroke-opacity="0.2" stroke-width="2"/>
<circle cx="1472.63" cy="378.334" r="26.2303" transform="rotate(112.303 1472.63 378.334)" fill="black"/>
<circle cx="1472.63" cy="378.334" r="25.2303" transform="rotate(112.303 1472.63 378.334)" stroke="white" stroke-opacity="0.2" stroke-width="2"/>
<circle cx="1583.15" cy="435.401" r="26.2303" transform="rotate(112.303 1583.15 435.401)" fill="black"/>
<circle cx="1583.15" cy="435.401" r="25.2303" transform="rotate(112.303 1583.15 435.401)" stroke="white" stroke-opacity="0.2" stroke-width="2"/>
<circle cx="1682.2" cy="518.07" r="26.2303" transform="rotate(112.303 1682.2 518.07)" fill="black"/>
<circle cx="1682.2" cy="518.07" r="25.2303" transform="rotate(112.303 1682.2 518.07)" stroke="white" stroke-opacity="0.2" stroke-width="2"/>
<circle cx="1759.92" cy="619.357" r="26.2303" transform="rotate(112.303 1759.92 619.357)" fill="black"/>
<circle cx="1759.92" cy="619.357" r="25.2303" transform="rotate(112.303 1759.92 619.357)" stroke="white" stroke-opacity="0.2" stroke-width="2"/>
<circle cx="1826.68" cy="725.927" r="26.2303" transform="rotate(112.303 1826.68 725.927)" fill="black"/>
<circle cx="1826.68" cy="725.927" r="25.2303" transform="rotate(112.303 1826.68 725.927)" stroke="white" stroke-opacity="0.2" stroke-width="2"/>
</g>
</svg>
