<svg width="1590" height="1584" viewBox="0 0 1590 1584" fill="none" xmlns="http://www.w3.org/2000/svg">
<path d="M1140.09 322.602L1093.86 379.804M1173.42 321.458L1113.18 390.676L1143.31 416.419L1209.9 351.927L1241.04 382.99L1171.38 441.821L1197.61 473.877L1276.04 418.454L1303.7 456.228L1223.89 507.579L1246.43 540.175L1326.12 497.478L1345.44 544.191L1263.55 582.843L1275.24 611.279L1365 585.951L1379.28 629.953L1294.84 654.274L1301.89 691.52L1391.51 674.025L1396.54 724.524L1303.39 735.137L1304.53 768.466L1401.75 768.425L1403.53 820.271L1306.24 818.255L1304.62 854.975L1397.99 862.893L1388.95 911.403L1303.15 896.222L1290.33 930.855L1377.97 963.687L1364.61 1006.58L1276.92 972.1L1265.18 1002.16L1340.68 1053.54L1323.82 1090.37L1242.29 1043.32L1220.39 1077.44L1293.07 1130.56L1270.87 1167.99L1198.55 1113.21L1173.11 1140.45L1236.34 1206.25L1202.88 1239.53L1140.02 1172.48L1108.22 1194.17L1160.74 1271.88L1128.21 1296.47L1076.63 1222.03L1038.52 1239.82L1086.24 1321.81L1046.11 1340.9L1003.23 1255.86L961.384 1272.95L994.146 1363.28L964.845 1373.76L931.344 1285.93L896.183 1293.73L909.649 1385.96L863.265 1390.85L852.764 1300.99L816.966 1302.22L816.582 1399.04L776.669 1400.41L773.35 1303.71L731.593 1299.38L718.723 1392.51L679.72 1384.38L693.099 1294.11L656.012 1281.79L619.987 1372.42L587 1359.55L616.554 1272.43L578.857 1254.36L535.228 1339.49L501.079 1316.77L543.644 1236.62L510.8 1215.92L459.963 1295.11L420.211 1265.17L475.033 1194.07L446.929 1167.44L379.537 1232.37L350.979 1204.51L415.705 1133.9L394.923 1104.55L317.302 1159.53L295.485 1124.03L365.06 1074.67L345.357 1040.74L263.581 1082.69L240.43 1044.35L328.861 1004.23L315.302 969.272L226.163 1000.76L213.074 955.479L300.339 929.413L291.945 888.917L200.255 906.071L192.303 854.437L288.092 848.677L284.65 808.423L190.65 806.295L189.181 763.501L283.237 767.275L283.981 728.937L193.898 720.907L203.256 669.503L292.16 691.168L299.331 648.078L216.8 620.014L228.129 578.017L314.023 608.025L328.117 574.584L249.618 531.964L268.154 495.899L347.86 537.654L368.112 503.59L297.545 452.046L322.608 414.109L390.081 471.527L413.682 438.995L351.346 375.222L389.746 341.77L452.479 405.119L478.505 383.215L430.601 307.823L462.898 288.588L511.171 362.731L545.837 340.531L502.417 263.749L535.196 246.557L575.75 323.85L614.36 308.518L583.342 221.011L633.956 207.326L653.21 300.181L697.75 289.588L680.965 196.649L726.441 189.321L736.529 279.194L778.912 277.739L775.691 183.922L822.188 182.326L819.236 276.354L855.19 279.652L869.223 184.419L922.812 197.41L895.515 278.267L937.54 290.419L968.073 207.803L1009.09 226.581L971.477 306.969L1012.45 324.512L1054.48 240.677L1095.75 266.862L1048.84 340.565L1085.49 364.025L1138.99 290.507L1173.42 321.458Z" stroke="white" stroke-opacity="0.2" stroke-width="2"/>
<path d="M1214.28 383.499L1156.2 431.632M1272.61 450.705L1209.72 490.765M1312.91 532.538L1249.28 563.148M1348.63 612.88L1278.83 631.755M1374.79 703.026L1302.61 712.507M1382.79 792.147L1298.31 791.339M1400.96 745.383L1324.43 748.011M1386.93 648.642L1321.73 669.419M1359.56 559.362L1291.32 587.658M1310.81 471.228L1255.7 510.196M1258.5 399.695L1201.23 447.389M1197.33 333.821L1143.92 385.914M1115.03 276.5L1079.65 337.861M1059.35 274.704L1028.21 339.627M1032.6 227.423L999.871 294.048M955.373 305.875L979.264 233.785M942.69 200.436L925.27 269.008M889.013 208.87L875.55 284.722M843.258 184.076L845.716 255.673M794.97 205.508L797.499 279.162M750.676 187.254L756.992 263.25M704.445 208.615L717.261 281.917M656.347 199.556L671.871 279.767M612.414 227.841L632.31 303.371M587.261 299.15L560.98 229.607M529.984 274.751L564.695 337.825M479.488 267.833L522.087 332.697M462.382 321.564L496.767 375.174M407.244 323.457L456.144 379.864M392.664 378.748L435.876 425.464M391.533 441.817L330.983 394.048M332.918 450.421L382.913 490.724M277.139 469.638L334.938 509.262M278.863 519.838L344.877 558.768M234.333 554.736L299.625 584.627M243.094 605.93L311.367 626.656M197.784 642.09L280.374 659.853M216.178 697.898L291.547 709.317M185.552 741.793L262.809 748.204M219.159 784.719L288.059 787.709M188.674 832.729L258.625 830.328M290.7 864.655L217.385 877.059M268.558 915.675L199.527 932.875M309.971 945.974L241.109 968.112M295.136 993.859L227.324 1022.55M340.068 1018.68L276.469 1050.11M331.206 1072.54L275.141 1107.42M380.382 1088.98L329.737 1125.73M388.221 1137.32L331.7 1182.93M429.764 1147.43L390.199 1194.93M440.71 1202.26L392.176 1252.54M493.959 1205.37L451.086 1264.52M517.507 1243.29L475.739 1310.64M561.947 1241.76L525.81 1317.16M591.354 1282.36L555.573 1356.1M635.652 1276.72L610.924 1348.43M673.119 1312.1L645.483 1383.08M713.786 1296.7L700.75 1372.95M754.874 1317.53L745.028 1402.73M796.762 1301.68L794.153 1381.69M836.33 1326.27L838.845 1399.51M872.885 1299.06L888.254 1374.75M921.266 1316.35L936.395 1385.04M948.84 1279.56L973.064 1349.18M1000.74 1291.38L1023.65 1358.56M1019.85 1247.88L1053.61 1307.28M1073.34 1246.04L1111.61 1316.82M1090.07 1205.51L1132.81 1262.54M1137.08 1194.83L1192.37 1257.2M1151.69 1152.31L1204.66 1207.34M1202.33 1139.45L1259.29 1190.63M1205.26 1092.79L1264.46 1137.31M1246.02 1020.13L1314.59 1061.44M1255.25 1072.95L1316.37 1113.29M1287.33 999.345L1359.66 1030.23M1274.93 950.335L1353.31 977.306M1294.57 874.272L1375.29 885.508M1309.66 917.834L1387.85 939.455M1323.38 837.442L1410 840.648" stroke="white" stroke-opacity="0.2" stroke-width="2"/>
<path d="M1055.41 631.372L1061.56 585.335L1009.89 622.181L1055.41 631.372Z" fill="#F2FF84"/>
<path d="M1060.27 587.487L1012.34 621.657L1054.56 630.181L1060.27 587.487Z" stroke="white" stroke-opacity="0.2" stroke-width="2"/>
<path d="M1051.16 643.52L1009.93 628.235L1043.07 686.739L1051.16 643.52Z" fill="#F2FF84"/>
<path d="M1012.15 630.125L1042.59 683.863L1050.02 644.164L1012.15 630.125Z" stroke="white" stroke-opacity="0.2" stroke-width="2"/>
<rect x="1040.74" y="554.235" width="24.7031" height="71.5497" transform="rotate(49.3905 1040.74 554.235)" fill="#F2FF84"/>
<rect x="1040.64" y="555.645" width="22.7031" height="69.5497" transform="rotate(49.3905 1040.64 555.645)" stroke="white" stroke-opacity="0.2" stroke-width="2"/>
<path d="M1097.58 815.806L1129.55 782.114L1066.09 781.671L1097.58 815.806Z" fill="#F2FF84"/>
<path d="M1127.24 783.098L1068.38 782.687L1097.59 814.343L1127.24 783.098Z" stroke="white" stroke-opacity="0.2" stroke-width="2"/>
<path d="M1064.92 654.932L1048.17 698.252L1107.03 674.52L1064.92 654.932Z" fill="#F2FF84"/>
<path d="M1049.93 696.463L1104.52 674.454L1065.46 656.289L1049.93 696.463Z" stroke="white" stroke-opacity="0.2" stroke-width="2"/>
<path d="M1097 843.627L1057.63 868.269L1118.97 884.544L1097 843.627Z" fill="#F2FF84"/>
<path d="M1060.11 867.894L1117 882.987L1096.62 845.041L1060.11 867.894Z" stroke="white" stroke-opacity="0.2" stroke-width="2"/>
<path d="M1067.53 639.37L1108.76 654.654L1075.62 596.151L1067.53 639.37Z" fill="#F2FF84"/>
<path d="M1106.54 652.765L1076.1 599.027L1068.67 638.725L1106.54 652.765Z" stroke="white" stroke-opacity="0.2" stroke-width="2"/>
<path d="M1105.12 827.993L1131.49 863.177L1135.34 796.051L1105.12 827.993Z" fill="#F2FF84"/>
<path d="M1130.65 860.387L1134.19 798.728L1106.43 828.068L1130.65 860.387Z" stroke="white" stroke-opacity="0.2" stroke-width="2"/>
<path d="M1089.13 825.414L1062.76 790.23L1058.91 857.356L1089.13 825.414Z" fill="#F2FF84"/>
<path d="M1063.6 793.021L1060.06 854.679L1087.82 825.339L1063.6 793.021Z" stroke="white" stroke-opacity="0.2" stroke-width="2"/>
<rect x="993.439" y="513.019" width="24.7031" height="71.5497" transform="rotate(36.6913 993.439 513.019)" fill="#F2FF84"/>
<rect x="993.644" y="514.418" width="22.7031" height="69.5497" transform="rotate(36.6913 993.644 514.418)" stroke="white" stroke-opacity="0.2" stroke-width="2"/>
<rect x="1117.65" y="684.253" width="24.7031" height="71.5497" transform="rotate(72.944 1117.65 684.253)" fill="#F2FF84"/>
<rect x="1116.99" y="685.502" width="22.7031" height="69.5497" transform="rotate(72.944 1116.99 685.502)" stroke="white" stroke-opacity="0.2" stroke-width="2"/>
<rect x="1130.02" y="745.617" width="24.7031" height="71.5497" transform="rotate(85.4447 1130.02 745.617)" fill="#F2FF84"/>
<rect x="1129.1" y="746.693" width="22.7031" height="69.5497" transform="rotate(85.4447 1129.1 746.693)" stroke="white" stroke-opacity="0.2" stroke-width="2"/>
<rect x="1116.49" y="894.969" width="24.7031" height="71.5497" transform="rotate(108.728 1116.49 894.969)" fill="#F2FF84"/>
<rect x="1115.22" y="895.595" width="22.7031" height="69.5497" transform="rotate(108.728 1115.22 895.595)" stroke="white" stroke-opacity="0.2" stroke-width="2"/>
<rect x="1093.74" y="952.355" width="24.7031" height="71.5497" transform="rotate(121.097 1093.74 952.355)" fill="#F2FF84"/>
<rect x="1092.37" y="952.695" width="22.7031" height="69.5497" transform="rotate(121.097 1092.37 952.695)" stroke="white" stroke-opacity="0.2" stroke-width="2"/>
<rect x="995.531" y="1067.68" width="24.7031" height="71.5497" transform="rotate(145.526 995.531 1067.68)" fill="#F2FF84"/>
<rect x="994.141" y="1067.42" width="22.7031" height="69.5497" transform="rotate(145.526 994.141 1067.42)" stroke="white" stroke-opacity="0.2" stroke-width="2"/>
<rect x="944.656" y="1097.59" width="24.7031" height="71.5497" transform="rotate(155.865 944.656 1097.59)" fill="#F2FF84"/>
<rect x="943.335" y="1097.09" width="22.7031" height="69.5497" transform="rotate(155.865 943.335 1097.09)" stroke="white" stroke-opacity="0.2" stroke-width="2"/>
<rect x="796.588" y="1132.14" width="24.7031" height="71.5497" transform="rotate(-179.228 796.588 1132.14)" fill="#F2FF84"/>
<rect x="795.601" y="1131.12" width="22.7031" height="69.5497" transform="rotate(-179.228 795.601 1131.12)" stroke="white" stroke-opacity="0.2" stroke-width="2"/>
<rect x="737.025" y="1127.14" width="24.7031" height="71.5497" transform="rotate(-167.141 737.025 1127.14)" fill="#F2FF84"/>
<rect x="736.273" y="1125.94" width="22.7031" height="69.5497" transform="rotate(-167.141 736.273 1125.94)" stroke="white" stroke-opacity="0.2" stroke-width="2"/>
<rect x="593.559" y="1068.08" width="24.7031" height="71.5497" transform="rotate(-142.035 593.559 1068.08)" fill="#F2FF84"/>
<rect x="593.385" y="1066.68" width="22.7031" height="69.5497" transform="rotate(-142.035 593.385 1066.68)" stroke="white" stroke-opacity="0.2" stroke-width="2"/>
<rect x="550.609" y="1029.14" width="24.7031" height="71.5497" transform="rotate(-132.131 550.609 1029.14)" fill="#F2FF84"/>
<rect x="550.68" y="1027.73" width="22.7031" height="69.5497" transform="rotate(-132.131 550.68 1027.73)" stroke="white" stroke-opacity="0.2" stroke-width="2"/>
<rect x="469.203" y="891.967" width="24.7031" height="71.5497" transform="rotate(-102.291 469.203 891.967)" fill="#F2FF84"/>
<rect x="469.967" y="890.777" width="22.7031" height="69.5497" transform="rotate(-102.291 469.967 890.777)" stroke="white" stroke-opacity="0.2" stroke-width="2"/>
<rect x="457.836" y="833.905" width="24.7031" height="71.5497" transform="rotate(-93.3823 457.836 833.905)" fill="#F2FF84"/>
<rect x="458.775" y="832.848" width="22.7031" height="69.5497" transform="rotate(-93.3823 458.775 832.848)" stroke="white" stroke-opacity="0.2" stroke-width="2"/>
<rect x="469.322" y="688.366" width="24.7031" height="71.5497" transform="rotate(-70.813 469.322 688.366)" fill="#F2FF84"/>
<rect x="470.595" y="687.75" width="22.7031" height="69.5497" transform="rotate(-70.813 470.595 687.75)" stroke="white" stroke-opacity="0.2" stroke-width="2"/>
<rect x="489.766" y="632.092" width="24.7031" height="71.5497" transform="rotate(-60.2915 489.766 632.092)" fill="#F2FF84"/>
<rect x="491.13" y="631.719" width="22.7031" height="69.5497" transform="rotate(-60.2915 491.13 631.719)" stroke="white" stroke-opacity="0.2" stroke-width="2"/>
<rect x="593.381" y="513.139" width="24.7031" height="71.5497" transform="rotate(-36.5835 593.381 513.139)" fill="#F2FF84"/>
<rect x="594.78" y="513.346" width="22.7031" height="69.5497" transform="rotate(-36.5835 594.78 513.346)" stroke="white" stroke-opacity="0.2" stroke-width="2"/>
<rect x="641.404" y="486.991" width="24.7031" height="71.5497" transform="rotate(-25.0057 641.404 486.991)" fill="#F2FF84"/>
<rect x="642.733" y="487.475" width="22.7031" height="69.5497" transform="rotate(-25.0057 642.733 487.475)" stroke="white" stroke-opacity="0.2" stroke-width="2"/>
<rect x="796.383" y="450.57" width="24.7031" height="71.5497" transform="rotate(-0.946208 796.383 450.57)" fill="#F2FF84"/>
<rect x="797.399" y="451.554" width="22.7031" height="69.5497" transform="rotate(-0.946208 797.399 451.554)" stroke="white" stroke-opacity="0.2" stroke-width="2"/>
<rect x="858.566" y="455.03" width="24.7031" height="71.5497" transform="rotate(14.904 858.566 455.03)" fill="#F2FF84"/>
<rect x="859.276" y="456.254" width="22.7031" height="69.5497" transform="rotate(14.904 859.276 456.254)" stroke="white" stroke-opacity="0.2" stroke-width="2"/>
<circle cx="1017.28" cy="549.275" r="8.23438" transform="rotate(88.0338 1017.28 549.275)" fill="#F2FF84"/>
<circle cx="1017.28" cy="549.275" r="7.23438" transform="rotate(88.0338 1017.28 549.275)" stroke="white" stroke-opacity="0.2" stroke-width="2"/>
<circle cx="1114.91" cy="727.411" r="8.23438" transform="rotate(125.17 1114.91 727.411)" fill="#F2FF84"/>
<circle cx="1114.91" cy="727.411" r="7.23438" transform="rotate(125.17 1114.91 727.411)" stroke="white" stroke-opacity="0.2" stroke-width="2"/>
<circle cx="1003.86" cy="566.212" r="8.23438" transform="rotate(88.0338 1003.86 566.212)" fill="#F2FF84"/>
<circle cx="1003.86" cy="566.212" r="7.23438" transform="rotate(88.0338 1003.86 566.212)" stroke="white" stroke-opacity="0.2" stroke-width="2"/>
<circle cx="1093.98" cy="732.811" r="8.23438" transform="rotate(125.17 1093.98 732.811)" fill="#F2FF84"/>
<circle cx="1093.98" cy="732.811" r="7.23438" transform="rotate(125.17 1093.98 732.811)" stroke="white" stroke-opacity="0.2" stroke-width="2"/>
<circle cx="987.965" cy="583.239" r="8.23438" transform="rotate(88.0338 987.965 583.239)" fill="#F2FF84"/>
<circle cx="987.965" cy="583.239" r="7.23438" transform="rotate(88.0338 987.965 583.239)" stroke="white" stroke-opacity="0.2" stroke-width="2"/>
<circle cx="1071.03" cy="736.791" r="8.23438" transform="rotate(125.17 1071.03 736.791)" fill="#F2FF84"/>
<circle cx="1071.03" cy="736.791" r="7.23438" transform="rotate(125.17 1071.03 736.791)" stroke="white" stroke-opacity="0.2" stroke-width="2"/>
<circle cx="1099.91" cy="822.539" r="5.34969" transform="rotate(125.17 1099.91 822.539)" fill="#F2FF84"/>
<circle cx="1099.91" cy="822.539" r="4.34969" transform="rotate(125.17 1099.91 822.539)" stroke="white" stroke-opacity="0.2" stroke-width="2"/>
<circle cx="1097.92" cy="836.613" r="5.34969" transform="rotate(125.17 1097.92 836.613)" fill="#F2FF84"/>
<circle cx="1097.92" cy="836.613" r="4.34969" transform="rotate(125.17 1097.92 836.613)" stroke="white" stroke-opacity="0.2" stroke-width="2"/>
<circle cx="1092.86" cy="929.067" r="5.34969" transform="rotate(125.17 1092.86 929.067)" fill="#F2FF84"/>
<circle cx="1092.86" cy="929.067" r="4.34969" transform="rotate(125.17 1092.86 929.067)" stroke="white" stroke-opacity="0.2" stroke-width="2"/>
<circle cx="949.873" cy="1075.22" r="5.34969" transform="rotate(165.689 949.873 1075.22)" fill="#F2FF84"/>
<circle cx="949.873" cy="1075.22" r="4.34969" transform="rotate(165.689 949.873 1075.22)" stroke="white" stroke-opacity="0.2" stroke-width="2"/>
<circle cx="755.111" cy="1117.19" r="5.34969" transform="rotate(-163.062 755.111 1117.19)" fill="#F2FF84"/>
<circle cx="755.111" cy="1117.19" r="4.34969" transform="rotate(-163.062 755.111 1117.19)" stroke="white" stroke-opacity="0.2" stroke-width="2"/>
<circle cx="569.832" cy="1028.21" r="5.34969" transform="rotate(-118.933 569.832 1028.21)" fill="#F2FF84"/>
<circle cx="569.832" cy="1028.21" r="4.34969" transform="rotate(-118.933 569.832 1028.21)" stroke="white" stroke-opacity="0.2" stroke-width="2"/>
<circle cx="475.197" cy="850.57" r="5.34969" transform="rotate(-85.1088 475.197 850.57)" fill="#F2FF84"/>
<circle cx="475.197" cy="850.57" r="4.34969" transform="rotate(-85.1088 475.197 850.57)" stroke="white" stroke-opacity="0.2" stroke-width="2"/>
<circle cx="495.452" cy="654.654" r="5.34969" transform="rotate(-52.3895 495.452 654.654)" fill="#F2FF84"/>
<circle cx="495.452" cy="654.654" r="4.34969" transform="rotate(-52.3895 495.452 654.654)" stroke="white" stroke-opacity="0.2" stroke-width="2"/>
<circle cx="636.198" cy="507.289" r="5.34969" transform="rotate(-15.3125 636.198 507.289)" fill="#F2FF84"/>
<circle cx="636.198" cy="507.289" r="4.34969" transform="rotate(-15.3125 636.198 507.289)" stroke="white" stroke-opacity="0.2" stroke-width="2"/>
<circle cx="837.349" cy="466.012" r="5.34969" transform="rotate(19.9039 837.349 466.012)" fill="#F2FF84"/>
<circle cx="837.349" cy="466.012" r="4.34969" transform="rotate(19.9039 837.349 466.012)" stroke="white" stroke-opacity="0.2" stroke-width="2"/>
<circle cx="1072" cy="921.543" r="5.34969" transform="rotate(125.17 1072 921.543)" fill="#F2FF84"/>
<circle cx="1072" cy="921.543" r="4.34969" transform="rotate(125.17 1072 921.543)" stroke="white" stroke-opacity="0.2" stroke-width="2"/>
<circle cx="938.906" cy="1055.96" r="5.34969" transform="rotate(165.689 938.906 1055.96)" fill="#F2FF84"/>
<circle cx="938.906" cy="1055.96" r="4.34969" transform="rotate(165.689 938.906 1055.96)" stroke="white" stroke-opacity="0.2" stroke-width="2"/>
<circle cx="755.728" cy="1095.03" r="5.34969" transform="rotate(-163.062 755.728 1095.03)" fill="#F2FF84"/>
<circle cx="755.728" cy="1095.03" r="4.34969" transform="rotate(-163.062 755.728 1095.03)" stroke="white" stroke-opacity="0.2" stroke-width="2"/>
<circle cx="585.709" cy="1012.73" r="5.34969" transform="rotate(-118.933 585.709 1012.73)" fill="#F2FF84"/>
<circle cx="585.709" cy="1012.73" r="4.34969" transform="rotate(-118.933 585.709 1012.73)" stroke="white" stroke-opacity="0.2" stroke-width="2"/>
<circle cx="497.001" cy="846.558" r="5.34969" transform="rotate(-85.1088 497.001 846.558)" fill="#F2FF84"/>
<circle cx="497.001" cy="846.558" r="4.34969" transform="rotate(-85.1088 497.001 846.558)" stroke="white" stroke-opacity="0.2" stroke-width="2"/>
<circle cx="515.973" cy="663.056" r="5.34969" transform="rotate(-52.3895 515.973 663.056)" fill="#F2FF84"/>
<circle cx="515.973" cy="663.056" r="4.34969" transform="rotate(-52.3895 515.973 663.056)" stroke="white" stroke-opacity="0.2" stroke-width="2"/>
<circle cx="647.496" cy="526.358" r="5.34969" transform="rotate(-15.3125 647.496 526.358)" fill="#F2FF84"/>
<circle cx="647.496" cy="526.358" r="4.34969" transform="rotate(-15.3125 647.496 526.358)" stroke="white" stroke-opacity="0.2" stroke-width="2"/>
<circle cx="835.582" cy="488.106" r="5.34969" transform="rotate(19.9039 835.582 488.106)" fill="#F2FF84"/>
<circle cx="835.582" cy="488.106" r="4.34969" transform="rotate(19.9039 835.582 488.106)" stroke="white" stroke-opacity="0.2" stroke-width="2"/>
<circle cx="1051.94" cy="913.163" r="5.34969" transform="rotate(125.17 1051.94 913.163)" fill="#F2FF84"/>
<circle cx="1051.94" cy="913.163" r="4.34969" transform="rotate(125.17 1051.94 913.163)" stroke="white" stroke-opacity="0.2" stroke-width="2"/>
<circle cx="929.096" cy="1036.55" r="5.34969" transform="rotate(165.689 929.096 1036.55)" fill="#F2FF84"/>
<circle cx="929.096" cy="1036.55" r="4.34969" transform="rotate(165.689 929.096 1036.55)" stroke="white" stroke-opacity="0.2" stroke-width="2"/>
<circle cx="757.406" cy="1073.36" r="5.34969" transform="rotate(-163.062 757.406 1073.36)" fill="#F2FF84"/>
<circle cx="757.406" cy="1073.36" r="4.34969" transform="rotate(-163.062 757.406 1073.36)" stroke="white" stroke-opacity="0.2" stroke-width="2"/>
<circle cx="602.01" cy="998.346" r="5.34969" transform="rotate(-118.933 602.01 998.346)" fill="#F2FF84"/>
<circle cx="602.01" cy="998.346" r="4.34969" transform="rotate(-118.933 602.01 998.346)" stroke="white" stroke-opacity="0.2" stroke-width="2"/>
<circle cx="518.55" cy="843.673" r="5.34969" transform="rotate(-85.1088 518.55 843.673)" fill="#F2FF84"/>
<circle cx="518.55" cy="843.673" r="4.34969" transform="rotate(-85.1088 518.55 843.673)" stroke="white" stroke-opacity="0.2" stroke-width="2"/>
<circle cx="535.657" cy="672.28" r="5.34969" transform="rotate(-52.3895 535.657 672.28)" fill="#F2FF84"/>
<circle cx="535.657" cy="672.28" r="4.34969" transform="rotate(-52.3895 535.657 672.28)" stroke="white" stroke-opacity="0.2" stroke-width="2"/>
<circle cx="657.643" cy="545.59" r="5.34969" transform="rotate(-15.3125 657.643 545.59)" fill="#F2FF84"/>
<circle cx="657.643" cy="545.59" r="4.34969" transform="rotate(-15.3125 657.643 545.59)" stroke="white" stroke-opacity="0.2" stroke-width="2"/>
<circle cx="832.785" cy="509.672" r="5.34969" transform="rotate(19.9039 832.785 509.672)" fill="#F2FF84"/>
<circle cx="832.785" cy="509.672" r="4.34969" transform="rotate(19.9039 832.785 509.672)" stroke="white" stroke-opacity="0.2" stroke-width="2"/>
<path d="M1026.26 989.486L1072.19 982.548L1022.39 943.202L1026.26 989.486Z" fill="#F2FF84"/>
<path d="M1069.76 981.903L1023.57 945.415L1027.17 988.337L1069.76 981.903Z" stroke="white" stroke-opacity="0.2" stroke-width="2"/>
<path d="M1008.7 1011.07L962.497 1006.32L1000.9 1056.85L1008.7 1011.07Z" fill="#F2FF84"/>
<path d="M964.688 1007.55L1000.3 1054.41L1007.53 1011.95L964.688 1007.55Z" stroke="white" stroke-opacity="0.2" stroke-width="2"/>
<path d="M1024.71 1003.74L1023.9 1047.7L1068.18 997.103L1024.71 1003.74Z" fill="#F2FF84"/>
<path d="M1024.95 1044.98L1065.62 998.506L1025.7 1004.6L1024.95 1044.98Z" stroke="white" stroke-opacity="0.2" stroke-width="2"/>
<path d="M1013.68 991.871L1014.5 947.909L970.217 998.506L1013.68 991.871Z" fill="#F2FF84"/>
<path d="M1013.45 950.629L972.773 997.104L1012.7 991.01L1013.45 950.629Z" stroke="white" stroke-opacity="0.2" stroke-width="2"/>
<circle cx="1020.94" cy="994.149" r="5.34969" transform="rotate(125.17 1020.94 994.149)" fill="#F2FF84"/>
<circle cx="1020.94" cy="994.149" r="4.34969" transform="rotate(125.17 1020.94 994.149)" stroke="white" stroke-opacity="0.2" stroke-width="2"/>
<circle cx="1012.99" cy="1002.66" r="5.34969" transform="rotate(125.17 1012.99 1002.66)" fill="#F2FF84"/>
<circle cx="1012.99" cy="1002.66" r="4.34969" transform="rotate(125.17 1012.99 1002.66)" stroke="white" stroke-opacity="0.2" stroke-width="2"/>
<path d="M867.463 1087.36L907.872 1110.26L892.991 1048.56L867.463 1087.36Z" fill="#F2FF84"/>
<path d="M906.36 1108.25L892.559 1051.04L868.885 1087.02L906.36 1108.25Z" stroke="white" stroke-opacity="0.2" stroke-width="2"/>
<path d="M840.324 1093.51L806.912 1061.24L805.917 1124.7L840.324 1093.51Z" fill="#F2FF84"/>
<path d="M807.876 1063.56L806.953 1122.42L838.862 1093.48L807.876 1063.56Z" stroke="white" stroke-opacity="0.2" stroke-width="2"/>
<path d="M857.453 1097.62L829.669 1131.7L895.741 1119.23L857.453 1097.62Z" fill="#F2FF84"/>
<path d="M832.175 1130.21L892.864 1118.76L857.695 1098.9L832.175 1130.21Z" stroke="white" stroke-opacity="0.2" stroke-width="2"/>
<path d="M856.104 1081.48L883.887 1047.4L817.816 1059.86L856.104 1081.48Z" fill="#F2FF84"/>
<path d="M881.382 1048.89L820.692 1060.34L855.862 1080.19L881.382 1048.89Z" stroke="white" stroke-opacity="0.2" stroke-width="2"/>
<circle cx="860.399" cy="1087.75" r="5.34969" transform="rotate(163.298 860.399 1087.75)" fill="#F2FF84"/>
<circle cx="860.399" cy="1087.75" r="4.34969" transform="rotate(163.298 860.399 1087.75)" stroke="white" stroke-opacity="0.2" stroke-width="2"/>
<circle cx="848.893" cy="1089.53" r="5.34969" transform="rotate(163.298 848.893 1089.53)" fill="#F2FF84"/>
<circle cx="848.893" cy="1089.53" r="4.34969" transform="rotate(163.298 848.893 1089.53)" stroke="white" stroke-opacity="0.2" stroke-width="2"/>
<path d="M677.124 1073.49L697.943 1115.01L719.931 1055.47L677.124 1073.49Z" fill="#F2FF84"/>
<path d="M697.804 1112.5L718.195 1057.29L678.496 1074L697.804 1112.5Z" stroke="white" stroke-opacity="0.2" stroke-width="2"/>
<path d="M651.159 1063.49L641.365 1018.09L605.208 1070.25L651.159 1063.49Z" fill="#F2FF84"/>
<path d="M640.874 1020.55L607.342 1068.92L649.956 1062.65L640.874 1020.55Z" stroke="white" stroke-opacity="0.2" stroke-width="2"/>
<path d="M663.096 1076.43L621.043 1089.27L682.866 1115.7L663.096 1076.43Z" fill="#F2FF84"/>
<path d="M623.954 1089.43L680.741 1113.71L662.582 1077.63L623.954 1089.43Z" stroke="white" stroke-opacity="0.2" stroke-width="2"/>
<path d="M670.961 1062.27L713.013 1049.43L651.191 1023L670.961 1062.27Z" fill="#F2FF84"/>
<path d="M710.103 1049.27L653.316 1024.99L671.475 1061.07L710.103 1049.27Z" stroke="white" stroke-opacity="0.2" stroke-width="2"/>
<circle cx="671.045" cy="1069.87" r="5.34969" transform="rotate(-162.871 671.045 1069.87)" fill="#F2FF84"/>
<circle cx="671.045" cy="1069.87" r="4.34969" transform="rotate(-162.871 671.045 1069.87)" stroke="white" stroke-opacity="0.2" stroke-width="2"/>
<circle cx="660.489" cy="1064.95" r="5.34969" transform="rotate(-162.871 660.489 1064.95)" fill="#F2FF84"/>
<circle cx="660.489" cy="1064.95" r="4.34969" transform="rotate(-162.871 660.489 1064.95)" stroke="white" stroke-opacity="0.2" stroke-width="2"/>
<path d="M536.06 949.88L529.897 995.914L581.585 959.083L536.06 949.88Z" fill="#F2FF84"/>
<path d="M531.194 993.763L579.128 959.607L536.91 951.071L531.194 993.763Z" stroke="white" stroke-opacity="0.2" stroke-width="2"/>
<path d="M520.243 926.994L537.705 883.956L478.459 906.715L520.243 926.994Z" fill="#F2FF84"/>
<path d="M535.913 885.716L480.969 906.822L519.718 925.629L535.913 885.716Z" stroke="white" stroke-opacity="0.2" stroke-width="2"/>
<path d="M522.813 944.418L480.827 931.359L517.045 988.007L522.813 944.418Z" fill="#F2FF84"/>
<path d="M483.145 933.127L516.412 985.161L521.711 945.122L483.145 933.127Z" stroke="white" stroke-opacity="0.2" stroke-width="2"/>
<path d="M537.287 937.143L579.272 950.202L543.055 893.553L537.287 937.143Z" fill="#F2FF84"/>
<path d="M576.954 948.434L543.687 896.4L538.389 936.438L576.954 948.434Z" stroke="white" stroke-opacity="0.2" stroke-width="2"/>
<circle cx="533.074" cy="943.476" r="5.34969" transform="rotate(-128.613 533.074 943.476)" fill="#F2FF84"/>
<circle cx="533.074" cy="943.476" r="4.34969" transform="rotate(-128.613 533.074 943.476)" stroke="white" stroke-opacity="0.2" stroke-width="2"/>
<circle cx="527.123" cy="933.465" r="5.34969" transform="rotate(-128.613 527.123 933.465)" fill="#F2FF84"/>
<circle cx="527.123" cy="933.465" r="4.34969" transform="rotate(-128.613 527.123 933.465)" stroke="white" stroke-opacity="0.2" stroke-width="2"/>
<path d="M492.532 766.64L460.039 799.827L523.49 801.264L492.532 766.64Z" fill="#F2FF84"/>
<path d="M462.365 798.879L521.209 800.212L492.5 768.103L462.365 798.879Z" stroke="white" stroke-opacity="0.2" stroke-width="2"/>
<path d="M493.559 738.842L533.31 714.819L472.227 697.585L493.559 738.842Z" fill="#F2FF84"/>
<path d="M530.82 715.156L474.173 699.173L493.956 737.434L530.82 715.156Z" stroke="white" stroke-opacity="0.2" stroke-width="2"/>
<path d="M485.189 754.338L459.374 718.744L454.476 785.802L485.189 754.338Z" fill="#F2FF84"/>
<path d="M460.173 721.548L455.673 783.144L483.885 754.242L460.173 721.548Z" stroke="white" stroke-opacity="0.2" stroke-width="2"/>
<path d="M501.141 757.172L526.956 792.765L531.854 725.707L501.141 757.172Z" fill="#F2FF84"/>
<path d="M526.158 789.962L530.657 728.366L502.445 757.268L526.158 789.962Z" stroke="white" stroke-opacity="0.2" stroke-width="2"/>
<circle cx="493.978" cy="759.723" r="5.34969" transform="rotate(-91.8438 493.978 759.723)" fill="#F2FF84"/>
<circle cx="493.978" cy="759.723" r="4.34969" transform="rotate(-91.8438 493.978 759.723)" stroke="white" stroke-opacity="0.2" stroke-width="2"/>
<circle cx="495.198" cy="748.143" r="5.34969" transform="rotate(-91.8438 495.198 748.143)" fill="#F2FF84"/>
<circle cx="495.198" cy="748.143" r="4.34969" transform="rotate(-91.8438 495.198 748.143)" stroke="white" stroke-opacity="0.2" stroke-width="2"/>
<path d="M565.748 593.9L520.062 602.264L571.063 640.04L565.748 593.9Z" fill="#F2FF84"/>
<path d="M522.509 602.832L569.806 637.865L564.878 595.076L522.509 602.832Z" stroke="white" stroke-opacity="0.2" stroke-width="2"/>
<path d="M582.624 571.778L628.951 575.086L588.998 525.772L582.624 571.778Z" fill="#F2FF84"/>
<path d="M626.724 573.925L589.672 528.192L583.76 570.857L626.724 573.925Z" stroke="white" stroke-opacity="0.2" stroke-width="2"/>
<path d="M566.851 579.611L566.296 535.645L523.612 587.596L566.851 579.611Z" fill="#F2FF84"/>
<path d="M565.331 538.396L526.124 586.114L565.84 578.781L565.331 538.396Z" stroke="white" stroke-opacity="0.2" stroke-width="2"/>
<path d="M578.241 591.126L578.795 635.092L621.479 583.142L578.241 591.126Z" fill="#F2FF84"/>
<path d="M579.761 632.342L618.968 584.623L579.251 591.957L579.761 632.342Z" stroke="white" stroke-opacity="0.2" stroke-width="2"/>
<circle cx="570.92" cy="589.074" r="5.34969" transform="rotate(-56.6138 570.92 589.074)" fill="#F2FF84"/>
<circle cx="570.92" cy="589.074" r="4.34969" transform="rotate(-56.6138 570.92 589.074)" stroke="white" stroke-opacity="0.2" stroke-width="2"/>
<circle cx="578.594" cy="580.316" r="5.34969" transform="rotate(-56.6138 578.594 580.316)" fill="#F2FF84"/>
<circle cx="578.594" cy="580.316" r="4.34969" transform="rotate(-56.6138 578.594 580.316)" stroke="white" stroke-opacity="0.2" stroke-width="2"/>
<path d="M720.843 495.564L680.258 472.979L695.615 534.561L720.843 495.564Z" fill="#F2FF84"/>
<path d="M681.786 474.973L696.027 532.083L719.423 495.918L681.786 474.973Z" stroke="white" stroke-opacity="0.2" stroke-width="2"/>
<path d="M747.933 489.214L781.593 521.217L782.098 457.751L747.933 489.214Z" fill="#F2FF84"/>
<path d="M780.611 518.905L781.08 460.048L749.396 489.225L780.611 518.905Z" stroke="white" stroke-opacity="0.2" stroke-width="2"/>
<path d="M730.779 485.233L758.3 450.941L692.326 463.912L730.779 485.233Z" fill="#F2FF84"/>
<path d="M755.806 452.451L695.206 464.365L730.527 483.95L755.806 452.451Z" stroke="white" stroke-opacity="0.2" stroke-width="2"/>
<path d="M732.254 501.365L704.734 535.657L770.707 522.687L732.254 501.365Z" fill="#F2FF84"/>
<path d="M707.227 534.148L767.827 522.234L732.506 502.648L707.227 534.148Z" stroke="white" stroke-opacity="0.2" stroke-width="2"/>
<circle cx="727.904" cy="495.126" r="5.34969" transform="rotate(-17.1437 727.904 495.126)" fill="#F2FF84"/>
<circle cx="727.904" cy="495.126" r="4.34969" transform="rotate(-17.1437 727.904 495.126)" stroke="white" stroke-opacity="0.2" stroke-width="2"/>
<circle cx="739.394" cy="493.246" r="5.34969" transform="rotate(-17.1437 739.394 493.246)" fill="#F2FF84"/>
<circle cx="739.394" cy="493.246" r="4.34969" transform="rotate(-17.1437 739.394 493.246)" stroke="white" stroke-opacity="0.2" stroke-width="2"/>
<path d="M912.184 509.88L889.07 469.594L870.453 530.27L912.184 509.88Z" fill="#F2FF84"/>
<path d="M889.349 472.092L872.086 528.359L910.785 509.451L889.349 472.092Z" stroke="white" stroke-opacity="0.2" stroke-width="2"/>
<path d="M938.668 518.42L950.991 563.2L984.167 509.095L938.668 518.42Z" fill="#F2FF84"/>
<path d="M951.343 560.713L982.11 510.537L939.915 519.184L951.343 560.713Z" stroke="white" stroke-opacity="0.2" stroke-width="2"/>
<path d="M926.026 506.165L967.293 490.988L904.086 468.061L926.026 506.165Z" fill="#F2FF84"/>
<path d="M964.377 490.994L906.319 469.935L926.472 504.935L964.377 490.994Z" stroke="white" stroke-opacity="0.2" stroke-width="2"/>
<path d="M918.963 520.737L877.696 535.914L940.903 558.841L918.963 520.737Z" fill="#F2FF84"/>
<path d="M880.611 535.907L938.669 556.967L918.516 521.966L880.611 535.907Z" stroke="white" stroke-opacity="0.2" stroke-width="2"/>
<circle cx="918.455" cy="513.149" r="5.34969" transform="rotate(13.9159 918.455 513.149)" fill="#F2FF84"/>
<circle cx="918.455" cy="513.149" r="4.34969" transform="rotate(13.9159 918.455 513.149)" stroke="white" stroke-opacity="0.2" stroke-width="2"/>
<circle cx="929.269" cy="517.47" r="5.34969" transform="rotate(13.9159 929.269 517.47)" fill="#F2FF84"/>
<circle cx="929.269" cy="517.47" r="4.34969" transform="rotate(13.9159 929.269 517.47)" stroke="white" stroke-opacity="0.2" stroke-width="2"/>
<path d="M1118.8 572.561C1113.54 563.792 1108.52 555.931 1104.23 549.991C1126.18 545.254 1178.24 540.858 1210.9 561.159C1207.39 566.819 1202.76 574.586 1197.75 583.446M1118.8 572.561C1133.54 570.133 1169.98 568.909 1197.75 583.446M1118.8 572.561C1122.11 578.075 1125.52 583.948 1128.91 589.929M1197.75 583.446C1194.13 589.859 1190.3 596.844 1186.55 604.016M1128.91 589.929C1140.54 588.294 1168.34 588.822 1186.55 604.016M1128.91 589.929C1132.71 596.633 1136.49 603.472 1140.08 610.093M1186.55 604.016C1183.37 610.108 1180.25 616.334 1177.35 622.458M1140.08 610.093C1145.67 609.506 1160.96 611.157 1177.35 622.458M1140.08 610.093C1144.66 618.53 1148.93 626.613 1152.56 633.609M1177.35 622.458C1174.57 628.339 1172 634.125 1169.79 639.608M1152.56 633.609C1159.46 646.922 1164.03 656.301 1163.92 656.7C1165.28 651.588 1167.3 645.791 1169.79 639.608M1152.56 633.609C1156.54 633.472 1165.55 634.481 1169.79 639.608" stroke="white" stroke-opacity="0.2" stroke-width="2"/>
<path d="M1222.96 582.574C1218.46 573.763 1214.27 566.3 1210.89 560.742C1206.03 563.381 1161.4 655.133 1161.5 658.013C1168.73 659.027 1176.48 661 1184.34 663.55M1222.96 582.574C1211.69 596.238 1188.19 631.564 1184.34 663.55M1222.96 582.574C1226.11 588.733 1229.41 595.551 1232.69 602.838M1184.34 663.55C1190.18 665.445 1196.08 667.657 1201.87 670.032M1232.69 602.838C1222.15 613.647 1201.24 642.218 1201.87 670.032M1232.69 602.838C1235.98 610.147 1239.25 617.928 1242.33 625.989M1201.87 670.032C1206.28 671.84 1210.62 673.742 1214.83 675.669M1242.33 625.989C1232.85 633.538 1214.09 654.043 1214.83 675.669M1242.33 625.989C1244.86 632.62 1247.27 639.44 1249.45 646.343M1214.83 675.669C1217.81 677.034 1220.73 678.411 1223.55 679.777M1249.45 646.343C1243.39 649.297 1229.74 660.12 1223.55 679.777M1249.45 646.343C1251.32 652.288 1253.03 658.295 1254.52 664.295M1223.55 679.777C1227.79 681.827 1231.81 683.852 1235.54 685.766M1254.52 664.295C1249.6 666.946 1238.93 674.951 1235.54 685.766M1254.52 664.295C1255.7 669.082 1256.74 673.865 1257.6 678.608M1235.54 685.766C1239.66 687.886 1243.42 689.872 1246.69 691.61M1257.6 678.608C1258.81 685.281 1259.67 691.876 1260.1 698.296C1259.41 698.436 1254.41 695.713 1246.69 691.61M1257.6 678.608C1254.58 680.538 1248.18 685.841 1246.69 691.61" stroke="white" stroke-opacity="0.2" stroke-width="2"/>
<path d="M1162.52 659.766C1184.91 661.489 1236.06 672.128 1261.57 700.906C1256.59 705.329 1249.94 711.453 1242.61 718.514C1237.3 723.626 1231.64 729.23 1226.01 735.034C1221.22 739.965 1216.45 745.04 1211.92 750.084C1207.58 754.926 1203.47 759.739 1199.79 764.364C1195.64 769.58 1192.04 774.557 1189.28 779.071C1189.5 778.719 1187.8 768.426 1184.98 753.696C1183.5 745.955 1181.71 736.99 1179.73 727.598C1178.18 720.227 1176.51 712.594 1174.78 705.084C1173.23 698.385 1171.64 691.783 1170.04 685.555C1167.5 675.648 1164.94 666.684 1162.52 659.766Z" fill="#F2FF84"/>
<path d="M1170.04 685.555C1167.5 675.648 1164.94 666.684 1162.52 659.766C1184.91 661.489 1236.06 672.128 1261.57 700.906C1256.59 705.329 1249.94 711.453 1242.61 718.514M1170.04 685.555C1184.87 687.434 1220.13 696.656 1242.61 718.514M1170.04 685.555C1171.64 691.783 1173.23 698.385 1174.78 705.084M1242.61 718.514C1237.3 723.626 1231.64 729.23 1226.01 735.034M1174.78 705.084C1186.39 706.835 1212.89 715.275 1226.01 735.034M1174.78 705.084C1176.51 712.594 1178.18 720.227 1179.73 727.598M1226.01 735.034C1221.22 739.965 1216.45 745.04 1211.92 750.084M1179.73 727.598C1185.26 728.631 1199.44 734.575 1211.92 750.084M1179.73 727.598C1181.71 736.99 1183.5 745.955 1184.98 753.696M1211.92 750.084C1207.58 754.926 1203.47 759.739 1199.79 764.364M1184.98 753.696C1187.8 768.426 1189.5 778.719 1189.28 779.071C1192.04 774.557 1195.64 769.58 1199.79 764.364M1184.98 753.696C1188.83 754.7 1197.18 758.24 1199.79 764.364" stroke="white" stroke-opacity="0.2" stroke-width="2"/>
<path d="M1186.58 779.642C1187.3 776.853 1256.26 701.651 1261.67 700.507C1263.33 706.8 1265.21 715.148 1267.01 724.877C1268.27 731.678 1269.49 739.154 1270.55 747.073C1271.62 755.018 1272.53 763.408 1273.19 772.012C1273.72 779.091 1274.08 786.313 1274.2 793.551C1274.3 799.785 1274.23 806.03 1273.94 812.203C1273.7 817.129 1273.33 822.009 1272.81 826.801C1272.06 833.542 1271.01 840.109 1269.59 846.385C1268.88 846.321 1264.87 842.285 1258.64 836.149C1256 833.551 1252.97 830.576 1249.62 827.366C1246.6 824.469 1243.32 821.381 1239.84 818.206C1237.53 816.093 1235.13 813.941 1232.66 811.782C1229.17 808.734 1225.55 805.671 1221.84 802.681C1216.97 798.752 1211.95 794.949 1206.89 791.468C1200.09 786.781 1193.22 782.678 1186.58 779.642Z" fill="#F2FF84"/>
<path d="M1267.01 724.877C1265.21 715.148 1263.33 706.8 1261.67 700.507C1256.26 701.651 1187.3 776.853 1186.58 779.642C1193.22 782.678 1200.09 786.781 1206.89 791.468M1267.01 724.877C1252.31 734.757 1219.71 761.908 1206.89 791.468M1267.01 724.877C1268.27 731.678 1269.49 739.154 1270.55 747.073M1206.89 791.468C1211.95 794.949 1216.97 798.752 1221.84 802.681M1270.55 747.073C1257.37 754.427 1229.18 775.845 1221.84 802.681M1270.55 747.073C1271.62 755.018 1272.53 763.408 1273.19 772.012M1221.84 802.681C1225.55 805.671 1229.17 808.734 1232.66 811.782M1273.19 772.012C1261.95 776.544 1238.12 790.843 1232.66 811.782M1273.19 772.012C1273.72 779.091 1274.08 786.313 1274.2 793.551M1232.66 811.782C1235.13 813.941 1237.53 816.093 1239.84 818.206M1274.2 793.551C1267.55 794.655 1251.38 801.131 1239.84 818.206M1274.2 793.551C1274.3 799.785 1274.23 806.03 1273.94 812.203M1239.84 818.206C1243.32 821.381 1246.6 824.469 1249.62 827.366M1273.94 812.203C1268.47 813.342 1255.96 817.968 1249.62 827.366M1273.94 812.203C1273.7 817.129 1273.33 822.009 1272.81 826.801M1249.62 827.366C1252.97 830.576 1256 833.551 1258.64 836.149M1272.81 826.801C1272.06 833.542 1271.01 840.109 1269.59 846.385C1268.88 846.321 1264.87 842.285 1258.64 836.149M1272.81 826.801C1269.37 827.79 1261.71 831.045 1258.64 836.149" stroke="white" stroke-opacity="0.2" stroke-width="2"/>
<path d="M1186.18 804.007C1186.98 793.809 1187.45 784.499 1187.4 777.171C1208.02 786.032 1252.99 812.622 1267.85 848.099C1261.71 850.676 1253.43 854.323 1244.21 858.638M1186.18 804.007C1199.6 810.573 1230 830.692 1244.21 858.638M1186.18 804.007C1185.68 810.418 1185.06 817.179 1184.35 824.018M1244.21 858.638C1237.54 861.763 1230.37 865.237 1223.16 868.91M1184.35 824.018C1194.78 829.425 1217.13 845.972 1223.16 868.91M1184.35 824.018C1183.57 831.684 1182.68 839.447 1181.77 846.924M1223.16 868.91C1217.04 872.029 1210.89 875.292 1204.98 878.604M1181.77 846.924C1186.67 849.689 1198.17 859.894 1204.98 878.604M1181.77 846.924C1180.61 856.452 1179.41 865.515 1178.31 873.319M1204.98 878.604C1199.3 881.784 1193.85 885.01 1188.88 888.198M1178.31 873.319C1176.22 888.17 1174.51 898.463 1174.19 898.725C1178.25 895.342 1183.26 891.794 1188.88 888.198M1178.31 873.319C1181.63 875.514 1188.39 881.562 1188.88 888.198" stroke="white" stroke-opacity="0.2" stroke-width="2"/>
<path d="M1265.26 872.55C1266.7 862.761 1267.61 854.25 1268.07 847.759C1262.59 847.097 1173.04 895.993 1171.45 898.397C1176.76 903.418 1181.93 909.518 1186.86 916.152M1265.26 872.55C1248.16 877.152 1208.53 892.316 1186.86 916.152M1265.26 872.55C1264.26 879.393 1262.99 886.861 1261.44 894.7M1186.86 916.152C1190.51 921.079 1194.04 926.301 1197.38 931.592M1261.44 894.7C1246.59 897.402 1212.99 908.564 1197.38 931.592M1261.44 894.7C1259.89 902.563 1258.04 910.799 1255.88 919.152M1197.38 931.592C1199.92 935.62 1202.36 939.689 1204.68 943.7M1255.88 919.152C1243.78 919.812 1216.61 925.646 1204.68 943.7M1255.88 919.152C1254.1 926.024 1252.11 932.975 1249.88 939.863M1204.68 943.7C1206.32 946.54 1207.89 949.352 1209.4 952.099M1249.88 939.863C1243.23 938.762 1225.83 939.666 1209.4 952.099M1249.88 939.863C1247.96 945.797 1245.88 951.683 1243.61 957.431M1209.4 952.099C1211.66 956.226 1213.77 960.209 1215.7 963.927M1243.61 957.431C1238.07 956.743 1224.73 957.08 1215.7 963.927M1243.61 957.431C1241.8 962.018 1239.87 966.517 1237.82 970.881M1215.7 963.927C1217.83 968.047 1219.74 971.842 1221.4 975.154M1237.82 970.881C1234.94 977.022 1231.82 982.896 1228.45 988.376C1227.8 988.087 1225.31 982.971 1221.4 975.154M1237.82 970.881C1234.25 970.706 1225.95 971.315 1221.4 975.154" stroke="white" stroke-opacity="0.2" stroke-width="2"/>
<path d="M1172.61 895.693C1189.31 910.699 1223.38 950.302 1226.08 988.668C1219.44 989.14 1210.43 989.942 1200.31 991.075C1192.99 991.895 1185.09 992.889 1177.08 994.056C1170.28 995.048 1163.41 996.165 1156.75 997.407C1150.35 998.601 1144.16 999.909 1138.42 1001.33C1131.95 1002.94 1126.07 1004.7 1121.13 1006.6C1121.52 1006.45 1126.44 997.249 1133.18 983.852C1136.72 976.812 1140.77 968.613 1144.92 959.961C1148.18 953.17 1151.51 946.1 1154.71 939.092C1157.57 932.839 1160.33 926.635 1162.86 920.723C1166.88 911.318 1170.31 902.65 1172.61 895.693Z" fill="#F2FF84"/>
<path d="M1162.86 920.723C1166.88 911.318 1170.31 902.65 1172.61 895.693C1189.31 910.699 1223.38 950.302 1226.08 988.668C1219.44 989.14 1210.43 989.942 1200.31 991.075M1162.86 920.723C1173.47 931.245 1195.81 960.047 1200.31 991.075M1162.86 920.723C1160.33 926.635 1157.57 932.839 1154.71 939.092M1200.31 991.075C1192.99 991.895 1185.09 992.889 1177.08 994.056M1154.71 939.092C1162.85 947.554 1178.72 970.395 1177.08 994.056M1154.71 939.092C1151.51 946.1 1148.18 953.17 1144.92 959.961M1177.08 994.056C1170.28 995.048 1163.41 996.165 1156.75 997.407M1144.92 959.961C1148.67 964.149 1156.3 977.503 1156.75 997.407M1144.92 959.961C1140.77 968.613 1136.72 976.812 1133.18 983.852M1156.75 997.407C1150.35 998.601 1144.16 999.909 1138.42 1001.33M1133.18 983.852C1126.44 997.249 1121.52 1006.45 1121.13 1006.6C1126.07 1004.7 1131.95 1002.94 1138.42 1001.33M1133.18 983.852C1135.62 986.996 1140.09 994.894 1138.42 1001.33" stroke="white" stroke-opacity="0.2" stroke-width="2"/>
<path d="M1118.64 1005.41C1120.91 1003.64 1221.42 986.036 1226.4 988.422C1223.88 994.422 1220.29 1002.19 1215.79 1011C1212.64 1017.16 1209.05 1023.83 1205.07 1030.76C1201.07 1037.71 1196.69 1044.92 1191.96 1052.14C1188.07 1058.08 1183.95 1064.02 1179.64 1069.83C1175.92 1074.84 1172.06 1079.74 1168.06 1084.46C1164.88 1088.23 1161.61 1091.87 1158.27 1095.35C1153.58 1100.24 1148.74 1104.81 1143.79 1108.91C1143.27 1108.43 1142.54 1102.79 1141.35 1094.13C1140.84 1090.46 1140.24 1086.25 1139.54 1081.67C1138.91 1077.53 1138.19 1073.08 1137.37 1068.45C1136.83 1065.36 1136.23 1062.19 1135.59 1058.97C1134.68 1054.43 1133.68 1049.8 1132.56 1045.17C1131.09 1039.08 1129.43 1033.01 1127.54 1027.17C1125 1019.3 1122.06 1011.87 1118.64 1005.41Z" fill="#F2FF84"/>
<path d="M1215.79 1011C1220.29 1002.19 1223.88 994.422 1226.4 988.422C1221.42 986.036 1120.91 1003.64 1118.64 1005.41C1122.06 1011.87 1125 1019.3 1127.54 1027.17M1215.79 1011C1198.11 1009.88 1155.71 1011.54 1127.54 1027.17M1215.79 1011C1212.64 1017.16 1209.05 1023.83 1205.07 1030.76M1127.54 1027.17C1129.43 1033.01 1131.09 1039.08 1132.56 1045.17M1205.07 1030.76C1190.14 1028.56 1154.73 1028.36 1132.56 1045.17M1205.07 1030.76C1201.07 1037.71 1196.69 1044.92 1191.96 1052.14M1132.56 1045.17C1133.68 1049.8 1134.68 1054.43 1135.59 1058.97M1191.96 1052.14C1180.29 1048.88 1152.68 1045.7 1135.59 1058.97M1191.96 1052.14C1188.07 1058.08 1183.95 1064.02 1179.64 1069.83M1135.59 1058.97C1136.23 1062.19 1136.83 1065.36 1137.37 1068.45M1179.64 1069.83C1173.7 1066.66 1156.92 1061.94 1137.37 1068.45M1179.64 1069.83C1175.92 1074.84 1172.06 1079.74 1168.06 1084.46M1137.37 1068.45C1138.19 1073.08 1138.91 1077.53 1139.54 1081.67M1168.06 1084.46C1163.04 1082.03 1150.29 1078.08 1139.54 1081.67M1168.06 1084.46C1164.88 1088.23 1161.61 1091.87 1158.27 1095.35M1139.54 1081.67C1140.24 1086.25 1140.84 1090.46 1141.35 1094.13M1158.27 1095.35C1153.58 1100.24 1148.74 1104.81 1143.79 1108.91C1143.27 1108.43 1142.54 1102.79 1141.35 1094.13M1158.27 1095.35C1154.94 1094.04 1146.89 1091.95 1141.35 1094.13" stroke="white" stroke-opacity="0.2" stroke-width="2"/>
<path d="M1100.42 1028.36C1107 1020.52 1112.79 1013.22 1117.01 1007.22C1128.65 1026.43 1149.78 1074.2 1141.25 1111.7C1134.75 1110.23 1125.9 1108.39 1115.89 1106.54M1100.42 1028.36C1107.53 1041.5 1120.57 1075.54 1115.89 1106.54M1100.42 1028.36C1096.29 1033.28 1091.85 1038.42 1087.3 1043.58M1115.89 1106.54C1108.64 1105.21 1100.79 1103.87 1092.79 1102.66M1087.3 1043.58C1092.64 1054.03 1101.21 1080.49 1092.79 1102.66M1087.3 1043.58C1082.21 1049.36 1076.97 1055.16 1071.89 1060.71M1092.79 1102.66C1085.99 1101.64 1079.09 1100.72 1072.35 1099.98M1071.89 1060.71C1074.27 1065.81 1077.69 1080.8 1072.35 1099.98M1071.89 1060.71C1065.4 1067.79 1059.16 1074.47 1053.73 1080.18M1072.35 1099.98C1065.89 1099.27 1059.58 1098.73 1053.68 1098.43M1053.73 1080.18C1043.39 1091.05 1036.02 1098.43 1035.61 1098.46C1040.88 1098.07 1047.02 1098.09 1053.68 1098.43M1053.73 1080.18C1055.15 1083.89 1057.14 1092.75 1053.68 1098.43" stroke="white" stroke-opacity="0.2" stroke-width="2"/>
<path d="M1124.93 1130.1C1131.79 1122.97 1137.48 1116.57 1141.63 1111.56C1137.55 1107.83 1036.26 1095.56 1033.57 1096.59C1034.97 1103.77 1035.63 1111.74 1035.79 1120M1124.93 1130.1C1108.34 1123.9 1067.28 1113.2 1035.79 1120M1124.93 1130.1C1120.14 1135.08 1114.77 1140.42 1108.95 1145.9M1035.79 1120C1035.9 1126.13 1035.73 1132.43 1035.37 1138.68M1108.95 1145.9C1095.29 1139.47 1061.46 1129.02 1035.37 1138.68M1108.95 1145.9C1103.11 1151.39 1096.82 1157.02 1090.21 1162.56M1035.37 1138.68C1035.1 1143.44 1034.72 1148.16 1034.27 1152.77M1090.21 1162.56C1079.98 1156.07 1054.48 1145.02 1034.27 1152.77M1090.21 1162.56C1084.76 1167.12 1079.1 1171.62 1073.29 1175.93M1034.27 1152.77C1033.96 1156.04 1033.61 1159.24 1033.24 1162.35M1073.29 1175.93C1068.52 1171.17 1053.84 1161.79 1033.24 1162.35M1073.29 1175.93C1068.28 1179.64 1063.16 1183.22 1057.97 1186.58M1033.24 1162.35C1032.68 1167.03 1032.08 1171.49 1031.48 1175.64M1057.97 1186.58C1053.86 1182.8 1042.81 1175.32 1031.48 1175.64M1057.97 1186.58C1053.83 1189.26 1049.65 1191.8 1045.45 1194.16M1031.48 1175.64C1030.82 1180.23 1030.17 1184.43 1029.6 1188.09M1045.45 1194.16C1039.53 1197.48 1033.58 1200.45 1027.65 1202.95C1027.29 1202.33 1028.24 1196.72 1029.6 1188.09M1045.45 1194.16C1042.64 1191.94 1035.54 1187.61 1029.6 1188.09" stroke="white" stroke-opacity="0.2" stroke-width="2"/>
<path d="M1008.9 1114.77C1017.58 1109.36 1025.36 1104.21 1031.22 1099.82C1036.33 1121.68 1041.63 1173.65 1021.89 1206.66C1016.17 1203.25 1008.32 1198.75 999.38 1193.9M1008.9 1114.77C1011.59 1129.47 1013.44 1165.87 999.38 1193.9M1008.9 1114.77C1003.45 1118.17 997.635 1121.68 991.713 1125.17M999.38 1193.9C992.905 1190.38 985.855 1186.68 978.62 1183.05M991.713 1125.17C993.548 1136.77 993.498 1164.58 978.62 1183.05M991.713 1125.17C985.076 1129.09 978.302 1132.98 971.744 1136.69M978.62 1183.05C972.474 1179.98 966.195 1176.96 960.022 1174.17M971.744 1136.69C972.427 1142.27 971.04 1157.59 960.022 1174.17M971.744 1136.69C963.387 1141.41 955.379 1145.82 948.447 1149.57M960.022 1174.17C954.094 1171.49 948.265 1169.02 942.744 1166.91M948.447 1149.57C935.254 1156.7 925.956 1161.43 925.554 1161.33C930.688 1162.6 936.52 1164.52 942.744 1166.91M948.447 1149.57C948.652 1153.54 947.798 1162.58 942.744 1166.91" stroke="white" stroke-opacity="0.2" stroke-width="2"/>
<path d="M1000.68 1219.1C1009.41 1214.45 1016.8 1210.13 1022.3 1206.65C1019.58 1201.84 927.073 1158.79 924.194 1158.94C923.305 1166.19 921.466 1173.97 919.051 1181.88M1000.68 1219.1C986.824 1208.06 951.099 1185.17 919.051 1181.88M1000.68 1219.1C994.575 1222.35 987.815 1225.77 980.586 1229.17M919.051 1181.88C917.257 1187.75 915.146 1193.68 912.871 1199.51M980.586 1229.17C969.597 1218.82 940.67 1198.41 912.871 1199.51M980.586 1229.17C973.334 1232.59 965.61 1235.99 957.604 1239.21M912.871 1199.51C911.14 1203.95 909.313 1208.33 907.458 1212.57M957.604 1239.21C949.893 1229.86 929.069 1211.46 907.458 1212.57M957.604 1239.21C951.018 1241.85 944.24 1244.38 937.376 1246.67M907.458 1212.57C906.145 1215.57 904.818 1218.51 903.501 1221.36M937.376 1246.67C934.318 1240.67 923.262 1227.2 903.501 1221.36M937.376 1246.67C931.463 1248.65 925.487 1250.47 919.513 1252.05M903.501 1221.36C901.524 1225.63 899.569 1229.69 897.719 1233.44M919.513 1252.05C916.779 1247.18 908.591 1236.65 897.719 1233.44M919.513 1252.05C914.747 1253.32 909.983 1254.44 905.256 1255.38M897.719 1233.44C895.67 1237.61 893.75 1241.4 892.068 1244.7M905.256 1255.38C898.605 1256.71 892.025 1257.68 885.613 1258.22C885.461 1257.53 888.098 1252.48 892.068 1244.7M905.256 1255.38C903.274 1252.4 897.861 1246.08 892.068 1244.7" stroke="white" stroke-opacity="0.2" stroke-width="2"/>
<path d="M924.145 1161.78C921.068 1183.92 908.228 1234.54 881.489 1259.88C878.01 1254.98 873.175 1248.42 867.576 1241.2C863.522 1235.97 859.068 1230.39 854.438 1224.84C850.505 1220.12 846.446 1215.42 842.396 1210.97C838.508 1206.69 834.63 1202.64 830.883 1199.02C826.658 1194.93 822.6 1191.39 818.884 1188.69C819.174 1188.9 828.213 1187.17 841.175 1184.33C847.986 1182.84 855.88 1181.04 864.157 1179.04C870.653 1177.48 877.385 1175.8 884.014 1174.06C889.928 1172.51 895.76 1170.91 901.269 1169.31C910.033 1166.76 917.981 1164.19 924.145 1161.78Z" fill="#F2FF84"/>
<path d="M901.269 1169.31C910.033 1166.76 917.981 1164.19 924.145 1161.78C921.068 1183.92 908.228 1234.54 881.489 1259.88C878.01 1254.98 873.175 1248.42 867.576 1241.2M901.269 1169.31C898.592 1183.98 888.105 1218.89 867.576 1241.2M901.269 1169.31C895.76 1170.91 889.928 1172.51 884.014 1174.06M867.576 1241.2C863.522 1235.97 859.068 1230.39 854.438 1224.84M884.014 1174.06C881.675 1185.55 872.486 1211.79 854.438 1224.84M884.014 1174.06C877.385 1175.8 870.653 1177.48 864.157 1179.04M854.438 1224.84C850.505 1220.12 846.446 1215.42 842.396 1210.97M864.157 1179.04C862.871 1184.52 856.717 1198.56 842.396 1210.97M864.157 1179.04C855.88 1181.04 847.986 1182.84 841.175 1184.33M842.396 1210.97C838.508 1206.69 834.63 1202.64 830.883 1199.02M841.175 1184.33C828.213 1187.17 819.174 1188.9 818.884 1188.69C822.6 1191.39 826.658 1194.93 830.883 1199.02M841.175 1184.33C840.032 1188.14 836.373 1196.42 830.883 1199.02" stroke="white" stroke-opacity="0.2" stroke-width="2"/>
<path d="M818.584 1186.02C820.949 1186.72 881.221 1254.65 881.83 1259.99C876.26 1261.65 868.893 1263.55 860.337 1265.36C854.355 1266.63 847.792 1267.86 840.855 1268.95C833.897 1270.03 826.563 1270.97 819.062 1271.64C812.891 1272.2 806.608 1272.58 800.329 1272.72C794.921 1272.85 789.515 1272.8 784.187 1272.53C779.936 1272.32 775.734 1271.97 771.62 1271.47C765.832 1270.76 760.217 1269.74 754.88 1268.36C754.986 1267.66 758.767 1263.68 764.523 1257.5C766.961 1254.88 769.754 1251.87 772.772 1248.54C775.496 1245.54 778.404 1242.28 781.401 1238.84C783.395 1236.54 785.43 1234.16 787.475 1231.71C790.363 1228.25 793.273 1224.66 796.126 1220.98C799.875 1216.14 803.526 1211.16 806.899 1206.15C811.442 1199.41 815.483 1192.6 818.584 1186.02Z" fill="#F2FF84"/>
<path d="M860.337 1265.36C868.893 1263.55 876.26 1261.65 881.83 1259.99C881.221 1254.65 820.949 1186.72 818.584 1186.02C815.483 1192.6 811.442 1199.41 806.899 1206.15M860.337 1265.36C852.818 1250.86 831.603 1218.71 806.899 1206.15M860.337 1265.36C854.355 1266.63 847.792 1267.86 840.855 1268.95M806.899 1206.15C803.526 1211.16 799.875 1216.14 796.126 1220.98M840.855 1268.95C835.417 1255.94 818.858 1228.13 796.126 1220.98M840.855 1268.95C833.897 1270.03 826.563 1270.97 819.062 1271.64M796.126 1220.98C793.273 1224.66 790.363 1228.25 787.475 1231.71M819.062 1271.64C815.931 1260.55 805.23 1237.03 787.475 1231.71M819.062 1271.64C812.891 1272.2 806.608 1272.58 800.329 1272.72M787.475 1231.71C785.43 1234.16 783.395 1236.54 781.401 1238.84M800.329 1272.72C799.843 1266.16 795.377 1250.18 781.401 1238.84M800.329 1272.72C794.921 1272.85 789.515 1272.8 784.187 1272.53M781.401 1238.84C778.404 1242.28 775.496 1245.54 772.772 1248.54M784.187 1272.53C783.588 1267.13 780.466 1254.77 772.772 1248.54M784.187 1272.53C779.936 1272.32 775.734 1271.97 771.62 1271.47M772.772 1248.54C769.754 1251.87 766.961 1254.88 764.523 1257.5M771.62 1271.47C765.832 1270.76 760.217 1269.74 754.88 1268.36C754.986 1267.66 758.767 1263.68 764.523 1257.5M771.62 1271.47C771.007 1268.07 768.728 1260.51 764.523 1257.5" stroke="white" stroke-opacity="0.2" stroke-width="2"/>
<path d="M788.644 1183.77C799.041 1184.34 808.523 1184.6 815.966 1184.38C807.871 1205.34 782.831 1251.2 747.435 1266.95C744.546 1260.83 740.476 1252.59 735.685 1243.41M788.644 1183.77C782.563 1197.43 763.457 1228.47 735.685 1243.41M788.644 1183.77C782.108 1183.42 775.21 1182.94 768.229 1182.39M735.685 1243.41C732.216 1236.77 728.37 1229.63 724.32 1222.46M768.229 1182.39C763.194 1193 747.363 1215.87 724.32 1222.46M768.229 1182.39C760.405 1181.77 752.477 1181.05 744.839 1180.31M724.32 1222.46C720.881 1216.37 717.295 1210.25 713.669 1204.38M744.839 1180.31C742.246 1185.3 732.381 1197.11 713.669 1204.38M744.839 1180.31C735.106 1179.36 725.844 1178.35 717.865 1177.42M713.669 1204.38C710.188 1198.74 706.67 1193.33 703.211 1188.4M717.865 1177.42C702.683 1175.66 692.148 1174.17 691.867 1173.86C695.483 1177.87 699.31 1182.83 703.211 1188.4M717.865 1177.42C715.781 1180.82 709.933 1187.76 703.211 1188.4" stroke="white" stroke-opacity="0.2" stroke-width="2"/>
<path d="M722.478 1264.91C732.488 1266.13 741.176 1266.85 747.793 1267.17C748.225 1261.64 694.596 1172.64 692.082 1171.09C687.215 1176.55 681.243 1181.89 674.719 1187M722.478 1264.91C717.048 1247.8 699.895 1208.27 674.719 1187M722.478 1264.91C715.479 1264.05 707.835 1262.95 699.802 1261.57M674.719 1187C669.874 1190.8 664.723 1194.46 659.493 1197.94M699.802 1261.57C696.402 1246.69 683.58 1213.13 659.493 1197.94M699.802 1261.57C691.743 1260.18 683.293 1258.51 674.71 1256.52M659.493 1197.94C655.512 1200.59 651.485 1203.14 647.511 1205.56M674.71 1256.52C673.506 1244.37 666.382 1217.16 647.511 1205.56M674.71 1256.52C667.648 1254.89 660.497 1253.04 653.4 1250.96M647.511 1205.56C644.697 1207.28 641.909 1208.93 639.184 1210.5M653.4 1250.96C654.227 1244.25 652.541 1226.76 639.184 1210.5M653.4 1250.96C647.286 1249.17 641.213 1247.2 635.272 1245.05M639.184 1210.5C635.09 1212.88 631.136 1215.09 627.442 1217.11M635.272 1245.05C635.727 1239.46 634.798 1226.04 627.442 1217.11M635.272 1245.05C630.531 1243.33 625.875 1241.49 621.35 1239.53M627.442 1217.11C623.35 1219.35 619.577 1221.36 616.285 1223.1M621.35 1239.53C614.984 1236.77 608.877 1233.77 603.16 1230.5C603.425 1229.84 608.513 1227.22 616.285 1223.1M621.35 1239.53C621.37 1235.93 620.386 1227.6 616.285 1223.1" stroke="white" stroke-opacity="0.2" stroke-width="2"/>
<path d="M669.273 1164.1C679.008 1168.58 687.974 1172.43 695.158 1175.04C680.249 1191.91 640.632 1226.02 601.434 1227.58C600.772 1220.66 599.707 1211.28 598.274 1200.73M669.273 1164.1C658.789 1174.78 629.912 1197.06 598.274 1200.73M669.273 1164.1C663.153 1161.28 656.728 1158.21 650.25 1155.04M598.274 1200.73C597.236 1193.1 596.005 1184.86 594.594 1176.5M650.25 1155.04C641.808 1163.22 618.858 1178.97 594.594 1176.5M650.25 1155.04C642.99 1151.48 635.663 1147.8 628.624 1144.19M594.594 1176.5C593.395 1169.4 592.066 1162.22 590.614 1155.26M628.624 1144.19C624.438 1147.95 610.975 1155.44 590.614 1155.26M628.624 1144.19C619.655 1139.59 611.154 1135.13 603.851 1131.22M590.614 1155.26C589.219 1148.58 587.712 1142.1 586.098 1136.09M603.851 1131.22C589.956 1123.78 580.404 1118.37 580.244 1117.96C582.324 1123.15 584.279 1129.32 586.098 1136.09M603.851 1131.22C600.7 1133.65 592.736 1138.04 586.098 1136.09" stroke="white" stroke-opacity="0.2" stroke-width="2"/>
<path d="M578.303 1216.16C587.444 1221.12 595.494 1225.11 601.704 1227.92C604.011 1222.82 583.272 1117.83 581.4 1115.41C574.883 1118.75 567.35 1121.57 559.37 1123.96M578.303 1216.16C578.976 1197.83 576.131 1153.73 559.37 1123.96M578.303 1216.16C571.913 1212.69 564.99 1208.75 557.791 1204.38M559.37 1123.96C553.443 1125.73 547.27 1127.26 541.082 1128.59M557.791 1204.38C559.64 1188.94 558.886 1152.16 541.082 1128.59M557.791 1204.38C550.57 1200.01 543.071 1195.22 535.554 1190.07M541.082 1128.59C536.372 1129.6 531.654 1130.49 527.031 1131.29M535.554 1190.07C538.568 1178.05 541.082 1149.47 527.031 1131.29M535.554 1190.07C529.37 1185.84 523.173 1181.37 517.108 1176.7M527.031 1131.29C523.756 1131.85 520.528 1132.36 517.385 1132.83M517.108 1176.7C520.196 1170.63 524.575 1153.36 517.385 1132.83M517.108 1176.7C511.883 1172.67 506.757 1168.5 501.82 1164.2M517.385 1132.83C512.663 1133.53 508.13 1134.14 503.909 1134.66M501.82 1164.2C504.169 1159.05 507.876 1145.94 503.909 1134.66M501.82 1164.2C497.881 1160.77 494.063 1157.26 490.413 1153.67M503.909 1134.66C499.234 1135.24 494.943 1135.72 491.202 1136.13M490.413 1153.67C485.277 1148.64 480.474 1143.46 476.134 1138.19C476.612 1137.66 482.371 1137.09 491.202 1136.13M490.413 1153.67C491.666 1150.26 493.579 1141.96 491.202 1136.13" stroke="white" stroke-opacity="0.2" stroke-width="2"/>
<path d="M558.333 1099.23C566.153 1106.02 573.441 1112.02 579.426 1116.39C560.114 1127.89 512.102 1148.56 474.554 1139.3C476.067 1132.74 477.962 1123.79 479.867 1113.66M558.333 1099.23C545.117 1106.22 510.92 1118.91 479.867 1113.66M558.333 1099.23C553.417 1094.96 548.291 1090.37 543.147 1085.67M479.867 1113.66C481.247 1106.34 482.632 1098.39 483.881 1090.29M543.147 1085.67C532.634 1090.92 506.062 1099.19 483.881 1090.29M543.147 1085.67C537.381 1080.41 531.593 1075.01 526.052 1069.76M483.881 1090.29C484.943 1083.42 485.906 1076.43 486.685 1069.61M526.052 1069.76C520.929 1072.09 505.884 1075.33 486.685 1069.61M526.052 1069.76C518.993 1063.07 512.335 1056.63 506.638 1051.03M486.685 1069.61C487.433 1063.06 488.011 1056.67 488.343 1050.69M506.638 1051.03C495.798 1040.37 488.439 1032.77 488.414 1032.35C488.777 1037.71 488.716 1043.94 488.343 1050.69M506.638 1051.03C502.905 1052.42 494.019 1054.29 488.343 1050.69" stroke="white" stroke-opacity="0.2" stroke-width="2"/>
<path d="M456.209 1122.45C463.319 1129.52 469.7 1135.4 474.702 1139.69C478.461 1135.61 491.316 1033.05 490.295 1030.31C483.098 1031.61 475.104 1032.16 466.82 1032.18M456.209 1122.45C462.514 1105.72 473.463 1064.24 466.82 1032.18M456.209 1122.45C451.239 1117.51 445.914 1111.97 440.456 1105.98M466.82 1032.18C460.668 1032.2 454.357 1031.93 448.095 1031.47M440.456 1105.98C446.979 1092.24 457.64 1058.08 448.095 1031.47M440.456 1105.98C434.98 1099.97 429.371 1093.5 423.854 1086.71M448.095 1031.47C443.329 1031.11 438.59 1030.65 433.972 1030.12M423.854 1086.71C430.42 1076.44 441.637 1050.74 433.972 1030.12M423.854 1086.71C419.314 1081.11 414.837 1075.3 410.546 1069.33M433.972 1030.12C430.702 1029.75 427.491 1029.34 424.374 1028.92M410.546 1069.33C415.344 1064.57 424.826 1049.82 424.374 1028.92M410.546 1069.33C406.851 1064.19 403.294 1058.94 399.955 1053.62M424.374 1028.92C419.691 1028.28 415.219 1027.6 411.066 1026.93M399.955 1053.62C403.768 1049.51 411.327 1038.42 411.066 1026.93M399.955 1053.62C397.292 1049.38 394.767 1045.1 392.423 1040.79M411.066 1026.93C406.467 1026.19 402.26 1025.46 398.597 1024.81M392.423 1040.79C389.125 1034.74 386.183 1028.66 383.711 1022.6C384.326 1022.25 389.947 1023.3 398.597 1024.81M392.423 1040.79C394.666 1037.98 399.04 1030.85 398.597 1024.81" stroke="white" stroke-opacity="0.2" stroke-width="2"/>
<path d="M491.368 1028.49C469.555 1033.91 417.614 1039.81 384.353 1020.08C387.701 1014.23 392.105 1006.21 396.859 997.072C400.3 990.456 403.925 983.254 407.465 975.864C410.471 969.587 413.416 963.175 416.135 956.873C418.746 950.822 421.149 944.873 423.198 939.241C425.508 932.891 427.369 926.945 428.571 921.714C428.475 922.123 433.32 931.527 440.612 944.863C444.444 951.872 448.952 959.967 453.774 968.413C457.558 975.042 461.535 981.887 465.531 988.594C469.096 994.577 472.675 1000.45 476.145 1005.96C481.664 1014.73 486.905 1022.58 491.368 1028.49Z" fill="#F2FF84"/>
<path d="M476.145 1005.96C481.664 1014.73 486.905 1022.58 491.368 1028.49C469.555 1033.91 417.614 1039.81 384.353 1020.08C387.701 1014.23 392.105 1006.21 396.859 997.072M476.145 1005.96C461.469 1008.83 425.066 1011.08 396.859 997.072M476.145 1005.96C472.675 1000.45 469.096 994.577 465.531 988.594M396.859 997.072C400.3 990.456 403.925 983.254 407.465 975.864M465.531 988.594C453.949 990.574 426.121 990.801 407.465 975.864M465.531 988.594C461.535 981.887 457.558 975.042 453.774 968.413M407.465 975.864C410.471 969.587 413.416 963.175 416.135 956.873M453.774 968.413C448.195 969.163 432.857 967.906 416.135 956.873M453.774 968.413C448.952 959.967 444.444 951.872 440.612 944.863M416.135 956.873C418.746 950.822 421.149 944.873 423.198 939.241M440.612 944.863C433.32 931.527 428.475 922.123 428.571 921.714C427.369 926.945 425.508 932.891 423.198 939.241M440.612 944.863C436.636 945.111 427.588 944.334 423.198 939.241" stroke="white" stroke-opacity="0.2" stroke-width="2"/>
<path d="M430.96 920.308C431.142 923.232 389.156 1017.68 384.379 1020.49C380.833 1014.94 376.423 1007.47 371.665 998.645C368.339 992.473 364.843 985.636 361.351 978.323C357.849 970.986 354.353 963.171 351.039 955.065C348.313 948.398 345.71 941.534 343.33 934.581C341.28 928.591 339.395 922.535 337.738 916.48C336.416 911.649 335.24 906.818 334.24 902.023C332.835 895.276 331.78 888.599 331.166 882.088C331.858 881.926 336.935 884.556 344.775 888.513C348.095 890.189 351.911 892.103 356.099 894.144C359.88 895.987 363.965 897.933 368.262 899.9C371.122 901.21 374.077 902.529 377.1 903.834C381.367 905.676 385.769 907.489 390.23 909.205C396.091 911.459 402.053 913.545 407.947 915.309C415.882 917.685 423.692 919.477 430.96 920.308Z" fill="#F2FF84"/>
<path d="M371.665 998.645C376.423 1007.47 380.832 1014.94 384.379 1020.49C389.156 1017.68 431.142 923.232 430.96 920.308C423.692 919.477 415.882 917.685 407.947 915.309M371.665 998.645C382.543 984.451 405.028 947.914 407.947 915.309M371.665 998.645C368.339 992.473 364.843 985.636 361.351 978.323M407.947 915.309C402.053 913.545 396.091 911.459 390.23 909.205M361.351 978.323C371.574 967.051 391.662 937.447 390.23 909.205M361.351 978.323C357.849 970.986 354.353 963.171 351.039 955.065M390.23 909.205C385.769 907.489 381.367 905.676 377.1 903.834M351.039 955.065C360.297 947.135 378.469 925.786 377.1 903.834M351.039 955.065C348.313 948.398 345.71 941.534 343.33 934.581M377.1 903.834C374.077 902.529 371.122 901.21 368.262 899.9M343.33 934.581C349.3 931.413 362.644 920.042 368.262 899.9M343.33 934.581C341.28 928.591 339.395 922.535 337.738 916.48M368.262 899.9C363.965 897.933 359.88 895.987 356.099 894.144M337.738 916.48C342.576 913.652 353.021 905.225 356.099 894.144M337.738 916.48C336.416 911.649 335.24 906.818 334.24 902.023M356.099 894.144C351.911 892.103 348.095 890.189 344.775 888.513M334.24 902.023C332.835 895.276 331.78 888.599 331.166 882.088C331.858 881.926 336.935 884.556 344.775 888.513M334.24 902.023C337.201 899.979 343.454 894.415 344.775 888.513" stroke="white" stroke-opacity="0.2" stroke-width="2"/>
<path d="M423.552 895.805C425.891 905.459 428.268 914.204 430.542 920.971C408.25 918.422 357.447 906.134 332.569 877.372C337.623 873.305 344.38 867.664 351.83 861.145M423.552 895.805C408.805 893.405 373.815 883.114 351.83 861.145M423.552 895.805C422.081 889.735 420.625 883.307 419.219 876.785M351.83 861.145C357.223 856.426 362.979 851.247 368.717 845.874M419.219 876.785C407.674 874.637 381.41 865.447 368.717 845.874M419.219 876.785C417.642 869.475 416.128 862.048 414.725 854.879M368.717 845.874C373.59 841.309 378.45 836.604 383.061 831.92M414.725 854.879C409.231 853.664 395.205 847.37 383.061 831.92M414.725 854.879C412.938 845.745 411.331 837.028 410.007 829.505M383.061 831.92C387.489 827.423 391.687 822.945 395.449 818.631M410.007 829.505C407.487 815.19 405.989 805.197 406.214 804.866C403.379 809.109 399.692 813.766 395.449 818.631M410.007 829.505C406.185 828.384 397.922 824.64 395.449 818.631" stroke="white" stroke-opacity="0.2" stroke-width="2"/>
<path d="M327.603 854.035C329.206 863.488 330.925 871.613 332.453 877.747C337.866 876.858 408.135 807.077 408.915 804.417C402.346 801.225 395.58 796.997 388.885 792.207M327.603 854.035C342.462 845.091 375.521 820.203 388.885 792.207M327.603 854.035C326.483 847.427 325.419 840.17 324.514 832.491M388.885 792.207C383.913 788.65 378.981 784.783 374.2 780.802M324.514 832.491C337.806 825.923 366.351 806.389 374.2 780.802M324.514 832.491C323.607 824.789 322.862 816.661 322.382 808.339M374.2 780.802C370.56 777.772 367.008 774.674 363.591 771.597M322.382 808.339C333.677 804.414 357.732 791.571 363.591 771.597M322.382 808.339C321.988 801.492 321.774 794.513 321.798 787.53M363.591 771.597C361.172 769.417 358.82 767.247 356.555 765.117M321.798 787.53C328.448 786.729 344.709 781.125 356.555 765.117M321.798 787.53C321.819 781.514 322.017 775.495 322.43 769.554M356.555 765.117C353.151 761.918 349.941 758.81 346.983 755.896M322.43 769.554C327.904 768.673 340.478 764.708 346.983 755.896M322.43 769.554C322.759 764.813 323.224 760.122 323.846 755.523M346.983 755.896C343.706 752.669 340.738 749.68 338.159 747.069M323.846 755.523C324.72 749.051 325.901 742.761 327.443 736.766C328.147 736.855 332.069 740.906 338.159 747.069M323.846 755.523C327.298 754.705 334.994 751.869 338.159 747.069" stroke="white" stroke-opacity="0.2" stroke-width="2"/>
<path d="M410.396 774.999C409.794 784.914 409.496 793.972 409.68 801.108C389.122 792.12 344.174 765.444 328.848 730.641C334.874 728.239 342.99 724.832 352.027 720.791M410.396 774.999C397.005 768.371 366.585 748.251 352.027 720.791M410.396 774.999C410.774 768.765 411.271 762.193 411.843 755.546M352.027 720.791C358.569 717.865 365.593 714.607 372.656 711.157M411.843 755.546C401.44 750.099 379.037 733.597 372.656 711.157M411.843 755.546C412.485 748.096 413.22 740.552 413.987 733.287M372.656 711.157C378.656 708.226 384.684 705.157 390.468 702.035M413.987 733.287C409.092 730.51 397.535 720.372 390.468 702.035M413.987 733.287C414.963 724.03 415.989 715.227 416.934 707.647M390.468 702.035C396.022 699.038 401.351 695.992 406.215 692.974M416.934 707.647C418.732 693.223 420.238 683.231 420.55 682.98C416.593 686.203 411.7 689.571 406.215 692.974M416.934 707.647C413.61 705.452 406.813 699.444 406.215 692.974" stroke="white" stroke-opacity="0.2" stroke-width="2"/>
<path d="M330.957 706.882C329.711 716.389 328.965 724.66 328.624 730.972C334.059 731.713 421.733 685.666 423.261 683.352C417.92 678.371 412.694 672.341 407.703 665.795M330.957 706.882C347.788 702.7 386.701 688.627 407.703 665.795M330.957 706.882C331.828 700.237 332.943 692.987 334.336 685.382M407.703 665.795C403.996 660.934 400.418 655.788 397.018 650.578M334.336 685.382C348.971 683.01 381.996 672.728 397.018 650.578M334.336 685.382C335.733 677.753 337.409 669.765 339.396 661.669M397.018 650.578C394.43 646.611 391.945 642.607 389.584 638.661M339.396 661.669C351.346 661.238 378.113 656.032 389.584 638.661M339.396 661.669C341.031 655.009 342.878 648.276 344.954 641.608M389.584 638.661C387.912 635.867 386.302 633.101 384.762 630.4M344.954 641.608C351.545 642.796 368.735 642.219 384.762 630.4M344.954 641.608C346.742 635.864 348.7 630.169 350.84 624.611M384.762 630.4C382.449 626.342 380.294 622.428 378.323 618.773M350.84 624.611C356.331 625.378 369.515 625.283 378.323 618.773M350.84 624.611C352.548 620.177 354.372 615.83 356.317 611.616M378.323 618.773C376.139 614.725 374.181 610.995 372.483 607.742M356.317 611.616C359.054 605.687 362.033 600.022 365.269 594.745C365.915 595.037 368.473 600.062 372.483 607.742M356.317 611.616C359.857 611.849 368.047 611.4 372.483 607.742" stroke="white" stroke-opacity="0.2" stroke-width="2"/>
<path d="M417.351 683.284C401.423 667.482 369.135 626.379 367.405 588.391C373.892 588.326 382.69 588.079 392.577 587.572C399.733 587.205 407.46 586.702 415.293 586.034C421.946 585.467 428.675 584.78 435.196 583.957C441.457 583.166 447.527 582.249 453.152 581.191C459.495 579.997 465.274 578.622 470.128 577.045C469.747 577.166 464.736 585.941 457.852 598.743C454.234 605.471 450.1 613.31 445.848 621.591C442.511 628.089 439.102 634.859 435.815 641.575C432.882 647.568 430.045 653.517 427.442 659.194C423.303 668.224 419.755 676.563 417.351 683.284Z" fill="#F2FF84"/>
<path d="M427.442 659.194C423.303 668.224 419.755 676.563 417.351 683.284C401.423 667.482 369.135 626.379 367.405 588.391C373.892 588.326 382.69 588.079 392.577 587.572M427.442 659.194C417.347 648.18 396.241 618.435 392.577 587.572M427.442 659.194C430.045 653.517 432.882 647.568 435.815 641.575M392.577 587.572C399.733 587.205 407.46 586.702 415.293 586.034M435.815 641.575C428.078 632.741 413.143 609.264 415.293 586.034M435.815 641.575C439.102 634.859 442.511 628.089 445.848 621.591M415.293 586.034C421.946 585.467 428.675 584.78 435.196 583.957M445.848 621.591C442.286 617.234 435.168 603.608 435.196 583.957M445.848 621.591C450.1 613.31 454.234 605.471 457.852 598.743M435.196 583.957C441.457 583.166 447.527 582.249 453.152 581.191M457.852 598.743C464.736 585.941 469.747 577.166 470.128 577.045C465.274 578.622 459.495 579.997 453.152 581.191M457.852 598.743C455.544 595.496 451.374 587.44 453.152 581.191" stroke="white" stroke-opacity="0.2" stroke-width="2"/>
<path d="M472.529 578.377C470.269 579.983 371.884 591.278 367.084 588.626C369.68 582.862 373.361 575.418 377.955 567.002C381.166 561.119 384.823 554.761 388.867 548.171C392.924 541.561 397.37 534.717 402.146 527.884C406.075 522.263 410.227 516.65 414.57 511.181C418.311 506.47 422.193 501.865 426.195 497.455C429.388 493.936 432.658 490.541 435.994 487.313C440.686 482.772 445.509 478.564 450.431 474.81C450.929 475.316 451.501 480.926 452.467 489.536C452.877 493.183 453.357 497.368 453.932 501.931C454.451 506.051 455.048 510.479 455.74 515.098C456.201 518.174 456.704 521.333 457.255 524.543C458.032 529.075 458.904 533.706 459.886 538.34C461.176 544.427 462.655 550.517 464.358 556.388C466.65 564.294 469.346 571.804 472.529 578.377Z" fill="#F2FF84"/>
<path d="M377.955 567.002C373.361 575.418 369.68 582.862 367.084 588.626C371.884 591.278 470.269 579.983 472.529 578.377C469.346 571.804 466.65 564.294 464.358 556.388M377.955 567.002C395.161 569.177 436.531 570.1 464.358 556.388M377.955 567.002C381.166 561.119 384.823 554.761 388.867 548.171M464.358 556.388C462.655 550.517 461.176 544.427 459.886 538.34M388.867 548.171C403.371 551.241 437.881 553.574 459.886 538.34M388.867 548.171C392.924 541.561 397.37 534.717 402.146 527.884M459.886 538.34C458.904 533.706 458.032 529.075 457.255 524.543M402.146 527.884C413.445 531.795 440.287 536.602 457.255 524.543M402.146 527.884C406.075 522.263 410.227 516.65 414.57 511.181M457.255 524.543C456.704 521.333 456.201 518.174 455.74 515.098M414.57 511.181C420.288 514.669 436.527 520.335 455.74 515.098M414.57 511.181C418.311 506.47 422.193 501.865 426.195 497.455M455.74 515.098C455.048 510.479 454.451 506.051 453.932 501.931M426.195 497.455C431.039 500.152 443.368 504.823 453.932 501.931M426.195 497.455C429.388 493.936 432.658 490.541 435.994 487.313M453.932 501.931C453.357 497.368 452.877 493.183 452.467 489.536M435.994 487.313C440.686 482.772 445.509 478.564 450.431 474.81C450.929 475.316 451.501 480.926 452.467 489.536M435.994 487.313C439.211 488.808 447.01 491.346 452.467 489.536" stroke="white" stroke-opacity="0.2" stroke-width="2"/>
<path d="M493.321 553.702C486.943 561.318 481.319 568.424 477.226 574.272C466.036 554.824 445.747 506.655 454.11 469.558C460.384 471.208 468.935 473.293 478.604 475.415M493.321 553.702C486.492 540.412 473.989 506.15 478.604 475.415M493.321 553.702C497.33 548.913 501.637 543.924 506.048 538.919M478.604 475.415C485.604 476.95 493.189 478.506 500.92 479.93M506.048 538.919C500.919 528.355 492.713 501.767 500.92 479.93M506.048 538.919C510.992 533.309 516.068 527.679 521.002 522.293M500.92 479.93C507.487 481.139 514.159 482.254 520.666 483.182M521.002 522.293C518.717 517.15 515.45 502.128 520.666 483.182M521.002 522.293C527.29 515.429 533.348 508.959 538.613 503.426M520.666 483.182C526.914 484.073 533.01 484.791 538.715 485.255M538.613 503.426C548.633 492.896 555.783 485.755 556.183 485.739C551.085 485.979 545.148 485.779 538.715 485.255M538.613 503.426C537.245 499.685 535.35 490.813 538.715 485.255" stroke="white" stroke-opacity="0.2" stroke-width="2"/>
<path d="M469.936 451.708C463.284 458.612 457.768 464.821 453.741 469.694C457.671 473.52 555.546 488.605 558.15 487.652C556.816 480.472 556.198 472.517 556.075 464.286M469.936 451.708C485.958 458.35 525.615 470.163 556.075 464.286M469.936 451.708C474.587 446.882 479.793 441.715 485.434 436.427M556.075 464.286C555.984 458.174 556.165 451.909 556.528 445.698M485.434 436.427C498.613 443.218 531.282 454.58 556.528 445.698M485.434 436.427C491.092 431.122 497.187 425.695 503.598 420.366M556.528 445.698C556.805 440.97 557.186 436.272 557.633 431.696M503.598 420.366C513.464 427.122 538.083 438.846 557.633 431.696M503.598 420.366C508.872 415.982 514.359 411.665 519.992 407.537M557.633 431.696C557.95 428.455 558.299 425.274 558.666 422.186M519.992 407.537C524.586 412.411 538.753 422.164 558.666 422.186M519.992 407.537C524.844 403.98 529.804 400.565 534.829 397.368M558.666 422.186C559.218 417.548 559.812 413.12 560.399 409.009M534.829 397.368C538.789 401.248 549.447 409.009 560.399 409.009M534.829 397.368C538.838 394.817 542.888 392.405 546.958 390.173M560.399 409.009C561.049 404.456 561.691 400.292 562.26 396.667M546.958 390.173C552.683 387.032 558.445 384.247 564.184 381.927C564.53 382.546 563.601 388.108 562.26 396.667M546.958 390.173C549.666 392.465 556.518 396.972 562.26 396.667" stroke="white" stroke-opacity="0.2" stroke-width="2"/>
<path d="M582.807 468.532C574.615 473.827 567.274 478.868 561.73 483.18C557.11 461.239 552.57 409.172 571.373 376.424C576.715 379.918 584.045 384.523 592.403 389.506M582.807 468.532C580.411 453.79 578.974 417.346 592.403 389.506M582.807 468.532C587.958 465.203 593.445 461.774 599.034 458.362M592.403 389.506C598.453 393.113 605.042 396.918 611.806 400.642M599.034 458.362C597.407 446.735 597.683 418.913 611.806 400.642M599.034 458.362C605.299 454.537 611.691 450.735 617.879 447.12M611.806 400.642C617.551 403.806 623.421 406.912 629.194 409.789M617.879 447.12C617.283 441.524 618.712 426.225 629.194 409.789M617.879 447.12C625.765 442.513 633.32 438.212 639.86 434.558M629.194 409.789C634.738 412.552 640.191 415.104 645.357 417.294M639.86 434.558C652.305 427.606 661.075 423.001 661.451 423.108C656.641 421.774 651.182 419.764 645.357 417.294M639.86 434.558C639.7 430.578 640.576 421.553 645.357 417.294" stroke="white" stroke-opacity="0.2" stroke-width="2"/>
<path d="M591.391 364.285C583.155 368.818 576.181 373.037 570.989 376.441C573.504 381.288 660.006 425.641 662.71 425.533C663.604 418.289 665.395 410.528 667.728 402.656M591.391 364.285C604.311 375.517 637.665 398.915 667.728 402.656M591.391 364.285C597.15 361.116 603.525 357.794 610.341 354.489M667.728 402.656C669.46 396.81 671.491 390.903 673.676 385.102M610.341 354.489C620.573 364.992 647.565 385.819 673.676 385.102M610.341 354.489C617.178 351.174 624.458 347.876 632.002 344.769M673.676 385.102C675.338 380.686 677.09 376.332 678.866 372.113M632.002 344.769C639.165 354.223 658.566 372.927 678.866 372.113M632.002 344.769C638.208 342.212 644.593 339.784 651.057 337.581M678.866 372.113C680.123 369.124 681.394 366.204 682.653 363.378M651.057 337.581C653.878 343.628 664.148 357.254 682.653 363.378M651.057 337.581C656.624 335.683 662.251 333.952 667.872 332.449M682.653 363.378C684.546 359.132 686.414 355.099 688.182 351.366M667.872 332.449C670.4 337.356 678.001 348.009 688.182 351.366M667.872 332.449C672.358 331.25 676.84 330.195 681.287 329.318M688.182 351.366C690.14 347.231 691.975 343.465 693.581 340.189M681.287 329.318C687.543 328.083 693.728 327.198 699.753 326.748C699.89 327.444 697.373 332.452 693.581 340.189M681.287 329.318C683.123 332.329 688.153 338.719 693.581 340.189" stroke="white" stroke-opacity="0.2" stroke-width="2"/>
<path d="M689.939 420.396C680.091 422.747 671.173 425.135 664.279 427.419C666.566 405.081 678.409 354.169 707.492 329.221C711.728 334.283 717.601 341.048 724.382 348.507M689.939 420.396C692.182 405.619 702.211 370.552 724.382 348.507M689.939 420.396C696.131 418.918 702.691 417.454 709.347 416.04M724.382 348.507C729.291 353.907 734.675 359.671 740.259 365.416M709.347 416.04C711.379 404.471 720.406 378.149 740.259 365.416M709.347 416.04C716.807 414.455 724.388 412.932 731.706 411.521M740.259 365.416C745.002 370.295 749.889 375.161 754.751 379.777M731.706 411.521C732.871 406.015 739.111 391.957 754.751 379.777M731.706 411.521C741.031 409.723 749.931 408.107 757.612 406.774M754.751 379.777C759.419 384.21 764.063 388.414 768.534 392.18M757.612 406.774C772.23 404.239 782.439 402.73 782.781 402.955C778.396 400.118 773.575 396.427 768.534 392.18M757.612 406.774C758.705 402.944 762.419 394.662 768.534 392.18" stroke="white" stroke-opacity="0.2" stroke-width="2"/>
<path d="M731.206 321.388C721.553 323.001 713.26 324.729 707.003 326.265C707.992 331.688 780.441 402.041 783.176 402.821C786.348 396.237 790.579 389.453 795.385 382.742M731.206 321.388C740.577 336.269 766.533 369.373 795.385 382.742M731.206 321.388C737.954 320.26 745.368 319.188 753.215 318.276M795.385 382.742C798.954 377.758 802.841 372.813 806.847 368.019M753.215 318.276C760.132 331.589 780.541 360.174 806.847 368.019M753.215 318.276C761.087 317.362 769.396 316.608 777.909 316.122M806.847 368.019C809.897 364.37 813.016 360.809 816.117 357.383M777.909 316.122C782.09 327.436 795.585 351.528 816.117 357.383M777.909 316.122C784.912 315.721 792.053 315.501 799.202 315.521M816.117 357.383C818.313 354.957 820.501 352.6 822.648 350.328M799.202 315.521C800.118 322.183 806.09 338.472 822.648 350.328M799.202 315.521C805.361 315.537 811.525 315.731 817.613 316.14M822.648 350.328C825.873 346.916 829.009 343.697 831.949 340.73M817.613 316.14C818.594 321.624 822.835 334.219 831.949 340.73M817.613 316.14C822.47 316.466 827.279 316.929 831.997 317.548M831.949 340.73C835.205 337.445 838.222 334.469 840.857 331.882M831.997 317.548C838.634 318.418 845.09 319.598 851.25 321.138C851.168 321.844 847.078 325.776 840.857 331.882M831.997 317.548C832.884 321.006 835.898 328.715 840.857 331.882" stroke="white" stroke-opacity="0.2" stroke-width="2"/>
<path d="M786.355 405.102C794.927 384.348 820.821 338.941 855.818 323.341C858.432 329.401 862.128 337.563 866.495 346.648C869.657 353.226 873.171 360.288 876.881 367.388C880.032 373.419 883.326 379.478 886.666 385.291C889.873 390.872 893.123 396.227 896.331 401.114C899.949 406.624 903.515 411.538 906.907 415.51C906.643 415.197 896.429 413.726 881.696 411.98C873.954 411.063 864.963 410.07 855.513 409.129C848.096 408.39 840.397 407.684 832.795 407.072C826.012 406.526 819.308 406.054 812.952 405.702C802.842 405.142 793.613 404.883 786.355 405.102Z" fill="#F2FF84"/>
<path d="M812.952 405.702C802.842 405.142 793.613 404.883 786.355 405.102C794.927 384.348 820.821 338.941 855.818 323.341C858.432 329.401 862.128 337.563 866.495 346.648M812.952 405.702C819.323 392.181 838.951 361.441 866.495 346.648M812.952 405.702C819.308 406.054 826.012 406.526 832.795 407.072M866.495 346.648C869.657 353.226 873.171 360.288 876.881 367.388M832.795 407.072C838.047 396.565 854.218 373.919 876.881 367.388M832.795 407.072C840.397 407.684 848.096 408.39 855.513 409.129M876.881 367.388C880.032 373.419 883.326 379.478 886.666 385.291M855.513 409.129C858.203 404.184 868.198 392.495 886.666 385.291M855.513 409.129C864.963 410.07 873.954 411.063 881.696 411.98M886.666 385.291C889.873 390.872 893.123 396.227 896.331 401.114M881.696 411.98C896.429 413.726 906.643 415.197 906.907 415.51C903.515 411.538 899.949 406.624 896.331 401.114M881.696 411.98C883.837 408.621 889.762 401.746 896.331 401.114" stroke="white" stroke-opacity="0.2" stroke-width="2"/>
<path d="M907.325 415.495C904.927 413.967 855.594 325.848 856.196 320.37C862.631 320.684 871.071 321.398 880.783 322.609C887.573 323.456 894.983 324.547 902.764 325.915C910.569 327.287 918.747 328.939 927.044 330.904C933.87 332.521 940.776 334.35 947.622 336.411C953.519 338.186 959.371 340.133 965.089 342.264C969.651 343.964 974.126 345.782 978.471 347.722C984.582 350.453 990.433 353.427 995.896 356.663C995.616 357.316 990.573 359.916 982.867 363.991C979.603 365.716 975.862 367.707 971.802 369.925C968.137 371.928 964.213 374.117 960.147 376.466C957.44 378.03 954.671 379.664 951.873 381.362C947.923 383.758 943.916 386.281 939.951 388.906C934.742 392.356 929.605 395.984 924.76 399.741C918.237 404.8 912.245 410.092 907.325 415.495Z" fill="#F2FF84"/>
<path d="M880.783 322.609C871.071 321.398 862.631 320.684 856.196 320.37C855.594 325.848 904.927 413.967 907.325 415.495C912.245 410.092 918.237 404.8 924.76 399.741M880.783 322.609C885.513 339.547 900.93 378.687 924.76 399.741M880.783 322.609C887.573 323.456 894.983 324.547 902.764 325.915M924.76 399.741C929.605 395.984 934.742 392.356 939.951 388.906M902.764 325.915C905.59 340.648 916.982 373.873 939.951 388.906M902.764 325.915C910.569 327.287 918.747 328.939 927.044 330.904M939.951 388.906C943.916 386.281 947.923 383.758 951.873 381.362M927.044 330.904C927.819 342.941 933.869 369.884 951.873 381.362M927.044 330.904C933.87 332.521 940.776 334.35 947.622 336.411M951.873 381.362C954.671 379.664 957.44 378.03 960.147 376.466M947.622 336.411C946.597 343.058 947.667 360.374 960.147 376.466M947.622 336.411C953.519 338.186 959.371 340.133 965.089 342.264M960.147 376.466C964.213 374.117 968.137 371.928 971.802 369.925M965.089 342.264C964.462 347.8 964.928 361.082 971.802 369.925M965.089 342.264C969.651 343.964 974.126 345.782 978.471 347.722M971.802 369.925C975.862 367.707 979.603 365.716 982.867 363.991M978.471 347.722C984.582 350.453 990.433 353.427 995.896 356.663C995.616 357.316 990.573 359.916 982.867 363.991M978.471 347.722C978.333 351.29 979.019 359.538 982.867 363.991" stroke="white" stroke-opacity="0.2" stroke-width="2"/>
<path d="M927.413 423.646C918.079 419.722 909.474 416.376 902.564 414.143C917.612 397.477 957.258 363.412 995.463 360.479C995.888 367.065 996.627 375.994 997.687 386.019M927.413 423.646C937.957 413.053 966.774 390.695 997.687 386.019M927.413 423.646C933.281 426.114 939.437 428.811 945.642 431.604M997.687 386.019C998.455 393.276 999.391 401.108 1000.5 409.042M945.642 431.604C954.119 423.473 976.959 407.578 1000.5 409.042M945.642 431.604C952.596 434.735 959.611 437.988 966.348 441.176M1000.5 409.042C1001.44 415.782 1002.51 422.595 1003.7 429.192M966.348 441.176C970.543 437.423 983.885 429.772 1003.7 429.192M966.348 441.176C974.933 445.237 983.066 449.194 990.05 452.66M1003.7 429.192C1004.84 435.527 1006.11 441.663 1007.49 447.343M990.05 452.66C1003.34 459.255 1012.47 464.072 1012.61 464.456C1010.75 459.575 1009.04 453.748 1007.49 447.343M990.05 452.66C993.196 450.216 1001.09 445.731 1007.49 447.343" stroke="white" stroke-opacity="0.2" stroke-width="2"/>
<path d="M1019.21 368.181C1010.48 363.776 1002.76 360.268 996.81 357.809C994.402 362.767 1011.26 462.339 1013 464.584C1019.45 461.148 1026.87 458.177 1034.72 455.605M1019.21 368.181C1017.98 385.723 1019.35 427.767 1034.72 455.605M1019.21 368.181C1025.33 371.26 1031.94 374.777 1038.81 378.68M1034.72 455.605C1040.54 453.694 1046.6 452.003 1052.66 450.505M1038.81 378.68C1036.52 393.506 1036.08 428.628 1052.66 450.505M1038.81 378.68C1045.7 382.596 1052.84 386.899 1060 391.538M1052.66 450.505C1057.28 449.364 1061.9 448.335 1066.43 447.405M1060 391.538C1056.68 403.136 1053.33 430.545 1066.43 447.405M1060 391.538C1065.88 395.355 1071.77 399.398 1077.53 403.64M1066.43 447.405C1069.63 446.746 1072.79 446.137 1075.87 445.574M1077.53 403.64C1074.33 409.555 1069.52 426.224 1075.87 445.574M1077.53 403.64C1082.49 407.293 1087.34 411.093 1092.01 415.021M1075.87 445.574C1080.49 444.728 1084.92 443.985 1089.04 443.33M1092.01 415.021C1089.56 420.025 1085.54 432.691 1089.04 443.33M1092.01 415.021C1095.74 418.156 1099.34 421.372 1102.78 424.659M1089.04 443.33C1093.61 442.605 1097.8 441.988 1101.46 441.459M1102.78 424.659C1107.62 429.285 1112.13 434.052 1116.19 438.936C1115.71 439.456 1110.08 440.211 1101.46 441.459M1102.78 424.659C1101.45 427.973 1099.33 435.973 1101.46 441.459" stroke="white" stroke-opacity="0.2" stroke-width="2"/>
<path d="M1031.41 482.332C1023.75 475.708 1016.61 469.861 1010.73 465.597C1030.2 454.413 1078.45 434.308 1115.69 443.357C1114.05 449.751 1111.98 458.469 1109.89 468.329M1031.41 482.332C1044.72 475.526 1079.05 463.198 1109.89 468.329M1031.41 482.332C1036.23 486.496 1041.25 490.967 1046.28 495.546M1109.89 468.329C1108.37 475.467 1106.83 483.204 1105.43 491.091M1046.28 495.546C1056.86 490.442 1083.5 482.405 1105.43 491.091M1046.28 495.546C1051.92 500.677 1057.58 505.943 1063 511.062M1105.43 491.091C1104.23 497.79 1103.14 504.599 1102.23 511.241M1063 511.062C1068.15 508.793 1083.21 505.653 1102.23 511.241M1063 511.062C1069.9 517.583 1076.41 523.865 1081.98 529.324M1102.23 511.241C1101.35 517.618 1100.65 523.843 1100.2 529.672M1081.98 529.324C1092.57 539.712 1099.75 547.12 1099.77 547.529C1099.52 542.313 1099.7 536.244 1100.2 529.672M1081.98 529.324C1085.73 527.975 1094.62 526.156 1100.2 529.672" stroke="white" stroke-opacity="0.2" stroke-width="2"/>
<path d="M1135.89 458.042C1128.94 451.146 1122.7 445.422 1117.8 441.239C1113.97 445.207 1099.15 545.1 1100.11 547.776C1107.31 546.508 1115.29 545.983 1123.54 545.967M1135.89 458.042C1129.28 474.338 1117.55 514.737 1123.54 545.967M1135.89 458.042C1140.74 462.863 1145.94 468.256 1151.26 474.095M1123.54 545.967C1129.67 545.955 1135.95 546.224 1142.19 546.679M1151.26 474.095C1144.49 487.482 1133.2 520.741 1142.19 546.679M1151.26 474.095C1156.6 479.953 1162.06 486.259 1167.43 492.887M1142.19 546.679C1146.93 547.025 1151.64 547.478 1156.23 547.996M1167.43 492.887C1160.68 502.886 1149 527.907 1156.23 547.996M1167.43 492.887C1171.84 498.339 1176.19 504.008 1180.35 509.824M1156.23 547.996C1159.48 548.363 1162.67 548.763 1165.77 549.18M1180.35 509.824C1175.47 514.457 1165.73 528.815 1165.77 549.18M1180.35 509.824C1183.93 514.834 1187.37 519.952 1190.59 525.133M1165.77 549.18C1170.43 549.807 1174.87 550.473 1179 551.128M1190.59 525.133C1186.71 529.131 1178.96 539.928 1179 551.128M1190.59 525.133C1193.16 529.268 1195.59 533.442 1197.85 537.634M1179 551.128C1183.56 551.854 1187.74 552.566 1191.38 553.196M1197.85 537.634C1201.01 543.531 1203.82 549.462 1206.17 555.362C1205.55 555.707 1199.97 554.682 1191.38 553.196M1197.85 537.634C1195.56 540.373 1191.06 547.32 1191.38 553.196" stroke="white" stroke-opacity="0.2" stroke-width="2"/>
<path d="M1351.94 349.525L1260.59 352.661L1282.02 280.656L1194.71 293.54L1194.55 204.974L1105.26 231.933L1091.38 151.665L1015.99 187.622L990.603 120.108L918.688 161.301L881.594 100.781L826.207 155.413L772.724 97.5149L716.342 159.185L663.923 108.253L622.921 173.927L557.73 134.969L526.915 209.356L459.351 185.31L439.249 259.741L369.414 241.54L369.402 325.169L296.274 319.028L295.297 398.571L220.408 401.141L237.933 479.636L160.616 495.474L197.511 562.181L120.433 596.96L166.366 662.944L98.9629 703.571L159.937 763.684L90.9431 817.959L167.811 861.048L102.547 927.967L178.862 966.955L140.755 1032.94L215.044 1060.88L189.578 1135.08L262.109 1147.83L250.419 1227.33L330.756 1227.46L328.771 1313.62L402.3 1295.44L407.467 1373.95L486.801 1344.86L504.098 1428.72L572.947 1394.22L604.975 1463.16L666.05 1418.22L712.01 1496.97L762.504 1431.8L820.059 1488.32L867.842 1428.18L923.553 1479L967.762 1410.74L1035.05 1450.87L1068.42 1378.86L1145.52 1404.64L1153.83 1322.79L1220.3 1339.04L1226.74 1262.61L1304.41 1269.01L1292.09 1186.21L1380.8 1190.17L1352.44 1107.93L1435.17 1093.97L1396.25 1016.2L1465.23 985.412L1421.2 914.83L1488.61 874.615L1431.02 816.858L1491.71 760.807L1427.43 712.343L1481.27 660.647L1403.72 621.701L1450.18 547.189L1379.33 523.256L1413.02 448.77L1335.39 431.249L1351.94 349.525Z" stroke="white" stroke-opacity="0.2" stroke-width="2"/>
<circle cx="1346.22" cy="290.808" r="23.8797" transform="rotate(88.0338 1346.22 290.808)" fill="black"/>
<circle cx="1346.22" cy="290.808" r="22.8797" transform="rotate(88.0338 1346.22 290.808)" stroke="white" stroke-opacity="0.2" stroke-width="2"/>
<circle cx="1417.81" cy="383.933" r="23.8797" transform="rotate(88.0338 1417.81 383.933)" fill="black"/>
<circle cx="1417.81" cy="383.933" r="22.8797" transform="rotate(88.0338 1417.81 383.933)" stroke="white" stroke-opacity="0.2" stroke-width="2"/>
<circle cx="1469.18" cy="488.452" r="23.8797" transform="rotate(88.0338 1469.18 488.452)" fill="black"/>
<circle cx="1469.18" cy="488.452" r="22.8797" transform="rotate(88.0338 1469.18 488.452)" stroke="white" stroke-opacity="0.2" stroke-width="2"/>
<circle cx="1509.86" cy="593.342" r="23.8797" transform="rotate(88.0338 1509.86 593.342)" fill="black"/>
<circle cx="1509.86" cy="593.342" r="22.8797" transform="rotate(88.0338 1509.86 593.342)" stroke="white" stroke-opacity="0.2" stroke-width="2"/>
<circle cx="1535.12" cy="705.347" r="23.8797" transform="rotate(88.0338 1535.12 705.347)" fill="black"/>
<circle cx="1535.12" cy="705.347" r="22.8797" transform="rotate(88.0338 1535.12 705.347)" stroke="white" stroke-opacity="0.2" stroke-width="2"/>
<circle cx="1541.69" cy="824.59" r="23.8797" transform="rotate(88.0338 1541.69 824.59)" fill="black"/>
<circle cx="1541.69" cy="824.59" r="22.8797" transform="rotate(88.0338 1541.69 824.59)" stroke="white" stroke-opacity="0.2" stroke-width="2"/>
<circle cx="1521.89" cy="943.918" r="23.8797" transform="rotate(88.0338 1521.89 943.918)" fill="black"/>
<circle cx="1521.89" cy="943.918" r="22.8797" transform="rotate(88.0338 1521.89 943.918)" stroke="white" stroke-opacity="0.2" stroke-width="2"/>
<circle cx="1488.48" cy="1050.53" r="23.8797" transform="rotate(88.0338 1488.48 1050.53)" fill="black"/>
<circle cx="1488.48" cy="1050.53" r="22.8797" transform="rotate(88.0338 1488.48 1050.53)" stroke="white" stroke-opacity="0.2" stroke-width="2"/>
<circle cx="1444.31" cy="1155.85" r="23.8797" transform="rotate(88.0338 1444.31 1155.85)" fill="black"/>
<circle cx="1444.31" cy="1155.85" r="22.8797" transform="rotate(88.0338 1444.31 1155.85)" stroke="white" stroke-opacity="0.2" stroke-width="2"/>
<circle cx="1379.3" cy="1254.49" r="23.8797" transform="rotate(88.0338 1379.3 1254.49)" fill="black"/>
<circle cx="1379.3" cy="1254.49" r="22.8797" transform="rotate(88.0338 1379.3 1254.49)" stroke="white" stroke-opacity="0.2" stroke-width="2"/>
<circle cx="1297.51" cy="1343.81" r="23.8797" transform="rotate(88.0338 1297.51 1343.81)" fill="black"/>
<circle cx="1297.51" cy="1343.81" r="22.8797" transform="rotate(88.0338 1297.51 1343.81)" stroke="white" stroke-opacity="0.2" stroke-width="2"/>
<circle cx="1202.8" cy="1417.09" r="23.8797" transform="rotate(88.0338 1202.8 1417.09)" fill="black"/>
<circle cx="1202.8" cy="1417.09" r="22.8797" transform="rotate(88.0338 1202.8 1417.09)" stroke="white" stroke-opacity="0.2" stroke-width="2"/>
<circle cx="1099.92" cy="1468.41" r="23.8797" transform="rotate(88.0338 1099.92 1468.41)" fill="black"/>
<circle cx="1099.92" cy="1468.41" r="22.8797" transform="rotate(88.0338 1099.92 1468.41)" stroke="white" stroke-opacity="0.2" stroke-width="2"/>
<circle cx="988.536" cy="1511.79" r="23.8797" transform="rotate(88.0338 988.536 1511.79)" fill="black"/>
<circle cx="988.536" cy="1511.79" r="22.8797" transform="rotate(88.0338 988.536 1511.79)" stroke="white" stroke-opacity="0.2" stroke-width="2"/>
<circle cx="870.567" cy="1531.49" r="23.8797" transform="rotate(88.0338 870.567 1531.49)" fill="black"/>
<circle cx="870.567" cy="1531.49" r="22.8797" transform="rotate(88.0338 870.567 1531.49)" stroke="white" stroke-opacity="0.2" stroke-width="2"/>
<circle cx="761.94" cy="1535.22" r="23.8797" transform="rotate(88.0338 761.94 1535.22)" fill="black"/>
<circle cx="761.94" cy="1535.22" r="22.8797" transform="rotate(88.0338 761.94 1535.22)" stroke="white" stroke-opacity="0.2" stroke-width="2"/>
<circle cx="642.643" cy="1516.24" r="23.8797" transform="rotate(88.0338 642.643 1516.24)" fill="black"/>
<circle cx="642.643" cy="1516.24" r="22.8797" transform="rotate(88.0338 642.643 1516.24)" stroke="white" stroke-opacity="0.2" stroke-width="2"/>
<circle cx="531.264" cy="1487.93" r="23.8797" transform="rotate(88.0338 531.264 1487.93)" fill="black"/>
<circle cx="531.264" cy="1487.93" r="22.8797" transform="rotate(88.0338 531.264 1487.93)" stroke="white" stroke-opacity="0.2" stroke-width="2"/>
<circle cx="426.501" cy="1436.33" r="23.8797" transform="rotate(88.0338 426.501 1436.33)" fill="black"/>
<circle cx="426.501" cy="1436.33" r="22.8797" transform="rotate(88.0338 426.501 1436.33)" stroke="white" stroke-opacity="0.2" stroke-width="2"/>
<circle cx="331.192" cy="1372.04" r="23.8797" transform="rotate(88.0338 331.192 1372.04)" fill="black"/>
<circle cx="331.192" cy="1372.04" r="22.8797" transform="rotate(88.0338 331.192 1372.04)" stroke="white" stroke-opacity="0.2" stroke-width="2"/>
<circle cx="240.254" cy="1291.12" r="23.8797" transform="rotate(88.0338 240.254 1291.12)" fill="black"/>
<circle cx="240.254" cy="1291.12" r="22.8797" transform="rotate(88.0338 240.254 1291.12)" stroke="white" stroke-opacity="0.2" stroke-width="2"/>
<circle cx="169.438" cy="1196.33" r="23.8797" transform="rotate(88.0338 169.438 1196.33)" fill="black"/>
<circle cx="169.438" cy="1196.33" r="22.8797" transform="rotate(88.0338 169.438 1196.33)" stroke="white" stroke-opacity="0.2" stroke-width="2"/>
<circle cx="112.499" cy="1097.77" r="23.8797" transform="rotate(88.0338 112.499 1097.77)" fill="black"/>
<circle cx="112.499" cy="1097.77" r="22.8797" transform="rotate(88.0338 112.499 1097.77)" stroke="white" stroke-opacity="0.2" stroke-width="2"/>
<circle cx="72.5611" cy="990.376" r="23.8797" transform="rotate(88.0338 72.5611 990.376)" fill="black"/>
<circle cx="72.5611" cy="990.376" r="22.8797" transform="rotate(88.0338 72.5611 990.376)" stroke="white" stroke-opacity="0.2" stroke-width="2"/>
<circle cx="52.0884" cy="874.081" r="23.8797" transform="rotate(88.0338 52.0884 874.081)" fill="black"/>
<circle cx="52.0884" cy="874.081" r="22.8797" transform="rotate(88.0338 52.0884 874.081)" stroke="white" stroke-opacity="0.2" stroke-width="2"/>
<circle cx="53.0123" cy="757.052" r="23.8797" transform="rotate(88.0338 53.0123 757.052)" fill="black"/>
<circle cx="53.0123" cy="757.052" r="22.8797" transform="rotate(88.0338 53.0123 757.052)" stroke="white" stroke-opacity="0.2" stroke-width="2"/>
<circle cx="60.608" cy="642.266" r="23.8797" transform="rotate(88.0338 60.608 642.266)" fill="black"/>
<circle cx="60.608" cy="642.266" r="22.8797" transform="rotate(88.0338 60.608 642.266)" stroke="white" stroke-opacity="0.2" stroke-width="2"/>
<circle cx="99.3912" cy="523.939" r="23.8797" transform="rotate(88.0338 99.3912 523.939)" fill="black"/>
<circle cx="99.3912" cy="523.939" r="22.8797" transform="rotate(88.0338 99.3912 523.939)" stroke="white" stroke-opacity="0.2" stroke-width="2"/>
<circle cx="150.483" cy="428.262" r="23.8797" transform="rotate(88.0338 150.483 428.262)" fill="black"/>
<circle cx="150.483" cy="428.262" r="22.8797" transform="rotate(88.0338 150.483 428.262)" stroke="white" stroke-opacity="0.2" stroke-width="2"/>
<circle cx="213.84" cy="329.682" r="23.8797" transform="rotate(88.0338 213.84 329.682)" fill="black"/>
<circle cx="213.84" cy="329.682" r="22.8797" transform="rotate(88.0338 213.84 329.682)" stroke="white" stroke-opacity="0.2" stroke-width="2"/>
<circle cx="292.344" cy="240.473" r="23.8797" transform="rotate(88.0338 292.344 240.473)" fill="black"/>
<circle cx="292.344" cy="240.473" r="22.8797" transform="rotate(88.0338 292.344 240.473)" stroke="white" stroke-opacity="0.2" stroke-width="2"/>
<circle cx="387.274" cy="173.773" r="23.8797" transform="rotate(88.0338 387.274 173.773)" fill="black"/>
<circle cx="387.274" cy="173.773" r="22.8797" transform="rotate(88.0338 387.274 173.773)" stroke="white" stroke-opacity="0.2" stroke-width="2"/>
<circle cx="482.467" cy="114.486" r="23.8797" transform="rotate(88.0338 482.467 114.486)" fill="black"/>
<circle cx="482.467" cy="114.486" r="22.8797" transform="rotate(88.0338 482.467 114.486)" stroke="white" stroke-opacity="0.2" stroke-width="2"/>
<circle cx="597.202" cy="72.6381" r="23.8797" transform="rotate(88.0338 597.202 72.6381)" fill="black"/>
<circle cx="597.202" cy="72.6381" r="22.8797" transform="rotate(88.0338 597.202 72.6381)" stroke="white" stroke-opacity="0.2" stroke-width="2"/>
<circle cx="715.141" cy="52.1185" r="23.8797" transform="rotate(88.0338 715.141 52.1185)" fill="black"/>
<circle cx="715.141" cy="52.1185" r="22.8797" transform="rotate(88.0338 715.141 52.1185)" stroke="white" stroke-opacity="0.2" stroke-width="2"/>
<circle cx="833.874" cy="54.6312" r="23.8797" transform="rotate(88.0338 833.874 54.6312)" fill="black"/>
<circle cx="833.874" cy="54.6312" r="22.8797" transform="rotate(88.0338 833.874 54.6312)" stroke="white" stroke-opacity="0.2" stroke-width="2"/>
<circle cx="946.958" cy="60.6352" r="23.8797" transform="rotate(88.0338 946.958 60.6352)" fill="black"/>
<circle cx="946.958" cy="60.6352" r="22.8797" transform="rotate(88.0338 946.958 60.6352)" stroke="white" stroke-opacity="0.2" stroke-width="2"/>
<circle cx="1060.09" cy="92.182" r="23.8797" transform="rotate(88.0338 1060.09 92.182)" fill="black"/>
<circle cx="1060.09" cy="92.182" r="22.8797" transform="rotate(88.0338 1060.09 92.182)" stroke="white" stroke-opacity="0.2" stroke-width="2"/>
<circle cx="1162.5" cy="147.162" r="23.8797" transform="rotate(88.0338 1162.5 147.162)" fill="black"/>
<circle cx="1162.5" cy="147.162" r="22.8797" transform="rotate(88.0338 1162.5 147.162)" stroke="white" stroke-opacity="0.2" stroke-width="2"/>
<circle cx="1257.78" cy="210.627" r="23.8797" transform="rotate(88.0338 1257.78 210.627)" fill="black"/>
<circle cx="1257.78" cy="210.627" r="22.8797" transform="rotate(88.0338 1257.78 210.627)" stroke="white" stroke-opacity="0.2" stroke-width="2"/>
</svg>
