<svg width="1438" height="1438" viewBox="0 0 1438 1438" fill="none" xmlns="http://www.w3.org/2000/svg">
<path d="M733.591 328.445L729.513 377.57M751.634 315.255L744.32 376.316L770.72 379.233L783.33 318.402L812.293 323.889L795.844 382.741L822.46 390.628L845.052 330.361L874.616 340.877L849.727 399.406L874.5 408.981L902.587 355.293L930.893 373.907L900.064 426.182L917.255 437.541L957.467 389.686L981.96 408.695L944.318 453.987L962.255 471.978L1005.34 428.518L1027.15 454.614L979.517 495.59L992.707 513.633L1046.58 476.983L1067.1 505.05L1012.41 540.586L1025.35 561.551L1080.09 530.762L1093.35 561.058L1040.07 584.966L1046.01 608.992L1106.96 594.173L1115.71 622.98L1054.12 636.907L1058.94 657.993L1120.14 658.024L1124.67 684.792L1061.75 689.431L1062.47 716.593L1122.77 718.656L1124.56 747.763L1063.84 744.647L1060 769.325L1119.84 781.978L1113.83 813.032L1053.73 799.548L1044.27 823.551L1102.65 846.838L1093.89 872.725L1037.26 850.894L1022.83 875.112L1080.17 902.581L1065.12 928.281L1009.32 897.299L992.562 922.537L1044.75 960.263L1032.46 977.111L980.801 941.047L964.25 958.616L1006.46 1004.66L982.59 1024.85L942.918 978.996L923.538 993.164L959.802 1046.98L938.195 1062.77L899.926 1010.43L875.148 1023.75L903.101 1080.23L878.417 1090.41L851.826 1035.34L826.627 1042.48L840.804 1106.29L817.669 1111.58L801.232 1052.16L773.53 1056.34L781.417 1119.96L753.929 1120.23L747.328 1059.78L721.322 1060.67L722.98 1123.72L689.664 1122.1L693.269 1062.04L667.656 1057.86L654.764 1119.24L628.44 1114.56L637.716 1051.04L615.136 1042.59L592.826 1102.31L567.358 1090.85L587.33 1037.29L563.627 1025.9L534.101 1079.96L506.825 1067.43L540.729 1011.88L520.042 997.61L482.495 1048.64L458.182 1028.48L496.732 981.154L476.823 961.87L432.463 1005.92L408.603 980.297L459.528 941.017L442.455 920.002L389.55 954.235L372.614 931.068L426.171 897.726L412.14 876.196L359.183 905.682L345.004 873.664L402.444 852.18L390.186 825.594L333.867 841.131L324.325 813.585L383.24 797.858L378.454 774.013L318.886 779.962L315.574 752.989L375.484 746.105L373.877 719.594L315.344 717.609L314.944 687.139L373.975 693.546L374.801 666.623L316.223 654.758L324.906 621.75L383.543 633.229L389.717 611.284L334.762 587.542L345.417 564.713L400.106 587.624L410.958 562.259L357.964 536.057L369.656 514.179L421.253 541.743L436.878 518.699L386.719 481.881L409.618 455.228L455.271 499.442L475.969 476.791L431.652 431.6L454.098 410.406L493.548 456.42L516.492 439.647L479.363 388.859L504.534 370.458L538.321 423.688L559.492 411.971L531.393 353.898L565.991 340.91L581.322 396.012L609.194 386.915L594.994 329.62L624.803 324.576L634.24 383.303L663.56 377.591L655.271 315.29L688.012 314.256L689.779 372.779L718.93 371.977L720.889 311.07L751.634 315.255Z" stroke="white" stroke-opacity="0.2" stroke-width="2"/>
<path d="M797.651 334.253L783.591 382.814M855.304 349.529L835.536 395.426M908.47 379.706L884.734 420.643M958.533 410.783L926.956 447.54M1007 450.892L970.56 483.34M1045.01 497.276L997.877 528.655M1037.46 464.511L996.029 494.8M993.237 416.175L964.925 452.254M944.432 377L917.268 418.392M884.205 346.515L868.344 388.873M828.266 326.57L814.488 374.582M769.542 313.102L759.561 362.1M702.33 312.335L705.835 359.676M670.792 332.315L677.991 380.032M638.151 316.186L645.11 365.446M624.901 388.765L610.985 339.807M578.149 335.1L594.326 379.671M551.574 359.997L572.687 407.112M516.871 363.491L545.207 402.25M498.18 393.562L527.33 433.435M466.752 400.131L498.883 439.875M449.174 429.388L483.893 465.19M419.101 442.487L457.924 481.098M405.406 474.716L444.888 509.086M418.328 523.717L377.562 495.072M377.389 531.771L420.39 553.656M346.793 546.961L394.841 566.865M357.554 583.187L396.81 599.948M327.705 605.008L376.06 617.852M340.453 641.148L382.004 650.763M363.586 676.532L312.028 672.866M334.338 703.383L377.233 706.888M310.66 735.049L357.625 735.237M330.528 762.225L381.785 758.933M318.993 798.344L366.444 790.315M343.135 823.42L388.786 809.187M331.643 860.533L384.113 839.264M362.863 884.536L408.941 862.472M362.424 920.404L407.662 894.853M397.224 931.537L436.541 907.237M398.413 969.633L436.282 941.949M466.993 948.892L431.028 983.388M473.94 985.513L442.157 1021.05M508.309 986.707L478.481 1024.92M518.127 1018.84L491.349 1060.29M552.383 1015.67L528.973 1057.05M567.762 1048.86L549.827 1089.32M601.212 1039.45L586.987 1078.9M623.769 1063.29L609.623 1109.86M650.604 1053.24L646.568 1094.47M677.326 1079.51L669.366 1125.66M708.016 1061.17L706.534 1110.11M735.352 1073.32L737.573 1126.38M759.409 1055.73L767.783 1111.13M791.004 1067.16L798.949 1121.5M813.433 1047.34L826.741 1096.4M847.528 1052.83L858.951 1102.59M864.267 1028.98L885.766 1076.15M894.891 1025.05L921.532 1075.98M912.135 1000.48L940.831 1045.81M943.333 999.203L972.319 1038.85M953.344 970.35L990.376 1006.51M986.674 961.707L1020.94 994.081M988.099 930.928L1027.75 960.388M1021.32 917.923L1059.32 946.535M1015.52 886.615L1056.61 906.82M1044.48 865.445L1092.35 890.259M1038.48 836.672L1083.66 852.181M1060.52 813.044L1114.66 826.787M1052.59 783.972L1102.69 794.519M1075.82 757.765L1126.67 764.679M1059.87 730.803L1109.45 733.175M1055.08 675.167L1108.65 672.235M1080.1 700.971L1129.17 700.302M1070.15 648.088L1121.88 637.958M1044.82 625.591L1098.42 611.014M1027.05 576.034L1076.02 551.852M1051.82 594.494L1103.31 577.022M1029.14 544.766L1078.36 513.91" stroke="white" stroke-opacity="0.2" stroke-width="2"/>
<path d="M802.976 531.495L789.042 503.661L774.279 543.552L802.976 531.495Z" fill="#493FD6"/>
<path d="M789.18 506.17L776.017 541.737L801.604 530.988L789.18 506.17Z" stroke="white" stroke-opacity="0.2" stroke-width="2"/>
<path d="M805.194 539.83L776.584 546.89L816.992 566.833L805.194 539.83Z" fill="#493FD6"/>
<path d="M779.483 547.205L814.98 564.724L804.616 541.003L779.483 547.205Z" stroke="white" stroke-opacity="0.2" stroke-width="2"/>
<rect x="765.785" y="494.265" width="16.5559" height="47.9521" transform="rotate(15.1877 765.785 494.265)" fill="#493FD6"/>
<rect x="766.488" y="495.492" width="14.5559" height="45.9521" transform="rotate(15.1877 766.488 495.492)" stroke="white" stroke-opacity="0.2" stroke-width="2"/>
<path d="M895.832 617.837L900.86 587.118L865.515 610.782L895.832 617.837Z" fill="#493FD6"/>
<path d="M899.501 589.231L867.987 610.33L895.018 616.621L899.501 589.231Z" stroke="white" stroke-opacity="0.2" stroke-width="2"/>
<path d="M817.12 540.973L824.155 571.295L847.842 535.965L817.12 540.973Z" fill="#493FD6"/>
<path d="M824.608 568.823L845.727 537.323L818.335 541.788L824.608 568.823Z" stroke="white" stroke-opacity="0.2" stroke-width="2"/>
<path d="M905.991 633.477L893.452 661.968L933.586 647.878L905.991 633.477Z" fill="#493FD6"/>
<path d="M895.296 660.26L931.08 647.698L906.475 634.858L895.296 660.26Z" stroke="white" stroke-opacity="0.2" stroke-width="2"/>
<path d="M812.705 531.363L841.314 524.303L800.906 504.36L812.705 531.363Z" fill="#493FD6"/>
<path d="M838.416 523.989L802.919 506.469L813.283 530.19L838.416 523.989Z" stroke="white" stroke-opacity="0.2" stroke-width="2"/>
<path d="M904.604 621.751L932.475 631.319L909.319 592.663L904.604 621.751Z" fill="#493FD6"/>
<path d="M930.209 629.484L909.867 595.526L905.725 621.078L930.209 629.484Z" stroke="white" stroke-opacity="0.2" stroke-width="2"/>
<path d="M894.764 626.35L866.892 616.781L890.049 655.438L894.764 626.35Z" fill="#493FD6"/>
<path d="M869.158 618.616L889.5 652.575L893.642 627.022L869.158 618.616Z" stroke="white" stroke-opacity="0.2" stroke-width="2"/>
<rect x="724.039" y="489.24" width="16.5559" height="47.9521" transform="rotate(2.48851 724.039 489.24)" fill="#493FD6"/>
<rect x="724.995" y="490.283" width="14.5559" height="45.9521" transform="rotate(2.48851 724.995 490.283)" stroke="white" stroke-opacity="0.2" stroke-width="2"/>
<rect x="857.396" y="537.359" width="16.5559" height="47.9521" transform="rotate(38.7411 857.396 537.359)" fill="#493FD6"/>
<rect x="857.551" y="538.765" width="14.5559" height="45.9521" transform="rotate(38.7411 857.551 538.765)" stroke="white" stroke-opacity="0.2" stroke-width="2"/>
<rect x="887.367" y="566.714" width="16.5559" height="47.9521" transform="rotate(51.2418 887.367 566.714)" fill="#493FD6"/>
<rect x="887.213" y="568.12" width="14.5559" height="45.9521" transform="rotate(51.2418 887.213 568.12)" stroke="white" stroke-opacity="0.2" stroke-width="2"/>
<rect x="936.135" y="654.594" width="16.5559" height="47.9521" transform="rotate(74.5247 936.135 654.594)" fill="#493FD6"/>
<rect x="935.438" y="655.824" width="14.5559" height="45.9521" transform="rotate(74.5247 935.438 655.824)" stroke="white" stroke-opacity="0.2" stroke-width="2"/>
<rect x="945.146" y="694.973" width="16.5559" height="47.9521" transform="rotate(86.8945 945.146 694.973)" fill="#493FD6"/>
<rect x="944.202" y="696.025" width="14.5559" height="45.9521" transform="rotate(86.8945 944.202 696.025)" stroke="white" stroke-opacity="0.2" stroke-width="2"/>
<rect x="934.156" y="795.892" width="16.5559" height="47.9521" transform="rotate(111.323 934.156 795.892)" fill="#493FD6"/>
<rect x="932.861" y="796.46" width="14.5559" height="45.9521" transform="rotate(111.323 932.861 796.46)" stroke="white" stroke-opacity="0.2" stroke-width="2"/>
<rect x="917.225" y="831.64" width="16.5559" height="47.9521" transform="rotate(121.663 917.225 831.64)" fill="#493FD6"/>
<rect x="915.849" y="831.966" width="14.5559" height="45.9521" transform="rotate(121.663 915.849 831.966)" stroke="white" stroke-opacity="0.2" stroke-width="2"/>
<rect x="848.166" y="906.57" width="16.5559" height="47.9521" transform="rotate(146.57 848.166 906.57)" fill="#493FD6"/>
<rect x="846.781" y="906.287" width="14.5559" height="45.9521" transform="rotate(146.57 846.781 906.287)" stroke="white" stroke-opacity="0.2" stroke-width="2"/>
<rect x="813.268" y="926.237" width="16.5559" height="47.9521" transform="rotate(158.656 813.268 926.237)" fill="#493FD6"/>
<rect x="811.972" y="925.67" width="14.5559" height="45.9521" transform="rotate(158.656 811.972 925.67)" stroke="white" stroke-opacity="0.2" stroke-width="2"/>
<rect x="711.498" y="947.552" width="16.5559" height="47.9521" transform="rotate(-176.238 711.498 947.552)" fill="#493FD6"/>
<rect x="710.566" y="946.488" width="14.5559" height="45.9521" transform="rotate(-176.238 710.566 946.488)" stroke="white" stroke-opacity="0.2" stroke-width="2"/>
<rect x="673.023" y="942.146" width="16.5559" height="47.9521" transform="rotate(-166.334 673.023 942.146)" fill="#493FD6"/>
<rect x="672.288" y="940.939" width="14.5559" height="45.9521" transform="rotate(-166.334 672.288 940.939)" stroke="white" stroke-opacity="0.2" stroke-width="2"/>
<rect x="576.225" y="896.781" width="16.5559" height="47.9521" transform="rotate(-136.494 576.225 896.781)" fill="#493FD6"/>
<rect x="576.188" y="895.368" width="14.5559" height="45.9521" transform="rotate(-136.494 576.188 895.368)" stroke="white" stroke-opacity="0.2" stroke-width="2"/>
<rect x="548.049" y="868.882" width="16.5559" height="47.9521" transform="rotate(-127.585 548.049 868.882)" fill="#493FD6"/>
<rect x="548.231" y="867.479" width="14.5559" height="45.9521" transform="rotate(-127.585 548.231 867.479)" stroke="white" stroke-opacity="0.2" stroke-width="2"/>
<rect x="499.586" y="783.884" width="16.5559" height="47.9521" transform="rotate(-105.016 499.586 783.884)" fill="#493FD6"/>
<rect x="500.293" y="782.659" width="14.5559" height="45.9521" transform="rotate(-105.016 500.293 782.659)" stroke="white" stroke-opacity="0.2" stroke-width="2"/>
<rect x="489.719" y="744.99" width="16.5559" height="47.9521" transform="rotate(-94.4943 489.719 744.99)" fill="#493FD6"/>
<rect x="490.637" y="743.915" width="14.5559" height="45.9521" transform="rotate(-94.4943 490.637 743.915)" stroke="white" stroke-opacity="0.2" stroke-width="2"/>
<rect x="502.336" y="640.022" width="16.5559" height="47.9521" transform="rotate(-70.7863 502.336 640.022)" fill="#493FD6"/>
<rect x="503.609" y="639.407" width="14.5559" height="45.9521" transform="rotate(-70.7863 503.609 639.407)" stroke="white" stroke-opacity="0.2" stroke-width="2"/>
<rect x="519.104" y="607.437" width="16.5559" height="47.9521" transform="rotate(-59.2086 519.104 607.437)" fill="#493FD6"/>
<rect x="520.474" y="607.089" width="14.5559" height="45.9521" transform="rotate(-59.2086 520.474 607.089)" stroke="white" stroke-opacity="0.2" stroke-width="2"/>
<rect x="591.287" y="528.863" width="16.5559" height="47.9521" transform="rotate(-35.149 591.287 528.863)" fill="#493FD6"/>
<rect x="592.68" y="529.105" width="14.5559" height="45.9521" transform="rotate(-35.149 592.68 529.105)" stroke="white" stroke-opacity="0.2" stroke-width="2"/>
<rect x="627.434" y="507.909" width="16.5559" height="47.9521" transform="rotate(-19.2988 627.434 507.909)" fill="#493FD6"/>
<rect x="628.708" y="508.522" width="14.5559" height="45.9521" transform="rotate(-19.2988 628.708 508.522)" stroke="white" stroke-opacity="0.2" stroke-width="2"/>
<circle cx="750.913" cy="500.353" r="5.51863" transform="rotate(53.831 750.913 500.353)" fill="#493FD6"/>
<circle cx="750.913" cy="500.353" r="4.51863" transform="rotate(53.831 750.913 500.353)" stroke="white" stroke-opacity="0.2" stroke-width="2"/>
<circle cx="872.133" cy="562.314" r="5.51863" transform="rotate(90.9671 872.133 562.314)" fill="#493FD6"/>
<circle cx="872.133" cy="562.314" r="4.51863" transform="rotate(90.9671 872.133 562.314)" stroke="white" stroke-opacity="0.2" stroke-width="2"/>
<circle cx="749.853" cy="514.8" r="5.51863" transform="rotate(53.831 749.853 514.8)" fill="#493FD6"/>
<circle cx="749.853" cy="514.8" r="4.51863" transform="rotate(53.831 749.853 514.8)" stroke="white" stroke-opacity="0.2" stroke-width="2"/>
<circle cx="862.571" cy="573.191" r="5.51863" transform="rotate(90.9671 862.571 573.191)" fill="#493FD6"/>
<circle cx="862.571" cy="573.191" r="4.51863" transform="rotate(90.9671 862.571 573.191)" stroke="white" stroke-opacity="0.2" stroke-width="2"/>
<circle cx="747.458" cy="530.225" r="5.51863" transform="rotate(53.831 747.458 530.225)" fill="#493FD6"/>
<circle cx="747.458" cy="530.225" r="4.51863" transform="rotate(53.831 747.458 530.225)" stroke="white" stroke-opacity="0.2" stroke-width="2"/>
<circle cx="851.348" cy="584.043" r="5.51863" transform="rotate(90.9671 851.348 584.043)" fill="#493FD6"/>
<circle cx="851.348" cy="584.043" r="4.51863" transform="rotate(90.9671 851.348 584.043)" stroke="white" stroke-opacity="0.2" stroke-width="2"/>
<circle cx="899.661" cy="620.69" r="3.58533" transform="rotate(90.9671 899.661 620.69)" fill="#493FD6"/>
<circle cx="899.661" cy="620.69" r="2.58533" transform="rotate(90.9671 899.661 620.69)" stroke="white" stroke-opacity="0.2" stroke-width="2"/>
<circle cx="903.861" cy="629.242" r="3.58533" transform="rotate(90.9671 903.861 629.242)" fill="#493FD6"/>
<circle cx="903.861" cy="629.242" r="2.58533" transform="rotate(90.9671 903.861 629.242)" stroke="white" stroke-opacity="0.2" stroke-width="2"/>
<circle cx="935.884" cy="682.396" r="3.58533" transform="rotate(90.9671 935.884 682.396)" fill="#493FD6"/>
<circle cx="935.884" cy="682.396" r="2.58533" transform="rotate(90.9671 935.884 682.396)" stroke="white" stroke-opacity="0.2" stroke-width="2"/>
<circle cx="911.689" cy="817.275" r="3.58533" transform="rotate(131.486 911.689 817.275)" fill="#493FD6"/>
<circle cx="911.689" cy="817.275" r="2.58533" transform="rotate(131.486 911.689 817.275)" stroke="white" stroke-opacity="0.2" stroke-width="2"/>
<circle cx="819.545" cy="913.911" r="3.58533" transform="rotate(162.735 819.545 913.911)" fill="#493FD6"/>
<circle cx="819.545" cy="913.911" r="2.58533" transform="rotate(162.735 819.545 913.911)" stroke="white" stroke-opacity="0.2" stroke-width="2"/>
<circle cx="683.326" cy="934.388" r="3.58533" transform="rotate(-153.136 683.326 934.388)" fill="#493FD6"/>
<circle cx="683.326" cy="934.388" r="2.58533" transform="rotate(-153.136 683.326 934.388)" stroke="white" stroke-opacity="0.2" stroke-width="2"/>
<circle cx="563.949" cy="871.58" r="3.58533" transform="rotate(-119.312 563.949 871.58)" fill="#493FD6"/>
<circle cx="563.949" cy="871.58" r="2.58533" transform="rotate(-119.312 563.949 871.58)" stroke="white" stroke-opacity="0.2" stroke-width="2"/>
<circle cx="501.37" cy="755.354" r="3.58533" transform="rotate(-86.5924 501.37 755.354)" fill="#493FD6"/>
<circle cx="501.37" cy="755.354" r="2.58533" transform="rotate(-86.5924 501.37 755.354)" stroke="white" stroke-opacity="0.2" stroke-width="2"/>
<circle cx="523.865" cy="620.649" r="3.58533" transform="rotate(-49.5153 523.865 620.649)" fill="#493FD6"/>
<circle cx="523.865" cy="620.649" r="2.58533" transform="rotate(-49.5153 523.865 620.649)" stroke="white" stroke-opacity="0.2" stroke-width="2"/>
<circle cx="619.811" cy="521.991" r="3.58533" transform="rotate(-14.2989 619.811 521.991)" fill="#493FD6"/>
<circle cx="619.811" cy="521.991" r="2.58533" transform="rotate(-14.2989 619.811 521.991)" stroke="white" stroke-opacity="0.2" stroke-width="2"/>
<circle cx="921.489" cy="686.083" r="3.58533" transform="rotate(90.9671 921.489 686.083)" fill="#493FD6"/>
<circle cx="921.489" cy="686.083" r="2.58533" transform="rotate(90.9671 921.489 686.083)" stroke="white" stroke-opacity="0.2" stroke-width="2"/>
<circle cx="898.351" cy="810.727" r="3.58533" transform="rotate(131.486 898.351 810.727)" fill="#493FD6"/>
<circle cx="898.351" cy="810.727" r="2.58533" transform="rotate(131.486 898.351 810.727)" stroke="white" stroke-opacity="0.2" stroke-width="2"/>
<circle cx="811.541" cy="901.394" r="3.58533" transform="rotate(162.735 811.541 901.394)" fill="#493FD6"/>
<circle cx="811.541" cy="901.394" r="2.58533" transform="rotate(162.735 811.541 901.394)" stroke="white" stroke-opacity="0.2" stroke-width="2"/>
<circle cx="686.297" cy="919.83" r="3.58533" transform="rotate(-153.136 686.297 919.83)" fill="#493FD6"/>
<circle cx="686.297" cy="919.83" r="2.58533" transform="rotate(-153.136 686.297 919.83)" stroke="white" stroke-opacity="0.2" stroke-width="2"/>
<circle cx="574.525" cy="861.141" r="3.58533" transform="rotate(-119.312 574.525 861.141)" fill="#493FD6"/>
<circle cx="574.525" cy="861.141" r="2.58533" transform="rotate(-119.312 574.525 861.141)" stroke="white" stroke-opacity="0.2" stroke-width="2"/>
<circle cx="515.909" cy="752.282" r="3.58533" transform="rotate(-86.5924 515.909 752.282)" fill="#493FD6"/>
<circle cx="515.909" cy="752.282" r="2.58533" transform="rotate(-86.5924 515.909 752.282)" stroke="white" stroke-opacity="0.2" stroke-width="2"/>
<circle cx="537.312" cy="626.962" r="3.58533" transform="rotate(-49.5153 537.312 626.962)" fill="#493FD6"/>
<circle cx="537.312" cy="626.962" r="2.58533" transform="rotate(-49.5153 537.312 626.962)" stroke="white" stroke-opacity="0.2" stroke-width="2"/>
<circle cx="627.155" cy="534.902" r="3.58533" transform="rotate(-14.2989 627.155 534.902)" fill="#493FD6"/>
<circle cx="627.155" cy="534.902" r="2.58533" transform="rotate(-14.2989 627.155 534.902)" stroke="white" stroke-opacity="0.2" stroke-width="2"/>
<circle cx="907.21" cy="688.995" r="3.58533" transform="rotate(90.9671 907.21 688.995)" fill="#493FD6"/>
<circle cx="907.21" cy="688.995" r="2.58533" transform="rotate(90.9671 907.21 688.995)" stroke="white" stroke-opacity="0.2" stroke-width="2"/>
<circle cx="885.603" cy="803.666" r="3.58533" transform="rotate(131.486 885.603 803.666)" fill="#493FD6"/>
<circle cx="885.603" cy="803.666" r="2.58533" transform="rotate(131.486 885.603 803.666)" stroke="white" stroke-opacity="0.2" stroke-width="2"/>
<circle cx="804.307" cy="888.75" r="3.58533" transform="rotate(162.735 804.307 888.75)" fill="#493FD6"/>
<circle cx="804.307" cy="888.75" r="2.58533" transform="rotate(162.735 804.307 888.75)" stroke="white" stroke-opacity="0.2" stroke-width="2"/>
<circle cx="689.91" cy="905.716" r="3.58533" transform="rotate(-153.136 689.91 905.716)" fill="#493FD6"/>
<circle cx="689.91" cy="905.716" r="2.58533" transform="rotate(-153.136 689.91 905.716)" stroke="white" stroke-opacity="0.2" stroke-width="2"/>
<circle cx="585.381" cy="851.424" r="3.58533" transform="rotate(-119.312 585.381 851.424)" fill="#493FD6"/>
<circle cx="585.381" cy="851.424" r="2.58533" transform="rotate(-119.312 585.381 851.424)" stroke="white" stroke-opacity="0.2" stroke-width="2"/>
<circle cx="530.294" cy="749.979" r="3.58533" transform="rotate(-86.5924 530.294 749.979)" fill="#493FD6"/>
<circle cx="530.294" cy="749.979" r="2.58533" transform="rotate(-86.5924 530.294 749.979)" stroke="white" stroke-opacity="0.2" stroke-width="2"/>
<circle cx="550.182" cy="633.8" r="3.58533" transform="rotate(-49.5153 550.182 633.8)" fill="#493FD6"/>
<circle cx="550.182" cy="633.8" r="2.58533" transform="rotate(-49.5153 550.182 633.8)" stroke="white" stroke-opacity="0.2" stroke-width="2"/>
<circle cx="633.729" cy="547.909" r="3.58533" transform="rotate(-14.2989 633.729 547.909)" fill="#493FD6"/>
<circle cx="633.729" cy="547.909" r="2.58533" transform="rotate(-14.2989 633.729 547.909)" stroke="white" stroke-opacity="0.2" stroke-width="2"/>
<path d="M921.731 740.974L944.573 719.827L902.146 716.78L921.731 740.974Z" fill="#493FD6"/>
<path d="M942.202 720.66L904.374 717.943L921.836 739.515L942.202 720.66Z" stroke="white" stroke-opacity="0.2" stroke-width="2"/>
<path d="M920.127 759.553L892.729 774.327L933.05 787.871L920.127 759.553Z" fill="#493FD6"/>
<path d="M895.232 774.113L931.183 786.189L919.661 760.94L895.232 774.113Z" stroke="white" stroke-opacity="0.2" stroke-width="2"/>
<path d="M926.241 749.457L942.351 774.131L947.834 729.404L926.241 749.457Z" fill="#493FD6"/>
<path d="M941.691 771.291L946.508 732L927.539 749.615L941.691 771.291Z" stroke="white" stroke-opacity="0.2" stroke-width="2"/>
<path d="M915.658 747.036L899.547 722.362L894.065 767.089L915.658 747.036Z" fill="#493FD6"/>
<path d="M900.207 725.202L895.391 764.493L914.36 746.878L900.207 725.202Z" stroke="white" stroke-opacity="0.2" stroke-width="2"/>
<circle cx="920.538" cy="745.564" r="3.58533" transform="rotate(90.9671 920.538 745.564)" fill="#493FD6"/>
<circle cx="920.538" cy="745.564" r="2.58533" transform="rotate(90.9671 920.538 745.564)" stroke="white" stroke-opacity="0.2" stroke-width="2"/>
<circle cx="919.339" cy="753.275" r="3.58533" transform="rotate(90.9671 919.339 753.275)" fill="#493FD6"/>
<circle cx="919.339" cy="753.275" r="2.58533" transform="rotate(90.9671 919.339 753.275)" stroke="white" stroke-opacity="0.2" stroke-width="2"/>
<path d="M870.584 855.051L901.609 852.519L870.116 823.927L870.584 855.051Z" fill="#493FD6"/>
<path d="M899.23 851.71L871.151 826.217L871.568 853.967L899.23 851.71Z" stroke="white" stroke-opacity="0.2" stroke-width="2"/>
<path d="M857.857 868.681L827.183 863.387L850.539 898.937L857.857 868.681Z" fill="#493FD6"/>
<path d="M829.285 864.764L850.109 896.46L856.635 869.485L829.285 864.764Z" stroke="white" stroke-opacity="0.2" stroke-width="2"/>
<path d="M868.898 864.507L866.337 893.864L898.265 862.065L868.898 864.507Z" fill="#493FD6"/>
<path d="M867.571 891.222L895.619 863.289L869.822 865.433L867.571 891.222Z" stroke="white" stroke-opacity="0.2" stroke-width="2"/>
<path d="M862.07 856.069L864.632 826.713L832.704 858.511L862.07 856.069Z" fill="#493FD6"/>
<path d="M863.398 829.354L835.35 857.288L861.147 855.143L863.398 829.354Z" stroke="white" stroke-opacity="0.2" stroke-width="2"/>
<circle cx="866.816" cy="857.927" r="3.58533" transform="rotate(129.095 866.816 857.927)" fill="#493FD6"/>
<circle cx="866.816" cy="857.927" r="2.58533" transform="rotate(129.095 866.816 857.927)" stroke="white" stroke-opacity="0.2" stroke-width="2"/>
<circle cx="861.109" cy="863.249" r="3.58533" transform="rotate(129.095 861.109 863.249)" fill="#493FD6"/>
<circle cx="861.109" cy="863.249" r="2.58533" transform="rotate(129.095 861.109 863.249)" stroke="white" stroke-opacity="0.2" stroke-width="2"/>
<path d="M759.855 919.068L787.036 934.237L776.794 892.953L759.855 919.068Z" fill="#493FD6"/>
<path d="M785.51 932.241L776.378 895.432L761.274 918.715L785.51 932.241Z" stroke="white" stroke-opacity="0.2" stroke-width="2"/>
<path d="M741.696 923.304L719.164 901.829L718.773 944.363L741.696 923.304Z" fill="#493FD6"/>
<path d="M720.143 904.143L719.794 942.066L740.233 923.291L720.143 904.143Z" stroke="white" stroke-opacity="0.2" stroke-width="2"/>
<path d="M753.187 925.984L734.715 948.943L778.941 940.305L753.187 925.984Z" fill="#493FD6"/>
<path d="M737.211 947.436L776.062 939.848L753.438 927.267L737.211 947.436Z" stroke="white" stroke-opacity="0.2" stroke-width="2"/>
<path d="M752.213 915.173L770.685 892.213L726.46 900.852L752.213 915.173Z" fill="#493FD6"/>
<path d="M768.189 893.72L729.339 901.309L751.962 913.889L768.189 893.72Z" stroke="white" stroke-opacity="0.2" stroke-width="2"/>
<circle cx="755.124" cy="919.355" r="3.58533" transform="rotate(162.926 755.124 919.355)" fill="#493FD6"/>
<circle cx="755.124" cy="919.355" r="2.58533" transform="rotate(162.926 755.124 919.355)" stroke="white" stroke-opacity="0.2" stroke-width="2"/>
<circle cx="747.418" cy="920.605" r="3.58533" transform="rotate(162.926 747.418 920.605)" fill="#493FD6"/>
<circle cx="747.418" cy="920.605" r="2.58533" transform="rotate(162.926 747.418 920.605)" stroke="white" stroke-opacity="0.2" stroke-width="2"/>
<path d="M635.099 903.695L649.025 931.533L663.8 891.646L635.099 903.695Z" fill="#493FD6"/>
<path d="M648.888 929.024L662.061 893.461L636.471 904.203L648.888 929.024Z" stroke="white" stroke-opacity="0.2" stroke-width="2"/>
<path d="M617.709 896.97L611.174 866.536L586.909 901.471L617.709 896.97Z" fill="#493FD6"/>
<path d="M610.681 869L589.046 900.148L616.507 896.136L610.681 869Z" stroke="white" stroke-opacity="0.2" stroke-width="2"/>
<path d="M625.698 905.659L597.506 914.238L638.922 931.993L625.698 905.659Z" fill="#493FD6"/>
<path d="M600.417 914.397L636.8 929.995L625.183 906.861L600.417 914.397Z" stroke="white" stroke-opacity="0.2" stroke-width="2"/>
<path d="M630.98 896.174L659.172 887.595L617.755 869.84L630.98 896.174Z" fill="#493FD6"/>
<path d="M656.26 887.436L619.878 871.838L631.495 894.972L656.26 887.436Z" stroke="white" stroke-opacity="0.2" stroke-width="2"/>
<circle cx="631.03" cy="901.271" r="3.58533" transform="rotate(-162.816 631.03 901.271)" fill="#493FD6"/>
<circle cx="631.03" cy="901.271" r="2.58533" transform="rotate(-162.816 631.03 901.271)" stroke="white" stroke-opacity="0.2" stroke-width="2"/>
<circle cx="623.96" cy="897.965" r="3.58533" transform="rotate(-162.816 623.96 897.965)" fill="#493FD6"/>
<circle cx="623.96" cy="897.965" r="2.58533" transform="rotate(-162.816 623.96 897.965)" stroke="white" stroke-opacity="0.2" stroke-width="2"/>
<path d="M541.941 818.525L536.432 849.161L572.144 826.053L541.941 818.525Z" fill="#493FD6"/>
<path d="M537.824 847.069L569.665 826.466L542.736 819.753L537.824 847.069Z" stroke="white" stroke-opacity="0.2" stroke-width="2"/>
<path d="M532.036 802.731L545.019 774.441L504.669 787.9L532.036 802.731Z" fill="#493FD6"/>
<path d="M543.149 776.119L507.173 788.119L531.573 801.344L543.149 776.119Z" stroke="white" stroke-opacity="0.2" stroke-width="2"/>
<path d="M533.234 814.474L505.516 804.47L528.064 843.485L533.234 814.474Z" fill="#493FD6"/>
<path d="M507.752 806.341L527.56 840.614L532.102 815.129L507.752 806.341Z" stroke="white" stroke-opacity="0.2" stroke-width="2"/>
<path d="M543.143 810.036L570.861 820.039L548.313 781.025L543.143 810.036Z" fill="#493FD6"/>
<path d="M568.625 818.169L548.817 783.896L544.275 809.381L568.625 818.169Z" stroke="white" stroke-opacity="0.2" stroke-width="2"/>
<circle cx="540.133" cy="814.149" r="3.58533" transform="rotate(-126.047 540.133 814.149)" fill="#493FD6"/>
<circle cx="540.133" cy="814.149" r="2.58533" transform="rotate(-126.047 540.133 814.149)" stroke="white" stroke-opacity="0.2" stroke-width="2"/>
<circle cx="536.447" cy="807.27" r="3.58533" transform="rotate(-126.047 536.447 807.27)" fill="#493FD6"/>
<circle cx="536.447" cy="807.27" r="2.58533" transform="rotate(-126.047 536.447 807.27)" stroke="white" stroke-opacity="0.2" stroke-width="2"/>
<path d="M517.447 695.196L495.275 717.044L537.775 718.769L517.447 695.196Z" fill="#493FD6"/>
<path d="M497.618 716.138L535.512 717.676L517.388 696.658L497.618 716.138Z" stroke="white" stroke-opacity="0.2" stroke-width="2"/>
<path d="M518.467 676.578L545.392 660.958L504.668 648.676L518.467 676.578Z" fill="#493FD6"/>
<path d="M542.896 661.25L506.587 650.299L518.889 675.177L542.896 661.25Z" stroke="white" stroke-opacity="0.2" stroke-width="2"/>
<path d="M512.675 686.861L495.804 662.701L491.716 707.576L512.675 686.861Z" fill="#493FD6"/>
<path d="M496.552 665.519L492.961 704.94L511.372 686.744L496.552 665.519Z" stroke="white" stroke-opacity="0.2" stroke-width="2"/>
<path d="M523.327 688.952L540.198 713.113L544.286 668.237L523.327 688.952Z" fill="#493FD6"/>
<path d="M539.45 710.295L543.041 670.873L524.63 689.07L539.45 710.295Z" stroke="white" stroke-opacity="0.2" stroke-width="2"/>
<circle cx="518.495" cy="690.572" r="3.58533" transform="rotate(-90.8166 518.495 690.572)" fill="#493FD6"/>
<circle cx="518.495" cy="690.572" r="2.58533" transform="rotate(-90.8166 518.495 690.572)" stroke="white" stroke-opacity="0.2" stroke-width="2"/>
<circle cx="519.45" cy="682.828" r="3.58533" transform="rotate(-90.8166 519.45 682.828)" fill="#493FD6"/>
<circle cx="519.45" cy="682.828" r="2.58533" transform="rotate(-90.8166 519.45 682.828)" stroke="white" stroke-opacity="0.2" stroke-width="2"/>
<path d="M566.369 582.26L535.365 585.031L567.077 613.379L566.369 582.26Z" fill="#493FD6"/>
<path d="M537.75 585.822L566.025 611.097L565.394 583.351L537.75 585.822Z" stroke="white" stroke-opacity="0.2" stroke-width="2"/>
<path d="M578.992 568.534L609.706 573.592L586.076 538.224L578.992 568.534Z" fill="#493FD6"/>
<path d="M607.593 572.231L586.525 540.696L580.208 567.721L607.593 572.231Z" stroke="white" stroke-opacity="0.2" stroke-width="2"/>
<path d="M567.983 572.791L570.318 543.415L538.636 575.459L567.983 572.791Z" fill="#493FD6"/>
<path d="M569.104 546.066L541.273 574.215L567.053 571.872L569.104 546.066Z" stroke="white" stroke-opacity="0.2" stroke-width="2"/>
<path d="M574.876 581.177L572.541 610.552L604.223 578.509L574.876 581.177Z" fill="#493FD6"/>
<path d="M573.755 607.902L601.587 579.752L575.807 582.096L573.755 607.902Z" stroke="white" stroke-opacity="0.2" stroke-width="2"/>
<circle cx="570.116" cy="579.357" r="3.58533" transform="rotate(-51.3465 570.116 579.357)" fill="#493FD6"/>
<circle cx="570.116" cy="579.357" r="2.58533" transform="rotate(-51.3465 570.116 579.357)" stroke="white" stroke-opacity="0.2" stroke-width="2"/>
<circle cx="575.778" cy="573.986" r="3.58533" transform="rotate(-51.3465 575.778 573.986)" fill="#493FD6"/>
<circle cx="575.778" cy="573.986" r="2.58533" transform="rotate(-51.3465 575.778 573.986)" stroke="white" stroke-opacity="0.2" stroke-width="2"/>
<path d="M677.815 518.113L649.826 504.491L662.366 545.136L677.815 518.113Z" fill="#493FD6"/>
<path d="M651.462 506.398L662.642 542.638L676.417 518.544L651.462 506.398Z" stroke="white" stroke-opacity="0.2" stroke-width="2"/>
<path d="M695.712 512.87L719.413 533.049L717.419 490.56L695.712 512.87Z" fill="#493FD6"/>
<path d="M718.305 530.793L716.527 492.91L697.173 512.801L718.305 530.793Z" stroke="white" stroke-opacity="0.2" stroke-width="2"/>
<path d="M684.089 510.838L701.245 486.879L657.573 497.983L684.089 510.838Z" fill="#493FD6"/>
<path d="M698.837 488.524L660.473 498.278L683.766 509.571L698.837 488.524Z" stroke="white" stroke-opacity="0.2" stroke-width="2"/>
<path d="M685.663 521.577L668.507 545.536L712.179 534.432L685.663 521.577Z" fill="#493FD6"/>
<path d="M670.915 543.891L709.279 534.137L685.986 522.844L670.915 543.891Z" stroke="white" stroke-opacity="0.2" stroke-width="2"/>
<circle cx="682.524" cy="517.562" r="3.58533" transform="rotate(-20.287 682.524 517.562)" fill="#493FD6"/>
<circle cx="682.524" cy="517.562" r="2.58533" transform="rotate(-20.287 682.524 517.562)" stroke="white" stroke-opacity="0.2" stroke-width="2"/>
<circle cx="690.145" cy="515.883" r="3.58533" transform="rotate(-20.287 690.145 515.883)" fill="#493FD6"/>
<circle cx="690.145" cy="515.883" r="2.58533" transform="rotate(-20.287 690.145 515.883)" stroke="white" stroke-opacity="0.2" stroke-width="2"/>
<path d="M815.955 475.016C809.734 472.138 803.994 469.669 799.378 467.993C809.758 457.1 836.957 435.051 862.711 433.997C862.897 438.457 863.258 444.506 863.819 451.304M815.955 475.016C823.212 468.116 842.945 453.713 863.819 451.304M815.955 475.016C819.866 476.825 823.968 478.797 828.101 480.834M863.819 451.304C864.225 456.225 864.735 461.539 865.36 466.926M828.101 480.834C833.929 475.548 849.542 465.365 865.36 466.926M828.101 480.834C832.733 483.118 837.404 485.486 841.889 487.803M865.36 466.926C865.891 471.501 866.505 476.13 867.207 480.615M841.889 487.803C844.769 485.37 853.864 480.526 867.207 480.615M841.889 487.803C847.604 490.756 853.017 493.626 857.664 496.137M867.207 480.615C867.881 484.922 868.636 489.098 869.478 492.969M857.664 496.137C866.507 500.915 872.574 504.391 872.665 504.653C871.487 501.311 870.428 497.333 869.478 492.969M857.664 496.137C859.818 494.562 865.196 491.724 869.478 492.969" stroke="white" stroke-opacity="0.2" stroke-width="2"/>
<path d="M877.465 441.323C871.651 438.135 866.516 435.578 862.546 433.772C860.85 437.063 870.674 504.736 871.814 506.295C876.207 504.131 881.247 502.304 886.564 500.757M877.465 441.323C876.365 453.143 876.645 481.578 886.564 500.757M877.465 441.323C881.53 443.551 885.927 446.088 890.489 448.891M886.564 500.757C890.513 499.608 894.616 498.612 898.72 497.747M890.489 448.891C888.723 458.851 887.895 482.566 898.72 497.747M890.489 448.891C895.066 451.704 899.811 454.784 904.554 458.092M898.72 497.747C901.844 497.089 904.97 496.506 908.03 495.988M904.554 458.092C902.146 465.846 899.471 484.28 908.03 495.988M904.554 458.092C908.456 460.813 912.358 463.688 916.167 466.693M908.03 495.988C910.197 495.621 912.331 495.286 914.409 494.98M916.167 466.693C913.924 470.611 910.432 481.754 914.409 494.98M916.167 466.693C919.447 469.281 922.658 471.966 925.74 474.733M914.409 494.98C917.53 494.521 920.523 494.127 923.309 493.784M925.74 474.733C924.015 478.054 921.114 486.512 923.309 493.784M925.74 474.733C928.199 476.941 930.576 479.201 932.841 481.505M923.309 493.784C926.395 493.405 929.225 493.09 931.692 492.822M932.841 481.505C936.027 484.748 938.99 488.078 941.646 491.475C941.313 491.815 937.517 492.188 931.692 492.822M932.841 481.505C931.896 483.712 930.344 489.064 931.692 492.822" stroke="white" stroke-opacity="0.2" stroke-width="2"/>
<path d="M873.043 506.882C886.1 499.404 918.459 486.032 943.443 492.371C942.349 496.698 940.969 502.599 939.567 509.274C938.552 514.106 937.525 519.345 936.587 524.686C935.791 529.223 935.058 533.834 934.451 538.333C933.868 542.654 933.4 546.871 933.103 550.821C932.768 555.275 932.648 559.39 932.823 562.929C932.811 562.652 927.988 557.589 920.876 550.487C917.139 546.754 912.769 542.459 908.134 537.999C904.497 534.498 900.696 530.896 896.908 527.385C893.528 524.253 890.16 521.194 886.927 518.343C881.786 513.81 876.989 509.806 873.043 506.882Z" fill="#493FD6"/>
<path d="M886.927 518.343C881.786 513.81 876.989 509.806 873.043 506.882C886.1 499.404 918.459 486.032 943.443 492.371C942.349 496.698 940.969 502.599 939.567 509.274M886.927 518.343C895.851 513.8 918.873 505.626 939.567 509.274M886.927 518.343C890.16 521.194 893.528 524.253 896.908 527.385M939.567 509.274C938.552 514.106 937.525 519.345 936.587 524.686M896.908 527.385C904.003 523.982 921.871 518.676 936.587 524.686M896.908 527.385C900.696 530.896 904.497 534.498 908.134 537.999M936.587 524.686C935.791 529.223 935.058 533.834 934.451 538.333M908.134 537.999C911.589 536.488 921.688 534.44 934.451 538.333M908.134 537.999C912.769 542.459 917.139 546.754 920.876 550.487M934.451 538.333C933.868 542.654 933.4 546.871 933.103 550.821M920.876 550.487C927.988 557.589 932.811 562.652 932.823 562.929C932.648 559.39 932.768 555.275 933.103 550.821M920.876 550.487C923.39 549.592 929.354 548.407 933.103 550.821" stroke="white" stroke-opacity="0.2" stroke-width="2"/>
<path d="M931.538 564.264C930.891 562.444 940.784 494.781 943.348 492.111C946.638 494.975 950.83 498.891 955.493 503.605C958.753 506.9 962.243 510.586 965.816 514.575C969.401 518.576 973.068 522.883 976.671 527.406C979.635 531.128 982.554 534.996 985.347 538.963C987.753 542.38 990.064 545.869 992.228 549.401C993.955 552.218 995.589 555.063 997.101 557.917C999.23 561.934 1001.12 565.971 1002.7 569.985C1002.28 570.216 998.535 569.49 992.772 568.436C990.331 567.989 987.528 567.483 984.462 566.966C981.695 566.499 978.713 566.023 975.591 565.573C973.512 565.273 971.371 564.985 969.189 564.718C966.109 564.342 962.947 564.009 959.765 563.749C955.584 563.407 951.369 563.19 947.256 563.165C941.718 563.13 936.366 563.443 931.538 564.264Z" fill="#493FD6"/>
<path d="M955.493 503.605C950.83 498.891 946.638 494.975 943.348 492.111C940.784 494.781 930.891 562.444 931.538 564.264C936.366 563.443 941.718 563.13 947.256 563.165M955.493 503.605C951.066 514.62 943.221 541.953 947.256 563.165M955.493 503.605C958.753 506.9 962.243 510.586 965.816 514.575M947.256 563.165C951.369 563.19 955.584 563.407 959.765 563.749M965.816 514.575C961.281 523.617 953.721 546.11 959.765 563.749M965.816 514.575C969.401 518.576 973.068 522.883 976.671 527.406M959.765 563.749C962.947 564.009 966.109 564.342 969.189 564.718M976.671 527.406C972.151 534.151 964.327 551.056 969.189 564.718M976.671 527.406C979.635 531.128 982.554 534.996 985.347 538.963M969.189 564.718C971.371 564.985 973.512 565.273 975.591 565.573M985.347 538.963C982.079 542.078 975.553 551.762 975.591 565.573M985.347 538.963C987.753 542.38 990.064 545.869 992.228 549.401M975.591 565.573C978.713 566.023 981.695 566.499 984.462 566.966M992.228 549.401C989.628 552.091 984.434 559.37 984.462 566.966M992.228 549.401C993.955 552.218 995.589 555.063 997.101 557.917M984.462 566.966C987.528 567.483 990.331 567.989 992.772 568.436M997.101 557.917C999.23 561.934 1001.12 565.971 1002.7 569.985C1002.28 570.216 998.535 569.49 992.772 568.436M997.101 557.917C995.566 559.763 992.552 564.449 992.772 568.436" stroke="white" stroke-opacity="0.2" stroke-width="2"/>
<path d="M940.496 577.92C937.094 571.968 933.848 566.63 931.058 562.588C945.83 559.728 980.774 557.525 1002.37 571.594C999.939 575.336 996.726 580.474 993.243 586.339M940.496 577.92C950.409 576.503 974.837 576.203 993.243 586.339M940.496 577.92C942.634 581.661 944.834 585.645 947.021 589.701M993.243 586.339C990.722 590.584 988.058 595.21 985.445 599.962M947.021 589.701C954.835 588.771 973.459 589.522 985.445 599.962M947.021 589.701C949.472 594.247 951.906 598.883 954.218 603.371M985.445 599.962C983.226 603.999 981.043 608.126 979.015 612.188M954.218 603.371C957.975 603.057 968.194 604.382 979.015 612.188M954.218 603.371C957.164 609.089 959.911 614.566 962.243 619.305M979.015 612.188C977.068 616.088 975.263 619.929 973.706 623.571M962.243 619.305C966.679 628.324 969.609 634.674 969.53 634.94C970.508 631.534 971.95 627.679 973.706 623.571M962.243 619.305C964.91 619.271 970.938 620.075 973.706 623.571" stroke="white" stroke-opacity="0.2" stroke-width="2"/>
<path d="M1010.15 586.12C1007.26 580.152 1004.56 575.092 1002.37 571.32C999.081 573.018 967.862 633.859 967.888 635.79C972.722 636.573 977.888 638.006 983.118 639.827M1010.15 586.12C1002.4 595.115 986.151 618.449 983.118 639.827M1010.15 586.12C1012.17 590.292 1014.28 594.907 1016.38 599.837M983.118 639.827C987.002 641.179 990.922 642.746 994.768 644.42M1016.38 599.837C1009.17 606.929 994.745 625.774 994.768 644.42M1016.38 599.837C1018.48 604.781 1020.56 610.041 1022.51 615.486M994.768 644.42C997.695 645.694 1000.58 647.03 1003.37 648.382M1022.51 615.486C1016.05 620.409 1003.18 633.881 1003.37 648.382M1022.51 615.486C1024.11 619.965 1025.62 624.57 1026.98 629.226M1003.37 648.382C1005.35 649.339 1007.29 650.303 1009.16 651.258M1026.98 629.226C1022.89 631.119 1013.58 638.176 1009.16 651.258M1026.98 629.226C1028.16 633.236 1029.22 637.286 1030.13 641.327M1009.16 651.258C1011.97 652.693 1014.63 654.107 1017.1 655.442M1030.13 641.327C1026.8 643.033 1019.53 648.244 1017.1 655.442M1030.13 641.327C1030.85 644.551 1031.48 647.77 1031.99 650.961M1017.1 655.442C1019.84 656.922 1022.33 658.306 1024.49 659.517M1031.99 650.961C1032.7 655.449 1033.19 659.881 1033.38 664.189C1032.91 664.273 1029.6 662.377 1024.49 659.517M1031.99 650.961C1029.94 652.211 1025.57 655.673 1024.49 659.517" stroke="white" stroke-opacity="0.2" stroke-width="2"/>
<path d="M967.515 633.851C982.424 635.878 1016.23 644.993 1032.18 665.243C1028.67 668.008 1023.98 671.845 1018.8 676.284C1015.05 679.497 1011.05 683.025 1007.05 686.688C1003.65 689.8 1000.26 693.01 997.04 696.208C993.945 699.278 991.005 702.337 988.362 705.288C985.382 708.615 982.78 711.805 980.762 714.718C980.922 714.491 980.182 707.537 978.871 697.572C978.182 692.336 977.335 686.267 976.378 679.906C975.627 674.914 974.807 669.742 973.943 664.65C973.172 660.107 972.366 655.629 971.539 651.399C970.225 644.671 968.862 638.574 967.515 633.851Z" fill="#493FD6"/>
<path d="M971.539 651.399C970.225 644.671 968.862 638.574 967.515 633.851C982.424 635.878 1016.23 644.993 1032.18 665.243C1028.67 668.008 1023.98 671.845 1018.8 676.284M971.539 651.399C981.384 653.235 1004.62 660.782 1018.8 676.284M971.539 651.399C972.366 655.629 973.172 660.107 973.943 664.65M1018.8 676.284C1015.05 679.497 1011.05 683.025 1007.05 686.688M973.943 664.65C981.643 666.275 999.044 672.956 1007.05 686.688M973.943 664.65C974.807 669.742 975.627 674.914 976.378 679.906M1007.05 686.688C1003.65 689.8 1000.26 693.01 997.04 696.208M976.378 679.906C980.037 680.814 989.293 685.344 997.04 696.208M976.378 679.906C977.335 686.267 978.182 692.336 978.871 697.572M997.04 696.208C993.945 699.278 991.005 702.337 988.362 705.288M978.871 697.572C980.182 707.537 980.922 714.491 980.762 714.718C982.78 711.805 985.382 708.615 988.362 705.288M978.871 697.572C981.409 698.395 986.861 701.089 988.362 705.288" stroke="white" stroke-opacity="0.2" stroke-width="2"/>
<path d="M978.935 715C979.53 713.163 1028.61 665.541 1032.27 664.987C1033.13 669.262 1034.07 674.921 1034.89 681.5C1035.47 686.1 1035.99 691.149 1036.39 696.489C1036.8 701.846 1037.08 707.495 1037.18 713.277C1037.26 718.034 1037.22 722.881 1037.02 727.727C1036.84 731.902 1036.55 736.078 1036.11 740.197C1035.77 743.483 1035.33 746.734 1034.79 749.919C1034.03 754.4 1033.07 758.753 1031.87 762.896C1031.4 762.826 1028.87 759.969 1024.94 755.621C1023.28 753.779 1021.37 751.67 1019.25 749.392C1017.34 747.336 1015.27 745.141 1013.07 742.882C1011.6 741.377 1010.08 739.844 1008.51 738.303C1006.3 736.128 1003.99 733.937 1001.63 731.792C998.523 728.973 995.313 726.232 992.067 723.706C987.697 720.304 983.263 717.291 978.935 715Z" fill="#493FD6"/>
<path d="M1034.89 681.5C1034.07 674.921 1033.13 669.262 1032.27 664.987C1028.61 665.541 979.53 713.163 978.935 715C983.263 717.291 987.697 720.304 992.067 723.706M1034.89 681.5C1024.67 687.537 1001.79 704.429 992.067 723.706M1034.89 681.5C1035.47 686.1 1035.99 691.149 1036.39 696.489M992.067 723.706C995.313 726.232 998.523 728.973 1001.63 731.792M1036.39 696.489C1027.29 700.895 1007.59 714.123 1001.63 731.792M1036.39 696.489C1036.8 701.846 1037.08 707.495 1037.18 713.277M1001.63 731.792C1003.99 733.937 1006.3 736.128 1008.51 738.303M1037.18 713.277C1029.49 715.871 1012.98 724.507 1008.51 738.303M1037.18 713.277C1037.26 718.034 1037.22 722.88 1037.02 727.727M1008.51 738.303C1010.08 739.844 1011.6 741.377 1013.07 742.882M1037.02 727.727C1032.53 728.206 1021.45 731.908 1013.07 742.882M1037.02 727.727C1036.84 731.902 1036.55 736.078 1036.11 740.197M1013.07 742.882C1015.27 745.141 1017.34 747.336 1019.25 749.392M1036.11 740.197C1032.41 740.745 1023.86 743.352 1019.25 749.392M1036.11 740.197C1035.77 743.483 1035.33 746.734 1034.79 749.919M1019.25 749.392C1021.37 751.67 1023.28 753.779 1024.94 755.621M1034.79 749.919C1034.03 754.4 1033.07 758.753 1031.87 762.896C1031.4 762.826 1028.87 759.969 1024.94 755.621M1034.79 749.919C1032.45 750.447 1027.2 752.326 1024.94 755.621" stroke="white" stroke-opacity="0.2" stroke-width="2"/>
<path d="M977.481 734.58C978.172 727.76 978.634 721.529 978.713 716.619C992.396 722.878 1022.11 741.397 1031.51 765.399C1027.35 767.03 1021.75 769.344 1015.51 772.091M977.481 734.58C986.371 739.189 1006.42 753.145 1015.51 772.091M977.481 734.58C977.046 738.867 976.52 743.388 975.942 747.959M1015.51 772.091C1010.99 774.08 1006.13 776.296 1001.24 778.644M975.942 747.959C982.841 751.745 997.559 763.181 1001.24 778.644M975.942 747.959C975.294 753.083 974.579 758.271 973.852 763.266M1001.24 778.644C997.091 780.639 992.916 782.728 988.905 784.855M973.852 763.266C977.091 765.195 984.637 772.213 988.905 784.855M973.852 763.266C972.925 769.632 971.977 775.685 971.12 780.897M988.905 784.855C985.053 786.897 981.352 788.973 977.968 791.031M971.12 780.897C969.487 790.814 968.18 797.684 967.962 797.855C970.737 795.652 974.152 793.353 977.968 791.031M971.12 780.897C973.311 782.419 977.748 786.577 977.968 791.031" stroke="white" stroke-opacity="0.2" stroke-width="2"/>
<path d="M1029.39 781.74C1030.51 775.204 1031.25 769.515 1031.67 765.174C1028 764.644 967.235 796.004 966.132 797.59C969.611 801.037 972.982 805.205 976.179 809.727M1029.39 781.74C1017.86 784.556 991.073 794.095 976.179 809.727M1029.39 781.74C1028.61 786.309 1027.65 791.293 1026.49 796.52M976.179 809.727C978.554 813.086 980.832 816.639 982.989 820.237M1026.49 796.52C1016.5 798.099 993.809 805.052 982.989 820.237M1026.49 796.52C1025.32 801.764 1023.96 807.254 1022.38 812.817M982.989 820.237C984.63 822.975 986.201 825.74 987.689 828.463M1022.38 812.817C1014.26 813.07 995.964 816.554 987.689 828.463M1022.38 812.817C1021.08 817.393 1019.63 822.02 1018.04 826.6M987.689 828.463C988.743 830.392 989.755 832.3 990.722 834.165M1018.04 826.6C1013.6 825.758 1001.93 826.092 990.722 834.165M1018.04 826.6C1016.66 830.545 1015.17 834.456 1013.56 838.272M990.722 834.165C992.174 836.965 993.523 839.666 994.755 842.188M1013.56 838.272C1009.86 837.725 1000.91 837.741 994.755 842.188M1013.56 838.272C1012.27 841.317 1010.91 844.301 1009.47 847.194M994.755 842.188C996.12 844.981 997.341 847.555 998.4 849.799M1009.47 847.194C1007.45 851.263 1005.26 855.15 1002.92 858.769C1002.49 858.565 1000.9 855.098 998.4 849.799M1009.47 847.194C1007.08 847.02 1001.51 847.299 998.4 849.799" stroke="white" stroke-opacity="0.2" stroke-width="2"/>
<path d="M959.312 816.954C962.082 810.684 964.452 804.903 966.049 800.258C977.119 810.45 999.632 837.265 1001.13 862.997C996.672 863.26 990.63 863.725 983.843 864.402M959.312 816.954C966.336 824.091 981.076 843.573 983.843 864.402M959.312 816.954C957.57 820.895 955.669 825.03 953.703 829.197M983.843 864.402C978.929 864.893 973.626 865.495 968.25 866.212M953.703 829.197C959.089 834.934 969.539 850.369 968.25 866.212M953.703 829.197C951.499 833.868 949.212 838.579 946.972 843.103M968.25 866.212C963.685 866.822 959.068 867.515 954.595 868.294M946.972 843.103C949.455 845.941 954.455 854.952 954.595 868.294M946.972 843.103C944.119 848.868 941.342 854.33 938.911 859.019M954.595 868.294C950.3 869.042 946.138 869.869 942.282 870.777M938.911 859.019C934.286 867.943 930.915 874.069 930.654 874.164C933.975 872.93 937.934 871.802 942.282 870.777M938.911 859.019C940.523 861.146 943.453 866.475 942.282 870.777" stroke="white" stroke-opacity="0.2" stroke-width="2"/>
<path d="M994.056 877.882C997.143 872.014 999.612 866.836 1001.35 862.836C998.03 861.196 930.536 872.183 928.996 873.349C931.236 877.705 933.149 882.712 934.787 888.002M994.056 877.882C982.219 876.986 953.792 877.755 934.787 888.002M994.056 877.882C991.898 881.985 989.437 886.425 986.713 891.035M934.787 888.002C936.004 891.931 937.07 896.016 938.005 900.104M986.713 891.035C976.724 889.439 952.998 889.02 938.005 900.104M986.713 891.035C983.979 895.659 980.981 900.456 977.755 905.256M938.005 900.104C938.717 903.217 939.354 906.332 939.925 909.382M977.755 905.256C969.961 902.982 951.483 900.623 939.925 909.382M977.755 905.256C975.101 909.204 972.294 913.155 969.355 917.014M939.925 909.382C940.329 911.543 940.7 913.671 941.042 915.743M969.355 917.014C965.399 914.839 954.197 911.54 941.042 915.743M969.355 917.014C966.824 920.339 964.194 923.596 961.481 926.725M941.042 915.743C941.555 918.856 942 921.842 942.39 924.622M961.481 926.725C958.131 925.057 949.624 922.302 942.39 924.622M961.481 926.725C959.315 929.222 957.097 931.637 954.832 933.941M942.39 924.622C942.823 927.7 943.186 930.525 943.497 932.987M954.832 933.941C951.645 937.182 948.366 940.202 945.015 942.916C944.669 942.589 944.231 938.8 943.497 932.987M954.832 933.941C952.609 933.034 947.231 931.574 943.497 932.987" stroke="white" stroke-opacity="0.2" stroke-width="2"/>
<path d="M930.038 874.943C936.674 888.377 948.629 921.274 943.354 945.393C939.577 943.983 934.427 942.17 928.602 940.276C924.386 938.905 919.816 937.492 915.157 936.158C911.2 935.025 907.179 933.949 903.257 933.005C899.49 932.099 895.814 931.315 892.373 930.719C888.492 930.046 884.909 929.613 881.83 929.513C882.072 929.523 886.432 925.161 892.545 918.703C895.758 915.308 899.455 911.335 903.292 907.113C906.304 903.8 909.403 900.332 912.422 896.872C915.116 893.784 917.746 890.701 920.196 887.737C924.092 883.021 927.531 878.605 930.038 874.943Z" fill="#493FD6"/>
<path d="M920.196 887.737C924.092 883.021 927.531 878.605 930.038 874.943C936.674 888.377 948.629 921.274 943.354 945.393C939.577 943.983 934.427 942.17 928.602 940.276M920.196 887.737C924.237 896.875 931.576 920.176 928.602 940.276M920.196 887.737C917.746 890.701 915.116 893.784 912.422 896.872M928.602 940.276C924.386 938.905 919.816 937.492 915.157 936.158M912.422 896.872C915.454 904.121 920.245 922.126 915.157 936.158M912.422 896.872C909.403 900.332 906.304 903.8 903.292 907.113M915.157 936.158C911.2 935.025 907.179 933.949 903.257 933.005M903.292 907.113C904.641 910.631 906.521 920.735 903.257 933.005M903.292 907.113C899.455 911.335 895.758 915.308 892.545 918.703M903.257 933.005C899.49 932.099 895.814 931.315 892.373 930.719M892.545 918.703C886.432 925.161 882.072 929.523 881.83 929.513C884.909 929.613 888.492 930.046 892.373 930.719M892.545 918.703C893.348 921.247 894.438 927.212 892.373 930.719" stroke="white" stroke-opacity="0.2" stroke-width="2"/>
<path d="M880.657 928.147C882.235 927.649 941.231 942.59 943.58 945.321C941.119 948.341 937.751 952.169 933.693 956.399C930.856 959.356 927.681 962.511 924.244 965.723C920.795 968.946 917.082 972.227 913.18 975.428C909.969 978.061 906.63 980.639 903.204 983.085C900.253 985.192 897.238 987.2 894.185 989.061C891.749 990.545 889.289 991.935 886.819 993.206C883.343 994.993 879.847 996.544 876.368 997.788C876.163 997.361 876.758 993.728 877.62 988.134C877.985 985.764 878.398 983.042 878.819 980.063C879.198 977.373 879.584 974.473 879.945 971.432C880.186 969.408 880.416 967.322 880.627 965.194C880.925 962.188 881.184 959.1 881.38 955.986C881.637 951.895 881.784 947.76 881.767 943.711C881.743 938.26 881.418 932.965 880.657 928.147Z" fill="#493FD6"/>
<path d="M933.693 956.399C937.751 952.169 941.119 948.341 943.58 945.321C941.231 942.59 882.235 927.649 880.657 928.147C881.418 932.965 881.743 938.26 881.767 943.711M933.693 956.399C924.061 951.193 900.192 941.367 881.767 943.711M933.693 956.399C930.856 959.356 927.681 962.511 924.244 965.723M881.767 943.711C881.784 947.76 881.637 951.895 881.38 955.986M924.244 965.723C916.329 960.562 896.675 951.389 881.38 955.986M924.244 965.723C920.795 968.946 917.082 972.227 913.18 975.428M881.38 955.986C881.184 959.1 880.925 962.188 880.627 965.194M913.18 975.428C907.265 970.458 892.473 961.454 880.627 965.194M913.18 975.428C909.969 978.061 906.63 980.639 903.204 983.085M880.627 965.194C880.416 967.322 880.186 969.408 879.945 971.432M903.204 983.085C900.46 979.628 891.967 972.456 879.945 971.432M903.204 983.085C900.253 985.192 897.238 987.2 894.185 989.061M879.945 971.432C879.584 974.473 879.198 977.373 878.819 980.063M894.185 989.061C891.818 986.293 885.431 980.618 878.819 980.063M894.185 989.061C891.749 990.545 889.289 991.935 886.819 993.206M878.819 980.063C878.398 983.042 877.985 985.764 877.62 988.134M886.819 993.206C883.343 994.993 879.847 996.544 876.368 997.788C876.163 997.361 876.758 993.728 877.62 988.134M886.819 993.206C885.198 991.552 881.088 988.223 877.62 988.134" stroke="white" stroke-opacity="0.2" stroke-width="2"/>
<path d="M863.219 938.183C869.196 934.581 874.551 931.154 878.593 928.228C882.002 942.895 885.398 977.746 871.712 999.811C867.805 997.507 862.444 994.471 856.331 991.19M863.219 938.183C864.993 948.043 866.098 972.448 856.331 991.19M863.219 938.183C859.462 940.448 855.459 942.783 851.381 945.106M856.331 991.19C851.906 988.814 847.087 986.309 842.14 983.86M851.381 945.106C852.588 952.884 852.428 971.525 842.14 983.86M851.381 945.106C846.811 947.711 842.148 950.301 837.633 952.765M842.14 983.86C837.939 981.779 833.646 979.738 829.424 977.85M837.633 952.765C838.076 956.51 837.056 966.769 829.424 977.85M837.633 952.765C831.88 955.904 826.367 958.837 821.595 961.329M829.424 977.85C825.371 976.037 821.383 974.364 817.606 972.931M821.595 961.329C812.515 966.07 806.116 969.215 805.841 969.145C809.357 970.006 813.348 971.316 817.606 972.931M821.595 961.329C821.718 963.994 821.092 970.046 817.606 972.931" stroke="white" stroke-opacity="0.2" stroke-width="2"/>
<path d="M857.109 1008.08C863.119 1004.99 868.207 1002.12 871.994 999.8C870.149 996.571 806.894 967.442 804.919 967.533C804.276 972.391 802.98 977.603 801.288 982.892M857.109 1008.08C847.655 1000.64 823.255 985.195 801.288 982.892M857.109 1008.08C852.908 1010.24 848.255 1012.51 843.282 1014.77M801.288 982.892C800.031 986.82 798.557 990.791 796.97 994.692M843.282 1014.77C835.791 1007.81 816.042 994.035 796.97 994.692M843.282 1014.77C838.292 1017.04 832.98 1019.3 827.474 1021.43M796.97 994.692C795.762 997.662 794.49 1000.59 793.199 1003.43M827.474 1021.43C822.227 1015.15 808.026 1002.75 793.199 1003.43M827.474 1021.43C822.944 1023.19 818.284 1024.85 813.566 1026.37M793.199 1003.43C792.285 1005.44 791.361 1007.4 790.445 1009.31M813.566 1026.37C811.495 1022.34 803.973 1013.28 790.445 1009.31M813.566 1026.37C809.501 1027.68 805.394 1028.88 801.29 1029.93M790.445 1009.31C789.07 1012.16 787.711 1014.88 786.425 1017.39M801.29 1029.93C799.436 1026.66 793.867 1019.57 786.425 1017.39M801.29 1029.93C798.015 1030.76 794.743 1031.5 791.496 1032.11M786.425 1017.39C785.001 1020.17 783.667 1022.71 782.498 1024.91M791.496 1032.11C786.928 1032.98 782.411 1033.62 778.01 1033.96C777.909 1033.5 779.74 1030.12 782.498 1024.91M791.496 1032.11C790.15 1030.11 786.466 1025.86 782.498 1024.91" stroke="white" stroke-opacity="0.2" stroke-width="2"/>
<path d="M789.641 972.249C796.726 971.066 803.144 969.821 808.111 968.563C806.2 983.527 797.093 1017.36 775.953 1032.99C772.98 1029.41 768.854 1024.61 764.087 1019.3M789.641 972.249C787.854 982.119 780.24 1005.35 764.087 1019.3M789.641 972.249C785.187 972.993 780.469 973.712 775.684 974.394M764.087 1019.3C760.636 1015.46 756.849 1011.36 752.919 1007.26M775.684 974.394C774.087 982.109 767.298 999.483 752.919 1007.26M775.684 974.394C770.32 975.158 764.87 975.875 759.609 976.527M752.919 1007.26C749.58 1003.77 746.138 1000.29 742.712 996.984M759.609 976.527C758.707 980.191 754.065 989.412 742.712 996.984M759.609 976.527C752.906 977.358 746.511 978.085 740.991 978.669M742.712 996.984C739.421 993.805 736.145 990.782 732.988 988.061M740.991 978.669C730.487 979.782 723.155 980.382 722.913 980.217C726.02 982.308 729.428 984.993 732.988 988.061M740.991 978.669C740.161 981.207 737.4 986.638 732.988 988.061" stroke="white" stroke-opacity="0.2" stroke-width="2"/>
<path d="M758.832 1035.38C765.767 1034.69 771.73 1033.86 776.231 1033.08C775.589 1029.38 724.542 979.004 722.592 978.367C720.239 982.676 717.125 987.075 713.6 991.403M758.832 1035.38C752.299 1024.97 734.108 1001.59 713.6 991.403M758.832 1035.38C753.983 1035.86 748.659 1036.28 743.025 1036.58M713.6 991.403C710.982 994.617 708.137 997.792 705.208 1000.86M743.025 1036.58C738.232 1027.32 723.959 1007.22 705.208 1000.86M743.025 1036.58C737.374 1036.87 731.412 1037.04 725.307 1037.02M705.208 1000.86C702.979 1003.19 700.7 1005.47 698.437 1007.65M725.307 1037.02C722.45 1029.23 713.076 1012.44 698.437 1007.65M725.307 1037.02C720.285 1037.01 715.166 1036.86 710.045 1036.56M698.437 1007.65C696.834 1009.2 695.238 1010.7 693.672 1012.14M710.045 1036.56C709.469 1032.03 705.39 1020.81 693.672 1012.14M710.045 1036.56C705.633 1036.3 701.218 1035.91 696.862 1035.39M693.672 1012.14C691.319 1014.31 689.034 1016.35 686.891 1018.23M696.862 1035.39C696.226 1031.65 693.341 1022.99 686.891 1018.23M696.862 1035.39C693.386 1034.97 689.946 1034.46 686.574 1033.85M686.891 1018.23C684.518 1020.31 682.32 1022.19 680.401 1023.83M686.574 1033.85C681.829 1033 677.218 1031.94 672.824 1030.65C672.891 1030.18 675.869 1027.69 680.401 1023.83M686.574 1033.85C685.981 1031.49 683.915 1026.17 680.401 1023.83" stroke="white" stroke-opacity="0.2" stroke-width="2"/>
<path d="M703.709 978.084C710.603 978.904 716.901 979.482 721.866 979.651C715.492 993.298 696.67 1022.85 672.369 1031.86C670.734 1027.65 668.413 1021.98 665.655 1015.65M703.709 978.084C699.019 986.941 684.843 1006.85 665.655 1015.65M703.709 978.084C699.375 977.569 694.806 976.958 690.186 976.293M665.655 1015.65C663.659 1011.06 661.434 1006.14 659.076 1001.18M690.186 976.293C686.335 983.162 674.723 997.757 659.076 1001.18M690.186 976.293C685.007 975.547 679.764 974.734 674.715 973.912M659.076 1001.18C657.073 996.968 654.974 992.731 652.836 988.658M674.715 973.912C672.754 977.135 665.633 984.596 652.836 988.658M674.715 973.912C668.281 972.863 662.164 971.8 656.897 970.842M652.836 988.658C650.784 984.747 648.697 980.987 646.627 977.545M656.897 970.842C646.874 969.02 639.932 967.58 639.76 967.357C641.978 970.189 644.292 973.665 646.627 977.545M656.897 970.842C655.35 973.018 651.131 977.405 646.627 977.545" stroke="white" stroke-opacity="0.2" stroke-width="2"/>
<path d="M655.853 1029.43C662.459 1030.67 668.208 1031.52 672.597 1032.02C673.144 1028.34 641.633 966.652 640.033 965.515C636.536 968.951 632.31 972.265 627.728 975.398M655.853 1029.43C653.044 1017.78 643.485 990.663 627.728 975.398M655.853 1029.43C651.236 1028.56 646.2 1027.5 640.918 1026.24M627.728 975.398C624.324 977.725 620.724 979.952 617.079 982.056M640.918 1026.24C639.354 1016.16 632.398 993.215 617.079 982.056M640.918 1026.24C635.619 1024.97 630.073 1023.5 624.453 1021.81M617.079 982.056C614.304 983.657 611.504 985.186 608.746 986.633M624.453 1021.81C624.223 1013.64 620.761 995.173 608.746 986.633M624.453 1021.81C619.83 1020.42 615.157 1018.88 610.531 1017.19M608.746 986.633C606.792 987.658 604.859 988.641 602.97 989.579M610.531 1017.19C611.396 1012.74 611.097 1001 602.97 989.579M610.531 1017.19C606.546 1015.73 602.596 1014.16 598.742 1012.47M602.97 989.579C600.134 990.989 597.398 992.297 594.844 993.49M598.742 1012.47C599.308 1008.76 599.321 999.765 594.844 993.49M598.742 1012.47C595.668 1011.12 592.655 1009.7 589.735 1008.2M594.844 993.49C592.016 994.812 589.41 995.993 587.137 997.017M589.735 1008.2C585.627 1006.09 581.704 1003.82 578.052 1001.4C578.26 1000.97 581.77 999.433 587.137 997.017M589.735 1008.2C589.918 1005.8 589.655 1000.19 587.137 997.017" stroke="white" stroke-opacity="0.2" stroke-width="2"/>
<path d="M639.943 964.109C629.892 975.328 603.323 998.165 577.454 999.759C577.107 995.258 576.527 989.153 575.72 982.297C575.135 977.333 574.43 971.976 573.608 966.546C572.91 961.934 572.127 957.271 571.26 952.753C570.428 948.416 569.518 944.213 568.532 940.319C567.42 935.929 566.212 931.932 564.908 928.58C565.008 928.843 571.236 932.23 580.302 936.875C585.067 939.316 590.615 942.105 596.47 944.97C601.065 947.219 605.848 949.514 610.59 951.727C614.82 953.7 619.016 955.607 623.016 957.355C629.377 960.135 635.239 962.511 639.943 964.109Z" fill="#493FD6"/>
<path d="M623.016 957.355C629.377 960.135 635.239 962.511 639.943 964.109C629.892 975.328 603.323 998.165 577.454 999.759C577.107 995.258 576.527 989.153 575.72 982.297M623.016 957.355C615.963 964.476 596.631 979.434 575.72 982.297M623.016 957.355C619.016 955.607 614.82 953.7 610.59 951.727M575.72 982.297C575.135 977.333 574.43 971.976 573.608 966.546M610.59 951.727C604.916 957.188 589.577 967.797 573.608 966.546M610.59 951.727C605.848 949.514 601.065 947.219 596.47 944.97M573.608 966.546C572.91 961.934 572.127 957.271 571.26 952.753M596.47 944.97C593.66 947.488 584.685 952.569 571.26 952.753M596.47 944.97C590.615 942.105 585.067 939.316 580.303 936.875M571.26 952.753C570.428 948.416 569.518 944.213 568.532 940.319M580.303 936.875C571.236 932.23 565.008 928.843 564.908 928.58C566.212 931.932 567.42 935.929 568.532 940.319M580.303 936.875C578.192 938.511 572.884 941.489 568.532 940.319" stroke="white" stroke-opacity="0.2" stroke-width="2"/>
<path d="M565.703 926.902C566.906 928.453 579.215 996.622 577.627 999.982C573.569 998.239 568.312 995.761 562.349 992.661C558.18 990.493 553.667 988.021 548.976 985.282C544.271 982.535 539.389 979.52 534.499 976.276C530.476 973.607 526.447 970.783 522.509 967.826C519.116 965.278 515.789 962.632 512.59 959.9C510.037 957.72 507.565 955.485 505.205 953.204C501.884 949.994 498.784 946.69 495.99 943.312C496.313 942.962 500.118 942.507 505.954 941.747C508.426 941.425 511.262 941.048 514.352 940.602C517.142 940.199 520.139 939.739 523.262 939.21C525.341 938.859 527.476 938.477 529.643 938.061C532.703 937.475 535.825 936.821 538.945 936.092C543.042 935.133 547.133 934.043 551.064 932.801C556.358 931.128 561.362 929.179 565.703 926.902Z" fill="#493FD6"/>
<path d="M562.349 992.661C568.312 995.761 573.569 998.239 577.627 999.982C579.215 996.622 566.906 928.453 565.703 926.902C561.362 929.179 556.358 931.128 551.064 932.801M562.349 992.661C563.031 980.696 561.73 951.973 551.064 932.801M562.349 992.661C558.18 990.493 553.667 988.021 548.976 985.282M551.064 932.801C547.133 934.043 543.042 935.133 538.945 936.092M548.976 985.282C550.396 975.183 550.378 951.206 538.945 936.092M548.976 985.282C544.271 982.535 539.389 979.52 534.499 976.276M538.945 936.092C535.825 936.821 532.703 937.475 529.643 938.061M534.499 976.276C536.642 968.393 538.673 949.713 529.643 938.061M534.499 976.276C530.476 973.607 526.447 970.783 522.509 967.826M529.643 938.061C527.476 938.477 525.341 938.859 523.262 939.21M522.509 967.826C524.624 963.821 527.737 952.491 523.262 939.21M522.509 967.826C519.116 965.278 515.789 962.632 512.59 959.9M523.262 939.21C520.139 939.739 517.142 940.199 514.352 940.602M512.59 959.9C514.206 956.509 516.821 947.904 514.352 940.602M512.59 959.9C510.037 957.72 507.565 955.485 505.205 953.204M514.352 940.602C511.262 941.048 508.426 941.425 505.954 941.747M505.205 953.204C501.884 949.994 498.784 946.69 495.99 943.312C496.313 942.962 500.118 942.507 505.954 941.747M505.205 953.204C506.076 950.955 507.445 945.516 505.954 941.747" stroke="white" stroke-opacity="0.2" stroke-width="2"/>
<path d="M552.362 916.109C557.296 920.578 561.908 924.53 565.717 927.424C552.401 934.41 519.612 946.738 494.988 940.168C496.257 936.009 497.877 930.337 499.55 923.917M552.362 916.109C543.284 920.334 520.013 927.812 499.55 923.917M552.362 916.109C549.261 913.298 546.032 910.284 542.795 907.199M499.55 923.917C500.762 919.27 502.002 914.231 503.157 909.091M542.795 907.199C535.587 910.357 517.567 915.158 503.157 909.091M542.795 907.199C539.168 903.741 535.53 900.195 532.052 896.749M503.157 909.091C504.139 904.725 505.06 900.286 505.851 895.952M532.052 896.749C528.548 898.146 518.403 899.941 505.851 895.952M532.052 896.749C527.62 892.36 523.446 888.133 519.878 884.463M505.851 895.952C506.611 891.792 507.252 887.728 507.712 883.919M519.878 884.463C513.088 877.477 508.493 872.502 508.492 872.234C508.52 875.654 508.23 879.625 507.712 883.919M519.878 884.463C517.337 885.281 511.346 886.318 507.712 883.919" stroke="white" stroke-opacity="0.2" stroke-width="2"/>
<path d="M483.446 929.103C487.895 933.738 491.909 937.595 495.067 940.419C497.732 937.887 510.393 872.736 509.823 870.967C504.979 871.673 499.636 871.878 494.121 871.746M483.446 929.103C488.312 918.547 497.26 892.298 494.121 871.746M483.446 929.103C480.335 925.862 477.011 922.241 473.617 918.325M494.121 871.746C490.025 871.647 485.834 871.362 481.684 870.956M473.617 918.325C478.51 909.677 486.973 888.096 481.684 870.956M473.617 918.325C470.213 914.397 466.738 910.173 463.336 905.741M481.684 870.956C478.525 870.648 475.389 870.269 472.336 869.851M463.336 905.741C468.119 899.31 476.613 883.13 472.336 869.851M463.336 905.741C460.538 902.094 457.79 898.307 455.173 894.427M472.336 869.851C470.174 869.554 468.053 869.237 465.995 868.91M455.173 894.427C458.557 891.478 465.459 882.245 465.995 868.91M455.173 894.427C452.918 891.084 450.761 887.673 448.751 884.225M465.995 868.91C462.903 868.419 459.953 867.906 457.215 867.405M448.751 884.225C451.453 881.674 456.929 874.74 457.215 867.405M448.751 884.225C447.148 881.473 445.638 878.698 444.25 875.914M457.215 867.405C454.183 866.851 451.412 866.312 448.999 865.837M444.25 875.914C442.296 871.998 440.581 868.066 439.178 864.162C439.602 863.947 443.302 864.715 448.999 865.837M444.25 875.914C445.855 874.161 449.053 869.69 448.999 865.837" stroke="white" stroke-opacity="0.2" stroke-width="2"/>
<path d="M499.562 854.103C502.964 859.825 506.211 864.958 509.001 868.844C494.22 871.607 459.256 873.755 437.65 860.238C440.086 856.636 443.301 851.69 446.787 846.046M499.562 854.103C489.643 855.474 465.201 855.782 446.787 846.046M499.562 854.103C497.423 850.505 495.223 846.675 493.036 842.775M446.787 846.046C449.311 841.96 451.977 837.507 454.592 832.934M493.036 842.775C485.217 843.676 466.583 842.968 454.592 832.934M493.036 842.775C490.585 838.404 488.15 833.945 485.838 829.63M454.592 832.934C456.814 829.049 458.999 825.077 461.029 821.168M485.838 829.63C482.079 829.935 471.854 828.669 461.029 821.168M485.838 829.63C482.892 824.131 480.144 818.865 477.812 814.308M461.029 821.168C462.978 817.414 464.784 813.718 466.343 810.213M477.812 814.308C473.375 805.635 470.445 799.529 470.524 799.273C469.545 802.55 468.101 806.26 466.343 810.213M477.812 814.308C475.143 814.343 469.112 813.574 466.343 810.213" stroke="white" stroke-opacity="0.2" stroke-width="2"/>
<path d="M429.87 846.274C432.761 852.012 435.464 856.878 437.653 860.505C440.944 858.869 472.193 800.315 472.168 798.458C467.331 797.709 462.163 796.335 456.931 794.587M429.87 846.274C437.624 837.615 453.891 815.154 456.931 794.587M429.87 846.274C427.849 842.262 425.737 837.824 423.643 833.083M456.931 794.587C453.045 793.289 449.123 791.785 445.275 790.178M423.643 833.083C430.861 826.255 445.293 808.114 445.275 790.178M423.643 833.083C421.543 828.328 419.463 823.27 417.515 818.034M445.275 790.178C442.346 788.954 439.46 787.671 436.665 786.373M417.515 818.034C423.976 813.292 436.851 800.323 436.665 786.373M417.515 818.034C415.912 813.726 414.399 809.298 413.037 804.82M436.665 786.373C434.686 785.454 432.752 784.528 430.88 783.611M413.037 804.82C417.139 802.996 426.45 796.2 430.88 783.611M413.037 804.82C411.865 800.963 410.804 797.068 409.897 793.181M430.88 783.611C428.07 782.233 425.4 780.875 422.931 779.592M409.897 793.181C413.23 791.538 420.502 786.518 422.931 779.592M409.897 793.181C409.173 790.08 408.546 786.984 408.037 783.915M422.931 779.592C420.195 778.171 417.705 776.841 415.538 775.678M408.037 783.915C407.321 779.598 406.837 775.335 406.643 771.191C407.111 771.11 410.423 772.931 415.538 775.678M408.037 783.915C410.087 782.71 414.457 779.376 415.538 775.678" stroke="white" stroke-opacity="0.2" stroke-width="2"/>
<path d="M468.865 800.649C454.083 797.89 420.702 787.272 405.431 766.867C409.003 764.387 413.786 760.936 419.075 756.93C422.904 754.031 426.997 750.841 431.087 747.52C434.561 744.699 438.032 741.783 441.337 738.87C444.509 736.073 447.528 733.279 450.247 730.572C453.313 727.521 455.999 724.582 458.095 721.879C457.929 722.09 458.457 728.842 459.465 738.531C459.994 743.623 460.656 749.526 461.419 755.717C462.017 760.576 462.678 765.613 463.386 770.574C464.018 775.001 464.687 779.367 465.383 783.494C466.49 790.059 467.665 796.018 468.865 800.649Z" fill="#493FD6"/>
<path d="M465.383 783.494C466.49 790.059 467.665 796.018 468.865 800.649C454.083 797.89 420.702 787.272 405.431 766.867C409.003 764.387 413.786 760.936 419.075 756.93M465.383 783.494C455.638 781.192 432.733 772.657 419.075 756.93M465.383 783.494C464.687 779.367 464.018 775.001 463.386 770.574M419.075 756.93C422.904 754.031 426.997 750.841 431.087 747.52M463.386 770.574C455.77 768.592 438.647 761.206 431.087 747.52M463.386 770.574C462.678 765.613 462.017 760.576 461.419 755.717M431.087 747.52C434.561 744.699 438.032 741.783 441.337 738.87M461.419 755.717C457.803 754.645 448.724 749.773 441.337 738.87M461.419 755.717C460.656 749.526 459.994 743.623 459.465 738.531M441.337 738.87C444.509 736.073 447.528 733.279 450.247 730.572M459.465 738.531C458.457 728.842 457.929 722.09 458.095 721.879C455.999 724.582 453.313 727.521 450.247 730.572M459.465 738.531C456.963 737.601 451.616 734.706 450.247 730.572" stroke="white" stroke-opacity="0.2" stroke-width="2"/>
<path d="M459.928 721.711C459.281 723.453 409.003 766.778 405.342 767.116C404.61 762.944 403.846 757.43 403.222 751.035C402.785 746.565 402.417 741.663 402.176 736.487C401.934 731.294 401.82 725.826 401.894 720.239C401.954 715.643 402.141 710.968 402.487 706.3C402.786 702.28 403.203 698.265 403.76 694.313C404.204 691.159 404.738 688.045 405.371 685C406.261 680.715 407.348 676.565 408.663 672.63C409.129 672.724 411.56 675.617 415.339 680.026C416.94 681.893 418.783 684.032 420.82 686.344C422.66 688.432 424.659 690.662 426.783 692.962C428.197 694.493 429.667 696.054 431.181 697.626C433.319 699.845 435.547 702.084 437.837 704.282C440.845 707.17 443.96 709.988 447.115 712.601C451.364 716.12 455.688 719.267 459.928 721.711Z" fill="#493FD6"/>
<path d="M403.222 751.035C403.846 757.43 404.61 762.944 405.342 767.116C409.003 766.778 459.281 723.453 459.928 721.711C455.688 719.267 451.364 716.12 447.115 712.601M403.222 751.035C413.579 745.759 436.857 730.685 447.115 712.601M403.222 751.035C402.785 746.565 402.417 741.663 402.176 736.487M447.115 712.601C443.96 709.988 440.845 707.17 437.837 704.282M402.176 736.487C411.372 732.724 431.379 721.016 437.837 704.282M402.176 736.487C401.934 731.294 401.82 725.826 401.894 720.239M437.837 704.282C435.547 702.084 433.319 699.845 431.181 697.626M401.894 720.239C409.63 718.15 426.319 710.702 431.181 697.626M401.894 720.239C401.954 715.643 402.141 710.968 402.487 706.3M431.181 697.626C429.667 696.054 428.197 694.493 426.783 692.962M402.487 706.3C406.971 706.079 418.107 703.102 426.783 692.962M402.487 706.3C402.786 702.28 403.203 698.265 403.76 694.313M426.783 692.962C424.659 690.662 422.66 688.432 420.82 686.344M403.76 694.313C407.461 693.983 416.055 691.927 420.82 686.344M403.76 694.313C404.204 691.159 404.738 688.045 405.371 685M420.82 686.344C418.783 684.032 416.94 681.893 415.339 680.026M405.371 685C406.261 680.715 407.348 676.565 408.663 672.63C409.129 672.724 411.56 675.617 415.339 680.026M405.371 685C407.717 684.616 412.996 683.085 415.339 680.026" stroke="white" stroke-opacity="0.2" stroke-width="2"/>
<path d="M462.155 700.202C461.49 706.826 461.049 712.883 460.984 717.667C447.455 711.103 418.062 692.047 408.722 668.334C412.821 666.885 418.346 664.819 424.505 662.353M462.155 700.202C453.364 695.408 433.526 681.127 424.505 662.353M462.155 700.202C462.574 696.037 463.081 691.649 463.641 687.213M424.505 662.353C428.964 660.567 433.754 658.571 438.575 656.448M463.641 687.213C456.818 683.29 442.253 671.644 438.575 656.448M463.641 687.213C464.268 682.241 464.96 677.208 465.666 672.364M438.575 656.448C442.671 654.645 446.789 652.749 450.745 650.812M465.666 672.364C462.462 670.374 454.992 663.279 450.745 650.812M465.666 672.364C466.565 666.191 467.486 660.322 468.32 655.271M450.745 650.812C454.544 648.952 458.193 647.054 461.531 645.161M468.32 655.271C469.907 645.66 471.18 639.008 471.395 638.849C468.66 640.902 465.294 643.028 461.531 645.161M468.32 655.271C466.152 653.713 461.759 649.51 461.531 645.161" stroke="white" stroke-opacity="0.2" stroke-width="2"/>
<path d="M410.772 652.476C409.686 658.809 408.967 664.328 408.571 668.546C412.191 669.187 472.125 640.675 473.209 639.166C469.765 635.689 466.425 631.512 463.256 626.996M410.772 652.476C422.155 650.121 448.587 641.729 463.256 626.996M410.772 652.476C411.532 648.049 412.471 643.224 413.605 638.168M463.256 626.996C460.903 623.643 458.643 620.102 456.505 616.522M413.605 638.168C423.469 636.967 445.857 630.957 456.505 616.522M413.605 638.168C414.743 633.096 416.077 627.791 417.623 622.422M456.505 616.522C454.877 613.798 453.318 611.05 451.842 608.345M417.623 622.422C425.637 622.45 443.7 619.673 451.842 608.345M417.623 622.422C418.895 618.005 420.31 613.545 421.876 609.135M451.842 608.345C450.796 606.429 449.792 604.535 448.832 602.685M421.876 609.135C426.259 610.106 437.786 610.175 448.832 602.685M421.876 609.135C423.226 605.336 424.689 601.574 426.269 597.909M448.832 602.685C447.391 599.906 446.052 597.228 444.828 594.728M426.269 597.909C429.926 598.568 438.758 598.854 444.828 594.728M426.269 597.909C427.531 594.985 428.867 592.122 430.282 589.352M444.828 594.728C443.473 591.959 442.261 589.41 441.21 587.186M430.282 589.352C432.272 585.454 434.417 581.739 436.724 578.291C437.149 578.504 438.729 581.937 441.21 587.186M430.282 589.352C432.646 589.601 438.142 589.518 441.21 587.186" stroke="white" stroke-opacity="0.2" stroke-width="2"/>
<path d="M479.672 619.282C477.126 625.303 474.956 630.863 473.508 635.341C462.681 624.921 440.549 597.771 438.635 572.535C442.912 572.46 448.709 572.251 455.219 571.864M479.672 619.282C472.79 612.014 458.264 592.354 455.219 571.864M479.672 619.282C481.273 615.496 483.023 611.528 484.835 607.532M455.219 571.864C459.932 571.584 465.017 571.21 470.169 570.727M484.835 607.532C479.553 601.7 469.225 586.175 470.169 570.727M484.835 607.532C486.867 603.052 488.977 598.536 491.045 594.201M470.169 570.727C474.546 570.316 478.97 569.826 483.254 569.246M491.045 594.201C488.607 591.324 483.635 582.305 483.254 569.246M491.045 594.201C493.681 588.677 496.248 583.446 498.497 578.957M483.254 569.246C487.367 568.689 491.351 568.049 495.04 567.317M498.497 578.957C502.776 570.415 505.902 564.559 506.151 564.476C502.982 565.549 499.199 566.492 495.04 567.317M498.497 578.957C496.909 576.811 493.994 571.479 495.04 567.317" stroke="white" stroke-opacity="0.2" stroke-width="2"/>
<path d="M445.157 558.265C442.299 563.881 440.023 568.846 438.428 572.689C441.648 574.428 506.304 566.425 507.762 565.346C505.529 560.994 503.597 556.017 501.925 550.775M445.157 558.265C456.549 559.624 483.852 560.027 501.925 550.775M445.157 558.265C447.155 554.339 449.437 550.096 451.97 545.696M501.925 550.775C500.683 546.882 499.583 542.843 498.608 538.804M451.97 545.696C461.599 547.663 484.406 549.039 498.608 538.804M451.97 545.696C454.511 541.283 457.304 536.713 460.314 532.148M498.608 538.804C497.866 535.73 497.197 532.657 496.591 529.649M460.314 532.148C467.846 534.69 485.647 537.748 496.591 529.649M460.314 532.148C462.791 528.393 465.416 524.642 468.168 520.986M496.591 529.649C496.163 527.519 495.767 525.422 495.4 523.381M468.168 520.986C472.01 523.275 482.836 526.958 495.4 523.381M468.168 520.986C470.539 517.836 473.006 514.757 475.555 511.806M495.4 523.381C494.85 520.315 494.366 517.375 493.94 514.64M475.555 511.806C478.805 513.574 487.032 516.615 493.94 514.64M475.555 511.806C477.59 509.451 479.677 507.179 481.811 505.017M493.94 514.64C493.467 511.611 493.065 508.832 492.721 506.411M481.811 505.017C484.814 501.976 487.908 499.155 491.079 496.636C491.417 496.969 491.908 500.694 492.721 506.411M481.811 505.017C483.964 505.994 489.159 507.641 492.721 506.411" stroke="white" stroke-opacity="0.2" stroke-width="2"/>
<path d="M520.922 552.238C516.348 557.251 512.305 561.935 509.344 565.797C502.196 552.554 489.581 519.873 496.302 495.088C500.557 496.298 506.361 497.835 512.93 499.415M520.922 552.238C516.598 543.202 508.946 519.987 512.93 499.415M520.922 552.238C523.797 549.086 526.881 545.803 530.038 542.512M512.93 499.415C517.685 500.559 522.841 501.725 528.1 502.806M530.038 542.512C526.806 535.334 521.893 517.343 528.1 502.806M530.038 542.512C533.576 538.823 537.204 535.123 540.729 531.584M528.1 502.806C532.568 503.724 537.109 504.579 541.543 505.307M540.729 531.584C539.3 528.093 537.463 517.95 541.543 505.307M540.729 531.584C545.22 527.074 549.544 522.825 553.3 519.193M541.543 505.307C545.801 506.005 549.958 506.586 553.855 506.989M553.3 519.193C560.447 512.28 565.537 507.598 565.812 507.594C562.312 507.673 558.25 507.444 553.855 506.989M553.3 519.193C552.463 516.658 551.401 510.669 553.855 506.989" stroke="white" stroke-opacity="0.2" stroke-width="2"/>
<path d="M506.495 481.813C501.752 486.343 497.807 490.425 494.918 493.634C497.508 496.267 564.171 507.969 565.98 507.371C565.258 502.526 565.047 497.173 565.183 491.642M506.495 481.813C517.296 486.531 544.154 495.102 565.183 491.642M506.495 481.813C509.811 478.645 513.516 475.258 517.523 471.796M565.183 491.642C565.284 487.535 565.575 483.33 565.99 479.163M517.523 471.796C526.371 476.569 548.453 484.725 565.99 479.163M517.523 471.796C521.541 468.324 525.863 464.776 530.398 461.299M565.99 479.163C566.306 475.992 566.693 472.843 567.121 469.776M530.398 461.299C536.978 465.995 553.534 474.265 567.121 469.776M530.398 461.299C534.129 458.439 538.004 455.627 541.974 452.944M567.121 469.776C567.424 467.604 567.749 465.473 568.083 463.405M541.974 452.944C544.992 456.292 554.439 463.071 568.083 463.405M541.974 452.944C545.394 450.633 548.884 448.418 552.412 446.351M568.083 463.405C568.585 460.298 569.11 457.333 569.623 454.581M552.412 446.351C555.022 449.021 562.118 454.405 569.623 454.581M552.412 446.351C555.228 444.702 558.067 443.147 560.915 441.713M569.623 454.581C570.19 451.533 570.741 448.747 571.227 446.321M560.915 441.713C564.922 439.695 568.945 437.916 572.94 436.45C573.16 436.872 572.375 440.593 571.227 446.321M560.915 441.713C562.71 443.296 567.285 446.433 571.227 446.321" stroke="white" stroke-opacity="0.2" stroke-width="2"/>
<path d="M568.598 507.439C565.531 492.706 562.777 457.783 576.299 435.951C580.031 438.325 585.154 441.457 590.997 444.847C595.228 447.302 599.836 449.893 604.567 452.43C608.586 454.586 612.694 456.704 616.735 458.667C620.616 460.553 624.434 462.297 628.054 463.797C632.135 465.488 635.963 466.868 639.339 467.792C639.075 467.718 632.859 470.751 624.035 475.333C619.398 477.742 614.041 480.578 608.448 483.617C604.059 486.001 599.525 488.511 595.081 491.035C591.116 493.288 587.222 495.552 583.566 497.752C577.751 501.25 572.538 504.583 568.598 507.439Z" fill="#493FD6"/>
<path d="M583.566 497.752C577.751 501.25 572.538 504.583 568.598 507.439C565.531 492.706 562.777 457.783 576.299 435.951C580.031 438.325 585.154 441.457 590.997 444.847M583.566 497.752C582.004 487.857 581.303 463.423 590.997 444.847M583.566 497.752C587.222 495.552 591.116 493.288 595.081 491.035M590.997 444.847C595.228 447.302 599.836 449.893 604.567 452.43M595.081 491.035C594.034 483.233 594.466 464.589 604.567 452.43M595.081 491.035C599.525 488.511 604.059 486.001 608.448 483.617M604.567 452.43C608.586 454.586 612.694 456.704 616.735 458.667M608.448 483.617C608.076 479.863 609.213 469.618 616.735 458.667M608.448 483.617C614.041 480.578 619.398 477.742 624.035 475.333M616.735 458.667C620.616 460.553 624.434 462.297 628.054 463.797M624.035 475.333C632.859 470.751 639.075 467.718 639.339 467.792C635.963 466.868 632.135 465.488 628.054 463.797M624.035 475.333C623.957 472.665 624.651 466.622 628.054 463.797" stroke="white" stroke-opacity="0.2" stroke-width="2"/>
<path d="M639.564 467.627C637.659 467.683 577.118 437.425 575.387 434.162C579.073 431.912 584.02 429.128 589.859 426.14C593.942 424.052 598.46 421.865 603.289 419.692C608.132 417.512 613.287 415.347 618.626 413.31C623.019 411.635 627.536 410.047 632.107 408.61C636.044 407.373 640.021 406.247 643.993 405.274C647.162 404.498 650.328 403.819 653.467 403.258C657.883 402.469 662.247 401.914 666.494 401.649C666.585 402.116 664.769 405.458 662.033 410.619C660.874 412.805 659.55 415.318 658.135 418.077C656.859 420.568 655.508 423.26 654.139 426.093C653.228 427.98 652.309 429.929 651.397 431.924C650.111 434.741 648.84 437.648 647.632 440.597C646.044 444.472 644.563 448.418 643.293 452.326C641.584 457.587 640.256 462.778 639.564 467.627Z" fill="#493FD6"/>
<path d="M589.859 426.14C584.02 429.128 579.073 431.912 575.387 434.162C577.118 437.425 637.659 467.683 639.564 467.627C640.256 462.778 641.584 457.587 643.293 452.326M589.859 426.14C598.862 433.747 622.153 449.634 643.293 452.326M589.859 426.14C593.942 424.052 598.46 421.865 603.289 419.692M643.293 452.326C644.563 448.418 646.044 444.472 647.632 440.597M603.289 419.692C610.405 426.794 629.237 440.918 647.632 440.597M603.289 419.692C608.132 417.512 613.287 415.347 618.626 413.31M647.632 440.597C648.84 437.648 650.111 434.741 651.397 431.924M618.626 413.31C623.59 419.69 637.094 432.345 651.397 431.924M618.626 413.31C623.019 411.635 627.536 410.047 632.107 408.61M651.397 431.924C652.309 429.929 653.228 427.98 654.139 426.093M632.107 408.61C634.042 412.68 641.159 421.875 654.139 426.093M632.107 408.61C636.044 407.373 640.021 406.247 643.993 405.274M654.139 426.093C655.508 423.26 656.859 420.568 658.135 418.077M643.993 405.274C645.732 408.578 650.994 415.765 658.135 418.077M643.993 405.274C647.162 404.498 650.328 403.819 653.467 403.258M658.135 418.077C659.55 415.318 660.874 412.805 662.033 410.619M653.467 403.258C657.883 402.469 662.247 401.914 666.494 401.649C666.585 402.116 664.769 405.458 662.033 410.619M653.467 403.258C654.735 405.288 658.223 409.601 662.033 410.619" stroke="white" stroke-opacity="0.2" stroke-width="2"/>
<path d="M653.773 464.578C647.12 465.919 641.09 467.307 636.419 468.672C638.481 453.765 647.623 419.947 667.695 403.929C670.412 407.419 674.185 412.09 678.549 417.247M653.773 464.578C655.626 454.734 663.176 431.486 678.549 417.247M653.773 464.578C657.955 463.735 662.383 462.911 666.874 462.122M678.549 417.247C681.708 420.981 685.178 424.969 688.782 428.949M666.874 462.122C668.51 454.421 675.182 437.006 688.782 428.949M666.874 462.122C671.909 461.237 677.022 460.397 681.958 459.626M688.782 428.949C691.842 432.33 695 435.705 698.146 438.913M681.958 459.626C682.869 455.966 687.382 446.699 698.146 438.913M681.958 459.626C688.246 458.644 694.245 457.772 699.422 457.062M698.146 438.913C701.167 441.992 704.178 444.918 707.083 447.547M699.422 457.062C709.273 455.711 716.146 454.944 716.369 455.102C713.5 453.098 710.359 450.511 707.083 447.547M699.422 457.062C700.244 454.523 702.928 449.064 707.083 447.547" stroke="white" stroke-opacity="0.2" stroke-width="2"/>
<path d="M683.762 399.249C677.259 400.1 671.663 401.06 667.436 401.94C667.969 405.596 714.823 454.438 716.636 455.025C718.917 450.69 721.912 446.248 725.29 441.867M683.762 399.249C689.685 409.438 706.283 432.227 725.29 441.867M683.762 399.249C688.309 398.653 693.3 398.112 698.578 397.687M725.29 441.867C727.799 438.613 730.52 435.394 733.317 432.278M698.578 397.687C702.894 406.768 715.884 426.399 733.317 432.278M698.578 397.687C703.872 397.262 709.455 396.955 715.168 396.831M733.317 432.278C735.446 429.906 737.62 427.595 739.778 425.375M715.168 396.831C717.699 404.508 726.165 420.965 739.778 425.375M715.168 396.831C719.868 396.729 724.656 396.752 729.444 396.934M739.778 425.375C741.307 423.802 742.828 422.275 744.32 420.804M729.444 396.934C729.899 401.418 733.512 412.47 744.32 420.804M729.444 396.934C733.568 397.092 737.692 397.368 741.76 397.786M744.32 420.804C746.562 418.595 748.738 416.514 750.778 414.597M741.76 397.786C742.287 401.482 744.828 410.019 750.778 414.597M741.76 397.786C745.006 398.12 748.215 398.544 751.36 399.071M750.778 414.597C753.037 412.474 755.128 410.552 756.954 408.882M751.36 399.071C755.785 399.812 760.082 400.755 764.17 401.933C764.099 402.404 761.266 404.941 756.954 408.882M751.36 399.071C751.872 401.408 753.708 406.643 756.954 408.882" stroke="white" stroke-opacity="0.2" stroke-width="2"/>
<path d="M733.525 457.924C726.784 457.138 720.621 456.588 715.757 456.439C722.336 442.905 741.506 413.584 765.553 404.573C767.055 408.733 769.195 414.343 771.746 420.599M733.525 457.924C738.337 449.138 752.719 429.373 771.746 420.599M733.525 457.924C737.762 458.418 742.228 459.006 746.743 459.648M771.746 420.599C773.594 425.127 775.657 429.994 777.85 434.895M746.743 459.648C750.684 452.833 762.423 438.342 777.85 434.895M746.743 459.648C751.803 460.366 756.925 461.152 761.857 461.948M777.85 434.895C779.713 439.058 781.669 443.245 783.667 447.27M761.857 461.948C763.857 458.75 771.02 451.337 783.667 447.27M761.857 461.948C768.14 462.962 774.114 463.993 779.256 464.922M783.667 447.27C785.585 451.134 787.541 454.849 789.489 458.248M779.256 464.922C789.041 466.689 795.813 468.089 795.977 468.309C793.87 465.514 791.685 462.081 789.489 458.248M779.256 464.922C780.825 462.762 785.068 458.403 789.489 458.248" stroke="white" stroke-opacity="0.2" stroke-width="2"/>
<path d="M782.284 405.102C775.837 403.896 770.22 403.075 765.928 402.603C765.302 406.243 794.717 467.199 796.259 468.319C799.771 464.904 803.994 461.608 808.564 458.489M782.284 405.102C784.759 416.625 793.479 443.435 808.564 458.489M782.284 405.102C786.792 405.945 791.705 406.976 796.854 408.208M808.564 458.489C811.958 456.173 815.542 453.955 819.167 451.86M796.854 408.208C798.145 418.179 804.414 440.869 819.167 451.86M796.854 408.208C802.02 409.443 807.423 410.881 812.893 412.534M819.167 451.86C821.926 450.265 824.709 448.74 827.449 447.298M812.893 412.534C812.922 420.617 815.872 438.887 827.449 447.298M812.893 412.534C817.394 413.893 821.939 415.398 826.435 417.055M827.449 447.298C829.39 446.276 831.309 445.296 833.184 444.36M826.435 417.055C825.479 421.459 825.489 433.087 833.184 444.36M826.435 417.055C830.308 418.483 834.143 420.023 837.881 421.681M833.184 444.36C835.999 442.954 838.713 441.649 841.246 440.459M837.881 421.681C837.237 425.359 837.008 434.263 841.246 440.459M837.881 421.681C840.864 423.004 843.784 424.402 846.611 425.877M841.246 440.459C844.052 439.14 846.636 437.961 848.89 436.939M846.611 425.877C850.588 427.953 854.381 430.181 857.904 432.568C857.69 432.993 854.21 434.527 848.89 436.939M846.611 425.877C846.374 428.258 846.497 433.804 848.89 436.939" stroke="white" stroke-opacity="0.2" stroke-width="2"/>
<path d="M861.158 263.559L811.706 299.71L796.454 251.729L752.916 291.761L719.463 242.729L680.125 291.312L642.193 252.05L613.951 300.382L574.444 272.524L550.102 322.45L506.741 302.879L496.622 354.027L445.165 342.083L437.147 397.507L388.904 389.024L390.919 440.873L340.108 443.838L351.051 496.679L304.543 508.804L321.441 557.634L275.876 573.854L307.374 620.213L264.527 644.359L293.952 688.816L253.411 718.454L292.696 755.36L255.807 793.266L301.388 816.342L271.767 864.657L322.085 883.927L300.03 931.838L356.474 942.187L338.679 998.264L397.519 993.189L386.554 1054.87L443.543 1047.73L447.28 1098.66L498.98 1086.16L512.82 1136.88L557.827 1116.62L581.297 1165.09L625.874 1134.9L657.236 1183.41L691.143 1145.63L723.583 1187.2L756.598 1141.19L797.778 1181.15L822.944 1136.09L866.666 1162.24L883.589 1114.32L938.733 1140.66L942.167 1085.51L995.363 1095.15L999.192 1043.82L1049.22 1051L1048.01 996.51L1100.42 993.398L1091.79 940.917L1144.24 926.16L1118.01 877.658L1160.98 861.627L1135.75 816.835L1181.21 791.12L1143.19 749.869L1193.85 718.644L1147.15 683.745L1187.75 644.835L1136.88 616.397L1163.51 573.343L1112.51 550.809L1134.73 503.12L1081.05 492.805L1093.57 438.872L1039.68 436.226L1050.05 387.288L992.394 394.917L990.078 336.11L941.788 349.538L932.403 295.558L882.769 315.095L861.158 263.559Z" stroke="white" stroke-opacity="0.2" stroke-width="2"/>
<circle cx="835.865" cy="233.168" r="16.004" transform="rotate(53.831 835.865 233.168)" fill="black"/>
<circle cx="835.865" cy="233.168" r="15.004" transform="rotate(53.831 835.865 233.168)" stroke="white" stroke-opacity="0.2" stroke-width="2"/>
<circle cx="910.627" cy="257.817" r="16.004" transform="rotate(53.831 910.627 257.817)" fill="black"/>
<circle cx="910.627" cy="257.817" r="15.004" transform="rotate(53.831 910.627 257.817)" stroke="white" stroke-opacity="0.2" stroke-width="2"/>
<circle cx="978.479" cy="296.396" r="16.004" transform="rotate(53.831 978.479 296.396)" fill="black"/>
<circle cx="978.479" cy="296.396" r="15.004" transform="rotate(53.831 978.479 296.396)" stroke="white" stroke-opacity="0.2" stroke-width="2"/>
<circle cx="1040.54" cy="339.211" r="16.004" transform="rotate(53.831 1040.54 339.211)" fill="black"/>
<circle cx="1040.54" cy="339.211" r="15.004" transform="rotate(53.831 1040.54 339.211)" stroke="white" stroke-opacity="0.2" stroke-width="2"/>
<circle cx="1096.74" cy="391.775" r="16.004" transform="rotate(53.831 1096.74 391.775)" fill="black"/>
<circle cx="1096.74" cy="391.775" r="15.004" transform="rotate(53.831 1096.74 391.775)" stroke="white" stroke-opacity="0.2" stroke-width="2"/>
<circle cx="1145.3" cy="455.396" r="16.004" transform="rotate(53.831 1145.3 455.396)" fill="black"/>
<circle cx="1145.3" cy="455.396" r="15.004" transform="rotate(53.831 1145.3 455.396)" stroke="white" stroke-opacity="0.2" stroke-width="2"/>
<circle cx="1179.29" cy="528.996" r="16.004" transform="rotate(53.831 1179.29 528.996)" fill="black"/>
<circle cx="1179.29" cy="528.996" r="15.004" transform="rotate(53.831 1179.29 528.996)" stroke="white" stroke-opacity="0.2" stroke-width="2"/>
<circle cx="1200.93" cy="600.676" r="16.004" transform="rotate(53.831 1200.93 600.676)" fill="black"/>
<circle cx="1200.93" cy="600.676" r="15.004" transform="rotate(53.831 1200.93 600.676)" stroke="white" stroke-opacity="0.2" stroke-width="2"/>
<circle cx="1216.12" cy="675.699" r="16.004" transform="rotate(53.831 1216.12 675.699)" fill="black"/>
<circle cx="1216.12" cy="675.699" r="15.004" transform="rotate(53.831 1216.12 675.699)" stroke="white" stroke-opacity="0.2" stroke-width="2"/>
<circle cx="1217.25" cy="754.857" r="16.004" transform="rotate(53.831 1217.25 754.857)" fill="black"/>
<circle cx="1217.25" cy="754.857" r="15.004" transform="rotate(53.831 1217.25 754.857)" stroke="white" stroke-opacity="0.2" stroke-width="2"/>
<circle cx="1205.56" cy="835.184" r="16.004" transform="rotate(53.831 1205.56 835.184)" fill="black"/>
<circle cx="1205.56" cy="835.184" r="15.004" transform="rotate(53.831 1205.56 835.184)" stroke="white" stroke-opacity="0.2" stroke-width="2"/>
<circle cx="1180.67" cy="911.479" r="16.004" transform="rotate(53.831 1180.67 911.479)" fill="black"/>
<circle cx="1180.67" cy="911.479" r="15.004" transform="rotate(53.831 1180.67 911.479)" stroke="white" stroke-opacity="0.2" stroke-width="2"/>
<circle cx="1142.99" cy="978.685" r="16.004" transform="rotate(53.831 1142.99 978.685)" fill="black"/>
<circle cx="1142.99" cy="978.685" r="15.004" transform="rotate(53.831 1142.99 978.685)" stroke="white" stroke-opacity="0.2" stroke-width="2"/>
<circle cx="1097.59" cy="1044.69" r="16.004" transform="rotate(53.831 1097.59 1044.69)" fill="black"/>
<circle cx="1097.59" cy="1044.69" r="15.004" transform="rotate(53.831 1097.59 1044.69)" stroke="white" stroke-opacity="0.2" stroke-width="2"/>
<circle cx="1039.62" cy="1100.05" r="16.004" transform="rotate(53.831 1039.62 1100.05)" fill="black"/>
<circle cx="1039.62" cy="1100.05" r="15.004" transform="rotate(53.831 1039.62 1100.05)" stroke="white" stroke-opacity="0.2" stroke-width="2"/>
<circle cx="980.816" cy="1143.04" r="16.004" transform="rotate(53.831 980.816 1143.04)" fill="black"/>
<circle cx="980.816" cy="1143.04" r="15.004" transform="rotate(53.831 980.816 1143.04)" stroke="white" stroke-opacity="0.2" stroke-width="2"/>
<circle cx="907.543" cy="1177.47" r="16.004" transform="rotate(53.831 907.543 1177.47)" fill="black"/>
<circle cx="907.543" cy="1177.47" r="15.004" transform="rotate(53.831 907.543 1177.47)" stroke="white" stroke-opacity="0.2" stroke-width="2"/>
<circle cx="835.143" cy="1203.74" r="16.004" transform="rotate(53.831 835.143 1203.74)" fill="black"/>
<circle cx="835.143" cy="1203.74" r="15.004" transform="rotate(53.831 835.143 1203.74)" stroke="white" stroke-opacity="0.2" stroke-width="2"/>
<circle cx="757.631" cy="1214.6" r="16.004" transform="rotate(53.831 757.631 1214.6)" fill="black"/>
<circle cx="757.631" cy="1214.6" r="15.004" transform="rotate(53.831 757.631 1214.6)" stroke="white" stroke-opacity="0.2" stroke-width="2"/>
<circle cx="680.584" cy="1214.87" r="16.004" transform="rotate(53.831 680.584 1214.87)" fill="black"/>
<circle cx="680.584" cy="1214.87" r="15.004" transform="rotate(53.831 680.584 1214.87)" stroke="white" stroke-opacity="0.2" stroke-width="2"/>
<circle cx="599.695" cy="1204.28" r="16.004" transform="rotate(53.831 599.695 1204.28)" fill="black"/>
<circle cx="599.695" cy="1204.28" r="15.004" transform="rotate(53.831 599.695 1204.28)" stroke="white" stroke-opacity="0.2" stroke-width="2"/>
<circle cx="524.73" cy="1178.42" r="16.004" transform="rotate(53.831 524.73 1178.42)" fill="black"/>
<circle cx="524.73" cy="1178.42" r="15.004" transform="rotate(53.831 524.73 1178.42)" stroke="white" stroke-opacity="0.2" stroke-width="2"/>
<circle cx="456.039" cy="1145.23" r="16.004" transform="rotate(53.831 456.039 1145.23)" fill="black"/>
<circle cx="456.039" cy="1145.23" r="15.004" transform="rotate(53.831 456.039 1145.23)" stroke="white" stroke-opacity="0.2" stroke-width="2"/>
<circle cx="393.443" cy="1100.76" r="16.004" transform="rotate(53.831 393.443 1100.76)" fill="black"/>
<circle cx="393.443" cy="1100.76" r="15.004" transform="rotate(53.831 393.443 1100.76)" stroke="white" stroke-opacity="0.2" stroke-width="2"/>
<circle cx="338.285" cy="1044.01" r="16.004" transform="rotate(53.831 338.285 1044.01)" fill="black"/>
<circle cx="338.285" cy="1044.01" r="15.004" transform="rotate(53.831 338.285 1044.01)" stroke="white" stroke-opacity="0.2" stroke-width="2"/>
<circle cx="294.709" cy="978.792" r="16.004" transform="rotate(53.831 294.709 978.792)" fill="black"/>
<circle cx="294.709" cy="978.792" r="15.004" transform="rotate(53.831 294.709 978.792)" stroke="white" stroke-opacity="0.2" stroke-width="2"/>
<circle cx="255.676" cy="912.307" r="16.004" transform="rotate(53.831 255.676 912.307)" fill="black"/>
<circle cx="255.676" cy="912.307" r="15.004" transform="rotate(53.831 255.676 912.307)" stroke="white" stroke-opacity="0.2" stroke-width="2"/>
<circle cx="232.592" cy="832.109" r="16.004" transform="rotate(53.831 232.592 832.109)" fill="black"/>
<circle cx="232.592" cy="832.109" r="15.004" transform="rotate(53.831 232.592 832.109)" stroke="white" stroke-opacity="0.2" stroke-width="2"/>
<circle cx="224.869" cy="759.828" r="16.004" transform="rotate(53.831 224.869 759.828)" fill="black"/>
<circle cx="224.869" cy="759.828" r="15.004" transform="rotate(53.831 224.869 759.828)" stroke="white" stroke-opacity="0.2" stroke-width="2"/>
<circle cx="222.848" cy="681.318" r="16.004" transform="rotate(53.831 222.848 681.318)" fill="black"/>
<circle cx="222.848" cy="681.318" r="15.004" transform="rotate(53.831 222.848 681.318)" stroke="white" stroke-opacity="0.2" stroke-width="2"/>
<circle cx="232.756" cy="602.296" r="16.004" transform="rotate(53.831 232.756 602.296)" fill="black"/>
<circle cx="232.756" cy="602.296" r="15.004" transform="rotate(53.831 232.756 602.296)" stroke="white" stroke-opacity="0.2" stroke-width="2"/>
<circle cx="260.246" cy="529.562" r="16.004" transform="rotate(53.831 260.246 529.562)" fill="black"/>
<circle cx="260.246" cy="529.562" r="15.004" transform="rotate(53.831 260.246 529.562)" stroke="white" stroke-opacity="0.2" stroke-width="2"/>
<circle cx="290.672" cy="460.839" r="16.004" transform="rotate(53.831 290.672 460.839)" fill="black"/>
<circle cx="290.672" cy="460.839" r="15.004" transform="rotate(53.831 290.672 460.839)" stroke="white" stroke-opacity="0.2" stroke-width="2"/>
<circle cx="338.504" cy="394.419" r="16.004" transform="rotate(53.831 338.504 394.419)" fill="black"/>
<circle cx="338.504" cy="394.419" r="15.004" transform="rotate(53.831 338.504 394.419)" stroke="white" stroke-opacity="0.2" stroke-width="2"/>
<circle cx="396.145" cy="338.613" r="16.004" transform="rotate(53.831 396.145 338.613)" fill="black"/>
<circle cx="396.145" cy="338.613" r="15.004" transform="rotate(53.831 396.145 338.613)" stroke="white" stroke-opacity="0.2" stroke-width="2"/>
<circle cx="462.904" cy="295.276" r="16.004" transform="rotate(53.831 462.904 295.276)" fill="black"/>
<circle cx="462.904" cy="295.276" r="15.004" transform="rotate(53.831 462.904 295.276)" stroke="white" stroke-opacity="0.2" stroke-width="2"/>
<circle cx="527.846" cy="256.002" r="16.004" transform="rotate(53.831 527.846 256.002)" fill="black"/>
<circle cx="527.846" cy="256.002" r="15.004" transform="rotate(53.831 527.846 256.002)" stroke="white" stroke-opacity="0.2" stroke-width="2"/>
<circle cx="602.441" cy="230.865" r="16.004" transform="rotate(53.831 602.441 230.865)" fill="black"/>
<circle cx="602.441" cy="230.865" r="15.004" transform="rotate(53.831 602.441 230.865)" stroke="white" stroke-opacity="0.2" stroke-width="2"/>
<circle cx="679.916" cy="222.76" r="16.004" transform="rotate(53.831 679.916 222.76)" fill="black"/>
<circle cx="679.916" cy="222.76" r="15.004" transform="rotate(53.831 679.916 222.76)" stroke="white" stroke-opacity="0.2" stroke-width="2"/>
<circle cx="756.639" cy="222.043" r="16.004" transform="rotate(53.831 756.639 222.043)" fill="black"/>
<circle cx="756.639" cy="222.043" r="15.004" transform="rotate(53.831 756.639 222.043)" stroke="white" stroke-opacity="0.2" stroke-width="2"/>
</svg>
